<svg width="65" height="65" viewBox="0 0 65 65" fill="none" xmlns="http://www.w3.org/2000/svg">
<path d="M32.2395 64.4789C50.0448 64.4789 64.4789 50.0448 64.4789 32.2395C64.4789 14.4341 50.0448 0 32.2395 0C14.4341 0 0 14.4341 0 32.2395C0 50.0448 14.4341 64.4789 32.2395 64.4789Z" fill="#643B11"/>
<path d="M32.2396 59.4758C48.6627 59.4758 61.9762 46.1622 61.9762 29.7391C61.9762 13.316 48.6627 0.00244141 32.2396 0.00244141C15.8165 0.00244141 2.50293 13.316 2.50293 29.7391C2.50293 46.1622 15.8165 59.4758 32.2396 59.4758Z" fill="url(#paint0_linear_745_530)"/>
<path d="M32.24 53.4107C45.3136 53.4107 55.9117 42.8126 55.9117 29.7391C55.9117 16.6656 45.3136 6.06738 32.24 6.06738C19.1665 6.06738 8.56836 16.6656 8.56836 29.7391C8.56836 42.8126 19.1665 53.4107 32.24 53.4107Z" fill="url(#paint1_linear_745_530)"/>
<path d="M32.2401 54.1706C18.7675 54.1706 7.80859 43.209 7.80859 29.7391C7.80859 16.2693 18.7702 5.30762 32.2401 5.30762C45.71 5.30762 56.6716 16.2693 56.6716 29.7391C56.6716 43.209 45.7127 54.1706 32.2401 54.1706ZM32.2401 6.82729C19.6063 6.82729 9.33097 17.1053 9.33097 29.7364C9.33097 42.3702 19.609 52.6455 32.2401 52.6455C44.8739 52.6455 55.1492 42.3675 55.1492 29.7364C55.1492 17.1053 44.8739 6.82729 32.2401 6.82729Z" fill="#643B11"/>
<mask id="path-5-outside-1_745_530" maskUnits="userSpaceOnUse" x="17.9639" y="16.207" width="29" height="28" fill="black">
<rect fill="white" x="17.9639" y="16.207" width="29" height="28"/>
<path d="M41.7466 37.1785C41.8811 37.3068 41.9879 37.4592 42.0607 37.627C42.1335 37.7948 42.171 37.9747 42.171 38.1564C42.171 38.3381 42.1335 38.518 42.0607 38.6858C41.9879 38.8536 41.8811 39.006 41.7466 39.1343C41.4744 39.3914 41.1072 39.5356 40.7246 39.5356C40.342 39.5356 39.9749 39.3914 39.7026 39.1343L32.0674 31.8289L24.4323 39.1343C24.16 39.3914 23.7928 39.5356 23.4103 39.5356C23.0277 39.5356 22.6605 39.3914 22.3882 39.1343C22.2537 39.006 22.147 38.8536 22.0742 38.6858C22.0014 38.518 21.9639 38.3381 21.9639 38.1564C21.9639 37.9747 22.0014 37.7948 22.0742 37.627C22.147 37.4592 22.2537 37.3068 22.3882 37.1785L30.0234 29.8732L22.3882 22.5678C22.1172 22.3085 21.9649 21.9567 21.9649 21.59C21.9649 21.4084 22.0023 21.2285 22.0749 21.0607C22.1476 20.893 22.254 20.7405 22.3882 20.6121C22.5225 20.4837 22.6818 20.3818 22.8572 20.3123C23.0325 20.2428 23.2205 20.207 23.4103 20.207C23.7936 20.207 24.1612 20.3527 24.4323 20.6121L32.0674 27.9174L39.7026 20.6121C39.9736 20.3527 40.3413 20.207 40.7246 20.207C41.1079 20.207 41.4756 20.3527 41.7466 20.6121C42.0177 20.8714 42.17 21.2232 42.17 21.59C42.17 21.9567 42.0177 22.3085 41.7466 22.5678L34.1115 29.8732L41.7466 37.1785Z"/>
</mask>
<path d="M41.7466 37.1785C41.8811 37.3068 41.9879 37.4592 42.0607 37.627C42.1335 37.7948 42.171 37.9747 42.171 38.1564C42.171 38.3381 42.1335 38.518 42.0607 38.6858C41.9879 38.8536 41.8811 39.006 41.7466 39.1343C41.4744 39.3914 41.1072 39.5356 40.7246 39.5356C40.342 39.5356 39.9749 39.3914 39.7026 39.1343L32.0674 31.8289L24.4323 39.1343C24.16 39.3914 23.7928 39.5356 23.4103 39.5356C23.0277 39.5356 22.6605 39.3914 22.3882 39.1343C22.2537 39.006 22.147 38.8536 22.0742 38.6858C22.0014 38.518 21.9639 38.3381 21.9639 38.1564C21.9639 37.9747 22.0014 37.7948 22.0742 37.627C22.147 37.4592 22.2537 37.3068 22.3882 37.1785L30.0234 29.8732L22.3882 22.5678C22.1172 22.3085 21.9649 21.9567 21.9649 21.59C21.9649 21.4084 22.0023 21.2285 22.0749 21.0607C22.1476 20.893 22.254 20.7405 22.3882 20.6121C22.5225 20.4837 22.6818 20.3818 22.8572 20.3123C23.0325 20.2428 23.2205 20.207 23.4103 20.207C23.7936 20.207 24.1612 20.3527 24.4323 20.6121L32.0674 27.9174L39.7026 20.6121C39.9736 20.3527 40.3413 20.207 40.7246 20.207C41.1079 20.207 41.4756 20.3527 41.7466 20.6121C42.0177 20.8714 42.17 21.2232 42.17 21.59C42.17 21.9567 42.0177 22.3085 41.7466 22.5678L34.1115 29.8732L41.7466 37.1785Z" fill="#321D07"/>
<path d="M41.7466 37.1785L38.9813 40.0687L38.9863 40.0735L41.7466 37.1785ZM42.171 38.1564H46.171H42.171ZM41.7466 39.1343L44.4931 42.0424L44.5 42.0358L44.5069 42.0292L41.7466 39.1343ZM40.7246 39.5356V35.5356V39.5356ZM39.7026 39.1343L36.9373 42.0244L36.9467 42.0334L36.9561 42.0424L39.7026 39.1343ZM32.0674 31.8289L34.8328 28.9388L32.0674 26.2929L29.3021 28.9388L32.0674 31.8289ZM24.4323 39.1343L27.1787 42.0424L27.1882 42.0334L27.1976 42.0244L24.4323 39.1343ZM23.4103 39.5356V35.5356V39.5356ZM22.3882 39.1343L19.6279 42.0292L19.6349 42.0358L19.6418 42.0424L22.3882 39.1343ZM21.9639 38.1564H25.9639H21.9639ZM22.3882 37.1785L25.1486 40.0735L25.1536 40.0687L22.3882 37.1785ZM30.0234 29.8732L32.7887 32.7633L35.8093 29.8732L32.7887 26.983L30.0234 29.8732ZM22.3882 22.5678L19.6229 25.458L22.3882 22.5678ZM21.9649 21.59H25.9649H21.9649ZM24.4323 20.6121L21.667 23.5022L21.667 23.5022L24.4323 20.6121ZM32.0674 27.9174L29.3021 30.8076L32.0674 33.4535L34.8328 30.8076L32.0674 27.9174ZM39.7026 20.6121L42.4679 23.5022L42.4679 23.5022L39.7026 20.6121ZM41.7466 22.5678L44.5119 25.458L41.7466 22.5678ZM34.1115 29.8732L31.3462 26.983L28.3255 29.8732L31.3462 32.7633L34.1115 29.8732ZM38.9863 40.0735C38.7402 39.8388 38.5349 39.5502 38.3913 39.2194L45.7301 36.0346C45.4409 35.3682 45.0221 34.7748 44.5069 34.2836L38.9863 40.0735ZM38.3913 39.2194C38.2476 38.8882 38.171 38.5264 38.171 38.1564H46.171C46.171 37.4231 46.0195 36.7014 45.7301 36.0346L38.3913 39.2194ZM38.171 38.1564C38.171 37.7864 38.2476 37.4247 38.3913 37.0934L45.7301 40.2782C46.0195 39.6114 46.171 38.8898 46.171 38.1564H38.171ZM38.3913 37.0934C38.5349 36.7626 38.7402 36.474 38.9863 36.2393L44.5069 42.0292C45.0221 41.538 45.4409 40.9446 45.7301 40.2782L38.3913 37.0934ZM39.0002 36.2262C39.488 35.7655 40.1103 35.5356 40.7246 35.5356V43.5356C42.104 43.5356 43.4607 43.0174 44.4931 42.0424L39.0002 36.2262ZM40.7246 35.5356C41.3389 35.5356 41.9612 35.7655 42.449 36.2262L36.9561 42.0424C37.9885 43.0174 39.3452 43.5356 40.7246 43.5356V35.5356ZM42.4679 36.2441L34.8328 28.9388L29.3021 34.7191L36.9373 42.0244L42.4679 36.2441ZM29.3021 28.9388L21.667 36.2441L27.1976 42.0244L34.8328 34.7191L29.3021 28.9388ZM21.6859 36.2262C22.1737 35.7655 22.796 35.5356 23.4103 35.5356V43.5356C24.7897 43.5356 26.1464 43.0174 27.1787 42.0424L21.6859 36.2262ZM23.4103 35.5356C24.0246 35.5356 24.6469 35.7655 25.1347 36.2262L19.6418 42.0424C20.6742 43.0174 22.0308 43.5356 23.4103 43.5356V35.5356ZM25.1485 36.2393C25.3947 36.4741 25.6 36.7626 25.7435 37.0934L18.4048 40.2782C18.694 40.9446 19.1128 41.538 19.6279 42.0292L25.1485 36.2393ZM25.7435 37.0934C25.8873 37.4246 25.9639 37.7864 25.9639 38.1564H17.9639C17.9639 38.8898 18.1154 39.6114 18.4048 40.2782L25.7435 37.0934ZM25.9639 38.1564C25.9639 38.5264 25.8873 38.8882 25.7435 39.2194L18.4048 36.0346C18.1154 36.7014 17.9639 37.423 17.9639 38.1564H25.9639ZM25.7435 39.2194C25.6 39.5502 25.3947 39.8388 25.1485 40.0735L19.6279 34.2836C19.1128 34.7748 18.694 35.3682 18.4048 36.0346L25.7435 39.2194ZM25.1536 40.0687L32.7887 32.7633L27.2581 26.983L19.6229 34.2884L25.1536 40.0687ZM32.7887 26.983L25.1536 19.6777L19.6229 25.458L27.2581 32.7633L32.7887 26.983ZM25.1536 19.6777C25.6508 20.1535 25.9649 20.8375 25.9649 21.59H17.9649C17.9649 23.076 18.5835 24.4635 19.6229 25.458L25.1536 19.6777ZM25.9649 21.59C25.9649 21.9588 25.8887 22.3195 25.7457 22.6499L18.4041 19.4716C18.1158 20.1376 17.9649 20.8579 17.9649 21.59H25.9649ZM25.7457 22.6499C25.6029 22.9798 25.3986 23.2678 25.1536 23.5022L19.6229 17.7219C19.1094 18.2132 18.6922 18.8061 18.4041 19.4716L25.7457 22.6499ZM25.1536 23.5022C24.9089 23.7364 24.6279 23.9132 24.3309 24.0309L21.3834 16.5937C20.7357 16.8504 20.136 17.231 19.6229 17.7219L25.1536 23.5022ZM24.3309 24.0309C24.0342 24.1485 23.7218 24.207 23.4103 24.207V16.207C22.7191 16.207 22.0309 16.3371 21.3834 16.5937L24.3309 24.0309ZM23.4103 24.207C22.7883 24.207 22.1583 23.9723 21.667 23.5022L27.1976 17.7219C26.1642 16.7332 24.7989 16.207 23.4103 16.207V24.207ZM21.667 23.5022L29.3021 30.8076L34.8328 25.0273L27.1976 17.7219L21.667 23.5022ZM34.8328 30.8076L42.4679 23.5022L36.9373 17.7219L29.3021 25.0273L34.8328 30.8076ZM42.4679 23.5022C41.9766 23.9723 41.3465 24.207 40.7246 24.207V16.207C39.336 16.207 37.9706 16.7332 36.9373 17.7219L42.4679 23.5022ZM40.7246 24.207C40.1027 24.207 39.4726 23.9723 38.9813 23.5022L44.5119 17.7219C43.4786 16.7332 42.1132 16.207 40.7246 16.207V24.207ZM38.9813 23.5022C38.484 23.0264 38.17 22.3425 38.17 21.59H46.17C46.17 20.1039 45.5513 18.7164 44.5119 17.7219L38.9813 23.5022ZM38.17 21.59C38.17 20.8375 38.484 20.1535 38.9813 19.6777L44.5119 25.458C45.5513 24.4635 46.17 23.076 46.17 21.59H38.17ZM38.9813 19.6777L31.3462 26.983L36.8768 32.7633L44.5119 25.458L38.9813 19.6777ZM31.3462 32.7633L38.9813 40.0687L44.5119 34.2884L36.8768 26.983L31.3462 32.7633Z" fill="#321D07" mask="url(#path-5-outside-1_745_530)"/>
<defs>
<linearGradient id="paint0_linear_745_530" x1="0.0969536" y1="-37.6731" x2="54.4692" y2="76.3575" gradientUnits="userSpaceOnUse">
<stop offset="1.4e-07" stop-color="#E6CAA5"/>
<stop offset="1" stop-color="#A16A2C"/>
</linearGradient>
<linearGradient id="paint1_linear_745_530" x1="53.557" y1="71.7677" x2="9.60589" y2="-14.8905" gradientUnits="userSpaceOnUse">
<stop offset="1.4e-07" stop-color="#BC8A47"/>
<stop offset="1" stop-color="#9E6829"/>
</linearGradient>
</defs>
</svg>
