<svg width="285" height="89" viewBox="0 0 285 89" fill="none" xmlns="http://www.w3.org/2000/svg">
<path d="M266.217 84.795C199.865 87.8199 7.76463 93.1035 2.59327 77.4474C-4.52975 55.8868 5.67758 24.9214 2.03847 7.9576C1.37141 4.85346 5.30772 2.08945 10.4791 2.00029C57.2757 1.20444 234.162 -1.56287 277.141 1.19783C281.933 1.50494 285.427 4.08403 284.958 6.98343C282.834 20.1199 277.432 56.9271 280.44 74.4556C281.345 79.7194 274.939 84.3987 266.217 84.795Z" fill="#643B11"/>
<path d="M258.817 82.1393C196.434 84.8868 15.8289 89.6883 10.9646 75.4654C4.2676 55.8763 13.864 27.7409 10.4429 12.3292C9.81542 9.50905 13.5173 6.99931 18.3782 6.91675C62.3745 6.19356 228.68 3.68052 269.087 6.18695C273.595 6.46764 276.877 8.80896 276.435 11.4442C274.44 23.3786 269.361 56.8208 272.188 72.7477C273.037 77.5294 267.017 81.7794 258.817 82.1393Z" fill="#6E3D12"/>
<path d="M245.116 77.7846C190.08 80.2084 30.7489 84.4419 26.4592 71.8966C20.5514 54.6158 29.0185 29.7959 26.0002 16.1971C25.4487 13.7072 28.7114 11.4946 33.001 11.422C71.816 10.7847 218.533 8.56552 254.178 10.778C258.154 11.0257 261.05 13.0896 260.66 15.4177C258.9 25.9454 254.419 55.4513 256.912 69.4991C257.662 73.7129 252.352 77.4642 245.116 77.7846Z" fill="#643B11"/>
<path d="M240.186 78.0151C187.795 80.2309 36.1219 84.0979 32.0403 72.6357C26.4165 56.8508 34.4773 34.1807 31.6043 21.7608C31.0793 19.4889 34.1834 17.4646 38.2683 17.4018C75.2175 16.8206 214.881 14.793 248.815 16.814C252.599 17.0386 255.357 18.9275 254.987 21.0508C253.313 30.6671 249.046 57.6136 251.42 70.4463C252.127 74.3001 247.071 77.7245 240.186 78.0151Z" fill="url(#paint0_linear_605_549)"/>
<path d="M29.4805 66.5796C28.5228 67.3787 81.8447 72.6921 102.695 70.9914C87.9473 75.3802 28.1992 69.7498 28.1992 69.7498L29.4805 66.5796Z" fill="#965E2E"/>
<path d="M29.8834 26.2256C29.8834 26.2256 39.4666 25.6874 61.4498 24.9939C42.3891 22.9432 28.1992 23.0026 28.1992 23.0026L29.8834 26.2256Z" fill="#965E2E"/>
<path d="M256.663 21.021C256.663 21.021 247.12 20.9483 225.192 20.9483C244.346 20.0897 258.519 19.9609 258.519 19.9609L256.663 21.021Z" fill="#965E2E"/>
<path d="M277.095 8.24802C277.095 8.24802 267.551 8.17537 245.624 8.17537C264.777 7.31677 278.951 7.18799 278.951 7.18799L277.095 8.24802Z" fill="#965E2E"/>
<path d="M255.951 37.0007C255.951 37.0007 250.327 36.8653 237.412 36.7233C248.676 36.0298 257.024 36.0034 257.024 36.0034L255.951 37.0007Z" fill="#965E2E"/>
<path d="M252.804 67.2212C252.804 67.2212 242.907 66.7787 220.178 66.1975C239.962 64.5562 254.647 64.619 254.647 64.619L252.804 67.2212Z" fill="#965E2E"/>
<path d="M114.576 20.8657C114.576 20.8657 156.063 18.9735 189.052 20.8657C173.334 18.3692 121.154 19.2938 114.576 20.8657Z" fill="#965E2E"/>
<path d="M152.827 72.1212C152.827 72.1212 184.476 74.0795 209.425 71.1768C197.639 74.6574 157.929 74.1026 152.827 72.1212Z" fill="#965E2E"/>
<path d="M79.5723 79.2962C79.5723 79.2962 163.004 80.7492 229.294 78.5103C197.734 81.1752 92.8243 80.7987 79.5723 79.2962Z" fill="#965E2E"/>
<path d="M44.083 59.6616C44.083 59.6616 65.703 64.5127 84.2718 63.9447C74.7744 66.2992 46.9956 62.0888 44.083 59.6616Z" fill="#965E2E"/>
<defs>
<linearGradient id="paint0_linear_605_549" x1="142.503" y1="-136.194" x2="142.503" y2="201.189" gradientUnits="userSpaceOnUse">
<stop offset="0.251396" stop-color="#E0A85D"/>
<stop offset="0.650328" stop-color="#A06A2A"/>
</linearGradient>
</defs>
</svg>
