<svg width="185" height="72" viewBox="0 0 185 72" fill="none" xmlns="http://www.w3.org/2000/svg">
<g filter="url(#filter0_d_766_128)">
<path d="M171.067 65.4141C128.929 67.7464 6.93068 71.8215 3.64661 59.7472C-0.877419 43.1152 5.60772 19.2247 3.29901 6.13719C2.87358 3.74224 5.37425 1.60889 8.65832 1.54257C38.3758 0.930932 150.714 -1.2061 178.009 0.923563C181.054 1.15937 183.269 3.14903 182.974 5.38923C181.625 15.5217 178.195 43.9185 180.105 57.4407C180.675 61.5011 176.613 65.1082 171.072 65.4177L171.067 65.4141Z" fill="#643B11"/>
<path d="M166.367 63.3653C126.751 65.484 12.0518 69.1869 8.96492 58.2144C4.71068 43.1004 10.8067 21.3984 8.63288 9.50474C8.2334 7.32718 10.5836 5.39279 13.6705 5.33016C41.6085 4.77379 147.228 2.83204 172.888 4.76642C175.752 4.98381 177.838 6.78924 177.558 8.8231C176.292 18.0308 173.065 43.8299 174.86 56.1179C175.399 59.8061 171.576 63.0853 166.367 63.3653Z" fill="#6E3D12"/>
<path d="M157.666 60.0051C122.714 61.8769 21.5249 65.1414 18.8012 55.4621C15.0502 42.1314 20.4251 22.9829 18.5107 12.4893C18.1579 10.5696 20.2331 8.86001 22.9569 8.80474C47.6056 8.3147 140.784 6.60138 163.42 8.30733C165.946 8.49892 167.783 10.0906 167.539 11.885C166.424 20.0057 163.575 42.7688 165.158 53.6087C165.635 56.8622 162.258 59.7546 157.666 60.0014V60.0051Z" fill="#643B11"/>
<path d="M154.532 60.1819C121.261 61.8916 24.9385 64.8723 22.3444 56.0331C18.775 43.8557 23.8905 26.3652 22.0642 16.7854C21.7322 15.0316 23.7037 13.473 26.2977 13.4214C49.7636 12.9719 138.459 11.4097 160.011 12.9682C162.413 13.1414 164.167 14.5968 163.928 16.2364C162.864 23.6534 160.156 44.4453 161.661 54.3456C162.112 57.319 158.901 59.9609 154.527 60.1856L154.532 60.1819Z" fill="url(#paint0_linear_766_128)"/>
<path d="M20.7208 51.3613C20.1138 51.9766 53.9766 56.0775 67.2166 54.7622C57.8521 58.1483 19.9062 53.8042 19.9062 53.8042L20.7208 51.3613Z" fill="#965E2E"/>
<path d="M20.9799 20.2304C20.9799 20.2304 27.0655 19.8177 41.0267 19.2798C28.9229 17.6954 19.9111 17.7433 19.9111 17.7433L20.9799 20.2304Z" fill="#965E2E"/>
<path d="M164.997 16.2145C164.997 16.2145 158.938 16.1555 145.013 16.1592C157.179 15.496 166.18 15.3965 166.18 15.3965L165.002 16.2145H164.997Z" fill="#965E2E"/>
<path d="M177.972 6.35801C177.972 6.35801 171.912 6.29905 157.987 6.30274C170.153 5.63952 179.155 5.54004 179.155 5.54004L177.977 6.35801H177.972Z" fill="#965E2E"/>
<path d="M164.545 28.5391C164.545 28.5391 160.976 28.4359 152.773 28.3254C159.928 27.7911 165.23 27.769 165.23 27.769L164.55 28.5391H164.545Z" fill="#965E2E"/>
<path d="M162.548 51.8549C162.548 51.8549 156.26 51.5123 141.827 51.0665C154.393 49.8027 163.716 49.8469 163.716 49.8469L162.548 51.8549Z" fill="#965E2E"/>
<path d="M74.7656 16.093C74.7656 16.093 101.111 14.6339 122.066 16.093C112.084 14.166 78.9472 14.8808 74.7656 16.093Z" fill="#965E2E"/>
<path d="M99.0557 55.635C99.0557 55.635 119.154 57.1457 134.999 54.9092C127.512 57.5952 102.293 57.1641 99.0557 55.635Z" fill="#965E2E"/>
<path d="M52.5342 61.1729C52.5342 61.1729 105.52 62.293 147.617 60.5649C127.575 62.6209 60.9493 62.3298 52.5342 61.1729Z" fill="#965E2E"/>
<path d="M29.9971 46.0259C29.9971 46.0259 43.7248 49.7694 55.5174 49.3309C49.4836 51.1437 31.844 47.8976 29.9971 46.0259Z" fill="#965E2E"/>
</g>
<defs>
<filter id="filter0_d_766_128" x="0" y="0" width="185" height="72" filterUnits="userSpaceOnUse" color-interpolation-filters="sRGB">
<feFlood flood-opacity="0" result="BackgroundImageFix"/>
<feColorMatrix in="SourceAlpha" type="matrix" values="0 0 0 0 0 0 0 0 0 0 0 0 0 0 0 0 0 0 127 0" result="hardAlpha"/>
<feOffset dy="2"/>
<feGaussianBlur stdDeviation="1"/>
<feComposite in2="hardAlpha" operator="out"/>
<feColorMatrix type="matrix" values="0 0 0 0 0 0 0 0 0 0 0 0 0 0 0 0 0 0 0.25 0"/>
<feBlend mode="normal" in2="BackgroundImageFix" result="effect1_dropShadow_766_128"/>
<feBlend mode="normal" in="SourceGraphic" in2="effect1_dropShadow_766_128" result="shape"/>
</filter>
<linearGradient id="paint0_linear_766_128" x1="92.498" y1="-87.4281" x2="92.498" y2="87.348" gradientUnits="userSpaceOnUse">
<stop stop-color="#EFE4BC"/>
<stop offset="1" stop-color="#A5600F"/>
</linearGradient>
</defs>
</svg>
