<svg width="284" height="88" viewBox="0 0 284 88" fill="none" xmlns="http://www.w3.org/2000/svg">
<path d="M267.84 14.5611L181.974 11.3267L32.4735 12.4358L19.5119 12.4954L10.415 12.5326L2.98424 17.2111L0 24.2792V47.0691V47.9326L10.41 52.7451L0 53.8468L4.45646 65.7088L2.96932 76.3463L7.42578 84.6576L20.3177 85.495L58.9785 87.9999L187.166 85.8858L221.644 86.4032L267.92 86.9391L275.062 87.021L282.503 82.3499L283.985 70.5326L278.042 69.3043L283.985 66.9892L284 17.3116L278.046 14.8961L267.84 14.5611Z" fill="#643B11"/>
<path d="M284 5.99593L283.985 54.739V55.7644L278.042 58.0837L283.985 59.3142L282.503 71.1532L282.463 71.1756L279.384 73.1108L275.062 75.8329L267.92 75.7508L221.644 75.2139L187.166 74.6956L58.9785 76.8136L20.3177 74.3041L7.42578 73.4651L2.96932 65.1386L4.45646 54.4817L0 42.598L10.41 41.4942L0 36.6729V35.8078V12.9763L2.98424 5.89525L10.415 1.20814L19.5119 1.17085L32.4735 1.11119L181.974 0L267.84 3.24034L278.046 3.57593L284 5.99593Z" fill="#A56F2E"/>
<path d="M283.985 55.7645L278.042 58.0838L283.985 59.3143L282.503 71.1533L275.062 75.8329L267.92 75.7509L187.166 74.6956L58.9785 76.8136L20.3177 74.3041L7.42578 73.4651L2.96932 65.1387L4.45646 54.4817L0 42.598L10.41 41.4943L0 36.6729V12.9763L2.98424 5.8953L10.415 1.20819L19.5119 1.1709L11.9817 6.63361L8.19173 11.6712L21.3373 13.655L8.47524 14.4082L9.33072 22.6153L7.11741 26.1838L12.0464 32.0865L13.5435 38.1943L44.4751 43.8099L9.04224 44.6489L9.75349 51.4875L13.6827 56.0739L11.5838 62.1892L57.7699 65.1909L185.958 63.0692L269.71 64.1617L271.72 62.659L229.632 56.1821L266.721 56.0739L267.796 49.817L272.158 41.9939L262.439 31.5533L268.373 22.2611L268.517 15.3702L237.292 13.7594L269.019 11.9024L270.452 9.0648L267.84 3.24039L278.046 3.57598L284 5.99598L283.985 55.7645Z" fill="#6E3D12"/>
</svg>
