<svg width="1180" height="496" viewBox="0 0 1180 496" fill="none" xmlns="http://www.w3.org/2000/svg">
<path d="M1145.8 412.066L1162.09 406.552L1159.8 385.124L1153.11 385.13L1157.07 356.143L1145.8 347.585L1159.71 336.794L1167.94 276.471L1157.71 264.837L1171.11 253.263L1180 188.165L1170.78 188.121L1170.7 162.166L1164.4 159.316L1170.68 154.375L1170.58 116.058L1162.27 103.966L1170.52 95.4912L1170.39 48.0599L1154.14 33.2107L1170.33 23.5061L1170.28 7.78023L13.8872 0L13.9159 12.9138L30.3141 23.9528L14.0118 46.7476L14.1747 106.74L30.5729 119.824L14.2609 137.453L14.3472 168.954L15.3439 170.057L25.7617 174.043L14.3855 182.601V182.678L0 182.612L6.40209 228.505L23.9887 240.867L10.2644 256.218L18.9283 318.366L40.8469 329.891L26.5668 373.137L28.3111 385.648L14.9414 386.161L10.7916 415.324L25.9726 412.639L6.37334 446.462L0.824222 485.473L1171.62 496L1166.02 443.484L1145.8 412.066Z" fill="#A25617"/>
<path fill-rule="evenodd" clip-rule="evenodd" d="M66.0628 453.337L60.6096 453.497L55.9135 466.29L1121.03 473.734L1117.83 461.851L1095.97 460.866L1096.85 455.13H1116.03L1107.59 423.738L1101.86 422.178L1102.8 416.011L1105.38 415.534L1100.44 397.168L1100.39 396.82L1110.06 396.941L1110.25 395.264L1099.73 392.409L1098.72 385.628L1111.68 383.117L1114.08 362.682L1095.04 360.434V345.255L1116.32 343.554L1121.24 301.753L1095.04 295.683V290.277L1122.59 290.25L1127.44 248.956L1121.93 248.74L1107.91 236.826L1128.9 236.533L1131.01 218.629L1104.21 216.102L1103.7 212.91L1131.93 210.766L1132.72 204.017L1102.01 202.533L1101.03 196.5L1101.39 196.236L1124.1 196.215L1124.05 179.96L1123.38 179.96L1124 179.5V176.952L1124.04 176.949L1124.03 172.174L1124 172.161V164.975L1124.01 164.967L1123.96 148.061L1124.1 143.143L1123.94 142.955L1123.91 129.551L1116.23 118.368L1123.86 110.539L1123.83 100.283L1112.07 99.5107L1112.28 98.6774L1123.83 98.6669L1123.77 79.5885L1117.16 79.333L1117.94 76.2465L1123.76 76.2416L1123.74 66.6913L1109.24 53.4395L1111.79 51.1194L1116.18 48.4841L1114.7 48.4677L1123.52 40.4366L1123.67 40.4337L1123.66 40.3051L1124 40L1123.66 39.9187L1123.64 29.4554L54.6292 22.2651L54.658 34.2029L69.8198 44.4038L66.5517 48.9804L78.3018 49.1503L70.1577 57.8354L60.1017 57.9847L54.7442 65.4782L54.7538 67.6728L60.9381 67.6675L55.3571 73.6191L54.773 73.65L54.8688 109.722L55.1226 109.722L60.9988 120.37L54.8976 120.375V120.938L65.1649 129.126L55 149V149.302L54.9743 149.329L54.9838 152.853L55 152.858V178.5L59.8432 187.49L55.0893 191.065L55.1084 197.185L58.6833 197.18L47.2783 197.946L47.4412 199.297L67.3462 201.418L71.8725 209.82L48.8501 210.904L52.5112 241.22L61.1267 246.631L55.0747 259.343L54.6963 259.367L57.5332 282.801L57.7762 283.024L61.2384 312.36L61.1368 312.654L62.076 320.434L69.7767 320.427L75.4713 324.5L76.0161 325.081L62.8619 326.946L66.3121 355.492L104.483 355.458L105.929 357L98.7884 362.363L67.2322 363.178L69.7623 384.098L84.4587 384.28V388.961L84.3108 388.967L75.6852 412.468L92.9077 419.178L72.3117 421.632L62.1143 449.423H70.1982L66.0628 453.337Z" fill="#CE7A22"/>
</svg>
