<svg width="41" height="35" viewBox="0 0 41 35" fill="none" xmlns="http://www.w3.org/2000/svg">
<path d="M36.993 33.5571L36.9951 33.5586C37.7607 34.1264 38.8404 33.9639 39.4051 33.196L39.4052 33.1958C39.9679 32.4297 39.8058 31.351 39.0437 30.7834C39.0433 30.7831 39.0429 30.7828 39.0424 30.7825L30.6948 24.5272C32.3844 21.5484 33.1281 17.999 32.5783 14.3441C31.2775 5.69749 23.24 -0.26496 14.6227 1.03144C6.00545 2.32783 0.0780114 10.3912 1.37882 19.0378C2.67963 27.6844 10.7171 33.6468 19.3344 32.3504C23.0821 31.7866 26.3195 29.9391 28.6762 27.3232L36.993 33.5571ZM18.8236 28.9552C12.08 29.9697 5.78385 25.3035 4.7646 18.5284C3.74535 11.7534 8.38988 5.44122 15.1335 4.4267C21.8771 3.41218 28.1732 8.07837 29.1925 14.8534C30.2117 21.6285 25.5672 27.9406 18.8236 28.9552Z" fill="#4D3114" stroke="#4D3114"/>
</svg>
