<svg width="280" height="72" viewBox="0 0 280 72" fill="none" xmlns="http://www.w3.org/2000/svg">
<g filter="url(#filter0_d_1197_1448)">
<rect x="7" y="3" width="266" height="58" rx="27" fill="#965E2E" stroke="#503315" stroke-width="6"/>
<rect x="16.4667" y="11.7334" width="247.067" height="40.5333" rx="19" fill="#6E3D12"/>
<path d="M77.7309 27.2128H83.4309V29.2268H77.7309V30.4808H83.5829C85.0269 30.4808 85.8629 30.2908 86.4519 29.8728V23.7928H89.0549V27.2318H91.4679V29.5118H89.0549V32.9318H86.4519V31.7538C85.8439 32.2478 84.8179 32.4948 82.8799 32.4948H75.1469V24.0018H83.8299V26.0158H77.7309V27.2128ZM89.2639 39.4108V41.4248H76.0779V36.5418H86.4519V35.6298H76.0779V33.6158H89.0549V38.5178H78.6809V39.4108H89.2639Z" fill="white"/>
<path d="M99.5231 26.3008V28.4668H105.793V30.6518H99.5231V32.7988H106.211V34.9648H102.772V38.0238H105.166C106.572 38.0238 107.617 37.7958 108.168 37.3018V23.7928H110.771V41.2348H108.168V39.4298C107.598 39.9998 106.306 40.2848 104.672 40.2848H96.2551V38.0238H100.188V34.9648H96.9391V24.0968H105.907V26.3008H99.5231Z" fill="white"/>
<path d="M135.678 24.0018V26.2248H132.41V27.2508C132.41 30.2338 133.759 31.4688 136.001 31.9438V34.2428C133.93 33.9388 132.144 33.0268 131.156 31.6588C130.111 33.0268 128.287 34.1858 126.216 34.4518V32.1528C128.477 31.6778 129.807 30.2718 129.807 27.2508V26.2248H126.539V24.0018H135.678ZM138.091 36.0288V23.7928H140.694V36.0288H138.091ZM127.546 41.3108V35.1358H130.149V39.0498H140.998V41.3108H127.546Z" fill="white"/>
<path d="M150.156 23.2798H152.721V24.8188H155.324V26.9278H147.401V24.8188H150.156V23.2798ZM147.724 30.8228C147.724 29.8348 148.104 28.9608 148.788 28.3718C149.415 27.8208 150.308 27.4978 151.391 27.4978C152.474 27.4978 153.367 27.8208 153.994 28.3718C154.697 28.9608 155.077 29.8348 155.077 30.8228C155.077 31.8298 154.697 32.7038 153.994 33.2928C153.367 33.8438 152.474 34.1668 151.391 34.1668C150.308 34.1668 149.415 33.8438 148.788 33.2928C148.104 32.7038 147.724 31.8298 147.724 30.8228ZM150.118 30.8228C150.118 31.1838 150.232 31.4878 150.441 31.7158C150.669 31.9818 150.992 32.1528 151.391 32.1528C151.809 32.1528 152.132 31.9818 152.341 31.7158C152.55 31.4878 152.683 31.1838 152.683 30.8228C152.683 30.4618 152.55 30.1578 152.341 29.9298C152.132 29.6638 151.809 29.5118 151.391 29.5118C150.992 29.5118 150.669 29.6638 150.441 29.9298C150.232 30.1578 150.118 30.4618 150.118 30.8228ZM159.713 34.4328V30.1768H158.364V34.1098H155.913V23.8878H158.364V27.8968H159.713V23.7928H162.202V34.4328H159.713ZM148.674 38.2328C148.674 37.1118 149.225 36.3328 150.137 35.8008C151.41 35.0788 153.405 34.8318 155.647 34.8318C157.889 34.8318 159.865 35.0788 161.157 35.8008C162.069 36.3328 162.62 37.1118 162.62 38.2328C162.62 39.3348 162.069 40.1138 161.157 40.6458C159.865 41.3678 157.889 41.6148 155.647 41.6148C153.405 41.6148 151.41 41.3678 150.137 40.6458C149.225 40.1138 148.674 39.3348 148.674 38.2328ZM151.277 38.2328C151.277 38.5178 151.448 38.7268 151.79 38.9168C152.493 39.2778 153.899 39.4298 155.647 39.4298C157.395 39.4298 158.801 39.2778 159.504 38.9168C159.827 38.7268 160.017 38.5178 160.017 38.2328C160.017 37.9478 159.827 37.7198 159.504 37.5298C158.801 37.1688 157.395 37.0168 155.647 37.0168C153.899 37.0168 152.493 37.1688 151.79 37.5298C151.448 37.7198 151.277 37.9478 151.277 38.2328Z" fill="white"/>
<path d="M178.313 25.6168V27.8778H168.395V25.6168H172.043V23.2798H174.646V25.6168H178.313ZM169.098 34.6228C169.098 32.2668 169.687 30.4618 170.979 29.5308C171.644 29.0558 172.442 28.8088 173.449 28.8088C174.437 28.8088 175.254 29.0558 175.9 29.5308C177.211 30.4618 177.8 32.2668 177.8 34.6228C177.8 36.9788 177.211 38.8028 175.9 39.7338C175.254 40.1898 174.437 40.4368 173.449 40.4368C172.442 40.4368 171.644 40.1898 170.979 39.7338C169.687 38.8028 169.098 36.9788 169.098 34.6228ZM171.682 34.6228C171.682 36.2378 171.872 37.3018 172.461 37.8338C172.708 38.0618 173.031 38.1758 173.449 38.1758C173.848 38.1758 174.171 38.0618 174.418 37.8338C175.007 37.3018 175.216 36.2378 175.216 34.6228C175.216 33.0268 175.007 31.9438 174.418 31.4118C174.171 31.1838 173.848 31.0698 173.449 31.0698C173.031 31.0698 172.708 31.1838 172.461 31.4118C171.872 31.9438 171.682 33.0268 171.682 34.6228ZM182.797 30.7088H185.419V32.9508H182.797V41.2348H180.194V23.7928H182.797V30.7088Z" fill="white"/>
<path d="M196.476 27.9158V26.3578H190.472V24.0968H199.06V27.6118C199.06 34.2428 196.666 38.7078 190.377 40.2848V37.8148C194.709 36.5608 196.476 33.0648 196.476 27.9158ZM204.513 41.2348H201.91V23.7928H204.513V41.2348Z" fill="white"/>
</g>
<defs>
<filter id="filter0_d_1197_1448" x="0" y="0" width="280" height="72" filterUnits="userSpaceOnUse" color-interpolation-filters="sRGB">
<feFlood flood-opacity="0" result="BackgroundImageFix"/>
<feColorMatrix in="SourceAlpha" type="matrix" values="0 0 0 0 0 0 0 0 0 0 0 0 0 0 0 0 0 0 127 0" result="hardAlpha"/>
<feOffset dy="4"/>
<feGaussianBlur stdDeviation="2"/>
<feComposite in2="hardAlpha" operator="out"/>
<feColorMatrix type="matrix" values="0 0 0 0 0 0 0 0 0 0 0 0 0 0 0 0 0 0 0.25 0"/>
<feBlend mode="normal" in2="BackgroundImageFix" result="effect1_dropShadow_1197_1448"/>
<feBlend mode="normal" in="SourceGraphic" in2="effect1_dropShadow_1197_1448" result="shape"/>
</filter>
</defs>
</svg>
