<svg width="185" height="70" viewBox="0 0 185 70" fill="none" xmlns="http://www.w3.org/2000/svg">
<path d="M172.453 67.338C129.471 69.7389 5.02943 73.9339 1.67959 61.5045C-2.93504 44.3833 3.67997 19.7901 1.32502 6.31769C0.891078 3.8523 3.44183 1.65621 6.79167 1.58794C37.1043 0.958313 151.692 -1.24157 179.533 0.950727C182.64 1.19347 184.899 3.24164 184.598 5.54773C183.222 15.9782 179.724 45.2102 181.671 59.1301C182.253 63.3099 178.11 67.0232 172.458 67.3418L172.453 67.338Z" fill="#643B11"/>
<path d="M167.658 65.2292C127.248 67.4102 10.2527 71.222 7.10397 59.9268C2.76453 44.3682 8.98264 22.028 6.76529 9.78449C6.3578 7.54288 8.75508 5.55161 11.9038 5.48713C40.4013 4.9144 148.136 2.91554 174.31 4.90681C177.231 5.13059 179.359 6.98912 179.073 9.08281C177.782 18.5613 174.49 45.1192 176.321 57.7686C176.872 61.5653 172.971 64.941 167.658 65.2292Z" fill="#6E3D12"/>
<path d="M158.784 61.77C123.131 63.6968 19.9159 67.0574 17.1376 57.0934C13.3115 43.3706 18.794 23.6589 16.8413 12.8567C16.4814 10.8806 18.5982 9.12067 21.3765 9.06377C46.5189 8.55932 141.563 6.79561 164.652 8.55173C167.23 8.74896 169.103 10.3875 168.854 12.2346C167.716 20.5942 164.811 44.0268 166.425 55.1855C166.912 58.5347 163.467 61.5121 158.784 61.7662V61.77Z" fill="#643B11"/>
<path d="M155.587 61.9518C121.649 63.7117 23.398 66.7802 20.752 57.681C17.1111 45.1454 22.329 27.1405 20.4662 17.2789C20.1276 15.4735 22.1385 13.8691 24.7845 13.816C48.7203 13.3532 139.192 11.7451 161.175 13.3495C163.626 13.5277 165.414 15.0259 165.171 16.7138C164.086 24.3489 161.324 45.7523 162.858 55.9438C163.319 59.0047 160.043 61.7242 155.582 61.9556L155.587 61.9518Z" fill="url(#paint0_linear_745_748)"/>
<path d="M19.0956 52.8716C18.4765 53.505 53.0174 57.7265 66.5226 56.3724C56.9705 59.8581 18.2648 55.3863 18.2648 55.3863L19.0956 52.8716Z" fill="#965E2E"/>
<path d="M19.3603 20.8255C19.3603 20.8255 25.5678 20.4007 39.8086 19.8469C27.4624 18.216 18.2701 18.2653 18.2701 18.2653L19.3603 20.8255Z" fill="#965E2E"/>
<path d="M166.261 16.6911C166.261 16.6911 160.08 16.6305 145.876 16.6343C158.286 15.9515 167.468 15.8491 167.468 15.8491L166.266 16.6911H166.261Z" fill="#965E2E"/>
<path d="M179.497 6.54515C179.497 6.54515 173.315 6.48446 159.112 6.48826C171.521 5.80553 180.703 5.70312 180.703 5.70312L179.502 6.54515H179.497Z" fill="#965E2E"/>
<path d="M165.801 29.3787C165.801 29.3787 162.16 29.2725 153.793 29.1587C161.091 28.6087 166.499 28.5859 166.499 28.5859L165.806 29.3787H165.801Z" fill="#965E2E"/>
<path d="M163.763 53.3798C163.763 53.3798 157.349 53.0271 142.627 52.5682C155.444 51.2672 164.954 51.3127 164.954 51.3127L163.763 53.3798Z" fill="#965E2E"/>
<path d="M74.2225 16.566C74.2225 16.566 101.095 15.064 122.47 16.566C112.288 14.5823 78.4879 15.3182 74.2225 16.566Z" fill="#965E2E"/>
<path d="M98.9998 57.2716C98.9998 57.2716 119.501 58.8267 135.663 56.5244C128.026 59.2894 102.302 58.8457 98.9998 57.2716Z" fill="#965E2E"/>
<path d="M51.5463 62.9725C51.5463 62.9725 105.594 64.1256 148.533 62.3467C128.09 64.4631 60.1299 64.1635 51.5463 62.9725Z" fill="#965E2E"/>
<path d="M28.5577 47.3799C28.5577 47.3799 42.5604 51.2335 54.5891 50.7821C48.4345 52.6482 30.4417 49.3067 28.5577 47.3799Z" fill="#965E2E"/>
<defs>
<linearGradient id="paint0_linear_745_748" x1="92.3106" y1="-89.9997" x2="92.3106" y2="89.9169" gradientUnits="userSpaceOnUse">
<stop stop-color="#EFE4BC"/>
<stop offset="1" stop-color="#A5600F"/>
</linearGradient>
</defs>
</svg>
