<svg width="211" height="79" viewBox="0 0 211 79" fill="none" xmlns="http://www.w3.org/2000/svg">
<path d="M197.089 75.9958C147.967 78.7054 5.74792 83.4397 1.91953 69.4122C-3.35434 50.0898 4.20568 22.3345 1.51431 7.12997C1.01838 4.3476 3.93352 1.86915 7.76191 1.7921C42.4049 1.08152 173.363 -1.40121 205.181 1.07296C208.731 1.34692 211.314 3.65843 210.969 6.26101C209.397 18.0326 205.399 51.0229 207.625 66.7326C208.29 71.4498 203.554 75.6405 197.095 76L197.089 75.9958Z" fill="#643B11"/>
<path d="M191.61 73.616C145.427 76.0773 11.7177 80.3793 8.11911 67.6318C3.15974 50.0729 10.2662 24.8603 7.73204 11.0426C7.26634 8.51283 10.0061 6.26553 13.6047 6.19276C46.1732 5.5464 169.299 3.29054 199.212 5.53783C202.551 5.79039 204.982 7.88787 204.655 10.2507C203.18 20.9479 199.418 50.9204 201.51 65.1961C202.139 69.481 197.682 73.2907 191.61 73.616Z" fill="#6E3D12"/>
<path d="M181.467 69.7117C140.722 71.8863 22.7613 75.6788 19.5861 64.4338C15.2134 48.9467 21.4792 26.7006 19.2474 14.5095C18.8362 12.2793 21.2554 10.2932 24.4306 10.2289C53.1647 9.65963 161.787 7.66916 188.175 9.65106C191.12 9.87365 193.261 11.7229 192.977 13.8075C191.676 23.2419 188.356 49.6872 190.201 62.2807C190.757 66.0604 186.82 69.4207 181.467 69.7074V69.7117Z" fill="#643B11"/>
<path d="M177.814 69.9171C139.028 71.9033 26.741 75.3663 23.717 65.0972C19.556 50.9499 25.5193 30.6301 23.3904 19.5006C23.0033 17.463 25.3016 15.6523 28.3256 15.5924C55.6808 15.0702 159.078 13.2552 184.201 15.0659C187.001 15.2671 189.046 16.9579 188.767 18.8628C187.528 27.4796 184.37 51.6348 186.124 63.1367C186.651 66.5911 182.907 69.6603 177.808 69.9214L177.814 69.9171Z" fill="url(#paint0_linear_548_1744)"/>
<path d="M21.8236 59.6699C21.1159 60.3848 60.5913 65.1491 76.0259 63.6209C65.1092 67.5547 20.874 62.5079 20.874 62.5079L21.8236 59.6699V59.6699Z" fill="#965E2E"/>
<path d="M22.1258 23.5028C22.1258 23.5028 29.2201 23.0234 45.4953 22.3985C31.3853 20.5578 20.8799 20.6135 20.8799 20.6135L22.1258 23.5028Z" fill="#965E2E"/>
<path d="M190.013 18.837C190.013 18.837 182.949 18.7685 166.716 18.7728C180.898 18.0023 191.392 17.8867 191.392 17.8867L190.019 18.837H190.013Z" fill="#965E2E"/>
<path d="M205.139 7.38681C205.139 7.38681 198.075 7.31832 181.842 7.3226C196.024 6.5521 206.518 6.43652 206.518 6.43652L205.145 7.38681H205.139Z" fill="#965E2E"/>
<path d="M189.487 33.1554C189.487 33.1554 185.326 33.0355 175.764 32.9071C184.104 32.2864 190.285 32.2607 190.285 32.2607L189.493 33.1554H189.487Z" fill="#965E2E"/>
<path d="M187.158 60.2433C187.158 60.2433 179.828 59.8452 163.002 59.3272C177.65 57.859 188.519 57.9104 188.519 57.9104L187.158 60.2433Z" fill="#965E2E"/>
<path d="M84.8262 18.6965C84.8262 18.6965 115.538 17.0014 139.966 18.6965C128.33 16.4577 89.7009 17.2882 84.8262 18.6965Z" fill="#965E2E"/>
<path d="M113.143 64.6353C113.143 64.6353 136.573 66.3903 155.043 63.792C146.316 66.9125 116.917 66.4117 113.143 64.6353V64.6353Z" fill="#965E2E"/>
<path d="M58.9102 71.0686C58.9102 71.0686 120.679 72.3699 169.752 70.3623C146.389 72.7509 68.72 72.4127 58.9102 71.0686Z" fill="#965E2E"/>
<path d="M32.6377 53.4717C32.6377 53.4717 48.6407 57.8207 62.3879 57.3114C55.354 59.4174 34.7908 55.6462 32.6377 53.4717V53.4717Z" fill="#965E2E"/>
<defs>
<linearGradient id="paint0_linear_548_1744" x1="105.498" y1="-101.571" x2="105.498" y2="101.478" gradientUnits="userSpaceOnUse">
<stop stop-color="#EFE4BC"/>
<stop offset="1" stop-color="#A5600F"/>
</linearGradient>
</defs>
</svg>
