<svg width="28" height="28" viewBox="0 0 28 28" fill="none" xmlns="http://www.w3.org/2000/svg">
<rect width="28" height="28" rx="8" fill="black"/>
<path fill-rule="evenodd" clip-rule="evenodd" d="M16.3333 9.2934C16.1357 8.97048 15.8097 8.77089 15.4557 8.75689H8.14807C7.8475 8.74468 7.5556 8.86711 7.33905 9.0962C7.1225 9.32558 7 9.64194 7 9.97231L7.03547 16.4048C7.03547 16.7351 7.15771 17.0515 7.37426 17.2806C7.59081 17.51 7.88297 17.6324 8.18327 17.6199L8.61908 17.6023L7.15825 19.11C7.03845 19.2416 6.99157 19.4338 7.03547 19.6137C7.07938 19.7936 7.2073 19.9342 7.371 19.9822C7.5347 20.0305 7.70951 19.9789 7.82931 19.8473L10.0122 17.5457L15.456 17.4939C15.7422 17.4823 16.0132 17.3491 16.2119 17.1227C16.4105 16.896 16.5216 16.5934 16.5216 16.2788V15.9228L18.3237 17.1114C18.5487 17.2597 18.8143 17.3152 19.0731 17.2684C19.3319 17.2216 19.5672 17.075 19.7368 16.8555C19.9065 16.6357 19.9997 16.3568 20 16.0685V10.1823C20 9.89396 19.9065 9.61513 19.7368 9.39528C19.5669 9.17544 19.3316 9.02917 19.0731 8.9824C18.8143 8.93563 18.5487 8.99104 18.3237 9.13939L17.052 9.97826L19.0246 7.89033C19.1444 7.75866 19.1913 7.56652 19.1474 7.38659C19.1034 7.20666 18.9755 7.06605 18.8118 7.01779C18.6481 6.96953 18.4733 7.02107 18.3535 7.15274L16.3333 9.2934ZM15.5728 10.1293L9.60453 16.5192L8.14803 16.5782C8.10521 16.5799 8.06347 16.5627 8.03231 16.5299C8.00141 16.4971 7.98379 16.4521 7.98379 16.4048L7.94832 9.97231C7.94832 9.92494 7.96566 9.87996 7.99683 9.84719C8.02773 9.81442 8.06947 9.79714 8.11256 9.79893L15.4202 9.79863C15.5053 9.80191 15.5725 9.87847 15.5725 9.97201L15.5728 10.1293ZM15.5728 11.6036V16.2788C15.5728 16.372 15.5056 16.4489 15.4207 16.4521L10.9979 16.462L15.5728 11.6036ZM16.5214 14.7193C16.5515 14.7309 16.5802 14.7458 16.6076 14.764L18.8118 16.2174C18.8606 16.2499 18.9213 16.2505 18.9709 16.2198C19.0205 16.1888 19.0511 16.1313 19.0511 16.0688V10.1823C19.0511 10.1198 19.0205 10.062 18.9709 10.0313C18.9213 10.0006 18.8606 10.0015 18.8118 10.0337C17.8811 10.6473 16.6076 11.4871 16.6076 11.4871C16.5805 11.5053 16.5515 11.5202 16.5214 11.5315V14.7193Z" fill="white"/>
</svg>
