<svg width="411" height="141" viewBox="0 0 411 141" fill="none" xmlns="http://www.w3.org/2000/svg">
<g clip-path="url(#clip0_984_556)" filter="url(#filter0_d_984_556)">
<path d="M400.703 95.3585V25.0943L400.231 19.6991C398.121 9.91226 389.904 5.01887 375.516 5.01887H35.4844C21.096 5.01887 12.9101 9.91226 10.9266 19.6991L10.2969 25.0943V95.3585C10.2969 108.734 18.7032 115.434 35.4844 115.434H375.516C392.297 115.434 400.703 108.734 400.703 95.3585ZM407 25.0943V107.906C407 124.644 396.516 133 375.516 133H35.4844C14.4843 133 4 124.644 4 107.906V25.0943C4 8.35641 14.4843 0 35.4844 0H375.516C396.516 0 407 8.35641 407 25.0943Z" fill="#75461D"/>
<path d="M394.406 95.3587V25.0945C394.406 20.5022 393.084 16.9389 390.471 14.4294C387.322 11.4934 382.348 10.0379 375.516 10.0379H35.4844C28.6523 10.0379 23.7407 11.4934 20.6867 14.4294C17.9476 16.9389 16.5938 20.5022 16.5938 25.0945V95.3587C16.5938 105.396 22.8906 110.415 35.4844 110.415H375.516C388.109 110.415 394.406 105.396 394.406 95.3587ZM400.703 95.3587C400.703 108.734 392.297 115.434 375.516 115.434H35.4844C18.7032 115.434 10.2969 108.734 10.2969 95.3587V25.0945L10.9266 19.6992C12.9101 9.91244 21.096 5.01904 35.4844 5.01904H375.516C389.904 5.01904 398.121 9.91244 400.231 19.6992L400.703 25.0945V95.3587Z" fill="#F5ECD5"/>
<path d="M22.7133 16.6412L22.7399 16.6168L22.7659 16.5918C25.0022 14.4418 28.973 13.0376 35.4844 13.0376H375.516C382.003 13.0376 386.063 14.4316 388.408 16.6078C390.279 18.4128 391.406 21.1051 391.406 25.0942V95.3584C391.406 99.7112 390.075 102.503 387.814 104.305C385.423 106.21 381.494 107.415 375.516 107.415H35.4844C29.5061 107.415 25.5772 106.21 23.1863 104.305C20.9252 102.503 19.5938 99.7112 19.5938 95.3584V25.0942C19.5938 21.1173 20.7433 18.4459 22.7133 16.6412Z" fill="#F5C86F" stroke="#E7AA47" stroke-width="6"/>
</g>
<defs>
<filter id="filter0_d_984_556" x="0" y="0" width="411" height="141" filterUnits="userSpaceOnUse" color-interpolation-filters="sRGB">
<feFlood flood-opacity="0" result="BackgroundImageFix"/>
<feColorMatrix in="SourceAlpha" type="matrix" values="0 0 0 0 0 0 0 0 0 0 0 0 0 0 0 0 0 0 127 0" result="hardAlpha"/>
<feOffset dy="4"/>
<feGaussianBlur stdDeviation="2"/>
<feComposite in2="hardAlpha" operator="out"/>
<feColorMatrix type="matrix" values="0 0 0 0 0 0 0 0 0 0 0 0 0 0 0 0 0 0 0.25 0"/>
<feBlend mode="normal" in2="BackgroundImageFix" result="effect1_dropShadow_984_556"/>
<feBlend mode="normal" in="SourceGraphic" in2="effect1_dropShadow_984_556" result="shape"/>
</filter>
<clipPath id="clip0_984_556">
<rect width="403" height="133" fill="white" transform="translate(4)"/>
</clipPath>
</defs>
</svg>
