<svg width="120" height="36" viewBox="0 0 120 36" fill="none" xmlns="http://www.w3.org/2000/svg">
<rect x="2" y="2" width="116" height="32" rx="8" fill="#6E3D12"/>
<path d="M29.0055 17.476H23.9895V11.824H25.6215V16.048H29.4615C30.3735 16.048 30.9135 15.928 31.2855 15.652V11.764H32.9295V18.088H31.2855V16.996C30.9135 17.32 30.2415 17.476 29.0055 17.476ZM31.2855 20.092H24.5055V18.676H32.9295V22.96H31.2855V20.092ZM41.173 22.048H38.149V11.896H39.781V20.62H41.269C41.797 20.62 42.313 20.596 42.733 20.5V21.844C42.313 22 41.737 22.048 41.173 22.048ZM45.637 22.78V11.764H47.233V22.78H45.637ZM43.273 22.648V16.936H41.269V15.508H43.273V11.824H44.857V22.648H43.273ZM52.1766 14.668C52.1766 13.612 52.5126 12.808 53.1366 12.304C53.6286 11.908 54.3006 11.704 55.0926 11.704C55.8846 11.704 56.5566 11.908 57.0486 12.304C57.6726 12.808 58.0086 13.612 58.0086 14.668C58.0086 15.712 57.6726 16.528 57.0486 17.032C56.5566 17.428 55.8846 17.632 55.0926 17.632C54.3006 17.632 53.6286 17.428 53.1366 17.032C52.5126 16.528 52.1766 15.712 52.1766 14.668ZM53.7846 14.668C53.7846 15.22 53.9406 15.652 54.2166 15.916C54.4326 16.12 54.7326 16.216 55.0926 16.216C55.4526 16.216 55.7526 16.12 55.9686 15.916C56.2446 15.652 56.4006 15.22 56.4006 14.668C56.4006 14.116 56.2446 13.672 55.9686 13.42C55.7526 13.216 55.4526 13.108 55.0926 13.108C54.7326 13.108 54.4326 13.216 54.2166 13.42C53.9406 13.672 53.7846 14.116 53.7846 14.668ZM59.6046 17.932V11.764H61.2486V17.932H59.6046ZM52.9446 18.436H61.2486V22.9H52.9446V18.436ZM54.5886 19.852V21.496H59.6046V19.852H54.5886ZM76.4514 13.84V11.896H78.0474V13.012H79.9314V11.764H81.5754V19.636H79.9314V16.996H78.0474V18.232H72.6354V11.896H74.2434V13.84H76.4514ZM78.0474 14.416V15.592H79.9314V14.416H78.0474ZM76.4514 15.244H74.2434V16.84H76.4514V15.244ZM73.2714 22.828V19.06H74.9154V21.4H81.7674V22.828H73.2714ZM90.443 13.3H86.795V11.896H92.087V12.94H94.091V11.764H95.735V18.184H94.091V16.708H91.631V15.292C90.863 17.008 89.135 17.812 86.531 18.052V16.624C89.135 16.348 90.443 15.292 90.443 13.3ZM91.943 14.356C91.859 14.692 91.763 15.004 91.631 15.292H94.091V14.356H91.943ZM87.311 20.608C87.311 19.816 87.719 19.252 88.331 18.88C89.195 18.352 90.467 18.196 91.643 18.196C92.831 18.196 94.103 18.352 94.955 18.88C95.579 19.252 95.987 19.816 95.987 20.608C95.987 21.4 95.579 21.976 94.955 22.348C94.103 22.864 92.831 23.02 91.643 23.02C90.467 23.02 89.195 22.864 88.331 22.348C87.719 21.976 87.311 21.4 87.311 20.608ZM88.955 20.608C88.955 20.884 89.099 21.076 89.363 21.232C89.879 21.52 90.791 21.616 91.643 21.616C92.507 21.616 93.419 21.52 93.935 21.232C94.187 21.076 94.343 20.884 94.343 20.608C94.343 20.344 94.187 20.152 93.935 19.996C93.419 19.696 92.507 19.612 91.643 19.612C90.791 19.612 89.879 19.696 89.363 19.996C89.099 20.152 88.955 20.344 88.955 20.608Z" fill="white"/>
<rect x="2" y="2" width="116" height="32" rx="8" stroke="#965E2E" stroke-width="4"/>
</svg>
