<svg width="96" height="80" viewBox="0 0 96 80" fill="none" xmlns="http://www.w3.org/2000/svg">
<g clip-path="url(#clip0_928_1213)">
<path d="M3.91797 9.7146L4.11389 8.24522C4.64287 4.93093 7.18981 3.26562 11.7547 3.26562H84.2445C88.8094 3.26562 91.3955 4.93093 91.9833 8.24522L92.0812 9.7146V63.6738C92.0812 68.033 89.4755 70.2044 84.2445 70.2044H11.7547C6.52368 70.2044 3.91797 68.033 3.91797 63.6738V9.7146ZM86.2037 36.735H9.79552V63.6738C9.79552 64.7677 10.4421 65.3064 11.7547 65.3064H84.2445C85.5572 65.3064 86.2037 64.7677 86.2037 63.6738V36.735Z" fill="#EDAE69"/>
<path d="M3.91837 9.71429V63.6735C3.91837 68.0327 6.52408 70.2041 11.7551 70.2041H84.2449C89.4759 70.2041 92.0816 68.0327 92.0816 63.6735V9.71429L91.9837 8.2449C91.3959 4.93061 88.8098 3.26531 84.2449 3.26531H11.7551C7.1902 3.26531 4.64327 4.93061 4.11429 8.2449L3.91837 9.71429ZM0 64.0816V9.71429C0.0587755 3.23265 3.97714 0 11.7551 0H84.2449C92.0816 0 96 3.23265 96 9.71429V64.0816C95.8041 70.3347 91.8857 73.4694 84.2449 73.4694H11.7551C4.11429 73.4694 0.195918 70.3347 0 64.0816Z" fill="#715415"/>
<path d="M0 64.082C0.195918 70.3351 4.11429 73.4698 11.7551 73.4698H84.2449C91.8857 73.4698 95.8041 70.3351 96 64.082V70.2045C96 76.7351 92.0816 80.0004 84.2449 80.0004H11.7551C3.91837 80.0004 0 76.7351 0 70.2045V64.082Z" fill="#4B3D1E"/>
<path fill-rule="evenodd" clip-rule="evenodd" d="M9 9.68622L9 36.4912V64.3138C9 65.4435 9.66 66 11 66H85C86.34 66 87 65.4435 87 64.3138L87 37.5088L87 36.4912L87 9.68622C87 8.55645 86.34 8 85 8H11C9.66 8 9 8.55645 9 9.68622Z" fill="#DC9145"/>
<path d="M41.8398 37.704C41.9838 36.888 42.0878 36.04 42.1518 35.16C42.2318 34.264 42.2718 33.36 42.2718 32.448C42.2718 31.536 42.2398 30.632 42.1758 29.736C42.1118 28.824 42.0078 27.952 41.8638 27.12L44.3838 26.88C44.6078 28.88 44.6958 30.776 44.6478 32.568C44.6158 34.36 44.4798 36.112 44.2398 37.824L41.8398 37.704ZM33.9438 37.968C33.1918 37.984 32.5198 37.88 31.9278 37.656C31.3358 37.432 30.8318 37.12 30.4158 36.72C29.9998 36.32 29.6718 35.856 29.4318 35.328C29.1918 34.784 29.0638 34.208 29.0478 33.6C29.0158 32.96 29.1118 32.336 29.3358 31.728C29.5598 31.12 29.8958 30.576 30.3438 30.096C30.7918 29.6 31.3518 29.2 32.0238 28.896C32.7118 28.592 33.5118 28.432 34.4238 28.416V29.112C35.0638 29.144 35.6398 29.28 36.1518 29.52C36.6638 29.76 37.0958 30.072 37.4478 30.456C37.7998 30.84 38.0638 31.28 38.2398 31.776C38.4318 32.272 38.5198 32.8 38.5038 33.36C38.4878 33.936 38.3678 34.496 38.1438 35.04C37.9358 35.584 37.6318 36.072 37.2318 36.504C36.8318 36.936 36.3518 37.288 35.7918 37.56C35.2478 37.816 34.6318 37.952 33.9438 37.968ZM31.4238 33.408C31.4238 33.728 31.4718 34.04 31.5678 34.344C31.6638 34.632 31.8078 34.888 31.9998 35.112C32.1918 35.32 32.4318 35.488 32.7198 35.616C33.0238 35.744 33.3678 35.808 33.7518 35.808C34.1518 35.808 34.5038 35.736 34.8078 35.592C35.1118 35.448 35.3598 35.264 35.5518 35.04C35.7438 34.816 35.8878 34.56 35.9838 34.272C36.0798 33.968 36.1278 33.664 36.1278 33.36C36.1278 33.072 36.0798 32.792 35.9838 32.52C35.8878 32.248 35.7358 32.008 35.5278 31.8C35.3358 31.592 35.0718 31.432 34.7358 31.32C34.4158 31.208 34.0318 31.176 33.5838 31.224L33.5598 30.672C32.9038 30.848 32.3838 31.192 31.9998 31.704C31.6158 32.216 31.4238 32.784 31.4238 33.408ZM44.7198 43.728C44.6398 43.664 44.5518 43.608 44.4558 43.56C44.3598 43.512 44.2638 43.464 44.1678 43.416C44.1198 43.848 44.0558 44.264 43.9758 44.664C43.9118 45.064 43.8238 45.424 43.7118 45.744C43.4878 46.4 43.1278 46.912 42.6318 47.28C42.1358 47.648 41.5998 47.888 41.0238 48C40.4478 48.112 39.8798 48.104 39.3198 47.976C38.7598 47.864 38.2958 47.648 37.9278 47.328C37.5278 46.992 37.2398 46.568 37.0638 46.056C36.8878 45.56 36.8158 45.048 36.8478 44.52C36.8958 43.992 37.0558 43.48 37.3278 42.984C37.6158 42.472 38.0158 42.048 38.5278 41.712C38.9598 41.424 39.4478 41.208 39.9918 41.064C40.5358 40.904 41.0878 40.808 41.6478 40.776C41.6158 40.584 41.5758 40.392 41.5278 40.2C41.4958 40.008 41.4558 39.816 41.4078 39.624L44.0718 39.312C44.1358 39.92 44.1838 40.544 44.2158 41.184C44.6318 41.344 45.0238 41.56 45.3918 41.832L44.7198 43.728ZM35.6478 39.768C35.7598 40.376 35.8558 41.024 35.9358 41.712C36.0318 42.384 36.1118 43.072 36.1758 43.776C36.2398 44.464 36.2798 45.136 36.2958 45.792C36.3118 46.464 36.3118 47.096 36.2958 47.688L33.9918 47.712C34.0238 47.12 34.0238 46.504 33.9918 45.864C33.9598 45.224 33.9038 44.576 33.8238 43.92C33.7598 43.264 33.6638 42.616 33.5358 41.976C33.4078 41.336 33.2638 40.712 33.1038 40.104L35.6478 39.768ZM41.6958 44.832C41.7758 44.592 41.8318 44.304 41.8638 43.968C41.8958 43.632 41.9038 43.256 41.8878 42.84C41.4558 42.824 41.0398 42.864 40.6398 42.96C40.2558 43.04 39.9278 43.192 39.6558 43.416C39.2078 43.768 38.9598 44.176 38.9118 44.64C38.8638 45.088 39.0158 45.448 39.3678 45.72C39.5438 45.864 39.7438 45.96 39.9678 46.008C40.1918 46.056 40.4158 46.04 40.6398 45.96C40.8638 45.896 41.0638 45.768 41.2398 45.576C41.4318 45.4 41.5838 45.152 41.6958 44.832ZM62.404 31.8C61.876 31.864 61.34 31.904 60.796 31.92C60.252 31.92 59.724 31.904 59.212 31.872L59.14 29.544C59.652 29.64 60.18 29.704 60.724 29.736C61.268 29.768 61.796 29.76 62.308 29.712C62.228 28.736 62.132 27.872 62.02 27.12L64.54 26.88C64.652 27.872 64.732 28.904 64.78 29.976C64.828 31.032 64.836 32.096 64.804 33.168C64.788 34.224 64.732 35.264 64.636 36.288C64.556 37.312 64.444 38.28 64.3 39.192L61.9 39.072C61.98 38.672 62.044 38.256 62.092 37.824C62.156 37.376 62.204 36.92 62.236 36.456C61.756 36.536 61.26 36.592 60.748 36.624C60.236 36.64 59.74 36.64 59.26 36.624V34.368C59.788 34.4 60.316 34.408 60.844 34.392C61.372 34.376 61.884 34.352 62.38 34.32C62.396 33.904 62.404 33.488 62.404 33.072C62.42 32.64 62.42 32.216 62.404 31.8ZM58.804 38.136C57.876 38.456 56.9 38.712 55.876 38.904C54.852 39.096 53.9 39.184 53.02 39.168C51.788 39.152 50.908 38.896 50.38 38.4C49.852 37.904 49.628 37.24 49.708 36.408C49.74 36.168 49.788 35.928 49.852 35.688C49.932 35.432 50.028 35.184 50.14 34.944L49.228 34.896V32.88C50.204 32.944 51.172 32.968 52.132 32.952C53.108 32.92 54.068 32.856 55.012 32.76C55.092 32.584 55.164 32.4 55.228 32.208C55.292 32.016 55.356 31.808 55.42 31.584C55.5 31.312 55.484 31.096 55.372 30.936C55.276 30.76 55.02 30.656 54.604 30.624C54.236 30.592 53.844 30.592 53.428 30.624C53.028 30.64 52.62 30.68 52.204 30.744C51.804 30.792 51.404 30.864 51.004 30.96C50.62 31.056 50.268 31.16 49.948 31.272L49.492 28.992C50.5 28.768 51.436 28.624 52.3 28.56C53.164 28.48 54.036 28.472 54.916 28.536C55.988 28.616 56.78 28.88 57.292 29.328C57.804 29.76 58.012 30.336 57.916 31.056C57.884 31.264 57.828 31.48 57.748 31.704C57.684 31.928 57.596 32.152 57.484 32.376L58.084 32.232L58.228 34.248C56.388 34.648 54.42 34.88 52.324 34.944C52.196 35.312 52.124 35.672 52.108 36.024C52.108 36.136 52.116 36.248 52.132 36.36C52.164 36.472 52.228 36.576 52.324 36.672C52.42 36.768 52.556 36.848 52.732 36.912C52.924 36.976 53.164 37.008 53.452 37.008C54.108 37.008 54.836 36.928 55.636 36.768C56.452 36.608 57.34 36.352 58.3 36L58.804 38.136ZM60.364 40.272C61.804 40.352 62.828 40.696 63.436 41.304C64.044 41.896 64.364 42.68 64.396 43.656C64.428 44.216 64.364 44.832 64.204 45.504C64.06 46.192 63.844 46.968 63.556 47.832L61.132 47.352C61.404 46.696 61.62 46.104 61.78 45.576C61.956 45.048 62.036 44.48 62.02 43.872C62.004 43.312 61.788 42.952 61.372 42.792C60.972 42.616 60.468 42.52 59.86 42.504C58.964 42.488 58.012 42.576 57.004 42.768C56.012 42.96 55.012 43.248 54.004 43.632L53.404 41.352C53.932 41.176 54.492 41.016 55.084 40.872C55.692 40.728 56.3 40.608 56.908 40.512C57.532 40.416 58.132 40.352 58.708 40.32C59.3 40.272 59.852 40.256 60.364 40.272Z" fill="white"/>
</g>
<defs>
<clipPath id="clip0_928_1213">
<rect width="96" height="80" fill="white"/>
</clipPath>
</defs>
</svg>
