<svg width="68" height="68" viewBox="0 0 68 68" fill="none" xmlns="http://www.w3.org/2000/svg">
<path d="M33.5195 67.0391C52.0319 67.0391 67.0391 52.0319 67.0391 33.5195C67.0391 15.0072 52.0319 0 33.5195 0C15.0072 0 0 15.0072 0 33.5195C0 52.0319 15.0072 67.0391 33.5195 67.0391Z" fill="#643B11"/>
<path d="M33.5197 61.8377C50.5949 61.8377 64.437 47.9955 64.437 30.9203C64.437 13.8451 50.5949 0.00292969 33.5197 0.00292969C16.4445 0.00292969 2.60229 13.8451 2.60229 30.9203C2.60229 47.9955 16.4445 61.8377 33.5197 61.8377Z" fill="url(#paint0_linear_1424_1146)"/>
<path d="M33.5198 55.5313C47.1124 55.5313 58.1314 44.5123 58.1314 30.9197C58.1314 17.3271 47.1124 6.30811 33.5198 6.30811C19.9272 6.30811 8.9082 17.3271 8.9082 30.9197C8.9082 44.5123 19.9272 55.5313 33.5198 55.5313Z" fill="url(#paint1_linear_1424_1146)"/>
<path d="M33.5197 56.3212C19.5122 56.3212 8.11816 44.9244 8.11816 30.9197C8.11816 16.915 19.515 5.51807 33.5197 5.51807C47.5244 5.51807 58.9213 16.915 58.9213 30.9197C58.9213 44.9244 47.5273 56.3212 33.5197 56.3212ZM33.5197 7.09808C20.3843 7.09808 9.70099 17.7842 9.70099 30.9168C9.70099 44.0523 20.3872 54.7356 33.5197 54.7356C46.6552 54.7356 57.3385 44.0494 57.3385 30.9168C57.3385 17.7842 46.6552 7.09808 33.5197 7.09808Z" fill="#643B11"/>
<path fill-rule="evenodd" clip-rule="evenodd" d="M20.5754 43.3047C22.6629 45.4864 26.1237 45.5627 28.3054 43.4752L33.529 38.4773L38.7636 43.4634C40.95 45.546 44.4107 45.4618 46.4932 43.2755C48.5758 41.0891 48.4917 37.6284 46.3053 35.5458L41.4381 30.9097L46.2946 26.2628C48.4763 24.1753 48.5527 20.7145 46.4652 18.5328C44.3777 16.3511 40.9169 16.2747 38.7352 18.3622L33.512 23.3599L28.2775 18.3739C26.0911 16.2913 22.6304 16.3754 20.5478 18.5618C18.4652 20.7482 18.5494 24.2089 20.7358 26.2914L25.6028 30.9275L20.7459 35.5746C18.5643 37.6621 18.4879 41.123 20.5754 43.3047Z" fill="#321D07"/>
<defs>
<linearGradient id="paint0_linear_1424_1146" x1="0.100788" y1="-39.1685" x2="56.6319" y2="79.3898" gradientUnits="userSpaceOnUse">
<stop offset="1.4e-07" stop-color="#E6CAA5"/>
<stop offset="1" stop-color="#A16A2C"/>
</linearGradient>
<linearGradient id="paint1_linear_1424_1146" x1="55.6831" y1="74.6171" x2="9.98693" y2="-15.4819" gradientUnits="userSpaceOnUse">
<stop offset="1.4e-07" stop-color="#BC8A47"/>
<stop offset="1" stop-color="#9E6829"/>
</linearGradient>
</defs>
</svg>
