<svg width="65" height="65" viewBox="0 0 65 65" fill="none" xmlns="http://www.w3.org/2000/svg">
<path d="M32.2395 64.4789C50.0448 64.4789 64.4789 50.0448 64.4789 32.2395C64.4789 14.4341 50.0448 0 32.2395 0C14.4341 0 0 14.4341 0 32.2395C0 50.0448 14.4341 64.4789 32.2395 64.4789Z" fill="#643B11"/>
<path d="M32.2396 59.4758C48.6627 59.4758 61.9762 46.1622 61.9762 29.7391C61.9762 13.316 48.6627 0.00244141 32.2396 0.00244141C15.8165 0.00244141 2.50293 13.316 2.50293 29.7391C2.50293 46.1622 15.8165 59.4758 32.2396 59.4758Z" fill="url(#paint0_linear_745_529)"/>
<path d="M32.2397 53.4107C45.3132 53.4107 55.9114 42.8126 55.9114 29.7391C55.9114 16.6656 45.3132 6.06738 32.2397 6.06738C19.1662 6.06738 8.56805 16.6656 8.56805 29.7391C8.56805 42.8126 19.1662 53.4107 32.2397 53.4107Z" fill="url(#paint1_linear_745_529)"/>
<path d="M32.2397 54.1706C18.7671 54.1706 7.80823 43.209 7.80823 29.7391C7.80823 16.2693 18.7699 5.30762 32.2397 5.30762C45.7096 5.30762 56.6712 16.2693 56.6712 29.7391C56.6712 43.209 45.7123 54.1706 32.2397 54.1706ZM32.2397 6.82729C19.6059 6.82729 9.33061 17.1053 9.33061 29.7364C9.33061 42.3702 19.6087 52.6455 32.2397 52.6455C44.8735 52.6455 55.1489 42.3675 55.1489 29.7364C55.1489 17.1053 44.8735 6.82729 32.2397 6.82729Z" fill="#643B11"/>
<mask id="path-5-outside-1_745_529" maskUnits="userSpaceOnUse" x="17.9643" y="16.207" width="29" height="28" fill="black">
<rect fill="white" x="17.9643" y="16.207" width="29" height="28"/>
<path d="M41.7471 37.1785C41.8816 37.3068 41.9883 37.4592 42.0611 37.627C42.1339 37.7948 42.1714 37.9747 42.1714 38.1564C42.1714 38.3381 42.1339 38.518 42.0611 38.6858C41.9883 38.8536 41.8816 39.006 41.7471 39.1343C41.4748 39.3914 41.1076 39.5356 40.725 39.5356C40.3425 39.5356 39.9753 39.3914 39.703 39.1343L32.0679 31.8289L24.4327 39.1343C24.1604 39.3914 23.7933 39.5356 23.4107 39.5356C23.0281 39.5356 22.6609 39.3914 22.3887 39.1343C22.2542 39.006 22.1474 38.8536 22.0746 38.6858C22.0018 38.518 21.9643 38.3381 21.9643 38.1564C21.9643 37.9747 22.0018 37.7948 22.0746 37.627C22.1474 37.4592 22.2542 37.3068 22.3887 37.1785L30.0238 29.8732L22.3887 22.5678C22.1176 22.3085 21.9653 21.9567 21.9653 21.59C21.9653 21.4084 22.0027 21.2285 22.0754 21.0607C22.148 20.893 22.2545 20.7405 22.3887 20.6121C22.5229 20.4837 22.6822 20.3818 22.8576 20.3123C23.0329 20.2428 23.2209 20.207 23.4107 20.207C23.794 20.207 24.1617 20.3527 24.4327 20.6121L32.0679 27.9174L39.703 20.6121C39.9741 20.3527 40.3417 20.207 40.725 20.207C41.1084 20.207 41.476 20.3527 41.7471 20.6121C42.0181 20.8714 42.1704 21.2232 42.1704 21.59C42.1704 21.9567 42.0181 22.3085 41.7471 22.5678L34.1119 29.8732L41.7471 37.1785Z"/>
</mask>
<path d="M41.7471 37.1785C41.8816 37.3068 41.9883 37.4592 42.0611 37.627C42.1339 37.7948 42.1714 37.9747 42.1714 38.1564C42.1714 38.3381 42.1339 38.518 42.0611 38.6858C41.9883 38.8536 41.8816 39.006 41.7471 39.1343C41.4748 39.3914 41.1076 39.5356 40.725 39.5356C40.3425 39.5356 39.9753 39.3914 39.703 39.1343L32.0679 31.8289L24.4327 39.1343C24.1604 39.3914 23.7933 39.5356 23.4107 39.5356C23.0281 39.5356 22.6609 39.3914 22.3887 39.1343C22.2542 39.006 22.1474 38.8536 22.0746 38.6858C22.0018 38.518 21.9643 38.3381 21.9643 38.1564C21.9643 37.9747 22.0018 37.7948 22.0746 37.627C22.1474 37.4592 22.2542 37.3068 22.3887 37.1785L30.0238 29.8732L22.3887 22.5678C22.1176 22.3085 21.9653 21.9567 21.9653 21.59C21.9653 21.4084 22.0027 21.2285 22.0754 21.0607C22.148 20.893 22.2545 20.7405 22.3887 20.6121C22.5229 20.4837 22.6822 20.3818 22.8576 20.3123C23.0329 20.2428 23.2209 20.207 23.4107 20.207C23.794 20.207 24.1617 20.3527 24.4327 20.6121L32.0679 27.9174L39.703 20.6121C39.9741 20.3527 40.3417 20.207 40.725 20.207C41.1084 20.207 41.476 20.3527 41.7471 20.6121C42.0181 20.8714 42.1704 21.2232 42.1704 21.59C42.1704 21.9567 42.0181 22.3085 41.7471 22.5678L34.1119 29.8732L41.7471 37.1785Z" fill="#321D07"/>
<path d="M41.7471 37.1785L38.9817 40.0687L38.9868 40.0735L41.7471 37.1785ZM42.1714 38.1564H46.1714H42.1714ZM41.7471 39.1343L44.4935 42.0424L44.5004 42.0358L44.5074 42.0292L41.7471 39.1343ZM40.725 39.5356V35.5356V39.5356ZM39.703 39.1343L36.9377 42.0244L36.9471 42.0334L36.9566 42.0424L39.703 39.1343ZM32.0679 31.8289L34.8332 28.9388L32.0679 26.2929L29.3025 28.9388L32.0679 31.8289ZM24.4327 39.1343L27.1792 42.0424L27.1886 42.0334L27.198 42.0244L24.4327 39.1343ZM23.4107 39.5356V35.5356V39.5356ZM22.3887 39.1343L19.6284 42.0292L19.6353 42.0358L19.6422 42.0424L22.3887 39.1343ZM21.9643 38.1564H25.9643H21.9643ZM22.3887 37.1785L25.149 40.0735L25.154 40.0687L22.3887 37.1785ZM30.0238 29.8732L32.7891 32.7633L35.8098 29.8732L32.7891 26.983L30.0238 29.8732ZM22.3887 22.5678L19.6234 25.458L22.3887 22.5678ZM21.9653 21.59H25.9653H21.9653ZM24.4327 20.6121L21.6674 23.5022L21.6674 23.5022L24.4327 20.6121ZM32.0679 27.9174L29.3025 30.8076L32.0679 33.4535L34.8332 30.8076L32.0679 27.9174ZM39.703 20.6121L42.4683 23.5022L42.4683 23.5022L39.703 20.6121ZM41.7471 22.5678L44.5124 25.458L41.7471 22.5678ZM34.1119 29.8732L31.3466 26.983L28.326 29.8732L31.3466 32.7633L34.1119 29.8732ZM38.9868 40.0735C38.7406 39.8388 38.5353 39.5502 38.3918 39.2194L45.7305 36.0346C45.4413 35.3682 45.0225 34.7748 44.5074 34.2836L38.9868 40.0735ZM38.3918 39.2194C38.248 38.8882 38.1714 38.5264 38.1714 38.1564H46.1714C46.1714 37.4231 46.0199 36.7014 45.7305 36.0346L38.3918 39.2194ZM38.1714 38.1564C38.1714 37.7864 38.248 37.4247 38.3918 37.0934L45.7305 40.2782C46.0199 39.6114 46.1714 38.8898 46.1714 38.1564H38.1714ZM38.3918 37.0934C38.5353 36.7626 38.7406 36.474 38.9868 36.2393L44.5074 42.0292C45.0225 41.538 45.4413 40.9446 45.7305 40.2782L38.3918 37.0934ZM39.0006 36.2262C39.4884 35.7655 40.1107 35.5356 40.725 35.5356V43.5356C42.1045 43.5356 43.4611 43.0174 44.4935 42.0424L39.0006 36.2262ZM40.725 35.5356C41.3393 35.5356 41.9616 35.7655 42.4494 36.2262L36.9566 42.0424C37.9889 43.0174 39.3456 43.5356 40.725 43.5356V35.5356ZM42.4683 36.2441L34.8332 28.9388L29.3025 34.7191L36.9377 42.0244L42.4683 36.2441ZM29.3025 28.9388L21.6674 36.2441L27.198 42.0244L34.8332 34.7191L29.3025 28.9388ZM21.6863 36.2262C22.1741 35.7655 22.7964 35.5356 23.4107 35.5356V43.5356C24.7901 43.5356 26.1468 43.0174 27.1792 42.0424L21.6863 36.2262ZM23.4107 35.5356C24.025 35.5356 24.6473 35.7655 25.1351 36.2262L19.6422 42.0424C20.6746 43.0174 22.0313 43.5356 23.4107 43.5356V35.5356ZM25.149 36.2393C25.3951 36.4741 25.6004 36.7626 25.744 37.0934L18.4052 40.2782C18.6944 40.9446 19.1132 41.538 19.6284 42.0292L25.149 36.2393ZM25.744 37.0934C25.8877 37.4246 25.9643 37.7864 25.9643 38.1564H17.9643C17.9643 38.8898 18.1158 39.6114 18.4052 40.2782L25.744 37.0934ZM25.9643 38.1564C25.9643 38.5264 25.8877 38.8882 25.744 39.2194L18.4052 36.0346C18.1158 36.7014 17.9643 37.423 17.9643 38.1564H25.9643ZM25.744 39.2194C25.6004 39.5502 25.3951 39.8388 25.149 40.0735L19.6284 34.2836C19.1132 34.7748 18.6944 35.3682 18.4052 36.0346L25.744 39.2194ZM25.154 40.0687L32.7891 32.7633L27.2585 26.983L19.6234 34.2884L25.154 40.0687ZM32.7891 26.983L25.154 19.6777L19.6234 25.458L27.2585 32.7633L32.7891 26.983ZM25.154 19.6777C25.6513 20.1535 25.9653 20.8375 25.9653 21.59H17.9653C17.9653 23.076 18.584 24.4635 19.6234 25.458L25.154 19.6777ZM25.9653 21.59C25.9653 21.9588 25.8892 22.3195 25.7461 22.6499L18.4046 19.4716C18.1163 20.1376 17.9653 20.8579 17.9653 21.59H25.9653ZM25.7461 22.6499C25.6033 22.9798 25.399 23.2678 25.154 23.5022L19.6234 17.7219C19.1099 18.2132 18.6927 18.8061 18.4046 19.4716L25.7461 22.6499ZM25.154 23.5022C24.9093 23.7364 24.6283 23.9132 24.3313 24.0309L21.3838 16.5937C20.7361 16.8504 20.1365 17.231 19.6234 17.7219L25.154 23.5022ZM24.3313 24.0309C24.0346 24.1485 23.7223 24.207 23.4107 24.207V16.207C22.7195 16.207 22.0313 16.3371 21.3838 16.5937L24.3313 24.0309ZM23.4107 24.207C22.7888 24.207 22.1587 23.9723 21.6674 23.5022L27.198 17.7219C26.1647 16.7332 24.7993 16.207 23.4107 16.207V24.207ZM21.6674 23.5022L29.3025 30.8076L34.8332 25.0273L27.198 17.7219L21.6674 23.5022ZM34.8332 30.8076L42.4683 23.5022L36.9377 17.7219L29.3025 25.0273L34.8332 30.8076ZM42.4683 23.5022C41.9771 23.9723 41.347 24.207 40.725 24.207V16.207C39.3364 16.207 37.9711 16.7332 36.9377 17.7219L42.4683 23.5022ZM40.725 24.207C40.1031 24.207 39.473 23.9723 38.9817 23.5022L44.5124 17.7219C43.479 16.7332 42.1136 16.207 40.725 16.207V24.207ZM38.9817 23.5022C38.4845 23.0264 38.1704 22.3425 38.1704 21.59H46.1704C46.1704 20.1039 45.5518 18.7164 44.5124 17.7219L38.9817 23.5022ZM38.1704 21.59C38.1704 20.8375 38.4845 20.1535 38.9817 19.6777L44.5124 25.458C45.5518 24.4635 46.1704 23.076 46.1704 21.59H38.1704ZM38.9817 19.6777L31.3466 26.983L36.8772 32.7633L44.5124 25.458L38.9817 19.6777ZM31.3466 32.7633L38.9817 40.0687L44.5124 34.2884L36.8772 26.983L31.3466 32.7633Z" fill="#321D07" mask="url(#path-5-outside-1_745_529)"/>
<defs>
<linearGradient id="paint0_linear_745_529" x1="0.0969536" y1="-37.6731" x2="54.4692" y2="76.3575" gradientUnits="userSpaceOnUse">
<stop offset="1.4e-07" stop-color="#E6CAA5"/>
<stop offset="1" stop-color="#A16A2C"/>
</linearGradient>
<linearGradient id="paint1_linear_745_529" x1="53.5567" y1="71.7677" x2="9.60558" y2="-14.8905" gradientUnits="userSpaceOnUse">
<stop offset="1.4e-07" stop-color="#BC8A47"/>
<stop offset="1" stop-color="#9E6829"/>
</linearGradient>
</defs>
</svg>
