<svg width="225" height="82" viewBox="0 0 225 82" fill="none" xmlns="http://www.w3.org/2000/svg">
<g filter="url(#filter0_d_1897_1295)">
<rect x="7" y="3" width="211" height="65.1176" rx="27" fill="#965E2E" stroke="#4D3114" stroke-width="6"/>
<rect x="14.0294" y="9.82373" width="196.941" height="51.0588" rx="20" fill="#6E3D12"/>
</g>
<path d="M85.8487 23.8599C86.0167 25.6332 86.1381 27.5092 86.2127 29.4879C86.3061 31.4665 86.3527 33.4639 86.3527 35.4799C86.3714 37.4959 86.3434 39.4932 86.2687 41.4719C86.2127 43.4319 86.1194 45.3079 85.9887 47.0999L83.1047 46.9599C83.2541 45.2052 83.3661 43.3572 83.4407 41.4159C83.5154 39.4745 83.5434 37.4959 83.5247 35.4799C83.1514 35.5172 82.7594 35.5452 82.3487 35.5639C81.9381 35.5639 81.5367 35.5639 81.1447 35.5639C80.7527 35.5639 80.3794 35.5639 80.0247 35.5639C79.6887 35.5452 79.3994 35.5265 79.1567 35.5079L79.1007 34.3599L78.8207 35.0599C78.4101 35.9559 77.8781 36.8052 77.2247 37.6079C76.5714 38.3919 75.8434 39.1385 75.0407 39.8479C74.2381 40.5572 73.3887 41.2105 72.4927 41.8079C71.5967 42.4052 70.7007 42.9559 69.8047 43.4599L68.0127 40.8559C69.7301 40.0719 71.2794 39.2132 72.6607 38.2799C74.0421 37.3279 75.0874 36.2919 75.7967 35.1719C74.7141 35.6012 73.5194 35.9932 72.2127 36.3479C70.9247 36.6839 69.5901 36.9172 68.2087 37.0479L67.7607 34.4159C69.4594 34.3039 71.0367 34.1079 72.4927 33.8279C73.9487 33.5479 75.3114 33.1652 76.5807 32.6799C76.5434 32.2505 76.3754 31.8865 76.0767 31.5879C75.7781 31.2892 75.3021 31.0932 74.6487 30.9999C73.8087 30.8692 72.8474 30.9159 71.7647 31.1399C70.6821 31.3639 69.6367 31.6625 68.6287 32.0359L67.9287 29.2079C69.2354 28.8345 70.5234 28.5639 71.7927 28.3959C73.0621 28.2092 74.2007 28.1999 75.2087 28.3679C76.6647 28.6292 77.7287 29.1145 78.4007 29.8239C79.0727 30.5332 79.4274 31.3732 79.4647 32.3439C80.0061 32.3999 80.6407 32.4372 81.3687 32.4559C82.0967 32.4745 82.7967 32.4652 83.4687 32.4279C83.4314 30.9719 83.3661 29.5532 83.2727 28.1719C83.1981 26.7719 83.0954 25.4279 82.9647 24.1399L85.8487 23.8599Z" fill="white"/>
<path d="M95.1964 35.6759C95.2897 34.3132 95.2337 32.8292 95.0284 31.2239C94.8417 29.6185 94.5337 28.0319 94.1044 26.4639L97.0444 26.0159C97.0817 26.1839 97.1097 26.3519 97.1284 26.5199C97.1657 26.6879 97.203 26.8559 97.2404 27.0239C97.987 26.5759 98.8644 26.1932 99.8724 25.8759C100.88 25.5585 101.898 25.3999 102.924 25.3999C103.764 25.3999 104.502 25.5212 105.136 25.7639C105.771 25.9879 106.275 26.3052 106.648 26.7159C107.04 27.1079 107.302 27.5745 107.432 28.1159C107.563 28.6572 107.554 29.2452 107.404 29.8799C107.274 30.4212 107.115 30.9065 106.928 31.3359C106.76 31.7465 106.564 32.1105 106.34 32.4279C106.546 32.3905 106.742 32.3625 106.928 32.3439C107.134 32.3065 107.339 32.2692 107.544 32.2319V34.8919C106.816 34.9852 106.042 35.0599 105.22 35.1159C104.399 35.1719 103.559 35.2185 102.7 35.2559C101.842 35.2745 100.983 35.2839 100.124 35.2839C99.2844 35.2839 98.491 35.2652 97.7444 35.2279C97.7444 35.3212 97.735 35.4052 97.7164 35.4799C97.7164 35.5359 97.7164 35.6105 97.7164 35.7039L95.1964 35.6759ZM102.644 28.1159C101.86 28.0972 101.011 28.2092 100.096 28.4519C99.1817 28.6945 98.351 29.0119 97.6044 29.4039C97.679 29.9825 97.735 30.5519 97.7724 31.1119C97.8097 31.6719 97.8284 32.2225 97.8284 32.7639C99.7324 32.8945 101.59 32.8945 103.4 32.7639C103.998 31.9425 104.352 31.0745 104.464 30.1599C104.558 29.5252 104.455 29.0305 104.156 28.6759C103.858 28.3212 103.354 28.1345 102.644 28.1159ZM111.744 40.1279C110.942 40.2212 110.102 40.3052 109.224 40.3799C108.366 40.4545 107.47 40.5199 106.536 40.5759C106.648 41.8639 106.704 43.1612 106.704 44.4679C106.704 45.7559 106.658 47.0532 106.564 48.3599L103.54 48.4999C103.69 47.1745 103.783 45.8772 103.82 44.6079C103.858 43.3199 103.839 42.0225 103.764 40.7159C102.14 40.7719 100.507 40.7999 98.8644 40.7999C98.883 41.9759 98.8737 43.1705 98.8364 44.3839C98.8177 45.5972 98.7617 46.7825 98.6684 47.9399L95.6444 48.0799C95.8124 46.8105 95.9244 45.5785 95.9804 44.3839C96.055 43.1892 96.0924 41.9759 96.0924 40.7439C95.1404 40.7065 94.2164 40.6692 93.3204 40.6319C92.4244 40.5759 91.5657 40.5012 90.7444 40.4079L90.6044 37.7479C92.247 37.9532 93.983 38.1025 95.8124 38.1959C97.6417 38.2892 99.4804 38.3265 101.328 38.3079C103.176 38.2705 104.996 38.1865 106.788 38.0559C108.599 37.9065 110.298 37.7105 111.884 37.4679L111.744 40.1279Z" fill="white"/>
<path d="M132.88 23.8599C133.048 25.6332 133.169 27.5092 133.244 29.4879C133.337 31.4665 133.384 33.4639 133.384 35.4799C133.403 37.4959 133.375 39.4932 133.3 41.4719C133.244 43.4319 133.151 45.3079 133.02 47.0999L130.08 46.9599C130.229 45.2239 130.332 43.3945 130.388 41.4719C130.463 39.5305 130.491 37.5705 130.472 35.5919C130.472 33.6132 130.425 31.6532 130.332 29.7119C130.239 27.7519 130.108 25.8945 129.94 24.1399L132.88 23.8599ZM119.132 28.9279C118.721 30.1599 118.432 31.3172 118.264 32.3999C118.115 33.4639 118.068 34.4065 118.124 35.2279C118.18 36.0119 118.469 36.5999 118.992 36.9919C119.533 37.3839 120.233 37.5612 121.092 37.5239C122.156 37.4679 123.164 37.2252 124.116 36.7959C125.087 36.3665 126.029 35.7785 126.944 35.0319L128.372 37.6919C127.308 38.4759 126.169 39.0919 124.956 39.5399C123.743 39.9879 122.492 40.2585 121.204 40.3519C119.393 40.4825 117.984 40.1372 116.976 39.3159C115.968 38.4759 115.389 37.2905 115.24 35.7599C115.147 34.7332 115.165 33.5759 115.296 32.2879C115.445 30.9812 115.735 29.6092 116.164 28.1719L119.132 28.9279Z" fill="white"/>
<path d="M156.396 23.8599C156.564 25.6332 156.685 27.5092 156.76 29.4879C156.853 31.4665 156.9 33.4639 156.9 35.4799C156.918 37.4959 156.89 39.4932 156.816 41.4719C156.76 43.4319 156.666 45.3079 156.536 47.0999L153.596 46.9599C153.745 45.2239 153.848 43.3945 153.904 41.4719C153.978 39.5305 154.006 37.5705 153.988 35.5919C153.988 33.6132 153.941 31.6532 153.848 29.7119C153.754 27.7519 153.624 25.8945 153.456 24.1399L156.396 23.8599ZM144.58 39.1199C145.494 39.1572 146.418 39.0172 147.352 38.6999C148.304 38.3825 149.172 37.9625 149.956 37.4399L150.964 40.0719C149.937 40.6879 148.864 41.1265 147.744 41.3879C146.624 41.6305 145.448 41.7332 144.216 41.6959C143.432 41.6772 142.704 41.5559 142.032 41.3319C141.36 41.0892 140.781 40.7439 140.296 40.2959C139.81 39.8479 139.437 39.2879 139.176 38.6159C138.914 37.9439 138.793 37.1599 138.812 36.2639C138.83 35.4239 138.933 34.5092 139.12 33.5199C139.306 32.5119 139.586 31.5225 139.96 30.5519L138.336 30.3839V27.6399C139.4 27.7332 140.408 27.8079 141.36 27.8639C142.312 27.9012 143.245 27.9199 144.16 27.9199C145.074 27.9012 145.98 27.8639 146.876 27.8079C147.79 27.7332 148.724 27.6305 149.676 27.4999V30.2439C148.481 30.3932 147.296 30.5145 146.12 30.6079C144.962 30.6825 143.777 30.7105 142.564 30.6919C142.396 31.1212 142.246 31.5692 142.116 32.0359C142.004 32.4839 141.901 32.9319 141.808 33.3799C142.965 33.4172 144.169 33.4079 145.42 33.3519C146.67 33.2772 147.809 33.1652 148.836 33.0159V35.5919C147.66 35.7599 146.456 35.8719 145.224 35.9279C143.992 35.9839 142.76 35.9559 141.528 35.8439V36.4879C141.546 37.3839 141.798 38.0372 142.284 38.4479C142.788 38.8585 143.553 39.0825 144.58 39.1199Z" fill="white"/>
<defs>
<filter id="filter0_d_1897_1295" x="0" y="0" width="225" height="81.1177" filterUnits="userSpaceOnUse" color-interpolation-filters="sRGB">
<feFlood flood-opacity="0" result="BackgroundImageFix"/>
<feColorMatrix in="SourceAlpha" type="matrix" values="0 0 0 0 0 0 0 0 0 0 0 0 0 0 0 0 0 0 127 0" result="hardAlpha"/>
<feOffset dy="6"/>
<feGaussianBlur stdDeviation="2"/>
<feComposite in2="hardAlpha" operator="out"/>
<feColorMatrix type="matrix" values="0 0 0 0 0 0 0 0 0 0 0 0 0 0 0 0 0 0 0.8 0"/>
<feBlend mode="normal" in2="BackgroundImageFix" result="effect1_dropShadow_1897_1295"/>
<feBlend mode="normal" in="SourceGraphic" in2="effect1_dropShadow_1897_1295" result="shape"/>
</filter>
</defs>
</svg>
