<svg width="208" height="72" viewBox="0 0 208 72" fill="none" xmlns="http://www.w3.org/2000/svg">
<g filter="url(#filter0_d_1199_2238)">
<rect x="7" y="3" width="194" height="58" rx="27" fill="#965E2E" stroke="#503315" stroke-width="6"/>
<rect x="14" y="10" width="180" height="44" rx="20" fill="#6E3D12"/>
</g>
<path d="M88.199 22.7243H91.923V24.7003H81.834V22.7243H85.596V21.2803H88.199V22.7243ZM82.233 27.8733C82.233 26.9803 82.689 26.3343 83.411 25.8973C84.266 25.3843 85.52 25.1943 86.869 25.1943C88.218 25.1943 89.472 25.3843 90.327 25.8973C91.049 26.3343 91.505 26.9803 91.505 27.8733C91.505 28.7663 91.049 29.4123 90.327 29.8493C89.757 30.1723 89.016 30.3813 88.199 30.4763V31.3883H90.422C91.866 31.3883 92.702 31.1983 93.291 30.7803V21.7933H95.894V26.9233H98.364V29.1653H95.894V33.9533H93.291V32.7373C92.683 33.2313 91.657 33.4783 89.719 33.4783H81.625V31.3883H85.596V30.4763C84.741 30.3813 83.981 30.1913 83.411 29.8493C82.689 29.4123 82.233 28.7663 82.233 27.8733ZM84.684 27.8733C84.684 28.1013 84.817 28.2723 85.045 28.4053C85.406 28.5953 86.052 28.7093 86.869 28.7093C87.686 28.7093 88.332 28.5953 88.693 28.4053C88.921 28.2723 89.035 28.1013 89.035 27.8733C89.035 27.6453 88.921 27.4553 88.693 27.3413C88.332 27.1323 87.686 27.0373 86.869 27.0373C86.052 27.0373 85.406 27.1323 85.045 27.3413C84.817 27.4553 84.684 27.6453 84.684 27.8733ZM95.894 34.5613V39.5203H93.291V36.6513H82.727V34.5613H95.894Z" fill="white"/>
<path d="M112.005 26.7903C112.005 24.9473 112.537 23.5793 113.487 22.7243C114.266 22.0403 115.33 21.6983 116.622 21.6983C117.933 21.6983 118.978 22.0403 119.757 22.7243C120.707 23.5793 121.239 24.9473 121.239 26.7903C121.239 28.6523 120.707 30.0013 119.757 30.8563C118.978 31.5593 117.933 31.9013 116.622 31.9013C115.33 31.9013 114.266 31.5593 113.487 30.8563C112.537 30.0013 112.005 28.6523 112.005 26.7903ZM114.551 26.7903C114.551 27.8733 114.798 28.6523 115.216 29.1083C115.558 29.4693 116.033 29.6593 116.622 29.6593C117.211 29.6593 117.686 29.4693 118.028 29.1083C118.446 28.6523 118.693 27.8733 118.693 26.7903C118.693 25.7073 118.446 24.9473 118.028 24.4723C117.686 24.1113 117.211 23.9213 116.622 23.9213C116.033 23.9213 115.558 24.1113 115.216 24.4723C114.798 24.9473 114.551 25.7073 114.551 26.7903ZM123.766 34.0293V21.7933H126.369V34.0293H123.766ZM113.221 39.3113V33.1363H115.824V37.0503H126.673V39.3113H113.221Z" fill="white"/>
<defs>
<filter id="filter0_d_1199_2238" x="0" y="0" width="208" height="72" filterUnits="userSpaceOnUse" color-interpolation-filters="sRGB">
<feFlood flood-opacity="0" result="BackgroundImageFix"/>
<feColorMatrix in="SourceAlpha" type="matrix" values="0 0 0 0 0 0 0 0 0 0 0 0 0 0 0 0 0 0 127 0" result="hardAlpha"/>
<feOffset dy="4"/>
<feGaussianBlur stdDeviation="2"/>
<feComposite in2="hardAlpha" operator="out"/>
<feColorMatrix type="matrix" values="0 0 0 0 0 0 0 0 0 0 0 0 0 0 0 0 0 0 0.25 0"/>
<feBlend mode="normal" in2="BackgroundImageFix" result="effect1_dropShadow_1199_2238"/>
<feBlend mode="normal" in="SourceGraphic" in2="effect1_dropShadow_1199_2238" result="shape"/>
</filter>
</defs>
</svg>
