<svg width="246" height="88" viewBox="0 0 246 88" fill="none" xmlns="http://www.w3.org/2000/svg">
<g filter="url(#filter0_d_745_608)">
<rect x="7" y="3" width="232" height="72" rx="27" fill="#965E2E" stroke="#4D3114" stroke-width="6"/>
<rect x="15" y="10.7744" width="216" height="56" rx="20" fill="#6E3D12"/>
<path d="M94.4449 34.9985C93.9596 35.0918 93.4089 35.1665 92.7929 35.2225C92.1956 35.2598 91.5703 35.2785 90.9169 35.2785C90.8423 36.7531 90.7023 38.2185 90.4969 39.6745L87.7249 39.5345C87.8929 38.5265 88.0143 37.4718 88.0889 36.3705C88.1823 35.2691 88.2289 34.1678 88.2289 33.0665C88.2289 31.9651 88.1916 30.8825 88.1169 29.8185C88.0423 28.7545 87.9209 27.7371 87.7529 26.7665L90.6649 26.4865C90.8889 28.5398 91.0009 30.5278 91.0009 32.4505C91.5423 32.4131 92.0929 32.3571 92.6529 32.2825C93.2129 32.1891 93.7636 32.0678 94.3049 31.9185L94.4449 34.9985ZM84.5049 36.7345C84.2436 37.3878 83.8983 37.9198 83.4689 38.3305C83.0583 38.7411 82.5916 39.0398 82.0689 39.2265C81.5463 39.4131 81.0049 39.4878 80.4449 39.4505C79.9036 39.4131 79.3809 39.2825 78.8769 39.0585C78.3356 38.8158 77.8969 38.4051 77.5609 37.8265C77.2436 37.2478 77.0663 36.6131 77.0289 35.9225C77.0103 35.2131 77.1409 34.5131 77.4209 33.8225C77.7196 33.1318 78.2236 32.5531 78.9329 32.0865C79.3623 31.7878 79.8663 31.5638 80.4449 31.4145C81.0236 31.2465 81.6396 31.1718 82.2929 31.1905C82.2183 30.6678 82.1156 30.1638 81.9849 29.6785C81.8729 29.1745 81.7329 28.7078 81.5649 28.2785L84.4489 27.8585C84.6543 28.5491 84.8036 29.3051 84.8969 30.1265C85.0089 30.9291 85.0649 31.7318 85.0649 32.5345C85.0836 33.3371 85.0463 34.1118 84.9529 34.8585C84.8596 35.5865 84.7103 36.2118 84.5049 36.7345ZM75.9369 29.1745C76.0863 29.7905 76.2076 30.5278 76.3009 31.3865C76.4129 32.2265 76.4876 33.1038 76.5249 34.0185C76.5623 34.9145 76.5809 35.8011 76.5809 36.6785C76.5809 37.5558 76.5623 38.3398 76.5249 39.0305H74.0329C74.0516 38.3398 74.0516 37.5651 74.0329 36.7065C74.0143 35.8291 73.9676 34.9518 73.8929 34.0745C73.8183 33.1971 73.7156 32.3665 73.5849 31.5825C73.4729 30.7798 73.3329 30.1078 73.1649 29.5665L75.9369 29.1745ZM80.1089 34.1305C79.8663 34.3171 79.6796 34.5411 79.5489 34.8025C79.4369 35.0638 79.3716 35.3345 79.3529 35.6145C79.3343 35.8945 79.3716 36.1651 79.4649 36.4265C79.5769 36.6691 79.7449 36.8558 79.9689 36.9865C80.4543 37.3038 80.9023 37.3318 81.3129 37.0705C81.7236 36.8091 82.0316 36.3798 82.2369 35.7825C82.3303 35.5025 82.3956 35.1478 82.4329 34.7185C82.4889 34.2891 82.5076 33.8131 82.4889 33.2905C81.6676 33.2718 80.8743 33.5518 80.1089 34.1305ZM86.5769 41.3265C87.3049 41.3638 87.9489 41.5131 88.5089 41.7745C89.0689 42.0171 89.5356 42.3531 89.9089 42.7825C90.3009 43.1931 90.5903 43.6691 90.7769 44.2105C90.9636 44.7331 91.0569 45.2838 91.0569 45.8625C91.0569 46.5345 90.9169 47.1785 90.6369 47.7945C90.3569 48.4105 89.9649 48.9518 89.4609 49.4185C88.9569 49.8851 88.3503 50.2585 87.6409 50.5385C86.9316 50.8185 86.1476 50.9585 85.2889 50.9585C84.2996 50.9585 83.4316 50.8278 82.6849 50.5665C81.9569 50.3051 81.3409 49.9411 80.8369 49.4745C80.3516 49.0265 79.9783 48.4945 79.7169 47.8785C79.4743 47.2811 79.3529 46.6465 79.3529 45.9745C79.3529 45.2278 79.5209 44.5185 79.8569 43.8465C80.1929 43.1745 80.6689 42.5958 81.2849 42.1105C81.9196 41.6251 82.6849 41.2611 83.5809 41.0185C84.4769 40.7758 85.4756 40.7011 86.5769 40.7945V41.3265ZM85.2889 48.4665C86.1849 48.4478 86.9223 48.1958 87.5009 47.7105C88.0796 47.2438 88.3596 46.5905 88.3409 45.7505C88.3036 44.9478 87.9863 44.3598 87.3889 43.9865C86.7916 43.6131 85.9236 43.5011 84.7849 43.6505V43.1745C83.8703 43.3611 83.1796 43.7158 82.7129 44.2385C82.2649 44.7611 82.0503 45.3305 82.0689 45.9465C82.0876 46.7118 82.3583 47.3278 82.8809 47.7945C83.4036 48.2611 84.2063 48.4851 85.2889 48.4665ZM118.808 43.3705C119.032 42.1571 119.21 40.8318 119.34 39.3945C119.471 37.9385 119.555 36.4731 119.592 34.9985C119.63 33.5238 119.611 32.0771 119.536 30.6585C119.462 29.2398 119.331 27.9425 119.144 26.7665L122.056 26.4865C122.15 27.5505 122.215 28.6798 122.252 29.8745C122.308 31.0505 122.327 32.2638 122.308 33.5145C122.887 33.4771 123.466 33.4211 124.044 33.3465C124.623 33.2531 125.192 33.1318 125.752 32.9825L125.892 36.0625C125.407 36.1558 124.838 36.2305 124.184 36.2865C123.55 36.3238 122.906 36.3425 122.252 36.3425C122.196 37.6491 122.112 38.9278 122 40.1785C121.888 41.4291 121.748 42.6051 121.58 43.7065L118.808 43.3705ZM115.28 38.8625C114.702 38.9558 114.095 39.0305 113.46 39.0865C112.826 39.1425 112.191 39.1891 111.556 39.2265C110.94 39.2451 110.324 39.2545 109.708 39.2545C109.092 39.2358 108.523 39.2078 108 39.1705C108 39.2638 107.991 39.3478 107.972 39.4225C107.972 39.4971 107.972 39.5811 107.972 39.6745H105.48C105.499 38.8718 105.49 38.0411 105.452 37.1825C105.434 36.3051 105.378 35.4371 105.284 34.5785C105.21 33.7011 105.098 32.8518 104.948 32.0305C104.818 31.1905 104.659 30.4065 104.472 29.6785L107.384 29.2305C107.422 29.3798 107.45 29.5385 107.468 29.7065C107.506 29.8745 107.543 30.0331 107.58 30.1825C108.122 29.7905 108.747 29.4545 109.456 29.1745C110.184 28.8758 110.968 28.7265 111.808 28.7265C113.283 28.7265 114.338 29.1185 114.972 29.9025C115.607 30.6865 115.859 31.6945 115.728 32.9265C115.672 33.4491 115.542 34.0278 115.336 34.6625C115.15 35.2971 114.907 35.8851 114.608 36.4265L115.448 36.2865L115.28 38.8625ZM108.112 36.7625C108.71 36.7998 109.316 36.8185 109.932 36.8185C110.548 36.7998 111.174 36.7718 111.808 36.7345C112.126 36.1371 112.378 35.5118 112.564 34.8585C112.751 34.1865 112.863 33.5891 112.9 33.0665C112.938 32.5065 112.844 32.0865 112.62 31.8065C112.396 31.5265 111.986 31.4051 111.388 31.4425C110.791 31.4798 110.194 31.6105 109.596 31.8345C109.018 32.0585 108.467 32.3291 107.944 32.6465C108.075 33.9905 108.131 35.3625 108.112 36.7625ZM116.232 48.3265C117.296 48.3638 118.314 48.2798 119.284 48.0745C120.255 47.8878 121.328 47.6078 122.504 47.2345L122.98 49.8105C121.786 50.1838 120.582 50.4638 119.368 50.6505C118.155 50.8371 116.951 50.9118 115.756 50.8745C114.879 50.8558 114.132 50.7531 113.516 50.5665C112.919 50.3798 112.424 50.1371 112.032 49.8385C111.659 49.5585 111.37 49.2131 111.164 48.8025C110.959 48.4105 110.81 47.9905 110.716 47.5425C110.436 46.1611 110.511 44.3971 110.94 42.2505L113.796 42.5305C113.628 43.3891 113.507 44.2011 113.432 44.9665C113.358 45.7318 113.386 46.3851 113.516 46.9265C113.666 47.5051 113.946 47.8691 114.356 48.0185C114.767 48.1865 115.392 48.2891 116.232 48.3265ZM132.44 31.5825C132.496 31.3025 132.58 31.0411 132.692 30.7985C132.804 30.5558 132.934 30.3225 133.084 30.0985C132.841 30.0798 132.608 30.0705 132.384 30.0705C132.16 30.0518 131.926 30.0238 131.684 29.9865V27.4385C134.017 27.6438 136.257 27.7371 138.404 27.7185C140.55 27.6811 142.697 27.5411 144.844 27.2985V29.8465C143.388 30.0145 141.885 30.1358 140.336 30.2105C138.786 30.2665 137.218 30.2758 135.632 30.2385C135.389 30.5931 135.221 30.9758 135.128 31.3865C135.053 31.7598 135.137 32.0678 135.38 32.3105C135.622 32.5345 136.07 32.6745 136.724 32.7305C137.806 32.8238 139.057 32.7771 140.476 32.5905C141.913 32.3851 143.369 32.0678 144.844 31.6385L145.404 34.2985C143.761 34.6718 142.109 34.9238 140.448 35.0545C138.786 35.1851 137.256 35.1758 135.856 35.0265C134.624 34.8771 133.69 34.5038 133.056 33.9065C132.44 33.2905 132.234 32.5158 132.44 31.5825ZM128.044 36.1745C129.481 36.3238 131.124 36.4171 132.972 36.4545C134.838 36.4918 136.742 36.4918 138.684 36.4545C140.625 36.4171 142.52 36.3518 144.368 36.2585C146.234 36.1651 147.886 36.0438 149.324 35.8945L149.184 38.3305C147.709 38.4425 146.057 38.5358 144.228 38.6105C142.417 38.6665 140.569 38.7131 138.684 38.7505C136.798 38.7691 134.941 38.7691 133.112 38.7505C131.301 38.7318 129.658 38.6851 128.184 38.6105L128.044 36.1745ZM137.368 48.5785C137.853 48.5971 138.422 48.5878 139.076 48.5505C139.729 48.5318 140.429 48.4758 141.176 48.3825C141.922 48.3078 142.678 48.1958 143.444 48.0465C144.228 47.9158 144.984 47.7571 145.712 47.5705L146.076 50.2305C145.31 50.3985 144.517 50.5291 143.696 50.6225C142.893 50.7345 142.1 50.8185 141.316 50.8745C140.532 50.9305 139.785 50.9678 139.076 50.9865C138.366 51.0051 137.732 51.0051 137.172 50.9865C136.313 50.9491 135.604 50.8278 135.044 50.6225C134.484 50.4358 134.045 50.1931 133.728 49.8945C133.429 49.5958 133.233 49.2598 133.14 48.8865C133.046 48.5318 133.046 48.1585 133.14 47.7665C133.252 47.3371 133.42 46.9918 133.644 46.7305C133.494 46.7305 133.345 46.7305 133.196 46.7305C133.046 46.7118 132.897 46.7025 132.748 46.7025L132.58 44.4345C134.334 44.5278 136.042 44.5558 137.704 44.5185C139.365 44.4811 141.017 44.3598 142.66 44.1545C142.697 44.0611 142.716 43.9771 142.716 43.9025C142.734 43.8091 142.753 43.7158 142.772 43.6225C142.828 43.2491 142.753 43.0065 142.548 42.8945C142.361 42.7825 141.988 42.7078 141.428 42.6705C140.98 42.6331 140.42 42.6238 139.748 42.6425C139.094 42.6611 138.404 42.7078 137.676 42.7825C136.948 42.8385 136.22 42.9225 135.492 43.0345C134.764 43.1278 134.101 43.2491 133.504 43.3985L133.084 40.5985C133.737 40.5051 134.474 40.4305 135.296 40.3745C136.117 40.2998 136.938 40.2531 137.76 40.2345C138.6 40.1971 139.393 40.1878 140.14 40.2065C140.905 40.2065 141.558 40.2345 142.1 40.2905C143.462 40.4398 144.377 40.7945 144.844 41.3545C145.329 41.9145 145.45 42.6238 145.208 43.4825L145.124 43.8185L145.88 43.6785L145.768 45.9465C144.237 46.2451 142.669 46.4598 141.064 46.5905C139.458 46.7211 137.816 46.7865 136.136 46.7865C136.024 46.9918 135.94 47.2065 135.884 47.4305C135.828 47.7478 135.884 48.0091 136.052 48.2145C136.22 48.4198 136.658 48.5411 137.368 48.5785ZM170.319 26.4865C170.487 28.2598 170.609 30.1358 170.683 32.1145C170.777 34.0931 170.823 36.0905 170.823 38.1065C170.842 40.1225 170.814 42.1198 170.739 44.0985C170.683 46.0585 170.59 47.9345 170.459 49.7265L167.519 49.5865C167.669 47.8505 167.771 46.0211 167.827 44.0985C167.902 42.1571 167.93 40.1971 167.911 38.2185C167.911 36.2398 167.865 34.2798 167.771 32.3385C167.678 30.3785 167.547 28.5211 167.379 26.7665L170.319 26.4865ZM152.119 42.7265C153.93 41.9798 155.517 41.0838 156.879 40.0385C158.242 38.9745 159.297 37.9011 160.043 36.8185C160.305 36.4451 160.454 36.0811 160.491 35.7265C160.529 35.3718 160.473 35.0638 160.323 34.8025C160.174 34.5225 159.941 34.2891 159.623 34.1025C159.325 33.9158 158.961 33.8038 158.531 33.7665C157.71 33.6731 156.879 33.7385 156.039 33.9625C155.218 34.1865 154.303 34.5225 153.295 34.9705L152.483 31.9745C153.006 31.7505 153.566 31.5638 154.163 31.4145C154.779 31.2465 155.395 31.1251 156.011 31.0505C156.646 30.9571 157.271 30.9105 157.887 30.9105C158.503 30.9105 159.091 30.9665 159.651 31.0785C160.603 31.2651 161.378 31.6011 161.975 32.0865C162.573 32.5531 162.993 33.1131 163.235 33.7665C163.478 34.4011 163.534 35.1011 163.403 35.8665C163.273 36.6131 162.974 37.3691 162.507 38.1345C162.059 38.8438 161.518 39.5345 160.883 40.2065C160.249 40.8785 159.539 41.5318 158.755 42.1665C157.971 42.7825 157.131 43.3611 156.235 43.9025C155.358 44.4438 154.453 44.9385 153.519 45.3865L152.119 42.7265Z" fill="white"/>
</g>
<defs>
<filter id="filter0_d_745_608" x="0" y="0" width="246" height="88" filterUnits="userSpaceOnUse" color-interpolation-filters="sRGB">
<feFlood flood-opacity="0" result="BackgroundImageFix"/>
<feColorMatrix in="SourceAlpha" type="matrix" values="0 0 0 0 0 0 0 0 0 0 0 0 0 0 0 0 0 0 127 0" result="hardAlpha"/>
<feOffset dy="6"/>
<feGaussianBlur stdDeviation="2"/>
<feComposite in2="hardAlpha" operator="out"/>
<feColorMatrix type="matrix" values="0 0 0 0 0 0 0 0 0 0 0 0 0 0 0 0 0 0 0.8 0"/>
<feBlend mode="normal" in2="BackgroundImageFix" result="effect1_dropShadow_745_608"/>
<feBlend mode="normal" in="SourceGraphic" in2="effect1_dropShadow_745_608" result="shape"/>
</filter>
</defs>
</svg>
