<svg width="255" height="70" viewBox="0 0 255 70" fill="none" xmlns="http://www.w3.org/2000/svg">
<path d="M238.188 67.338C178.823 69.7389 6.94654 73.9339 2.31981 61.5045C-4.05382 44.3833 5.08269 19.7901 1.83009 6.31769C1.23074 3.8523 4.75378 1.65621 9.38051 1.58794C51.2477 0.958313 209.514 -1.24157 247.968 0.950727C252.258 1.19347 255.379 3.24164 254.963 5.54773C253.062 15.9782 248.231 45.2102 250.921 59.1301C251.725 63.3099 246.002 67.0232 238.195 67.3418L238.188 67.338Z" fill="#643B11"/>
<path d="M231.566 65.2292C175.753 67.4102 14.1608 71.222 9.81186 59.9268C3.81831 44.3682 12.4066 22.028 9.34407 9.78449C8.78126 7.54288 12.0923 5.55161 16.4413 5.48713C55.8014 4.9144 204.602 2.91554 240.754 4.90681C244.788 5.13059 247.727 6.98912 247.332 9.08281C245.549 18.5613 241.002 45.1192 243.531 57.7686C244.291 61.5653 238.904 64.941 231.566 65.2292Z" fill="#6E3D12"/>
<path d="M219.309 61.77C170.066 63.6968 27.5075 67.0574 23.6701 57.0934C18.3856 43.3706 25.9579 23.6589 23.2608 12.8567C22.7638 10.8806 25.6875 9.12067 29.5248 9.06377C64.2509 8.55932 195.524 6.79561 227.414 8.55173C230.974 8.74896 233.562 10.3875 233.218 12.2346C231.646 20.5942 227.634 44.0268 229.863 55.1855C230.535 58.5347 225.777 61.5121 219.309 61.7662V61.77Z" fill="#643B11"/>
<path d="M214.894 61.9518C168.02 63.7117 32.3169 66.7802 28.6623 57.681C23.6336 45.1454 30.8404 27.1405 28.2676 17.2789C27.7998 15.4735 30.5773 13.8691 34.2319 13.816C67.2915 13.3532 192.25 11.7451 222.612 13.3495C225.996 13.5277 228.467 15.0259 228.131 16.7138C226.632 24.3489 222.817 45.7523 224.937 55.9438C225.573 59.0047 221.048 61.7242 214.886 61.9556L214.894 61.9518Z" fill="url(#paint0_linear_2063_1401)"/>
<path d="M26.3745 52.8716C25.5194 53.505 73.2266 57.7265 91.8797 56.3724C78.6866 59.8581 25.227 55.3863 25.227 55.3863L26.3745 52.8716Z" fill="#965E2E"/>
<path d="M26.74 20.8255C26.74 20.8255 35.3137 20.4007 54.9828 19.8469C37.9304 18.216 25.2343 18.2653 25.2343 18.2653L26.74 20.8255Z" fill="#965E2E"/>
<path d="M229.636 16.6911C229.636 16.6911 221.099 16.6305 201.481 16.6343C218.621 15.9515 231.303 15.8491 231.303 15.8491L229.644 16.6911H229.636Z" fill="#965E2E"/>
<path d="M247.917 6.54515C247.917 6.54515 239.38 6.48446 219.762 6.48826C236.902 5.80553 249.583 5.70312 249.583 5.70312L247.924 6.54515H247.917Z" fill="#965E2E"/>
<path d="M229 29.3787C229 29.3787 223.972 29.2725 212.416 29.1587C222.495 28.6087 229.965 28.5859 229.965 28.5859L229.008 29.3787H229Z" fill="#965E2E"/>
<path d="M226.186 53.3798C226.186 53.3798 217.328 53.0271 196.993 52.5682C214.696 51.2672 227.831 51.3127 227.831 51.3127L226.186 53.3798Z" fill="#965E2E"/>
<path d="M102.515 16.566C102.515 16.566 139.631 15.064 169.153 16.566C155.09 14.5823 108.406 15.3182 102.515 16.566Z" fill="#965E2E"/>
<path d="M136.736 57.2716C136.736 57.2716 165.052 58.8267 187.375 56.5244C176.827 59.2894 141.297 58.8457 136.736 57.2716Z" fill="#965E2E"/>
<path d="M71.1946 62.9725C71.1946 62.9725 145.844 64.1256 205.151 62.3467C176.915 64.4631 83.0502 64.1635 71.1946 62.9725Z" fill="#965E2E"/>
<path d="M39.4434 47.3799C39.4434 47.3799 58.7836 51.2335 75.3974 50.7821C66.8968 52.6482 42.0455 49.3067 39.4434 47.3799Z" fill="#965E2E"/>
<path d="M67.0157 33.5919H60.6357V34.7139H66.1357C67.8737 34.7139 68.9077 34.5599 69.6557 34.0539V27.0139H73.5057V30.9079H76.2117V34.0979H73.5057V37.7939H69.6557V36.6059C68.9077 37.1119 67.6317 37.3759 65.6077 37.3759H56.8957V27.2559H67.4557V29.8959H60.6357V30.9519H67.0157V33.5919ZM73.5057 44.4599H61.7577V45.2739H73.7477V47.8259H57.9737V41.8639H69.6777V41.0719H57.9737V38.4539H73.5057V44.4599Z" fill="url(#paint1_linear_2063_1401)"/>
<path d="M90.9288 27.3659V30.4239H83.9768V32.4039H90.8408V35.4179H83.9768V37.4199H91.2808V40.4559H87.5188V43.4039H89.4108C91.1048 43.4039 92.1168 43.1619 92.7988 42.5239V27.0139H96.6488V47.6499H92.7988V45.5599C92.0948 46.2419 90.9068 46.5499 88.9708 46.5499H79.3568V43.4039H83.7348V40.4559H80.1488V27.3659H90.9288Z" fill="url(#paint2_linear_2063_1401)"/>
<path d="M110.506 30.3799V27.2559H121.484V30.3799H117.876V30.9519C117.876 34.4059 119.218 35.7479 121.836 36.2539V39.4219C119.482 39.1579 117.238 38.1239 116.028 36.6939C114.796 38.1679 112.398 39.3999 110.154 39.6419V36.4739C112.684 35.9679 114.092 34.4719 114.092 30.9519V30.3799H110.506ZM127.38 27.0139V41.4679H123.53V27.0139H127.38ZM127.644 44.6139V47.7379H111.65V40.3239H115.5V44.6139H127.644Z" fill="url(#paint3_linear_2063_1401)"/>
<path d="M141.899 28.2019V31.0179H132.593V28.2019H135.607V26.4419H139.061V28.2019H141.899ZM136.091 35.4399C136.091 35.8579 136.223 36.2099 136.465 36.4079C136.707 36.6279 137.015 36.7159 137.345 36.7159C137.675 36.7159 137.961 36.6279 138.203 36.4079C138.445 36.2099 138.577 35.8579 138.577 35.4399C138.577 35.0439 138.445 34.6919 138.203 34.4719C137.961 34.2739 137.675 34.1859 137.345 34.1859C137.015 34.1859 136.707 34.2739 136.465 34.4719C136.223 34.6919 136.091 35.0439 136.091 35.4399ZM132.879 35.4399C132.879 34.1639 133.407 33.0639 134.331 32.3599C135.101 31.7659 136.135 31.4359 137.345 31.4359C138.533 31.4359 139.567 31.7659 140.359 32.3599C141.261 33.0639 141.789 34.1639 141.789 35.4399C141.789 36.7379 141.261 37.8159 140.359 38.5419C139.567 39.1139 138.533 39.4439 137.345 39.4439C136.135 39.4439 135.101 39.1139 134.331 38.5419C133.407 37.8159 132.879 36.7379 132.879 35.4399ZM150.303 27.0139V39.6199H146.915V34.9339H145.705V39.3339H142.449V27.1459H145.705V31.6999H146.915V27.0139H150.303ZM134.023 44.0419C134.023 42.7439 134.661 41.8199 135.761 41.1819C137.235 40.3239 139.567 39.9719 142.339 39.9719C145.089 39.9719 147.421 40.3239 148.917 41.1819C150.017 41.8199 150.655 42.7439 150.655 44.0419C150.655 45.3399 150.017 46.2419 148.917 46.9019C147.421 47.7599 145.089 48.0899 142.339 48.0899C139.567 48.0899 137.235 47.7599 135.761 46.9019C134.661 46.2419 134.023 45.3399 134.023 44.0419ZM137.807 44.0419C137.807 44.3059 137.961 44.4819 138.247 44.6579C138.929 45.0099 140.315 45.1199 142.339 45.1199C144.363 45.1199 145.771 45.0099 146.409 44.6579C146.695 44.4819 146.849 44.3059 146.849 44.0419C146.849 43.7779 146.695 43.5799 146.409 43.4259C145.771 43.0739 144.363 42.9639 142.339 42.9639C140.315 42.9639 138.929 43.0739 138.247 43.4259C137.961 43.5799 137.807 43.7779 137.807 44.0419Z" fill="url(#paint4_linear_2063_1401)"/>
<path d="M167.066 32.2499H155.208V29.0599H159.168V26.4419H163.04V29.0599H167.066V32.2499ZM159.608 39.8179C159.608 41.5999 159.828 42.6559 160.268 43.1619C160.51 43.4259 160.796 43.5359 161.17 43.5359C161.544 43.5359 161.83 43.4259 162.072 43.1619C162.512 42.6559 162.732 41.5999 162.732 39.8179C162.732 38.0579 162.512 37.0019 162.072 36.4739C161.83 36.2319 161.544 36.0999 161.17 36.0999C160.796 36.0999 160.51 36.2319 160.268 36.4739C159.828 37.0019 159.608 38.0579 159.608 39.8179ZM155.824 39.8179C155.824 37.1119 156.506 35.1099 157.87 33.9879C158.728 33.3059 159.828 32.9319 161.17 32.9319C162.512 32.9319 163.612 33.3059 164.47 33.9879C165.834 35.1099 166.516 37.1119 166.516 39.8179C166.516 42.5239 165.834 44.5259 164.47 45.6699C163.612 46.3519 162.512 46.7039 161.17 46.7039C159.828 46.7039 158.728 46.3519 157.87 45.6699C156.506 44.5259 155.824 42.5239 155.824 39.8179ZM168.342 27.0139H172.192V34.9559H175.03V38.1679H172.192V47.6279H168.342V27.0139Z" fill="url(#paint5_linear_2063_1401)"/>
<path d="M185.127 32.2939V30.5559H178.615V27.3659H188.955V31.8539C188.955 40.4999 185.721 44.9659 178.483 46.5499V43.1619C183.081 41.8199 185.127 38.3439 185.127 32.2939ZM191.485 27.0139H195.335V47.6279H191.485V27.0139Z" fill="url(#paint6_linear_2063_1401)"/>
<path fill-rule="evenodd" clip-rule="evenodd" d="M68.0156 33.602C68.2704 33.5607 68.4794 33.5081 68.6557 33.4448V27.0139C68.6557 26.4616 69.1034 26.0139 69.6557 26.0139H73.5057C74.058 26.0139 74.5057 26.4616 74.5057 27.0139V29.9079H76.2117C76.764 29.9079 77.2117 30.3556 77.2117 30.9079V34.0979C77.2117 34.6502 76.764 35.0979 76.2117 35.0979H74.5057V37.7939C74.5057 37.9095 74.4861 38.0206 74.45 38.1239C74.4861 38.2272 74.5057 38.3383 74.5057 38.4539V44.4599C74.5057 44.5106 74.5019 44.5604 74.4946 44.609C74.6521 44.7857 74.7477 45.0186 74.7477 45.2739V47.8259C74.7477 48.3782 74.3 48.8259 73.7477 48.8259H57.9737C57.4214 48.8259 56.9737 48.3782 56.9737 47.8259V41.8639C56.9737 41.7232 57.0027 41.5893 57.0552 41.4679C57.0027 41.3465 56.9737 41.2126 56.9737 41.0719V38.4539C56.9737 38.4276 56.9747 38.4016 56.9767 38.3759H56.8957C56.3434 38.3759 55.8957 37.9282 55.8957 37.3759V27.2559C55.8957 26.7036 56.3434 26.2559 56.8957 26.2559H67.4557C68.008 26.2559 68.4557 26.7036 68.4557 27.2559V29.8959C68.4557 30.2504 68.2712 30.5618 67.9931 30.7394C68.0079 30.8079 68.0157 30.879 68.0157 30.9519V33.5919C68.0157 33.5953 68.0157 33.5987 68.0156 33.602ZM57.9737 38.4539V41.0719H69.6777V41.8639H57.9737V47.8259H73.7477V45.2739H61.7577V44.4599H73.5057V38.4539H57.9737ZM69.6557 37.7939H73.5057V34.0979H76.2117V30.9079H73.5057V27.0139H69.6557V34.0539C68.9077 34.5599 67.8737 34.7139 66.1357 34.7139H60.6357V33.5919H67.0157V30.9519H60.6357V29.8959H67.4557V27.2559H56.8957V37.3759H65.6077C66.9167 37.3759 67.9129 37.2655 68.6557 37.0505C69.0614 36.9332 69.3915 36.7846 69.6557 36.6059V37.7939ZM91.8068 26.8868C91.6371 26.5764 91.3076 26.3659 90.9288 26.3659H80.1488C79.5965 26.3659 79.1488 26.8136 79.1488 27.3659V40.4559C79.1488 41.0082 79.5965 41.4559 80.1488 41.4559H82.7348V42.4039H79.3568C78.8045 42.4039 78.3568 42.8516 78.3568 43.4039V46.5499C78.3568 47.1022 78.8045 47.5499 79.3568 47.5499H88.9708C90.0478 47.5499 90.9962 47.4611 91.7988 47.2229V47.6499C91.7988 48.2022 92.2466 48.6499 92.7988 48.6499H96.6488C97.2011 48.6499 97.6488 48.2022 97.6488 47.6499V27.0139C97.6488 26.4616 97.2011 26.0139 96.6488 26.0139H92.7988C92.2896 26.0139 91.8693 26.3945 91.8068 26.8868ZM91.7988 46.1691C92.2082 46.0155 92.537 45.8136 92.7988 45.5599V47.6499H96.6488V27.0139H92.7988V42.5239C92.1168 43.1619 91.1048 43.4039 89.4108 43.4039H87.5188V40.4559H91.2808V37.4199H83.9768V35.4179H90.8408V32.4039H83.9768V30.4239H90.9288V27.3659H80.1488V40.4559H83.7348V43.4039H79.3568V46.5499H88.9708C90.1867 46.5499 91.1076 46.4284 91.7988 46.1691ZM91.0196 31.4198C91.354 31.3897 91.641 31.195 91.7988 30.9173V32.1162C91.6919 31.7597 91.3915 31.487 91.0196 31.4198ZM91.7988 35.7056C91.6753 36.1176 91.2931 36.4179 90.8408 36.4179H84.9768V36.4199H91.2808C91.4705 36.4199 91.6478 36.4727 91.7988 36.5643V35.7056ZM91.7988 41.3114C91.6478 41.4031 91.4705 41.4559 91.2808 41.4559H88.5188V42.4039H89.4108C90.6841 42.4039 91.3732 42.2555 91.7988 42.0218V41.3114ZM110.506 31.3799C109.953 31.3799 109.506 30.9322 109.506 30.3799V27.2559C109.506 26.7036 109.953 26.2559 110.506 26.2559H121.484C122.036 26.2559 122.484 26.7036 122.484 27.2559V30.3799C122.484 30.9322 122.036 31.3799 121.484 31.3799H118.884C118.935 32.7364 119.235 33.5575 119.656 34.0846C120.111 34.6552 120.836 35.0423 122.026 35.2721C122.221 35.3099 122.394 35.4033 122.53 35.5339V27.0139C122.53 26.4616 122.977 26.0139 123.53 26.0139H127.38C127.932 26.0139 128.38 26.4616 128.38 27.0139V41.4679C128.38 42.0202 127.932 42.4679 127.38 42.4679H123.53C122.977 42.4679 122.53 42.0202 122.53 41.4679V40.1419C122.521 40.1505 122.512 40.159 122.502 40.1674C122.29 40.3571 122.007 40.4474 121.724 40.4157C119.606 40.1782 117.499 39.3578 116.036 38.1101C115.528 38.5591 114.937 38.9693 114.296 39.3239H115.5C116.052 39.3239 116.5 39.7716 116.5 40.3239V43.6139H127.644C128.196 43.6139 128.644 44.0616 128.644 44.6139V47.7379C128.644 48.2902 128.196 48.7379 127.644 48.7379H111.65C111.097 48.7379 110.65 48.2902 110.65 47.7379V40.5856C110.52 40.6053 110.39 40.6222 110.261 40.6361C109.979 40.6666 109.697 40.5756 109.486 40.3859C109.274 40.1963 109.154 39.9258 109.154 39.6419V36.4739C109.154 35.9972 109.49 35.5868 109.958 35.4933C111.072 35.2704 111.802 34.8594 112.276 34.2372C112.718 33.6571 113.031 32.7712 113.084 31.3799H110.506ZM114.092 30.3799V30.9519C114.092 31.098 114.089 31.2407 114.084 31.3799C113.973 34.5944 112.579 35.9889 110.154 36.4739V39.6419C110.47 39.6077 110.79 39.5539 111.109 39.4824C111.124 39.4791 111.139 39.4757 111.154 39.4723C111.319 39.4343 111.485 39.3916 111.65 39.3445C111.673 39.3377 111.697 39.3309 111.721 39.3239C113.072 38.9264 114.368 38.2329 115.322 37.4065C115.585 37.178 115.823 36.9393 116.028 36.6939C116.237 36.9408 116.476 37.176 116.742 37.3974C117.796 38.2748 119.259 38.9365 120.836 39.2626C121.165 39.3307 121.499 39.3842 121.836 39.4219V36.2539C119.329 35.7693 117.992 34.5182 117.883 31.3799C117.878 31.241 117.876 31.0983 117.876 30.9519V30.3799H121.484V27.2559H110.506V30.3799H114.092ZM111.65 47.7379H127.644V44.6139H115.5V40.3239H111.65V47.7379ZM142.449 27.1459H145.705V31.6999H146.915V27.0139H150.303V39.6199H146.915V34.9339H145.705V39.3339H142.449V27.1459ZM141.899 31.0179V28.2019H139.061V26.4419H135.607V28.2019H132.593V31.0179H141.899ZM133.213 32.0179H132.593C132.041 32.0179 131.593 31.5702 131.593 31.0179V28.2019C131.593 27.6496 132.041 27.2019 132.593 27.2019H134.607V26.4419C134.607 25.8896 135.055 25.4419 135.607 25.4419H139.061C139.613 25.4419 140.061 25.8896 140.061 26.4419V27.2019H141.449V27.1459C141.449 26.5936 141.897 26.1459 142.449 26.1459H145.705C145.895 26.1459 146.073 26.1989 146.224 26.291C146.403 26.1193 146.647 26.0139 146.915 26.0139H150.303C150.855 26.0139 151.303 26.4616 151.303 27.0139V39.6199C151.303 40.1722 150.855 40.6199 150.303 40.6199H149.887C150.974 41.4057 151.655 42.5365 151.655 44.0419C151.655 45.7617 150.767 46.9582 149.431 47.7594L149.414 47.7694C147.676 48.7662 145.115 49.0899 142.339 49.0899C139.544 49.0899 136.978 48.7673 135.258 47.7661L135.246 47.7595C133.911 46.9583 133.023 45.7617 133.023 44.0419C133.023 42.331 133.903 41.1038 135.258 40.3173M137.706 40.435C136.956 40.621 136.301 40.8675 135.761 41.1819C134.661 41.8199 134.023 42.7439 134.023 44.0419C134.023 45.3399 134.661 46.2419 135.761 46.9019C137.235 47.7599 139.567 48.0899 142.339 48.0899C145.089 48.0899 147.421 47.7599 148.917 46.9019C150.017 46.2419 150.655 45.3399 150.655 44.0419C150.655 42.7439 150.017 41.8199 148.917 41.1819C148.534 40.9623 148.096 40.7758 147.611 40.6199C147.389 40.5486 147.156 40.4836 146.915 40.4248C146.669 40.3651 146.414 40.3117 146.15 40.2644C146.132 40.2611 146.114 40.2579 146.096 40.2547C145.967 40.2323 145.837 40.2112 145.705 40.1916C144.719 40.0453 143.623 39.9761 142.449 39.9721C142.412 39.972 142.376 39.9719 142.339 39.9719C142.118 39.9719 141.9 39.9741 141.684 39.9787C140.873 39.9958 140.105 40.0459 139.39 40.1331C138.788 40.2065 138.225 40.3063 137.706 40.435ZM141.36 38.9868C141.39 38.9859 141.419 38.985 141.449 38.9842V38.8966C141.42 38.927 141.39 38.9571 141.36 38.9868ZM141.449 37.1245C141.67 36.6219 141.789 36.0556 141.789 35.4399C141.789 34.8346 141.67 34.2689 141.449 33.7663C141.204 33.2094 140.833 32.7299 140.359 32.3599C140.191 32.2338 140.012 32.1196 139.823 32.0179C139.121 31.6406 138.281 31.4359 137.345 31.4359C136.392 31.4359 135.548 31.6406 134.856 32.0179C134.67 32.1196 134.494 32.2338 134.331 32.3599C133.407 33.0639 132.879 34.1639 132.879 35.4399C132.879 36.7379 133.407 37.8159 134.331 38.5419C135.101 39.1139 136.135 39.4439 137.345 39.4439C137.419 39.4439 137.493 39.4426 137.566 39.44C138.143 39.4198 138.681 39.3205 139.169 39.1528C139.608 39.002 140.007 38.7958 140.359 38.5419C140.833 38.1603 141.204 37.6814 141.449 37.1245ZM137.124 35.6557C137.128 35.6597 137.133 35.6638 137.138 35.668C137.148 35.6777 137.162 35.687 137.188 35.6957C137.217 35.7055 137.267 35.7159 137.345 35.7159C137.421 35.7159 137.461 35.7058 137.48 35.6994C137.495 35.6943 137.509 35.6872 137.53 35.668C137.535 35.6638 137.539 35.6597 137.544 35.6557C137.545 35.6536 137.546 35.6512 137.547 35.6485C137.56 35.6152 137.577 35.5468 137.577 35.4399C137.577 35.3512 137.562 35.287 137.547 35.2478C137.543 35.2367 137.539 35.2283 137.535 35.2222C137.5 35.2023 137.445 35.1859 137.345 35.1859C137.234 35.1859 137.168 35.2063 137.131 35.2251C137.128 35.2309 137.124 35.2384 137.121 35.2478C137.106 35.287 137.091 35.3512 137.091 35.4399C137.091 35.5468 137.108 35.6152 137.121 35.6485C137.122 35.6512 137.123 35.6536 137.124 35.6557ZM138.203 34.4719C138.445 34.6919 138.577 35.0439 138.577 35.4399C138.577 35.8579 138.445 36.2099 138.203 36.4079C137.961 36.6279 137.675 36.7159 137.345 36.7159C137.015 36.7159 136.707 36.6279 136.465 36.4079C136.223 36.2099 136.091 35.8579 136.091 35.4399C136.091 35.0439 136.223 34.6919 136.465 34.4719C136.707 34.2739 137.015 34.1859 137.345 34.1859C137.675 34.1859 137.961 34.2739 138.203 34.4719ZM144.629 44.0419C144.02 44.0968 143.256 44.1199 142.339 44.1199C141.421 44.1199 140.662 44.0968 140.054 44.0419C140.662 43.987 141.421 43.9639 142.339 43.9639C143.256 43.9639 144.02 43.987 144.629 44.0419ZM138.247 43.4259C138.929 43.0739 140.315 42.9639 142.339 42.9639C144.363 42.9639 145.771 43.0739 146.409 43.4259C146.695 43.5799 146.849 43.7779 146.849 44.0419C146.849 44.3059 146.695 44.4819 146.409 44.6579C145.771 45.0099 144.363 45.1199 142.339 45.1199C140.315 45.1199 138.929 45.0099 138.247 44.6579C137.961 44.4819 137.807 44.3059 137.807 44.0419C137.807 43.7779 137.961 43.5799 138.247 43.4259ZM167.342 33.2113C167.254 33.2364 167.162 33.2499 167.066 33.2499H165.147C166.345 34.2565 167.043 35.752 167.342 37.5527V33.2113ZM167.342 28.0985C167.254 28.0733 167.162 28.0599 167.066 28.0599H164.04V26.4419C164.04 25.8896 163.592 25.4419 163.04 25.4419H159.168C158.616 25.4419 158.168 25.8896 158.168 26.4419V28.0599H155.208C154.656 28.0599 154.208 28.5076 154.208 29.0599V32.2499C154.208 32.8022 154.656 33.2499 155.208 33.2499H157.193C155.521 34.6541 154.824 37.0095 154.824 39.8179C154.824 42.6531 155.535 45.0162 157.227 46.4361C157.234 46.4417 157.241 46.4473 157.248 46.4527C158.315 47.3011 159.647 47.7039 161.17 47.7039C162.693 47.7039 164.025 47.3011 165.092 46.4527C165.096 46.4499 165.099 46.447 165.103 46.4441C165.106 46.4415 165.109 46.4388 165.113 46.4361C166.33 45.4148 167.04 43.9056 167.342 42.0836V47.6279C167.342 48.1802 167.79 48.6279 168.342 48.6279H172.192C172.744 48.6279 173.192 48.1802 173.192 47.6279V39.1679H175.03C175.582 39.1679 176.03 38.7202 176.03 38.1679V34.9559C176.03 34.4036 175.582 33.9559 175.03 33.9559H173.192V27.0139C173.192 26.4616 172.744 26.0139 172.192 26.0139H168.342C167.79 26.0139 167.342 26.4616 167.342 27.0139V28.0985ZM172.192 34.9559V27.0139H168.342V47.6279H172.192V38.1679H175.03V34.9559H172.192ZM167.066 32.2499V29.0599H163.04V26.4419H159.168V29.0599H155.208V32.2499H167.066ZM159.204 33.2499C158.709 33.4268 158.264 33.6749 157.87 33.9879C156.506 35.1099 155.824 37.1119 155.824 39.8179C155.824 42.5239 156.506 44.5259 157.87 45.6699C158.728 46.3519 159.828 46.7039 161.17 46.7039C162.512 46.7039 163.612 46.3519 164.47 45.6699C165.834 44.5259 166.516 42.5239 166.516 39.8179C166.516 37.1119 165.834 35.1099 164.47 33.9879C164.076 33.6749 163.631 33.4268 163.136 33.2499C162.551 33.0414 161.896 32.9319 161.17 32.9319C160.444 32.9319 159.789 33.0414 159.204 33.2499ZM161.015 42.496C160.955 42.4223 160.844 42.2236 160.754 41.7723C160.662 41.3125 160.608 40.6757 160.608 39.8179C160.608 38.9721 160.662 38.3404 160.754 37.88C160.836 37.4655 160.939 37.2516 161.009 37.1496C161.034 37.129 161.051 37.1204 161.061 37.1162C161.074 37.1106 161.104 37.0999 161.17 37.0999C161.236 37.0999 161.266 37.1106 161.279 37.1162C161.289 37.1204 161.306 37.129 161.331 37.1496C161.401 37.2516 161.504 37.4655 161.586 37.88C161.679 38.3404 161.732 38.9721 161.732 39.8179C161.732 40.6757 161.678 41.3125 161.586 41.7723C161.496 42.2236 161.385 42.4223 161.325 42.496C161.314 42.5082 161.306 42.5142 161.302 42.5168C161.298 42.5198 161.296 42.5209 161.293 42.5218C161.29 42.523 161.259 42.5359 161.17 42.5359C161.081 42.5359 161.05 42.523 161.047 42.5218C161.045 42.5212 161.044 42.5205 161.042 42.5191C161.041 42.5185 161.039 42.5178 161.038 42.5168C161.034 42.5142 161.026 42.5081 161.015 42.496ZM162.072 43.1619C161.83 43.4259 161.544 43.5359 161.17 43.5359C160.796 43.5359 160.51 43.4259 160.268 43.1619C159.828 42.6559 159.608 41.5999 159.608 39.8179C159.608 38.0579 159.828 37.0019 160.268 36.4739C160.51 36.2319 160.796 36.0999 161.17 36.0999C161.544 36.0999 161.83 36.2319 162.072 36.4739C162.512 37.0019 162.732 38.0579 162.732 39.8179C162.732 41.5999 162.512 42.6559 162.072 43.1619ZM178.483 43.1619C183.081 41.8199 185.127 38.3439 185.127 32.2939V30.5559H178.615V27.3659H188.955V31.8539C188.955 40.0911 186.02 44.5342 179.483 46.3057C179.159 46.3937 178.825 46.475 178.483 46.5499V43.1619ZM184.127 31.5559H178.615C178.063 31.5559 177.615 31.1082 177.615 30.5559V27.3659C177.615 26.8136 178.063 26.3659 178.615 26.3659H188.955C189.507 26.3659 189.955 26.8136 189.955 27.3659V31.8539C189.955 36.286 189.129 39.8008 187.247 42.4319C185.35 45.0841 182.482 46.6985 178.697 47.5268C178.401 47.5915 178.092 47.5188 177.856 47.3289C177.62 47.1391 177.483 46.8527 177.483 46.5499V43.1619C177.483 42.7175 177.776 42.3265 178.203 42.2019C180.3 41.59 181.737 40.5226 182.674 38.9752C183.63 37.3978 184.127 35.2209 184.127 32.2939V31.5559ZM190.485 27.0139C190.485 26.4616 190.933 26.0139 191.485 26.0139H195.335C195.887 26.0139 196.335 26.4616 196.335 27.0139V47.6279C196.335 48.1802 195.887 48.6279 195.335 48.6279H191.485C190.933 48.6279 190.485 48.1802 190.485 47.6279V27.0139ZM127.38 27.0139H123.53V41.4679H127.38V27.0139ZM191.485 27.0139V47.6279H195.335V27.0139H191.485Z" fill="#A8891A"/>
<defs>
<linearGradient id="paint0_linear_2063_1401" x1="127.497" y1="-89.9997" x2="127.497" y2="89.9169" gradientUnits="userSpaceOnUse">
<stop stop-color="#EFE4BC"/>
<stop offset="1" stop-color="#A5600F"/>
</linearGradient>
<linearGradient id="paint1_linear_2063_1401" x1="127.26" y1="7.49951" x2="127.26" y2="55.9995" gradientUnits="userSpaceOnUse">
<stop stop-color="#FCFB64"/>
<stop offset="1" stop-color="#FFBF00"/>
</linearGradient>
<linearGradient id="paint2_linear_2063_1401" x1="127.26" y1="7.49951" x2="127.26" y2="55.9995" gradientUnits="userSpaceOnUse">
<stop stop-color="#FCFB64"/>
<stop offset="1" stop-color="#FFBF00"/>
</linearGradient>
<linearGradient id="paint3_linear_2063_1401" x1="127.26" y1="7.49951" x2="127.26" y2="55.9995" gradientUnits="userSpaceOnUse">
<stop stop-color="#FCFB64"/>
<stop offset="1" stop-color="#FFBF00"/>
</linearGradient>
<linearGradient id="paint4_linear_2063_1401" x1="127.26" y1="7.49951" x2="127.26" y2="55.9995" gradientUnits="userSpaceOnUse">
<stop stop-color="#FCFB64"/>
<stop offset="1" stop-color="#FFBF00"/>
</linearGradient>
<linearGradient id="paint5_linear_2063_1401" x1="127.26" y1="7.49951" x2="127.26" y2="55.9995" gradientUnits="userSpaceOnUse">
<stop stop-color="#FCFB64"/>
<stop offset="1" stop-color="#FFBF00"/>
</linearGradient>
<linearGradient id="paint6_linear_2063_1401" x1="127.26" y1="7.49951" x2="127.26" y2="55.9995" gradientUnits="userSpaceOnUse">
<stop stop-color="#FCFB64"/>
<stop offset="1" stop-color="#FFBF00"/>
</linearGradient>
</defs>
</svg>
