<svg width="255" height="70" viewBox="0 0 255 70" fill="none" xmlns="http://www.w3.org/2000/svg">
<path d="M238.188 67.338C178.823 69.7389 6.94654 73.9339 2.31981 61.5045C-4.05382 44.3833 5.08269 19.7901 1.83009 6.31769C1.23074 3.8523 4.75378 1.65621 9.38051 1.58794C51.2477 0.958313 209.514 -1.24157 247.968 0.950727C252.258 1.19347 255.379 3.24164 254.963 5.54773C253.062 15.9782 248.231 45.2102 250.921 59.1302C251.725 63.3099 246.002 67.0232 238.195 67.3418L238.188 67.338Z" fill="#643B11"/>
<path d="M231.566 65.2291C175.753 67.41 14.1608 71.2219 9.8118 59.9266C3.81825 44.3681 12.4066 22.0279 9.34401 9.78437C8.7812 7.54276 12.0923 5.55149 16.4413 5.48701C55.8014 4.91428 204.602 2.91541 240.754 4.90669C244.788 5.13047 247.727 6.989 247.332 9.08268C245.549 18.5612 241.002 45.1191 243.531 57.7685C244.291 61.5652 238.904 64.9409 231.566 65.2291Z" fill="#6E3D12"/>
<path d="M219.308 61.77C170.066 63.6968 27.5074 67.0573 23.6701 57.0933C18.3855 43.3706 25.9578 23.6588 23.2607 12.8566C22.7637 10.8805 25.6874 9.12061 29.5247 9.06371C64.2508 8.55926 195.524 6.79555 227.414 8.55167C230.974 8.7489 233.561 10.3874 233.218 12.2346C231.646 20.5942 227.634 44.0267 229.863 55.1855C230.535 58.5346 225.777 61.5121 219.308 61.7662V61.77Z" fill="#643B11"/>
<path d="M214.894 61.952C168.02 63.7119 32.3169 66.7804 28.6623 57.6812C23.6336 45.1457 30.8404 27.1407 28.2676 17.2792C27.7998 15.4737 30.5773 13.8693 34.2319 13.8162C67.2915 13.3535 192.25 11.7453 222.612 13.3497C225.996 13.528 228.467 15.0262 228.131 16.714C226.632 24.3491 222.817 45.7525 224.937 55.9441C225.573 59.0049 221.048 61.7245 214.886 61.9558L214.894 61.952Z" fill="url(#paint0_linear_881_2)"/>
<path d="M26.3746 52.8718C25.5194 53.5052 73.2266 57.7268 91.8798 56.3727C78.6866 59.8584 25.2271 55.3865 25.2271 55.3865L26.3746 52.8718V52.8718Z" fill="#965E2E"/>
<path d="M26.7401 20.8255C26.7401 20.8255 35.3138 20.4007 54.9829 19.8469C37.9305 18.216 25.2344 18.2653 25.2344 18.2653L26.7401 20.8255Z" fill="#965E2E"/>
<path d="M229.636 16.6913C229.636 16.6913 221.099 16.6306 201.481 16.6344C218.621 15.9517 231.303 15.8492 231.303 15.8492L229.644 16.6913H229.636Z" fill="#965E2E"/>
<path d="M247.917 6.54521C247.917 6.54521 239.38 6.48453 219.762 6.48832C236.902 5.80559 249.583 5.70319 249.583 5.70319L247.924 6.54521H247.917Z" fill="#965E2E"/>
<path d="M229 29.3785C229 29.3785 223.972 29.2723 212.416 29.1585C222.495 28.6086 229.965 28.5858 229.965 28.5858L229.008 29.3785H229Z" fill="#965E2E"/>
<path d="M226.186 53.3801C226.186 53.3801 217.328 53.0273 196.993 52.5684C214.696 51.2674 227.831 51.3129 227.831 51.3129L226.186 53.3801Z" fill="#965E2E"/>
<path d="M102.515 16.5661C102.515 16.5661 139.631 15.0641 169.153 16.5661C155.09 14.5824 108.406 15.3182 102.515 16.5661Z" fill="#965E2E"/>
<path d="M136.736 57.2716C136.736 57.2716 165.052 58.8267 187.375 56.5244C176.827 59.2894 141.297 58.8457 136.736 57.2716V57.2716Z" fill="#965E2E"/>
<path d="M71.1946 62.9723C71.1946 62.9723 145.844 64.1254 205.151 62.3465C176.915 64.4629 83.0501 64.1633 71.1946 62.9723Z" fill="#965E2E"/>
<path d="M39.4434 47.3797C39.4434 47.3797 58.7835 51.2333 75.3974 50.7819C66.8968 52.6481 42.0454 49.3065 39.4434 47.3797V47.3797Z" fill="#965E2E"/>
<path d="M67.0157 33.592H60.6357V34.714H66.1357C67.8737 34.714 68.9077 34.56 69.6557 34.054V27.014H73.5057V30.908H76.2117V34.098H73.5057V37.794H69.6557V36.606C68.9077 37.112 67.6317 37.376 65.6077 37.376H56.8957V27.256H67.4557V29.896H60.6357V30.952H67.0157V33.592ZM73.5057 44.46H61.7577V45.274H73.7477V47.826H57.9737V41.864H69.6777V41.072H57.9737V38.454H73.5057V44.46ZM90.9288 27.366V30.424H83.9768V32.404H90.8408V35.418H83.9768V37.42H91.2808V40.456H87.5188V43.404H89.4108C91.1048 43.404 92.1168 43.162 92.7988 42.524V27.014H96.6488V47.65H92.7988V45.56C92.0948 46.242 90.9068 46.55 88.9708 46.55H79.3568V43.404H83.7348V40.456H80.1488V27.366H90.9288ZM110.506 30.38V27.256H121.484V30.38H117.876V30.952C117.876 34.406 119.218 35.748 121.836 36.254V39.422C119.482 39.158 117.238 38.124 116.028 36.694C114.796 38.168 112.398 39.4 110.154 39.642V36.474C112.684 35.968 114.092 34.472 114.092 30.952V30.38H110.506ZM127.38 27.014V41.468H123.53V27.014H127.38ZM127.644 44.614V47.738H111.65V40.324H115.5V44.614H127.644ZM141.899 28.202V31.018H132.593V28.202H135.607V26.442H139.061V28.202H141.899ZM136.091 35.44C136.091 35.858 136.223 36.21 136.465 36.408C136.707 36.628 137.015 36.716 137.345 36.716C137.675 36.716 137.961 36.628 138.203 36.408C138.445 36.21 138.577 35.858 138.577 35.44C138.577 35.044 138.445 34.692 138.203 34.472C137.961 34.274 137.675 34.186 137.345 34.186C137.015 34.186 136.707 34.274 136.465 34.472C136.223 34.692 136.091 35.044 136.091 35.44ZM132.879 35.44C132.879 34.164 133.407 33.064 134.331 32.36C135.101 31.766 136.135 31.436 137.345 31.436C138.533 31.436 139.567 31.766 140.359 32.36C141.261 33.064 141.789 34.164 141.789 35.44C141.789 36.738 141.261 37.816 140.359 38.542C139.567 39.114 138.533 39.444 137.345 39.444C136.135 39.444 135.101 39.114 134.331 38.542C133.407 37.816 132.879 36.738 132.879 35.44ZM150.303 27.014V39.62H146.915V34.934H145.705V39.334H142.449V27.146H145.705V31.7H146.915V27.014H150.303ZM134.023 44.042C134.023 42.744 134.661 41.82 135.761 41.182C137.235 40.324 139.567 39.972 142.339 39.972C145.089 39.972 147.421 40.324 148.917 41.182C150.017 41.82 150.655 42.744 150.655 44.042C150.655 45.34 150.017 46.242 148.917 46.902C147.421 47.76 145.089 48.09 142.339 48.09C139.567 48.09 137.235 47.76 135.761 46.902C134.661 46.242 134.023 45.34 134.023 44.042ZM137.807 44.042C137.807 44.306 137.961 44.482 138.247 44.658C138.929 45.01 140.315 45.12 142.339 45.12C144.363 45.12 145.771 45.01 146.409 44.658C146.695 44.482 146.849 44.306 146.849 44.042C146.849 43.778 146.695 43.58 146.409 43.426C145.771 43.074 144.363 42.964 142.339 42.964C140.315 42.964 138.929 43.074 138.247 43.426C137.961 43.58 137.807 43.778 137.807 44.042ZM167.066 32.25H155.208V29.06H159.168V26.442H163.04V29.06H167.066V32.25ZM159.608 39.818C159.608 41.6 159.828 42.656 160.268 43.162C160.51 43.426 160.796 43.536 161.17 43.536C161.544 43.536 161.83 43.426 162.072 43.162C162.512 42.656 162.732 41.6 162.732 39.818C162.732 38.058 162.512 37.002 162.072 36.474C161.83 36.232 161.544 36.1 161.17 36.1C160.796 36.1 160.51 36.232 160.268 36.474C159.828 37.002 159.608 38.058 159.608 39.818ZM155.824 39.818C155.824 37.112 156.506 35.11 157.87 33.988C158.728 33.306 159.828 32.932 161.17 32.932C162.512 32.932 163.612 33.306 164.47 33.988C165.834 35.11 166.516 37.112 166.516 39.818C166.516 42.524 165.834 44.526 164.47 45.67C163.612 46.352 162.512 46.704 161.17 46.704C159.828 46.704 158.728 46.352 157.87 45.67C156.506 44.526 155.824 42.524 155.824 39.818ZM168.342 27.014H172.192V34.956H175.03V38.168H172.192V47.628H168.342V27.014ZM185.127 32.294V30.556H178.615V27.366H188.955V31.854C188.955 40.5 185.721 44.966 178.483 46.55V43.162C183.081 41.82 185.127 38.344 185.127 32.294ZM191.485 27.014H195.335V47.628H191.485V27.014Z" fill="url(#paint1_linear_881_2)"/>
<path d="M67.0157 33.592V34.592C67.568 34.592 68.0157 34.1443 68.0157 33.592H67.0157ZM60.6357 33.592V32.592C60.0834 32.592 59.6357 33.0397 59.6357 33.592H60.6357ZM60.6357 34.714H59.6357C59.6357 35.2663 60.0834 35.714 60.6357 35.714V34.714ZM69.6557 34.054L70.216 34.8823C70.491 34.6963 70.6557 34.386 70.6557 34.054H69.6557ZM69.6557 27.014V26.014C69.1034 26.014 68.6557 26.4617 68.6557 27.014H69.6557ZM73.5057 27.014H74.5057C74.5057 26.4617 74.058 26.014 73.5057 26.014V27.014ZM73.5057 30.908H72.5057C72.5057 31.4603 72.9534 31.908 73.5057 31.908V30.908ZM76.2117 30.908H77.2117C77.2117 30.3557 76.764 29.908 76.2117 29.908V30.908ZM76.2117 34.098V35.098C76.764 35.098 77.2117 34.6503 77.2117 34.098H76.2117ZM73.5057 34.098V33.098C72.9534 33.098 72.5057 33.5457 72.5057 34.098H73.5057ZM73.5057 37.794V38.794C74.058 38.794 74.5057 38.3463 74.5057 37.794H73.5057ZM69.6557 37.794H68.6557C68.6557 38.3463 69.1034 38.794 69.6557 38.794V37.794ZM69.6557 36.606H70.6557C70.6557 36.236 70.4514 35.8962 70.1246 35.7227C69.7978 35.5492 69.4019 35.5704 69.0954 35.7777L69.6557 36.606ZM56.8957 37.376H55.8957C55.8957 37.9283 56.3434 38.376 56.8957 38.376V37.376ZM56.8957 27.256V26.256C56.3434 26.256 55.8957 26.7037 55.8957 27.256H56.8957ZM67.4557 27.256H68.4557C68.4557 26.7037 68.008 26.256 67.4557 26.256V27.256ZM67.4557 29.896V30.896C68.008 30.896 68.4557 30.4483 68.4557 29.896H67.4557ZM60.6357 29.896V28.896C60.0834 28.896 59.6357 29.3437 59.6357 29.896H60.6357ZM60.6357 30.952H59.6357C59.6357 31.5043 60.0834 31.952 60.6357 31.952V30.952ZM67.0157 30.952H68.0157C68.0157 30.3997 67.568 29.952 67.0157 29.952V30.952ZM73.5057 44.46V45.46C74.058 45.46 74.5057 45.0123 74.5057 44.46H73.5057ZM61.7577 44.46V43.46C61.2054 43.46 60.7577 43.9077 60.7577 44.46H61.7577ZM61.7577 45.274H60.7577C60.7577 45.8263 61.2054 46.274 61.7577 46.274V45.274ZM73.7477 45.274H74.7477C74.7477 44.7217 74.3 44.274 73.7477 44.274V45.274ZM73.7477 47.826V48.826C74.3 48.826 74.7477 48.3783 74.7477 47.826H73.7477ZM57.9737 47.826H56.9737C56.9737 48.3783 57.4214 48.826 57.9737 48.826V47.826ZM57.9737 41.864V40.864C57.4214 40.864 56.9737 41.3117 56.9737 41.864H57.9737ZM69.6777 41.864V42.864C70.23 42.864 70.6777 42.4163 70.6777 41.864H69.6777ZM69.6777 41.072H70.6777C70.6777 40.5197 70.23 40.072 69.6777 40.072V41.072ZM57.9737 41.072H56.9737C56.9737 41.6243 57.4214 42.072 57.9737 42.072V41.072ZM57.9737 38.454V37.454C57.4214 37.454 56.9737 37.9017 56.9737 38.454H57.9737ZM73.5057 38.454H74.5057C74.5057 37.9017 74.058 37.454 73.5057 37.454V38.454ZM67.0157 32.592H60.6357V34.592H67.0157V32.592ZM59.6357 33.592V34.714H61.6357V33.592H59.6357ZM60.6357 35.714H66.1357V33.714H60.6357V35.714ZM66.1357 35.714C67.8728 35.714 69.191 35.5756 70.216 34.8823L69.0954 33.2257C68.6243 33.5444 67.8746 33.714 66.1357 33.714V35.714ZM70.6557 34.054V27.014H68.6557V34.054H70.6557ZM69.6557 28.014H73.5057V26.014H69.6557V28.014ZM72.5057 27.014V30.908H74.5057V27.014H72.5057ZM73.5057 31.908H76.2117V29.908H73.5057V31.908ZM75.2117 30.908V34.098H77.2117V30.908H75.2117ZM76.2117 33.098H73.5057V35.098H76.2117V33.098ZM72.5057 34.098V37.794H74.5057V34.098H72.5057ZM73.5057 36.794H69.6557V38.794H73.5057V36.794ZM70.6557 37.794V36.606H68.6557V37.794H70.6557ZM69.0954 35.7777C68.6135 36.1037 67.6042 36.376 65.6077 36.376V38.376C67.6592 38.376 69.2019 38.1203 70.216 37.4343L69.0954 35.7777ZM65.6077 36.376H56.8957V38.376H65.6077V36.376ZM57.8957 37.376V27.256H55.8957V37.376H57.8957ZM56.8957 28.256H67.4557V26.256H56.8957V28.256ZM66.4557 27.256V29.896H68.4557V27.256H66.4557ZM67.4557 28.896H60.6357V30.896H67.4557V28.896ZM59.6357 29.896V30.952H61.6357V29.896H59.6357ZM60.6357 31.952H67.0157V29.952H60.6357V31.952ZM66.0157 30.952V33.592H68.0157V30.952H66.0157ZM73.5057 43.46H61.7577V45.46H73.5057V43.46ZM60.7577 44.46V45.274H62.7577V44.46H60.7577ZM61.7577 46.274H73.7477V44.274H61.7577V46.274ZM72.7477 45.274V47.826H74.7477V45.274H72.7477ZM73.7477 46.826H57.9737V48.826H73.7477V46.826ZM58.9737 47.826V41.864H56.9737V47.826H58.9737ZM57.9737 42.864H69.6777V40.864H57.9737V42.864ZM70.6777 41.864V41.072H68.6777V41.864H70.6777ZM69.6777 40.072H57.9737V42.072H69.6777V40.072ZM58.9737 41.072V38.454H56.9737V41.072H58.9737ZM57.9737 39.454H73.5057V37.454H57.9737V39.454ZM72.5057 38.454V44.46H74.5057V38.454H72.5057ZM90.9288 27.366H91.9288C91.9288 26.8137 91.4811 26.366 90.9288 26.366V27.366ZM90.9288 30.424V31.424C91.4811 31.424 91.9288 30.9763 91.9288 30.424H90.9288ZM83.9768 30.424V29.424C83.4245 29.424 82.9768 29.8717 82.9768 30.424H83.9768ZM83.9768 32.404H82.9768C82.9768 32.9563 83.4245 33.404 83.9768 33.404V32.404ZM90.8408 32.404H91.8408C91.8408 31.8517 91.3931 31.404 90.8408 31.404V32.404ZM90.8408 35.418V36.418C91.3931 36.418 91.8408 35.9703 91.8408 35.418H90.8408ZM83.9768 35.418V34.418C83.4245 34.418 82.9768 34.8657 82.9768 35.418H83.9768ZM83.9768 37.42H82.9768C82.9768 37.9723 83.4245 38.42 83.9768 38.42V37.42ZM91.2808 37.42H92.2808C92.2808 36.8677 91.8331 36.42 91.2808 36.42V37.42ZM91.2808 40.456V41.456C91.8331 41.456 92.2808 41.0083 92.2808 40.456H91.2808ZM87.5188 40.456V39.456C86.9665 39.456 86.5188 39.9037 86.5188 40.456H87.5188ZM87.5188 43.404H86.5188C86.5188 43.9563 86.9665 44.404 87.5188 44.404V43.404ZM92.7988 42.524L93.482 43.2543C93.6841 43.0652 93.7988 42.8008 93.7988 42.524H92.7988ZM92.7988 27.014V26.014C92.2466 26.014 91.7988 26.4617 91.7988 27.014H92.7988ZM96.6488 27.014H97.6488C97.6488 26.4617 97.2011 26.014 96.6488 26.014V27.014ZM96.6488 47.65V48.65C97.2011 48.65 97.6488 48.2023 97.6488 47.65H96.6488ZM92.7988 47.65H91.7988C91.7988 48.2023 92.2466 48.65 92.7988 48.65V47.65ZM92.7988 45.56H93.7988C93.7988 45.1584 93.5586 44.7958 93.1888 44.6392C92.8191 44.4826 92.3915 44.5623 92.103 44.8418L92.7988 45.56ZM79.3568 46.55H78.3568C78.3568 47.1023 78.8045 47.55 79.3568 47.55V46.55ZM79.3568 43.404V42.404C78.8045 42.404 78.3568 42.8517 78.3568 43.404H79.3568ZM83.7348 43.404V44.404C84.2871 44.404 84.7348 43.9563 84.7348 43.404H83.7348ZM83.7348 40.456H84.7348C84.7348 39.9037 84.2871 39.456 83.7348 39.456V40.456ZM80.1488 40.456H79.1488C79.1488 41.0083 79.5965 41.456 80.1488 41.456V40.456ZM80.1488 27.366V26.366C79.5965 26.366 79.1488 26.8137 79.1488 27.366H80.1488ZM89.9288 27.366V30.424H91.9288V27.366H89.9288ZM90.9288 29.424H83.9768V31.424H90.9288V29.424ZM82.9768 30.424V32.404H84.9768V30.424H82.9768ZM83.9768 33.404H90.8408V31.404H83.9768V33.404ZM89.8408 32.404V35.418H91.8408V32.404H89.8408ZM90.8408 34.418H83.9768V36.418H90.8408V34.418ZM82.9768 35.418V37.42H84.9768V35.418H82.9768ZM83.9768 38.42H91.2808V36.42H83.9768V38.42ZM90.2808 37.42V40.456H92.2808V37.42H90.2808ZM91.2808 39.456H87.5188V41.456H91.2808V39.456ZM86.5188 40.456V43.404H88.5188V40.456H86.5188ZM87.5188 44.404H89.4108V42.404H87.5188V44.404ZM89.4108 44.404C91.1489 44.404 92.5039 44.1692 93.482 43.2543L92.1157 41.7937C91.7297 42.1548 91.0607 42.404 89.4108 42.404V44.404ZM93.7988 42.524V27.014H91.7988V42.524H93.7988ZM92.7988 28.014H96.6488V26.014H92.7988V28.014ZM95.6488 27.014V47.65H97.6488V27.014H95.6488ZM96.6488 46.65H92.7988V48.65H96.6488V46.65ZM93.7988 47.65V45.56H91.7988V47.65H93.7988ZM92.103 44.8418C91.6991 45.2331 90.8665 45.55 88.9708 45.55V47.55C90.9472 47.55 92.4906 47.2509 93.4946 46.2782L92.103 44.8418ZM88.9708 45.55H79.3568V47.55H88.9708V45.55ZM80.3568 46.55V43.404H78.3568V46.55H80.3568ZM79.3568 44.404H83.7348V42.404H79.3568V44.404ZM84.7348 43.404V40.456H82.7348V43.404H84.7348ZM83.7348 39.456H80.1488V41.456H83.7348V39.456ZM81.1488 40.456V27.366H79.1488V40.456H81.1488ZM80.1488 28.366H90.9288V26.366H80.1488V28.366ZM110.506 30.38H109.506C109.506 30.9323 109.953 31.38 110.506 31.38V30.38ZM110.506 27.256V26.256C109.953 26.256 109.506 26.7037 109.506 27.256H110.506ZM121.484 27.256H122.484C122.484 26.7037 122.036 26.256 121.484 26.256V27.256ZM121.484 30.38V31.38C122.036 31.38 122.484 30.9323 122.484 30.38H121.484ZM117.876 30.38V29.38C117.323 29.38 116.876 29.8277 116.876 30.38H117.876ZM121.836 36.254H122.836C122.836 35.7749 122.496 35.3631 122.026 35.2722L121.836 36.254ZM121.836 39.422L121.724 40.4158C122.007 40.4475 122.29 40.3572 122.502 40.1675C122.714 39.9778 122.836 39.7066 122.836 39.422H121.836ZM116.028 36.694L116.791 36.0481C116.6 35.8227 116.32 35.6931 116.025 35.694C115.73 35.6949 115.45 35.8262 115.26 36.0527L116.028 36.694ZM110.154 39.642H109.154C109.154 39.9259 109.274 40.1964 109.486 40.3861C109.697 40.5757 109.979 40.6667 110.261 40.6362L110.154 39.642ZM110.154 36.474L109.958 35.4934C109.49 35.5869 109.154 35.9973 109.154 36.474H110.154ZM114.092 30.38H115.092C115.092 29.8277 114.644 29.38 114.092 29.38V30.38ZM127.38 27.014H128.38C128.38 26.4617 127.932 26.014 127.38 26.014V27.014ZM127.38 41.468V42.468C127.932 42.468 128.38 42.0203 128.38 41.468H127.38ZM123.53 41.468H122.53C122.53 42.0203 122.977 42.468 123.53 42.468V41.468ZM123.53 27.014V26.014C122.977 26.014 122.53 26.4617 122.53 27.014H123.53ZM127.644 44.614H128.644C128.644 44.0617 128.196 43.614 127.644 43.614V44.614ZM127.644 47.738V48.738C128.196 48.738 128.644 48.2903 128.644 47.738H127.644ZM111.65 47.738H110.65C110.65 48.2903 111.097 48.738 111.65 48.738V47.738ZM111.65 40.324V39.324C111.097 39.324 110.65 39.7717 110.65 40.324H111.65ZM115.5 40.324H116.5C116.5 39.7717 116.052 39.324 115.5 39.324V40.324ZM115.5 44.614H114.5C114.5 45.1663 114.947 45.614 115.5 45.614V44.614ZM111.506 30.38V27.256H109.506V30.38H111.506ZM110.506 28.256H121.484V26.256H110.506V28.256ZM120.484 27.256V30.38H122.484V27.256H120.484ZM121.484 29.38H117.876V31.38H121.484V29.38ZM116.876 30.38V30.952H118.876V30.38H116.876ZM116.876 30.952C116.876 32.7904 117.23 34.2517 118.092 35.3322C118.963 36.4226 120.217 36.9596 121.646 37.2358L122.026 35.2722C120.836 35.0424 120.111 34.6554 119.656 34.0848C119.192 33.5043 118.876 32.5676 118.876 30.952H116.876ZM120.836 36.254V39.422H122.836V36.254H120.836ZM121.947 38.4282C119.766 38.1836 117.79 37.2289 116.791 36.0481L115.264 37.3399C116.685 39.0191 119.197 40.1324 121.724 40.4158L121.947 38.4282ZM115.26 36.0527C114.215 37.3033 112.067 38.4299 110.047 38.6478L110.261 40.6362C112.728 40.3701 115.376 39.0327 116.795 37.3353L115.26 36.0527ZM111.154 39.642V36.474H109.154V39.642H111.154ZM110.35 37.4546C111.765 37.1715 113.004 36.5815 113.867 35.4492C114.718 34.3322 115.092 32.831 115.092 30.952H113.092C113.092 32.593 112.762 33.5998 112.276 34.2373C111.802 34.8595 111.072 35.2705 109.958 35.4934L110.35 37.4546ZM115.092 30.952V30.38H113.092V30.952H115.092ZM114.092 29.38H110.506V31.38H114.092V29.38ZM126.38 27.014V41.468H128.38V27.014H126.38ZM127.38 40.468H123.53V42.468H127.38V40.468ZM124.53 41.468V27.014H122.53V41.468H124.53ZM123.53 28.014H127.38V26.014H123.53V28.014ZM126.644 44.614V47.738H128.644V44.614H126.644ZM127.644 46.738H111.65V48.738H127.644V46.738ZM112.65 47.738V40.324H110.65V47.738H112.65ZM111.65 41.324H115.5V39.324H111.65V41.324ZM114.5 40.324V44.614H116.5V40.324H114.5ZM115.5 45.614H127.644V43.614H115.5V45.614ZM141.899 28.202H142.899C142.899 27.6497 142.451 27.202 141.899 27.202V28.202ZM141.899 31.018V32.018C142.451 32.018 142.899 31.5703 142.899 31.018H141.899ZM132.593 31.018H131.593C131.593 31.5703 132.041 32.018 132.593 32.018V31.018ZM132.593 28.202V27.202C132.041 27.202 131.593 27.6497 131.593 28.202H132.593ZM135.607 28.202V29.202C136.159 29.202 136.607 28.7543 136.607 28.202H135.607ZM135.607 26.442V25.442C135.055 25.442 134.607 25.8897 134.607 26.442H135.607ZM139.061 26.442H140.061C140.061 25.8897 139.613 25.442 139.061 25.442V26.442ZM139.061 28.202H138.061C138.061 28.7543 138.509 29.202 139.061 29.202V28.202ZM136.465 36.408L137.138 35.6681C137.125 35.6564 137.112 35.645 137.098 35.634L136.465 36.408ZM138.203 36.408L137.57 35.634C137.556 35.645 137.543 35.6564 137.53 35.6681L138.203 36.408ZM138.203 34.472L138.876 33.7321C138.863 33.7204 138.85 33.709 138.836 33.698L138.203 34.472ZM136.465 34.472L135.832 33.698C135.818 33.709 135.805 33.7204 135.792 33.7321L136.465 34.472ZM134.331 32.36L134.937 33.1554L134.942 33.1518L134.331 32.36ZM140.359 32.36L140.974 31.5717C140.969 31.5677 140.964 31.5638 140.959 31.56L140.359 32.36ZM140.359 38.542L140.944 39.3527C140.958 39.3425 140.972 39.3319 140.986 39.321L140.359 38.542ZM134.331 38.542L133.713 39.3283C133.72 39.3339 133.727 39.3394 133.735 39.3447L134.331 38.542ZM150.303 27.014H151.303C151.303 26.4617 150.855 26.014 150.303 26.014V27.014ZM150.303 39.62V40.62C150.855 40.62 151.303 40.1723 151.303 39.62H150.303ZM146.915 39.62H145.915C145.915 40.1723 146.363 40.62 146.915 40.62V39.62ZM146.915 34.934H147.915C147.915 34.3817 147.467 33.934 146.915 33.934V34.934ZM145.705 34.934V33.934C145.153 33.934 144.705 34.3817 144.705 34.934H145.705ZM145.705 39.334V40.334C146.257 40.334 146.705 39.8863 146.705 39.334H145.705ZM142.449 39.334H141.449C141.449 39.8863 141.897 40.334 142.449 40.334V39.334ZM142.449 27.146V26.146C141.897 26.146 141.449 26.5937 141.449 27.146H142.449ZM145.705 27.146H146.705C146.705 26.5937 146.257 26.146 145.705 26.146V27.146ZM145.705 31.7H144.705C144.705 32.2523 145.153 32.7 145.705 32.7V31.7ZM146.915 31.7V32.7C147.467 32.7 147.915 32.2523 147.915 31.7H146.915ZM146.915 27.014V26.014C146.363 26.014 145.915 26.4617 145.915 27.014H146.915ZM135.761 41.182L136.263 42.047L136.264 42.0462L135.761 41.182ZM148.917 41.182L149.419 40.317L149.414 40.3145L148.917 41.182ZM148.917 46.902L149.414 47.7695C149.42 47.7662 149.426 47.7629 149.431 47.7595L148.917 46.902ZM135.761 46.902L135.246 47.7596L135.258 47.7662L135.761 46.902ZM138.247 44.658L137.723 45.5097C137.744 45.5228 137.766 45.5351 137.788 45.5466L138.247 44.658ZM146.409 44.658L146.892 45.5336C146.906 45.5259 146.919 45.518 146.933 45.5097L146.409 44.658ZM146.409 43.426L145.926 44.3016L145.935 44.3065L146.409 43.426ZM138.247 43.426L137.788 42.5374C137.783 42.5401 137.778 42.5428 137.773 42.5455L138.247 43.426ZM140.899 28.202V31.018H142.899V28.202H140.899ZM141.899 30.018H132.593V32.018H141.899V30.018ZM133.593 31.018V28.202H131.593V31.018H133.593ZM132.593 29.202H135.607V27.202H132.593V29.202ZM136.607 28.202V26.442H134.607V28.202H136.607ZM135.607 27.442H139.061V25.442H135.607V27.442ZM138.061 26.442V28.202H140.061V26.442H138.061ZM139.061 29.202H141.899V27.202H139.061V29.202ZM135.091 35.44C135.091 36.0361 135.277 36.7284 135.832 37.182L137.098 35.634C137.135 35.664 137.133 35.6812 137.121 35.6486C137.108 35.6153 137.091 35.5469 137.091 35.44H135.091ZM135.792 37.1479C136.265 37.5778 136.838 37.716 137.345 37.716V35.716C137.267 35.716 137.217 35.7056 137.188 35.6958C137.162 35.6871 137.148 35.6778 137.138 35.6681L135.792 37.1479ZM137.345 37.716C137.87 37.716 138.414 37.568 138.876 37.1479L137.53 35.6681C137.509 35.6873 137.495 35.6944 137.48 35.6995C137.461 35.7059 137.421 35.716 137.345 35.716V37.716ZM138.836 37.182C139.39 36.7284 139.577 36.0361 139.577 35.44H137.577C137.577 35.5469 137.56 35.6153 137.547 35.6486C137.534 35.6812 137.533 35.664 137.57 35.634L138.836 37.182ZM139.577 35.44C139.577 34.8399 139.377 34.1882 138.876 33.7321L137.53 35.2119C137.521 35.2034 137.532 35.2092 137.547 35.2479C137.562 35.2871 137.577 35.3513 137.577 35.44H139.577ZM138.836 33.698C138.387 33.3307 137.866 33.186 137.345 33.186V35.186C137.484 35.186 137.535 35.2173 137.57 35.246L138.836 33.698ZM137.345 33.186C136.84 33.186 136.292 33.3217 135.832 33.698L137.098 35.246C137.122 35.2263 137.189 35.186 137.345 35.186V33.186ZM135.792 33.7321C135.29 34.1882 135.091 34.8399 135.091 35.44H137.091C137.091 35.3513 137.106 35.2871 137.121 35.2479C137.136 35.2092 137.147 35.2034 137.138 35.2119L135.792 33.7321ZM133.879 35.44C133.879 34.4496 134.282 33.6548 134.937 33.1554L133.725 31.5646C132.532 32.4732 131.879 33.8784 131.879 35.44H133.879ZM134.942 33.1518C135.507 32.716 136.315 32.436 137.345 32.436V30.436C135.955 30.436 134.695 30.816 133.72 31.5682L134.942 33.1518ZM137.345 32.436C138.347 32.436 139.163 32.7132 139.759 33.16L140.959 31.56C139.971 30.8188 138.718 30.436 137.345 30.436V32.436ZM139.744 33.1483C140.384 33.6485 140.789 34.4479 140.789 35.44H142.789C142.789 33.8801 142.137 32.4795 140.974 31.5717L139.744 33.1483ZM140.789 35.44C140.789 36.4479 140.388 37.2346 139.732 37.763L140.986 39.321C142.133 38.3974 142.789 37.0281 142.789 35.44H140.789ZM139.773 37.7313C139.171 38.1664 138.348 38.444 137.345 38.444V40.444C138.718 40.444 139.963 40.0616 140.944 39.3527L139.773 37.7313ZM137.345 38.444C136.315 38.444 135.499 38.1638 134.927 37.7393L133.735 39.3447C134.703 40.0642 135.955 40.444 137.345 40.444V38.444ZM134.949 37.7557C134.278 37.2284 133.879 36.4462 133.879 35.44H131.879C131.879 37.0298 132.536 38.4036 133.713 39.3283L134.949 37.7557ZM149.303 27.014V39.62H151.303V27.014H149.303ZM150.303 38.62H146.915V40.62H150.303V38.62ZM147.915 39.62V34.934H145.915V39.62H147.915ZM146.915 33.934H145.705V35.934H146.915V33.934ZM144.705 34.934V39.334H146.705V34.934H144.705ZM145.705 38.334H142.449V40.334H145.705V38.334ZM143.449 39.334V27.146H141.449V39.334H143.449ZM142.449 28.146H145.705V26.146H142.449V28.146ZM144.705 27.146V31.7H146.705V27.146H144.705ZM145.705 32.7H146.915V30.7H145.705V32.7ZM147.915 31.7V27.014H145.915V31.7H147.915ZM146.915 28.014H150.303V26.014H146.915V28.014ZM135.023 44.042C135.023 43.1572 135.419 42.5365 136.263 42.047L135.259 40.317C133.903 41.1035 133.023 42.3308 133.023 44.042H135.023ZM136.264 42.0462C137.496 41.3292 139.599 40.972 142.339 40.972V38.972C139.535 38.972 136.974 39.3188 135.258 40.3178L136.264 42.0462ZM142.339 40.972C145.053 40.972 147.162 41.3281 148.419 42.0495L149.414 40.3145C147.68 39.3199 145.124 38.972 142.339 38.972V40.972ZM148.415 42.047C149.259 42.5365 149.655 43.1572 149.655 44.042H151.655C151.655 42.3308 150.775 41.1035 149.419 40.317L148.415 42.047ZM149.655 44.042C149.655 44.9182 149.267 45.5257 148.402 46.0445L149.431 47.7595C150.767 46.9583 151.655 45.7618 151.655 44.042H149.655ZM148.419 46.0345C147.165 46.7537 145.062 47.09 142.339 47.09V49.09C145.115 49.09 147.676 48.7663 149.414 47.7695L148.419 46.0345ZM142.339 47.09C139.59 47.09 137.492 46.7526 136.264 46.0378L135.258 47.7662C136.978 48.7674 139.544 49.09 142.339 49.09V47.09ZM136.275 46.0445C135.411 45.5257 135.023 44.9182 135.023 44.042H133.023C133.023 45.7618 133.911 46.9583 135.246 47.7595L136.275 46.0445ZM136.807 44.042C136.807 44.8327 137.336 45.2714 137.723 45.5097L138.771 43.8063C138.727 43.7794 138.705 43.7624 138.696 43.7552C138.688 43.7483 138.7 43.757 138.72 43.783C138.741 43.8111 138.765 43.853 138.784 43.9069C138.802 43.9609 138.807 44.0085 138.807 44.042H136.807ZM137.788 45.5466C138.302 45.8119 138.975 45.9413 139.686 46.0156C140.422 46.0925 141.315 46.12 142.339 46.12V44.12C141.339 44.12 140.527 44.0925 139.893 44.0264C139.235 43.9577 138.873 43.8561 138.706 43.7694L137.788 45.5466ZM142.339 46.12C143.363 46.12 144.261 46.0925 144.997 46.0156C145.7 45.9422 146.385 45.8132 146.892 45.5336L145.926 43.7824C145.795 43.8548 145.457 43.9568 144.79 44.0264C144.157 44.0925 143.339 44.12 142.339 44.12V46.12ZM146.933 45.5097C147.32 45.2714 147.849 44.8327 147.849 44.042H145.849C145.849 44.0085 145.854 43.9609 145.872 43.9069C145.89 43.853 145.915 43.8111 145.936 43.783C145.956 43.757 145.968 43.7483 145.96 43.7552C145.951 43.7624 145.929 43.7794 145.885 43.8063L146.933 45.5097ZM147.849 44.042C147.849 43.2785 147.358 42.8011 146.883 42.5455L145.935 44.3065C145.992 44.3375 145.969 44.3374 145.928 44.2822C145.907 44.2527 145.885 44.2132 145.869 44.1655C145.854 44.1179 145.849 44.0748 145.849 44.042H147.849ZM146.892 42.5504C146.385 42.2708 145.7 42.1418 144.997 42.0684C144.261 41.9915 143.363 41.964 142.339 41.964V43.964C143.339 43.964 144.157 43.9915 144.79 44.0576C145.457 44.1272 145.795 44.2292 145.926 44.3016L146.892 42.5504ZM142.339 41.964C141.315 41.964 140.422 41.9915 139.686 42.0684C138.975 42.1427 138.302 42.2721 137.788 42.5374L138.706 44.3146C138.873 44.2279 139.235 44.1263 139.893 44.0576C140.527 43.9915 141.339 43.964 142.339 43.964V41.964ZM137.773 42.5455C137.298 42.8011 136.807 43.2785 136.807 44.042H138.807C138.807 44.0748 138.802 44.1179 138.786 44.1655C138.771 44.2132 138.749 44.2527 138.727 44.2822C138.687 44.3374 138.663 44.3375 138.721 44.3065L137.773 42.5455ZM167.066 32.25V33.25C167.618 33.25 168.066 32.8023 168.066 32.25H167.066ZM155.208 32.25H154.208C154.208 32.8023 154.656 33.25 155.208 33.25V32.25ZM155.208 29.06V28.06C154.656 28.06 154.208 28.5077 154.208 29.06H155.208ZM159.168 29.06V30.06C159.72 30.06 160.168 29.6123 160.168 29.06H159.168ZM159.168 26.442V25.442C158.616 25.442 158.168 25.8897 158.168 26.442H159.168ZM163.04 26.442H164.04C164.04 25.8897 163.592 25.442 163.04 25.442V26.442ZM163.04 29.06H162.04C162.04 29.6123 162.488 30.06 163.04 30.06V29.06ZM167.066 29.06H168.066C168.066 28.5077 167.618 28.06 167.066 28.06V29.06ZM160.268 43.162L159.513 43.8182C159.519 43.8248 159.525 43.8313 159.531 43.8377L160.268 43.162ZM162.072 43.162L162.809 43.8377C162.815 43.8313 162.821 43.8248 162.827 43.8182L162.072 43.162ZM162.072 36.474L162.84 35.8338C162.821 35.8106 162.8 35.7883 162.779 35.7669L162.072 36.474ZM160.268 36.474L159.561 35.7669C159.54 35.7883 159.519 35.8106 159.5 35.8338L160.268 36.474ZM157.87 33.988L157.248 33.2052C157.243 33.2087 157.239 33.2122 157.235 33.2157L157.87 33.988ZM164.47 33.988L165.105 33.2157C165.101 33.2122 165.097 33.2087 165.092 33.2052L164.47 33.988ZM164.47 45.67L165.092 46.4528C165.099 46.4474 165.106 46.4418 165.113 46.4362L164.47 45.67ZM157.87 45.67L157.227 46.4362C157.234 46.4418 157.241 46.4474 157.248 46.4528L157.87 45.67ZM168.342 27.014V26.014C167.79 26.014 167.342 26.4617 167.342 27.014H168.342ZM172.192 27.014H173.192C173.192 26.4617 172.744 26.014 172.192 26.014V27.014ZM172.192 34.956H171.192C171.192 35.5083 171.64 35.956 172.192 35.956V34.956ZM175.03 34.956H176.03C176.03 34.4037 175.582 33.956 175.03 33.956V34.956ZM175.03 38.168V39.168C175.582 39.168 176.03 38.7203 176.03 38.168H175.03ZM172.192 38.168V37.168C171.64 37.168 171.192 37.6157 171.192 38.168H172.192ZM172.192 47.628V48.628C172.744 48.628 173.192 48.1803 173.192 47.628H172.192ZM168.342 47.628H167.342C167.342 48.1803 167.79 48.628 168.342 48.628V47.628ZM167.066 31.25H155.208V33.25H167.066V31.25ZM156.208 32.25V29.06H154.208V32.25H156.208ZM155.208 30.06H159.168V28.06H155.208V30.06ZM160.168 29.06V26.442H158.168V29.06H160.168ZM159.168 27.442H163.04V25.442H159.168V27.442ZM162.04 26.442V29.06H164.04V26.442H162.04ZM163.04 30.06H167.066V28.06H163.04V30.06ZM166.066 29.06V32.25H168.066V29.06H166.066ZM158.608 39.818C158.608 40.7422 158.664 41.5244 158.792 42.1646C158.918 42.7918 159.13 43.3773 159.513 43.8182L161.023 42.5058C160.966 42.4407 160.848 42.2452 160.754 41.7724C160.662 41.3126 160.608 40.6758 160.608 39.818H158.608ZM159.531 43.8377C159.989 44.337 160.557 44.536 161.17 44.536V42.536C161.081 42.536 161.05 42.5231 161.047 42.5219C161.045 42.521 161.042 42.5199 161.038 42.5169C161.034 42.5137 161.022 42.5051 161.005 42.4863L159.531 43.8377ZM161.17 44.536C161.783 44.536 162.351 44.337 162.809 43.8377L161.335 42.4863C161.318 42.5051 161.306 42.5137 161.302 42.5169C161.298 42.5199 161.296 42.521 161.293 42.5219C161.29 42.5231 161.259 42.536 161.17 42.536V44.536ZM162.827 43.8182C163.21 43.3773 163.422 42.7918 163.548 42.1646C163.676 41.5244 163.732 40.7422 163.732 39.818H161.732C161.732 40.6758 161.678 41.3126 161.586 41.7724C161.492 42.2452 161.374 42.4407 161.317 42.5058L162.827 43.8182ZM163.732 39.818C163.732 38.9038 163.676 38.1275 163.548 37.4879C163.422 36.8586 163.211 36.2786 162.84 35.8338L161.304 37.1142C161.373 37.1974 161.492 37.4094 161.586 37.8801C161.679 38.3405 161.732 38.9722 161.732 39.818H163.732ZM162.779 35.7669C162.36 35.3476 161.823 35.1 161.17 35.1V37.1C161.236 37.1 161.266 37.1107 161.279 37.1163C161.293 37.1222 161.321 37.1367 161.365 37.1811L162.779 35.7669ZM161.17 35.1C160.517 35.1 159.98 35.3476 159.561 35.7669L160.975 37.1811C161.019 37.1367 161.047 37.1222 161.061 37.1163C161.074 37.1107 161.104 37.1 161.17 37.1V35.1ZM159.5 35.8338C159.129 36.2786 158.918 36.8586 158.792 37.4879C158.665 38.1275 158.608 38.9038 158.608 39.818H160.608C160.608 38.9722 160.662 38.3405 160.754 37.8801C160.848 37.4094 160.967 37.1974 161.036 37.1142L159.5 35.8338ZM156.824 39.818C156.824 37.2374 157.479 35.6043 158.505 34.7603L157.235 33.2157C155.533 34.6157 154.824 36.9866 154.824 39.818H156.824ZM158.492 34.7708C159.15 34.2478 160.023 33.932 161.17 33.932V31.932C159.633 31.932 158.306 32.3642 157.248 33.2052L158.492 34.7708ZM161.17 33.932C162.317 33.932 163.19 34.2478 163.848 34.7708L165.092 33.2052C164.034 32.3642 162.707 31.932 161.17 31.932V33.932ZM163.835 34.7603C164.861 35.6043 165.516 37.2374 165.516 39.818H167.516C167.516 36.9866 166.807 34.6157 165.105 33.2157L163.835 34.7603ZM165.516 39.818C165.516 42.3948 164.863 44.0357 163.827 44.9038L165.113 46.4362C166.806 45.0163 167.516 42.6532 167.516 39.818H165.516ZM163.848 44.8872C163.199 45.4028 162.331 45.704 161.17 45.704V47.704C162.693 47.704 164.025 47.3012 165.092 46.4528L163.848 44.8872ZM161.17 45.704C160.009 45.704 159.141 45.4028 158.492 44.8872L157.248 46.4528C158.315 47.3012 159.647 47.704 161.17 47.704V45.704ZM158.513 44.9038C157.478 44.0357 156.824 42.3948 156.824 39.818H154.824C154.824 42.6532 155.535 45.0163 157.227 46.4362L158.513 44.9038ZM168.342 28.014H172.192V26.014H168.342V28.014ZM171.192 27.014V34.956H173.192V27.014H171.192ZM172.192 35.956H175.03V33.956H172.192V35.956ZM174.03 34.956V38.168H176.03V34.956H174.03ZM175.03 37.168H172.192V39.168H175.03V37.168ZM171.192 38.168V47.628H173.192V38.168H171.192ZM172.192 46.628H168.342V48.628H172.192V46.628ZM169.342 47.628V27.014H167.342V47.628H169.342ZM185.127 30.556H186.127C186.127 30.0037 185.679 29.556 185.127 29.556V30.556ZM178.615 30.556H177.615C177.615 31.1083 178.063 31.556 178.615 31.556V30.556ZM178.615 27.366V26.366C178.063 26.366 177.615 26.8137 177.615 27.366H178.615ZM188.955 27.366H189.955C189.955 26.8137 189.507 26.366 188.955 26.366V27.366ZM178.483 46.55H177.483C177.483 46.8528 177.62 47.1392 177.856 47.329C178.092 47.5189 178.401 47.5916 178.697 47.5269L178.483 46.55ZM178.483 43.162L178.203 42.2021C177.776 42.3266 177.483 42.7176 177.483 43.162H178.483ZM191.485 27.014V26.014C190.933 26.014 190.485 26.4617 190.485 27.014H191.485ZM195.335 27.014H196.335C196.335 26.4617 195.887 26.014 195.335 26.014V27.014ZM195.335 47.628V48.628C195.887 48.628 196.335 48.1803 196.335 47.628H195.335ZM191.485 47.628H190.485C190.485 48.1803 190.933 48.628 191.485 48.628V47.628ZM186.127 32.294V30.556H184.127V32.294H186.127ZM185.127 29.556H178.615V31.556H185.127V29.556ZM179.615 30.556V27.366H177.615V30.556H179.615ZM178.615 28.366H188.955V26.366H178.615V28.366ZM187.955 27.366V31.854H189.955V27.366H187.955ZM187.955 31.854C187.955 36.0679 187.165 39.1091 185.62 41.2685C184.091 43.4068 181.723 44.8174 178.269 45.5731L178.697 47.5269C182.482 46.6986 185.35 45.0842 187.247 42.432C189.129 39.8009 189.955 36.2861 189.955 31.854H187.955ZM179.483 46.55V43.162H177.483V46.55H179.483ZM178.763 44.1219C181.265 43.3919 183.15 42.0503 184.385 40.0117C185.602 38.0031 186.127 35.417 186.127 32.294H184.127C184.127 35.221 183.63 37.3979 182.674 38.9753C181.737 40.5227 180.3 41.5901 178.203 42.2021L178.763 44.1219ZM191.485 28.014H195.335V26.014H191.485V28.014ZM194.335 27.014V47.628H196.335V27.014H194.335ZM195.335 46.628H191.485V48.628H195.335V46.628ZM192.485 47.628V27.014H190.485V47.628H192.485Z" fill="#A8891A"/>
<defs>
<linearGradient id="paint0_linear_881_2" x1="127.497" y1="-89.9995" x2="127.497" y2="89.9171" gradientUnits="userSpaceOnUse">
<stop stop-color="#EFE4BC"/>
<stop offset="1" stop-color="#A5600F"/>
</linearGradient>
<linearGradient id="paint1_linear_881_2" x1="127.261" y1="7.5" x2="127.26" y2="56" gradientUnits="userSpaceOnUse">
<stop stop-color="#FCFB64"/>
<stop offset="1" stop-color="#FFBF00"/>
</linearGradient>
</defs>
</svg>
