<svg width="173" height="65" viewBox="0 0 173 65" fill="none" xmlns="http://www.w3.org/2000/svg">
<rect x="3" y="3" width="167" height="59" rx="27" fill="#965E2E" stroke="#4D3114" stroke-width="6"/>
<rect x="11" y="11" width="151" height="43" rx="21.5" fill="#6E3D12"/>
<path d="M60.4621 24.5398H54.9021C55.5021 25.8998 57.8821 26.5798 60.6421 26.7398V29.1798C57.8021 29.0398 54.8821 28.2798 53.2421 26.8798C51.6021 28.2798 48.7421 29.0398 45.8421 29.1798V26.7398C48.5421 26.5798 50.9621 25.8998 51.5821 24.5398H46.0421V22.0798H60.4621V24.5398ZM51.7421 32.4598H44.9221V29.9598H61.6021V32.4598H54.7621V33.5598C56.6821 33.6598 58.2421 33.9598 59.3021 34.5798C60.2821 35.1598 60.8221 35.9998 60.8221 37.1798C60.8221 38.3798 60.2821 39.1998 59.3021 39.7798C57.9821 40.5598 55.9021 40.8398 53.2821 40.8398C50.6421 40.8398 48.5821 40.5598 47.2621 39.7798C46.2821 39.1998 45.7421 38.3798 45.7421 37.1798C45.7421 35.9998 46.2821 35.1598 47.2621 34.5798C48.3221 33.9798 49.8421 33.6598 51.7421 33.5598V32.4598ZM48.7621 37.1798C48.7621 37.4998 48.9221 37.7398 49.2421 37.8998C49.9021 38.2798 51.2221 38.3998 53.2821 38.3998C55.3221 38.3998 56.6421 38.2798 57.3021 37.8998C57.6221 37.7398 57.7821 37.4998 57.7821 37.1798C57.7821 36.8798 57.6221 36.6198 57.3021 36.4398C56.6421 36.0798 55.3221 35.9798 53.2821 35.9798C51.2221 35.9798 49.9021 36.0798 49.2421 36.4398C48.9221 36.6198 48.7621 36.8798 48.7621 37.1798Z" fill="white"/>
<path d="M69.2813 22.0798V23.7398H77.6413V22.0798H80.6613V29.9398H74.9413V31.1398H81.8013V33.6398H65.1213V31.1398H71.9213V29.9398H66.2413V22.0798H69.2813ZM69.2813 27.4998H77.6413V26.1798H69.2813V27.4998ZM80.6613 40.6398H77.6213V37.3398H66.1413V34.8598H80.6613V40.6398Z" fill="white"/>
<path d="M96.2595 22.8598V21.3398H99.2995V22.8598H103.159V25.0598H92.3795V22.8598H96.2595ZM95.6395 28.3598C95.6395 28.5598 95.7395 28.6998 95.9195 28.7998C96.2595 29.0198 96.8995 29.1198 97.7595 29.1198C98.6195 29.1198 99.2595 29.0198 99.5995 28.7998C99.7595 28.6998 99.8795 28.5598 99.8795 28.3598C99.8795 28.1598 99.7595 28.0198 99.5995 27.8998C99.2595 27.6998 98.6195 27.5798 97.7595 27.5798C96.8995 27.5798 96.2595 27.6998 95.9195 27.8998C95.7395 28.0198 95.6395 28.1598 95.6395 28.3598ZM92.7995 28.3598C92.7995 27.4798 93.1795 26.8398 93.8395 26.3798C94.7395 25.7598 96.1595 25.5198 97.7595 25.5198C99.3595 25.5198 100.779 25.7598 101.679 26.3798C102.339 26.8398 102.719 27.4798 102.719 28.3598C102.719 29.2398 102.339 29.8798 101.679 30.3198C101.079 30.7398 100.259 30.9798 99.2995 31.0998V31.9798H101.279C102.799 31.9798 103.699 31.7998 104.319 31.3398V21.8798H107.359V27.1998H109.919V29.7798H107.359V34.7398H104.319V33.5598C103.679 34.0998 102.599 34.2998 100.639 34.2998H92.1795V31.9798H96.2795V31.1198C95.2995 30.9998 94.4395 30.7398 93.8395 30.3198C93.1795 29.8798 92.7995 29.2398 92.7995 28.3598ZM93.2995 37.6798V35.3398H107.359V40.6398H104.319V37.6798H93.2995Z" fill="white"/>
<path d="M112.719 27.2198C112.719 25.2398 113.319 23.7798 114.339 22.8598C115.179 22.1398 116.319 21.7598 117.679 21.7598C119.079 21.7598 120.199 22.1398 121.039 22.8598C122.059 23.7798 122.639 25.2398 122.639 27.2198C122.639 29.2198 122.059 30.6598 121.039 31.5798C120.199 32.3198 119.079 32.6998 117.679 32.6998C116.319 32.6998 115.179 32.3198 114.339 31.5798C113.319 30.6598 112.719 29.2198 112.719 27.2198ZM115.659 27.2198C115.659 28.3598 115.899 29.1598 116.339 29.6198C116.679 29.9798 117.119 30.1598 117.679 30.1598C118.259 30.1598 118.699 29.9798 119.019 29.6198C119.479 29.1598 119.719 28.3598 119.719 27.2198C119.719 26.1198 119.479 25.2998 119.019 24.8198C118.699 24.4598 118.259 24.2998 117.679 24.2998C117.119 24.2998 116.679 24.4598 116.339 24.8198C115.899 25.2998 115.659 26.1198 115.659 27.2198ZM128.039 21.8798V34.8398H124.999V21.8798H128.039ZM128.339 37.8998V40.4398H114.019V33.8598H117.059V37.8998H128.339Z" fill="white"/>
</svg>
