<svg width="84" height="33" viewBox="0 0 84 33" fill="none" xmlns="http://www.w3.org/2000/svg">
<g filter="url(#filter0_d_1544_1464)">
<rect x="2" y="2" width="78" height="26.2857" rx="4" fill="#6E3D12"/>
<path d="M13.4351 10.564V9.234H15.9551V7.764H17.4671V9.234H19.9871V10.564H17.4671C17.5511 12.538 18.6991 13.518 20.2251 13.854V15.212C18.6991 14.932 17.3971 14.148 16.7391 13.056C16.0811 14.162 14.7511 15.128 13.2111 15.366V14.022C14.7651 13.686 15.8851 12.58 15.9551 10.564H13.4351ZM23.6971 15.422H22.1711V12.65H19.6651V11.348H22.1711V8.128H23.6971V15.422ZM14.2051 20.952V16.178H23.6971V20.952H14.2051ZM22.1711 17.48H15.7311V19.664H22.1711V17.48ZM30.1225 10.214H37.0245V8.282H38.5505V14.792H28.5965V8.282H30.1225V10.214ZM37.0245 13.49V11.516H30.1225V13.49H37.0245ZM27.9385 17.704V16.374H39.2085V17.704H34.3085V21.036H32.7965V17.704H27.9385ZM45.438 9.584V7.764H46.964V9.584H49.834V10.9H42.596V9.584H45.438ZM44.626 16.052C44.626 17.256 44.822 18.11 45.298 18.558C45.55 18.782 45.872 18.908 46.264 18.908C46.642 18.908 46.936 18.782 47.174 18.572C47.678 18.124 47.902 17.256 47.902 16.052C47.902 14.75 47.636 13.882 47.118 13.462C46.894 13.28 46.614 13.196 46.264 13.196C45.872 13.196 45.564 13.294 45.326 13.518C44.836 13.966 44.626 14.806 44.626 16.052ZM43.114 16.052C43.114 14.358 43.548 13.112 44.43 12.426C44.92 12.076 45.522 11.88 46.264 11.88C46.908 11.88 47.468 12.02 47.916 12.328C48.896 12.972 49.414 14.274 49.414 16.052C49.414 17.83 48.91 19.104 47.958 19.748C47.496 20.056 46.936 20.21 46.264 20.21C45.55 20.21 44.948 20.028 44.472 19.678C43.562 19.02 43.114 17.774 43.114 16.052ZM53.04 8.128V13.308H55.028V14.638H53.04V20.826H51.514V8.128H53.04ZM62.6435 11.096V9.696H58.0515V8.352H64.1415V10.914C64.1415 15.744 62.3495 18.964 57.9675 20.084V18.642C61.1875 17.704 62.6435 15.058 62.6435 11.096ZM68.1875 8.128V20.826H66.6615V8.128H68.1875Z" fill="#F5ECD9"/>
</g>
<defs>
<filter id="filter0_d_1544_1464" x="0" y="0" width="84" height="32.2852" filterUnits="userSpaceOnUse" color-interpolation-filters="sRGB">
<feFlood flood-opacity="0" result="BackgroundImageFix"/>
<feColorMatrix in="SourceAlpha" type="matrix" values="0 0 0 0 0 0 0 0 0 0 0 0 0 0 0 0 0 0 127 0" result="hardAlpha"/>
<feOffset dx="1" dy="1"/>
<feGaussianBlur stdDeviation="1.5"/>
<feComposite in2="hardAlpha" operator="out"/>
<feColorMatrix type="matrix" values="0 0 0 0 0 0 0 0 0 0 0 0 0 0 0 0 0 0 0.25 0"/>
<feBlend mode="normal" in2="BackgroundImageFix" result="effect1_dropShadow_1544_1464"/>
<feBlend mode="normal" in="SourceGraphic" in2="effect1_dropShadow_1544_1464" result="shape"/>
</filter>
</defs>
</svg>
