<svg width="200" height="93" viewBox="0 0 200 93" fill="none" xmlns="http://www.w3.org/2000/svg">
<path d="M186.814 89.4633C140.253 92.6531 5.44826 98.2264 1.81946 81.7131C-3.17947 58.9664 3.98642 26.2926 1.43537 8.39351C0.965284 5.11806 3.72845 2.20039 7.35726 2.10969C40.1942 1.27319 164.325 -1.64952 194.484 1.26311C197.849 1.58561 200.297 4.30676 199.971 7.37056C198.48 21.2282 194.691 60.0649 196.8 78.5586C197.431 84.1118 192.942 89.0451 186.82 89.4684L186.814 89.4633Z" fill="#643B11"/>
<path d="M181.62 86.6618C137.845 89.5593 11.1066 94.6236 7.69563 79.617C2.99481 58.9464 9.73074 29.2658 7.32874 12.9994C6.88732 10.0213 9.48423 7.37576 12.8952 7.29009C43.7658 6.52918 160.472 3.87355 188.826 6.5191C191.991 6.81641 194.295 9.28559 193.986 12.0672C192.587 24.66 189.021 59.9442 191.005 76.7497C191.601 81.7939 187.376 86.2788 181.62 86.6618Z" fill="#6E3D12"/>
<path d="M172.007 82.0657C133.385 84.6256 21.5745 89.0903 18.5648 75.8525C14.42 57.6208 20.3591 31.4324 18.2438 17.0808C17.8539 14.4555 20.147 12.1173 23.1567 12.0417C50.3928 11.3715 153.352 9.02828 178.364 11.3614C181.156 11.6234 183.185 13.8004 182.916 16.2544C181.683 27.3607 178.536 58.4926 180.285 73.3178C180.812 77.7673 177.08 81.7231 172.007 82.0607V82.0657Z" fill="#643B11"/>
<path d="M168.544 82.3076C131.78 84.6457 25.3466 88.7224 22.4802 76.6335C18.5361 59.9791 24.1885 36.0582 22.1706 22.9565C21.8037 20.5578 23.9822 18.4263 26.8485 18.3557C52.7776 17.7409 150.784 15.6043 174.598 17.7359C177.252 17.9727 179.19 19.9632 178.926 22.2056C177.751 32.3494 174.758 60.7854 176.421 74.3256C176.919 78.3921 173.371 82.0052 168.538 82.3126L168.544 82.3076Z" fill="url(#paint0_linear_745_331)"/>
<path d="M20.6859 70.2441C20.0152 71.0857 57.4326 76.6943 72.0625 74.8953C61.7149 79.5263 19.7859 73.5851 19.7859 73.5851L20.6859 70.2441Z" fill="#965E2E"/>
<path d="M20.9726 27.6682C20.9726 27.6682 27.697 27.1039 43.1238 26.3681C29.7493 24.2013 19.7916 24.2668 19.7916 24.2668L20.9726 27.6682Z" fill="#965E2E"/>
<path d="M180.107 22.1753C180.107 22.1753 173.411 22.0947 158.024 22.0997C171.468 21.1927 181.414 21.0566 181.414 21.0566L180.113 22.1753H180.107Z" fill="#965E2E"/>
<path d="M194.444 8.69584C194.444 8.69584 187.749 8.61521 172.362 8.62025C185.805 7.71321 195.751 7.57715 195.751 7.57715L194.45 8.69584H194.444Z" fill="#965E2E"/>
<path d="M179.608 39.0317C179.608 39.0317 175.664 38.8906 166.601 38.7394C174.506 38.0087 180.365 37.9785 180.365 37.9785L179.614 39.0317H179.608Z" fill="#965E2E"/>
<path d="M177.401 70.9195C177.401 70.9195 170.453 70.4508 154.505 69.8411C168.389 68.1126 178.691 68.1731 178.691 68.1731L177.401 70.9195Z" fill="#965E2E"/>
<path d="M80.4036 22.0093C80.4036 22.0093 109.514 20.0138 132.669 22.0093C121.639 19.3738 85.0241 20.3514 80.4036 22.0093Z" fill="#965E2E"/>
<path d="M107.244 76.0894C107.244 76.0894 129.453 78.1554 146.96 75.0967C138.688 78.7702 110.821 78.1806 107.244 76.0894Z" fill="#965E2E"/>
<path d="M55.8389 83.663C55.8389 83.663 114.387 85.1949 160.902 82.8315C138.757 85.6434 65.1373 85.2453 55.8389 83.663Z" fill="#965E2E"/>
<path d="M30.9359 62.9473C30.9359 62.9473 46.1047 68.067 59.1351 67.4674C52.468 69.9466 32.9768 65.5072 30.9359 62.9473Z" fill="#965E2E"/>
<path d="M58.2517 39.7001V35.4401H73.2217V39.7001H68.3017V40.4801C68.3017 45.1901 70.1317 47.0201 73.7017 47.7101V52.0301C70.4917 51.6701 67.4317 50.2601 65.7817 48.3101C64.1017 50.3201 60.8317 52.0001 57.7717 52.3301V48.0101C61.2217 47.3201 63.1417 45.2801 63.1417 40.4801V39.7001H58.2517ZM81.2617 35.1101V54.8201H76.0117V35.1101H81.2617ZM81.6217 59.1101V63.3701H59.8117V53.2601H65.0617V59.1101H81.6217Z" fill="url(#paint1_linear_745_331)"/>
<path d="M99.5606 36.7301V40.5701H86.8706V36.7301H90.9806V34.3301H95.6906V36.7301H99.5606ZM91.6406 46.6001C91.6406 47.1701 91.8206 47.6501 92.1506 47.9201C92.4806 48.2201 92.9006 48.3401 93.3506 48.3401C93.8006 48.3401 94.1906 48.2201 94.5206 47.9201C94.8506 47.6501 95.0306 47.1701 95.0306 46.6001C95.0306 46.0601 94.8506 45.5801 94.5206 45.2801C94.1906 45.0101 93.8006 44.8901 93.3506 44.8901C92.9006 44.8901 92.4806 45.0101 92.1506 45.2801C91.8206 45.5801 91.6406 46.0601 91.6406 46.6001ZM87.2606 46.6001C87.2606 44.8601 87.9806 43.3601 89.2406 42.4001C90.2906 41.5901 91.7006 41.1401 93.3506 41.1401C94.9706 41.1401 96.3806 41.5901 97.4606 42.4001C98.6906 43.3601 99.4106 44.8601 99.4106 46.6001C99.4106 48.3701 98.6906 49.8401 97.4606 50.8301C96.3806 51.6101 94.9706 52.0601 93.3506 52.0601C91.7006 52.0601 90.2906 51.6101 89.2406 50.8301C87.9806 49.8401 87.2606 48.3701 87.2606 46.6001ZM111.021 35.1101V52.3001H106.401V45.9101H104.751V51.9101H100.311V35.2901H104.751V41.5001H106.401V35.1101H111.021ZM88.8206 58.3301C88.8206 56.5601 89.6906 55.3001 91.1906 54.4301C93.2006 53.2601 96.3806 52.7801 100.161 52.7801C103.911 52.7801 107.091 53.2601 109.131 54.4301C110.631 55.3001 111.501 56.5601 111.501 58.3301C111.501 60.1001 110.631 61.3301 109.131 62.2301C107.091 63.4001 103.911 63.8501 100.161 63.8501C96.3806 63.8501 93.2006 63.4001 91.1906 62.2301C89.6906 61.3301 88.8206 60.1001 88.8206 58.3301ZM93.9806 58.3301C93.9806 58.6901 94.1906 58.9301 94.5806 59.1701C95.5106 59.6501 97.4006 59.8001 100.161 59.8001C102.921 59.8001 104.841 59.6501 105.711 59.1701C106.101 58.9301 106.311 58.6901 106.311 58.3301C106.311 57.9701 106.101 57.7001 105.711 57.4901C104.841 57.0101 102.921 56.8601 100.161 56.8601C97.4006 56.8601 95.5106 57.0101 94.5806 57.4901C94.1906 57.7001 93.9806 57.9701 93.9806 58.3301Z" fill="url(#paint2_linear_745_331)"/>
<path d="M139.909 39.4901H131.779C132.769 41.2601 136.009 42.0401 140.209 42.1901V46.1501C136.219 46.0601 131.359 45.0401 128.869 43.1801C126.409 45.0701 121.819 46.0901 117.559 46.1501V42.1901C121.639 42.0401 124.939 41.3201 125.929 39.4901H117.889V35.4401H139.909V39.4901ZM126.259 51.4001H116.179V47.2601H141.619V51.4001H131.479V52.8401C134.419 53.0201 136.729 53.5601 138.259 54.5501C139.639 55.4501 140.419 56.6501 140.419 58.3301C140.419 60.0101 139.639 61.2101 138.259 62.1101C136.309 63.4001 133.069 63.8801 128.929 63.8801C124.759 63.8801 121.519 63.4001 119.569 62.1101C118.189 61.2101 117.439 60.0101 117.439 58.3301C117.439 56.6501 118.189 55.4501 119.569 54.5501C121.069 53.5601 123.379 53.0201 126.259 52.8401V51.4001ZM122.569 58.3301C122.569 58.7201 122.779 58.9601 123.109 59.1701C123.979 59.7101 125.839 59.8901 128.929 59.8901C131.989 59.8901 133.849 59.7101 134.719 59.1701C135.049 58.9601 135.229 58.7201 135.229 58.3301C135.229 57.9701 135.049 57.7001 134.719 57.4601C133.849 56.9801 131.989 56.7401 128.929 56.7401C125.839 56.7401 123.979 56.9801 123.109 57.4601C122.779 57.7001 122.569 57.9701 122.569 58.3301Z" fill="url(#paint3_linear_745_331)"/>
<path fill-rule="evenodd" clip-rule="evenodd" d="M58.2517 40.7001C57.6994 40.7001 57.2517 40.2524 57.2517 39.7001V35.4401C57.2517 34.8878 57.6994 34.4401 58.2517 34.4401H73.2217C73.774 34.4401 74.2217 34.8878 74.2217 35.4401V39.7001C74.2217 40.2524 73.774 40.7001 73.2217 40.7001H69.3032C69.3311 42.814 69.7637 44.1256 70.4446 44.9788C71.141 45.8514 72.2265 46.4064 73.8915 46.7283C74.3619 46.8192 74.7017 47.231 74.7017 47.7101V52.0301C74.7017 52.3147 74.5804 52.5858 74.3683 52.7755C74.1561 52.9653 73.8731 53.0556 73.5903 53.0238C70.6336 52.6923 67.719 51.5129 65.7891 49.753C64.7267 50.7509 63.3461 51.6213 61.8475 52.2601H65.0617C65.614 52.2601 66.0617 52.7078 66.0617 53.2601V58.1101H81.6217C82.174 58.1101 82.6217 58.5578 82.6217 59.1101V63.3701C82.6217 63.9224 82.174 64.3701 81.6217 64.3701H59.8117C59.2594 64.3701 58.8117 63.9224 58.8117 63.3701V53.2601C58.8117 53.2353 58.8126 53.2108 58.8144 53.1864C58.5015 53.2446 58.1892 53.2909 57.879 53.3243C57.5967 53.3548 57.3148 53.2638 57.1036 53.0741C56.8924 52.8845 56.7717 52.614 56.7717 52.3301V48.0101C56.7717 47.5334 57.1082 47.123 57.5756 47.0295C59.1503 46.7146 60.238 46.1216 60.955 45.1804C61.6599 44.255 62.1116 42.8557 62.1403 40.7001H58.2517ZM63.1417 39.7001V40.4801C63.1417 40.5541 63.1413 40.6274 63.1404 40.7001C63.0822 45.3426 61.1686 47.3307 57.7717 48.0101V52.3301C58.1034 52.2943 58.4375 52.2427 58.7717 52.1765C61.1405 51.7076 63.5181 50.5075 65.0891 49.0385C65.342 48.802 65.574 48.5586 65.7817 48.3101C65.9928 48.5596 66.227 48.8002 66.4817 49.031C68.0092 50.4152 70.2725 51.4429 72.7017 51.8834C73.0325 51.9434 73.3663 51.9925 73.7017 52.0301V47.7101C70.1879 47.0309 68.3597 45.2473 68.3031 40.7001C68.3022 40.6275 68.3017 40.5541 68.3017 40.4801V39.7001H73.2217V35.4401H58.2517V39.7001H63.1417ZM65.0617 59.1101V53.2601H59.8117V63.3701H81.6217V59.1101H65.0617ZM81.2617 34.1101C81.814 34.1101 82.2617 34.5578 82.2617 35.1101V54.8201C82.2617 55.3724 81.814 55.8201 81.2617 55.8201H76.0117C75.4594 55.8201 75.0117 55.3724 75.0117 54.8201V35.1101C75.0117 34.5578 75.4594 34.1101 76.0117 34.1101H81.2617ZM100.311 35.2901H104.751V41.5001H106.401V35.1101H111.021V52.3001H106.401V45.9101H104.751V51.9101H100.311V35.2901ZM99.5606 40.5701V36.7301H95.6906V34.3301H90.9806V36.7301H86.8706V40.5701H99.5606ZM98.0202 41.5701H99.3106V42.9235C98.9708 42.4292 98.557 41.9873 98.0758 41.6118L98.0606 41.6001C98.0472 41.59 98.0337 41.58 98.0202 41.5701ZM95.9161 41.5701C95.1457 41.2891 94.2829 41.1401 93.3506 41.1401C92.4009 41.1401 91.5308 41.2891 90.7631 41.5701C90.1968 41.7773 89.6863 42.0563 89.2406 42.4001C87.9806 43.3601 87.2606 44.8601 87.2606 46.6001C87.2606 48.3701 87.9806 49.8401 89.2406 50.8301C90.2906 51.6101 91.7006 52.0601 93.3506 52.0601C94.9706 52.0601 96.3806 51.6101 97.4606 50.8301C98.4231 50.0554 99.0733 48.9868 99.3106 47.7105C99.3765 47.3558 99.4106 46.985 99.4106 46.6001C99.4106 46.2217 99.3765 45.8546 99.3106 45.502C99.0733 44.2332 98.4231 43.1513 97.4606 42.4001C97.0021 42.0563 96.4842 41.7773 95.9161 41.5701ZM99.3106 50.2921C98.9729 50.7845 98.5628 51.2266 98.0876 51.6091C98.074 51.62 98.0602 51.6306 98.046 51.6408C97.9453 51.7135 97.8423 51.7837 97.7371 51.8512C98.2508 51.8193 98.776 51.7987 99.3106 51.7882V50.2921ZM99.8195 52.7814C96.1894 52.8097 93.1398 53.2954 91.1906 54.4301C89.6906 55.3001 88.8206 56.5601 88.8206 58.3301C88.8206 60.1001 89.6906 61.3301 91.1906 62.2301C93.2006 63.4001 96.3806 63.8501 100.161 63.8501C103.911 63.8501 107.091 63.4001 109.131 62.2301C110.631 61.3301 111.501 60.1001 111.501 58.3301C111.501 56.5601 110.631 55.3001 109.131 54.4301C107.691 53.6043 105.683 53.1223 103.308 52.9101C102.363 52.8256 101.359 52.7839 100.311 52.7803C100.261 52.7802 100.211 52.7801 100.161 52.7801C100.046 52.7801 99.9326 52.7805 99.8195 52.7814ZM109.133 53.3001C109.303 53.3836 109.468 53.4711 109.628 53.5626L109.632 53.565C111.388 54.5836 112.501 56.1469 112.501 58.3301C112.501 60.5219 111.38 62.0464 109.645 63.0876L109.628 63.0975C107.346 64.4064 103.937 64.8501 100.161 64.8501C96.3576 64.8501 92.9434 64.4075 90.6875 63.0943L90.676 63.0877C88.9407 62.0465 87.8206 60.5219 87.8206 58.3301C87.8206 56.1472 88.9325 54.584 90.6882 53.5654M109.133 53.3001H111.021C111.573 53.3001 112.021 52.8524 112.021 52.3001V35.1101C112.021 34.5578 111.573 34.1101 111.021 34.1101H106.401C106.016 34.1101 105.682 34.3271 105.515 34.6453C105.331 34.428 105.057 34.2901 104.751 34.2901H100.311C99.7583 34.2901 99.3106 34.7378 99.3106 35.2901V35.7301H96.6906V34.3301C96.6906 33.7778 96.2428 33.3301 95.6906 33.3301H90.9806C90.4283 33.3301 89.9806 33.7778 89.9806 34.3301V35.7301H86.8706C86.3183 35.7301 85.8706 36.1778 85.8706 36.7301V40.5701C85.8706 41.1224 86.3183 41.5701 86.8706 41.5701H88.6798C88.6639 41.5821 88.6479 41.5943 88.6321 41.6065C87.105 42.7712 86.2606 44.5755 86.2606 46.6001C86.2606 48.6619 87.1099 50.4277 88.6227 51.6164C88.6298 51.622 88.637 51.6274 88.6442 51.6328C89.5656 52.3173 90.6936 52.7688 91.9569 52.9584C91.5022 53.1369 91.0776 53.3389 90.6882 53.5654M92.7838 47.1461C92.7972 47.1571 92.8104 47.1685 92.8232 47.1801C92.9223 47.2702 93.0778 47.3401 93.3506 47.3401C93.6051 47.3401 93.7379 47.2801 93.8479 47.1801C93.8607 47.1685 93.8739 47.1571 93.8873 47.1461C93.905 47.1317 94.0306 46.992 94.0306 46.6001C94.0306 46.2875 93.9332 46.1097 93.8631 46.035C93.7439 45.9455 93.5925 45.8901 93.3506 45.8901C93.0934 45.8901 92.9203 45.953 92.8072 46.0359C92.7372 46.111 92.6406 46.2887 92.6406 46.6001C92.6406 46.992 92.7661 47.1317 92.7838 47.1461ZM94.5206 45.2801C94.8506 45.5801 95.0306 46.0601 95.0306 46.6001C95.0306 47.1701 94.8506 47.6501 94.5206 47.9201C94.1906 48.2201 93.8006 48.3401 93.3506 48.3401C92.9006 48.3401 92.4806 48.2201 92.1506 47.9201C91.8206 47.6501 91.6406 47.1701 91.6406 46.6001C91.6406 46.0601 91.8206 45.5801 92.1506 45.2801C92.4806 45.0101 92.9006 44.8901 93.3506 44.8901C93.8006 44.8901 94.1906 45.0101 94.5206 45.2801ZM105.157 58.3301C104.887 58.4555 104.377 58.5832 103.54 58.6705C102.658 58.7626 101.529 58.8001 100.161 58.8001C98.7926 58.8001 97.6705 58.7626 96.7882 58.6705C95.9791 58.586 95.4543 58.4627 95.1432 58.3301C95.4543 58.1975 95.9791 58.0742 96.7882 57.9897C97.6705 57.8975 98.7926 57.8601 100.161 57.8601C101.529 57.8601 102.658 57.8976 103.54 57.9897C104.377 58.077 104.887 58.2047 105.157 58.3301ZM94.5806 57.4901C95.5106 57.0101 97.4006 56.8601 100.161 56.8601C102.921 56.8601 104.841 57.0101 105.711 57.4901C106.101 57.7001 106.311 57.9701 106.311 58.3301C106.311 58.6901 106.101 58.9301 105.711 59.1701C104.841 59.6501 102.921 59.8001 100.161 59.8001C97.4006 59.8001 95.5106 59.6501 94.5806 59.1701C94.1906 58.9301 93.9806 58.6901 93.9806 58.3301C93.9806 57.9701 94.1906 57.7001 94.5806 57.4901ZM140.909 39.4901C140.909 40.0424 140.462 40.4901 139.909 40.4901H135.079C136.423 40.8903 138.187 41.1172 140.245 41.1907C140.783 41.2099 141.209 41.6517 141.209 42.1901V46.1501C141.209 46.187 141.207 46.2237 141.203 46.2601H141.619C142.172 46.2601 142.619 46.7078 142.619 47.2601V51.4001C142.619 51.9524 142.172 52.4001 141.619 52.4001H135.554C136.812 52.7043 137.908 53.1318 138.803 53.7105L138.806 53.7125C140.42 54.7655 141.419 56.2582 141.419 58.3301C141.419 60.4009 140.421 61.8931 138.808 62.946C136.587 64.4141 133.073 64.8801 128.929 64.8801C124.756 64.8801 121.242 64.4142 119.02 62.9456C117.395 61.8848 116.439 60.3879 116.439 58.3301C116.439 56.2719 117.395 54.7748 119.021 53.714C119.902 53.1331 120.992 52.7046 122.24 52.4001H116.179C115.627 52.4001 115.179 51.9524 115.179 51.4001V47.2601C115.179 46.7078 115.627 46.2601 116.179 46.2601H116.565C116.561 46.2237 116.559 46.187 116.559 46.1501V42.1901C116.559 41.6521 116.985 41.2105 117.523 41.1908C119.527 41.1171 121.278 40.9043 122.622 40.5104C122.645 40.5037 122.668 40.4969 122.69 40.4901H117.889C117.337 40.4901 116.889 40.0424 116.889 39.4901V35.4401C116.889 34.8878 117.337 34.4401 117.889 34.4401H139.909C140.462 34.4401 140.909 34.8878 140.909 35.4401V39.4901ZM125.929 39.4901C125.724 39.8695 125.42 40.2013 125.029 40.4901C123.537 41.5942 120.793 42.0712 117.559 42.1901V46.1501C117.891 46.1454 118.225 46.1349 118.559 46.1186C122.521 45.926 126.601 44.9229 128.869 43.1801C131.155 44.8872 135.436 45.8867 139.209 46.1091C139.547 46.129 139.881 46.1427 140.209 46.1501V42.1901C136.904 42.072 134.194 41.5639 132.706 40.4901C132.303 40.1994 131.99 39.8672 131.779 39.4901H139.909V35.4401H117.889V39.4901H125.929ZM128.879 44.3954C127.627 45.2039 126.054 45.819 124.371 46.2601H133.579C131.84 45.8203 130.178 45.206 128.879 44.3954ZM126.259 52.8401C123.379 53.0201 121.069 53.5601 119.569 54.5501C118.189 55.4501 117.439 56.6501 117.439 58.3301C117.439 60.0101 118.189 61.2101 119.569 62.1101C121.519 63.4001 124.759 63.8801 128.929 63.8801C133.069 63.8801 136.309 63.4001 138.259 62.1101C139.639 61.2101 140.419 60.0101 140.419 58.3301C140.419 56.6501 139.639 55.4501 138.259 54.5501C136.729 53.5601 134.419 53.0201 131.479 52.8401V51.4001H141.619V47.2601H116.179V51.4001H126.259V52.8401ZM123.641 58.3232C123.882 58.4709 124.379 58.6311 125.303 58.7394C126.205 58.845 127.396 58.8901 128.929 58.8901C130.447 58.8901 131.631 58.845 132.529 58.7394C133.449 58.6312 133.946 58.4711 134.187 58.3233C134.19 58.3217 134.192 58.3202 134.194 58.3187C134.19 58.3148 134.185 58.3106 134.18 58.3062C133.899 58.1682 133.381 58.0203 132.521 57.9123C131.623 57.7995 130.438 57.7401 128.929 57.7401C127.405 57.7401 126.213 57.7996 125.311 57.9124C124.445 58.0206 123.927 58.169 123.647 58.3071C123.642 58.3109 123.638 58.3146 123.634 58.3182C123.636 58.3199 123.639 58.3215 123.641 58.3232ZM123.109 57.4601C123.979 56.9801 125.839 56.7401 128.929 56.7401C131.989 56.7401 133.849 56.9801 134.719 57.4601C135.049 57.7001 135.229 57.9701 135.229 58.3301C135.229 58.7201 135.049 58.9601 134.719 59.1701C133.849 59.7101 131.989 59.8901 128.929 59.8901C125.839 59.8901 123.979 59.7101 123.109 59.1701C122.779 58.9601 122.569 58.7201 122.569 58.3301C122.569 57.9701 122.779 57.7001 123.109 57.4601ZM81.2617 35.1101H76.0117V54.8201H81.2617V35.1101Z" fill="#A8891A"/>
<defs>
<linearGradient id="paint0_linear_745_331" x1="99.9979" y1="-119.571" x2="99.9979" y2="119.461" gradientUnits="userSpaceOnUse">
<stop stop-color="#EFE4BC"/>
<stop offset="1" stop-color="#A5600F"/>
</linearGradient>
<linearGradient id="paint1_linear_745_331" x1="100.261" y1="20.5" x2="100.261" y2="69" gradientUnits="userSpaceOnUse">
<stop stop-color="#FCFB64"/>
<stop offset="1" stop-color="#FFBF00"/>
</linearGradient>
<linearGradient id="paint2_linear_745_331" x1="100.261" y1="20.5" x2="100.261" y2="69" gradientUnits="userSpaceOnUse">
<stop stop-color="#FCFB64"/>
<stop offset="1" stop-color="#FFBF00"/>
</linearGradient>
<linearGradient id="paint3_linear_745_331" x1="100.261" y1="20.5" x2="100.261" y2="69" gradientUnits="userSpaceOnUse">
<stop stop-color="#FCFB64"/>
<stop offset="1" stop-color="#FFBF00"/>
</linearGradient>
</defs>
</svg>
