<svg width="214" height="53" viewBox="0 0 214 53" fill="none" xmlns="http://www.w3.org/2000/svg">
<g clip-path="url(#clip0_984_558)">
<path d="M0 16.5625V36.4375C0 47.4847 5.56734 53 16.7188 53L197.281 53C208.433 53 214 47.4847 214 36.4375V16.5625C214 5.51531 208.433 0 197.281 0L16.7188 0C5.56734 0 0 5.51531 0 16.5625ZM197.281 3.3125C206.192 3.3125 210.656 7.73469 210.656 16.5625V36.4375C210.656 45.2653 206.192 49.6875 197.281 49.6875L16.7188 49.6875C7.80766 49.6875 3.34375 45.2653 3.34375 36.4375V16.5625C3.34375 7.73469 7.80766 3.3125 16.7188 3.3125L197.281 3.3125Z" fill="#4D3114"/>
<path d="M3.34375 16.5625V36.4375C3.34375 45.2653 7.80766 49.6875 16.7188 49.6875L197.281 49.6875C206.192 49.6875 210.656 45.2653 210.656 36.4375V16.5625C210.656 7.73469 206.192 3.3125 197.281 3.3125L16.7188 3.3125C7.80766 3.3125 3.34375 7.73469 3.34375 16.5625ZM197.281 6.625C203.969 6.625 207.312 9.9375 207.312 16.5625V36.4375C207.312 43.0625 203.969 46.375 197.281 46.375L16.7188 46.375C10.0312 46.375 6.6875 43.0625 6.6875 36.4375V16.5625C6.6875 9.9375 10.0312 6.625 16.7188 6.625L197.281 6.625Z" fill="#965E2E"/>
<path d="M12.5391 26.5C12.5391 27.9409 13.0072 29.1169 13.9602 30.0609C14.9131 31.005 16.1002 31.4688 17.5547 31.4688C19.0092 31.4688 20.1461 31.005 21.1492 30.0609C22.1022 29.1169 22.5703 27.9409 22.5703 26.5C22.5703 25.0591 22.1022 23.9659 21.1492 23.0219C20.1461 22.0281 18.9423 21.5312 17.5547 21.5312C16.167 21.5312 14.9131 22.0281 13.9602 23.0219C13.0072 23.9659 12.5391 25.1253 12.5391 26.5Z" fill="#965E2E"/>
<path d="M191.43 26.5C191.43 27.9409 191.898 29.1169 192.851 30.0609C193.804 31.005 194.991 31.4688 196.445 31.4688C197.9 31.4688 199.037 31.005 200.04 30.0609C200.993 29.1169 201.461 27.9409 201.461 26.5C201.461 25.0591 200.993 23.9659 200.04 23.0219C199.037 22.0281 197.833 21.5312 196.445 21.5312C195.058 21.5312 193.804 22.0281 192.851 23.0219C191.898 23.9659 191.43 25.1253 191.43 26.5Z" fill="#965E2E"/>
<path d="M6.6875 16.5625V36.4375C6.6875 43.0625 10.0312 46.375 16.7188 46.375L197.281 46.375C203.969 46.375 207.312 43.0625 207.312 36.4375V16.5625C207.312 9.9375 203.969 6.625 197.281 6.625L16.7188 6.625C10.0312 6.625 6.6875 9.9375 6.6875 16.5625ZM200.04 23.0219C200.993 23.9659 201.461 25.1253 201.461 26.5C201.461 27.8747 200.993 29.1169 200.04 30.0609C199.037 31.005 197.833 31.4688 196.445 31.4688C195.058 31.4688 193.804 31.005 192.851 30.0609C191.898 29.1169 191.43 27.9409 191.43 26.5C191.43 25.0591 191.898 23.9659 192.851 23.0219C193.804 22.0281 194.991 21.5312 196.445 21.5312C197.9 21.5312 199.037 22.0281 200.04 23.0219ZM21.1492 23.0219C22.1022 23.9659 22.5703 25.1253 22.5703 26.5C22.5703 27.8747 22.1022 29.1169 21.1492 30.0609C20.1461 31.005 18.9423 31.4687 17.5547 31.4687C16.167 31.4687 14.9131 31.005 13.9602 30.0609C13.0072 29.1169 12.5391 27.9409 12.5391 26.5C12.5391 25.0591 13.0072 23.9659 13.9602 23.0219C14.9131 22.0281 16.1002 21.5312 17.5547 21.5312C19.0092 21.5312 20.1461 22.0281 21.1492 23.0219Z" fill="#6E3D12"/>
</g>
<defs>
<clipPath id="clip0_984_558">
<rect width="53" height="214" fill="white" transform="translate(214) rotate(90)"/>
</clipPath>
</defs>
</svg>
