<svg width="485" height="74" viewBox="0 0 485 74" fill="none" xmlns="http://www.w3.org/2000/svg">
<rect x="3" y="3" width="479" height="68" rx="27" fill="#965E2E" stroke="#4D3114" stroke-width="6"/>
<rect x="11" y="11" width="463" height="52" rx="21" fill="#6E3D12"/>
<path d="M185.451 25.1399C185.601 26.9132 185.713 28.7705 185.787 30.7119C185.862 32.6345 185.89 34.5945 185.871 36.5919C185.871 38.5705 185.834 40.5585 185.759 42.5559C185.685 44.5345 185.582 46.4759 185.451 48.3799L182.651 48.2399C182.782 46.5039 182.875 44.6839 182.931 42.7799C183.006 40.8572 183.043 38.9159 183.043 36.9559C183.043 34.9772 183.006 33.0079 182.931 31.0479C182.875 29.0879 182.782 27.2119 182.651 25.4199L185.451 25.1399ZM180.635 26.8199C180.747 28.7052 180.831 30.4785 180.887 32.1399C180.943 33.8012 180.971 35.4345 180.971 37.0399C180.971 38.6452 180.943 40.2692 180.887 41.9119C180.831 43.5359 180.747 45.2719 180.635 47.1199L177.891 46.9799C177.985 45.2065 178.05 43.4892 178.087 41.8279C178.143 40.1665 178.181 38.5052 178.199 36.8439C177.639 36.9185 177.07 36.9652 176.491 36.9839C175.913 36.9839 175.381 36.9652 174.895 36.9279C174.111 38.3092 173.113 39.6065 171.899 40.8199C170.705 42.0145 169.398 43.0599 167.979 43.9559L166.271 41.5759C166.962 41.1839 167.625 40.7545 168.259 40.2879C168.894 39.8212 169.473 39.3359 169.995 38.8319C170.537 38.3092 171.013 37.7959 171.423 37.2919C171.853 36.7692 172.217 36.2652 172.515 35.7799C172.739 35.4065 172.907 35.0332 173.019 34.6599C173.131 34.2865 173.159 33.9505 173.103 33.6519C173.047 33.3532 172.898 33.1105 172.655 32.9239C172.413 32.7185 172.058 32.5972 171.591 32.5599C170.882 32.5225 170.163 32.6065 169.435 32.8119C168.726 32.9985 168.119 33.2599 167.615 33.5959L166.775 30.9919C167.559 30.5625 168.418 30.2545 169.351 30.0679C170.303 29.8812 171.218 29.8345 172.095 29.9279C172.767 29.9839 173.346 30.1425 173.831 30.4039C174.317 30.6652 174.699 30.9919 174.979 31.3839C175.278 31.7759 175.483 32.2145 175.595 32.6999C175.726 33.1852 175.782 33.6892 175.763 34.2119C176.155 34.2305 176.547 34.2399 176.939 34.2399C177.35 34.2212 177.761 34.1932 178.171 34.1559C178.134 32.9985 178.097 31.8412 178.059 30.6839C178.022 29.5265 177.966 28.3319 177.891 27.0999L180.635 26.8199Z" fill="white"/>
<path d="M204.907 38.3279C205.094 37.3199 205.234 36.2465 205.327 35.1079C205.439 33.9692 205.495 32.8212 205.495 31.6639C205.514 30.5065 205.486 29.3772 205.411 28.2759C205.336 27.1559 205.215 26.1105 205.047 25.1399L207.987 24.8599C208.248 27.1932 208.351 29.5079 208.295 31.8039C208.239 34.0999 208.043 36.3212 207.707 38.4679L204.907 38.3279ZM195.807 37.7959C194.93 37.8145 194.146 37.6932 193.455 37.4319C192.764 37.1705 192.176 36.8065 191.691 36.3399C191.206 35.8732 190.823 35.3319 190.543 34.7159C190.263 34.0812 190.114 33.4092 190.095 32.6999C190.058 31.9532 190.17 31.2252 190.431 30.5159C190.692 29.8065 191.084 29.1719 191.607 28.6119C192.13 28.0332 192.783 27.5665 193.567 27.2119C194.37 26.8572 195.303 26.6705 196.367 26.6519V27.4639C197.114 27.5012 197.786 27.6599 198.383 27.9399C198.98 28.2199 199.484 28.5839 199.895 29.0319C200.306 29.4799 200.614 29.9932 200.819 30.5719C201.043 31.1505 201.146 31.7665 201.127 32.4199C201.108 33.0919 200.968 33.7452 200.707 34.3799C200.464 35.0145 200.11 35.5839 199.643 36.0879C199.176 36.5919 198.616 37.0025 197.963 37.3199C197.328 37.6185 196.61 37.7772 195.807 37.7959ZM192.867 32.4759C192.867 32.8492 192.923 33.2132 193.035 33.5679C193.147 33.9039 193.315 34.2025 193.539 34.4639C193.763 34.7065 194.043 34.9025 194.379 35.0519C194.734 35.2012 195.135 35.2759 195.583 35.2759C196.05 35.2759 196.46 35.1919 196.815 35.0239C197.17 34.8559 197.459 34.6412 197.683 34.3799C197.907 34.1185 198.075 33.8199 198.187 33.4839C198.299 33.1292 198.355 32.7745 198.355 32.4199C198.355 32.0839 198.299 31.7572 198.187 31.4399C198.075 31.1225 197.898 30.8425 197.655 30.5999C197.431 30.3572 197.123 30.1705 196.731 30.0399C196.358 29.9092 195.91 29.8719 195.387 29.9279L195.359 29.2839C194.594 29.4892 193.987 29.8905 193.539 30.4879C193.091 31.0852 192.867 31.7479 192.867 32.4759ZM207.987 43.6199C207.912 44.0865 207.791 44.5625 207.623 45.0479C207.474 45.5145 207.259 45.9812 206.979 46.4479L208.127 46.2799V48.7999C206.391 49.0239 204.748 49.1545 203.199 49.1919C201.668 49.2479 200.11 49.2385 198.523 49.1639C198.523 49.3505 198.514 49.4905 198.495 49.5839H196.059C196.096 48.9865 196.106 48.3145 196.087 47.5679C196.068 46.8212 196.012 46.0465 195.919 45.2439C195.844 44.4412 195.732 43.6479 195.583 42.8639C195.452 42.0799 195.303 41.3612 195.135 40.7079L197.991 40.2599L198.187 41.0999C198.971 40.7825 199.858 40.4932 200.847 40.2319C201.855 39.9519 202.835 39.8212 203.787 39.8399C205.299 39.8585 206.419 40.2225 207.147 40.9319C207.875 41.6225 208.155 42.5185 207.987 43.6199ZM198.663 46.8959C199.559 46.9145 200.455 46.9145 201.351 46.8959C202.247 46.8772 203.152 46.8305 204.067 46.7559C204.328 46.2705 204.552 45.7759 204.739 45.2719C204.944 44.7492 205.075 44.2452 205.131 43.7599C205.187 43.2745 205.038 42.9199 204.683 42.6959C204.328 42.4719 203.843 42.3599 203.227 42.3599C202.536 42.3599 201.771 42.4625 200.931 42.6679C200.11 42.8545 199.307 43.1065 198.523 43.4239C198.579 44.0025 198.616 44.5812 198.635 45.1599C198.672 45.7199 198.682 46.2985 198.663 46.8959Z" fill="white"/>
<path d="M242.43 37.0119C241.926 37.1052 241.348 37.1799 240.694 37.2359C240.06 37.2732 239.416 37.2825 238.762 37.2639C238.762 39.1679 238.725 41.0345 238.65 42.8639C238.594 44.6745 238.501 46.4199 238.37 48.0999L235.43 47.9599C235.58 46.2239 235.682 44.3945 235.738 42.4719C235.813 40.5305 235.841 38.5705 235.822 36.5919C235.822 34.6132 235.776 32.6532 235.682 30.7119C235.589 28.7519 235.458 26.8945 235.29 25.1399L238.23 24.8599C238.361 26.3159 238.464 27.8279 238.538 29.3959C238.632 30.9639 238.697 32.5692 238.734 34.2119C239.313 34.1745 239.901 34.1185 240.498 34.0439C241.096 33.9505 241.693 33.8199 242.29 33.6519L242.43 37.0119ZM229.998 29.7039C228.878 29.8532 227.777 29.8999 226.694 29.8439C225.63 29.7692 224.538 29.5545 223.418 29.1999L223.922 26.5399C225.005 26.8759 226.05 27.1372 227.058 27.3239C228.085 27.4919 229.093 27.5105 230.082 27.3799L229.998 29.7039ZM220.254 31.3559C221.356 31.5052 222.466 31.6172 223.586 31.6919C224.706 31.7479 225.808 31.7665 226.89 31.7479C227.992 31.7105 229.056 31.6359 230.082 31.5239C231.109 31.4119 232.08 31.2625 232.994 31.0759V33.7639C232.602 33.8385 232.201 33.9039 231.79 33.9599C231.38 34.0159 230.96 34.0719 230.53 34.1279C230.904 34.6132 231.174 35.1545 231.342 35.7519C231.529 36.3305 231.622 36.9279 231.622 37.5439C231.622 38.2159 231.51 38.8785 231.286 39.5319C231.062 40.1665 230.736 40.7359 230.306 41.2399C229.877 41.7252 229.345 42.1172 228.71 42.4159C228.076 42.7145 227.348 42.8639 226.526 42.8639C225.686 42.8639 224.949 42.7145 224.314 42.4159C223.68 42.1172 223.148 41.7252 222.718 41.2399C222.289 40.7359 221.962 40.1665 221.738 39.5319C221.533 38.8785 221.43 38.2159 221.43 37.5439C221.43 36.9652 221.505 36.3959 221.654 35.8359C221.822 35.2759 222.084 34.7625 222.438 34.2959C221.673 34.2399 220.992 34.1559 220.394 34.0439L220.254 31.3559ZM226.526 40.3439C226.918 40.3439 227.264 40.2692 227.562 40.1199C227.861 39.9519 228.104 39.7465 228.29 39.5039C228.477 39.2425 228.617 38.9439 228.71 38.6079C228.804 38.2719 228.85 37.9172 228.85 37.5439C228.85 37.2265 228.822 36.8905 228.766 36.5359C228.71 36.1625 228.598 35.8265 228.43 35.5279C228.281 35.2292 228.057 34.9865 227.758 34.7999C227.46 34.5945 227.068 34.4919 226.582 34.4919C226.153 34.4919 225.789 34.5945 225.49 34.7999C225.192 34.9865 224.949 35.2292 224.762 35.5279C224.576 35.8265 224.436 36.1625 224.342 36.5359C224.249 36.8905 224.202 37.2265 224.202 37.5439C224.202 37.9172 224.24 38.2719 224.314 38.6079C224.408 38.9439 224.548 39.2425 224.734 39.5039C224.921 39.7465 225.154 39.9519 225.434 40.1199C225.733 40.2692 226.097 40.3439 226.526 40.3439Z" fill="white"/>
<path d="M262.866 24.8599C263.034 26.6332 263.155 28.5092 263.23 30.4879C263.323 32.4665 263.37 34.4639 263.37 36.4799C263.389 38.4959 263.361 40.4932 263.286 42.4719C263.23 44.4319 263.137 46.3079 263.006 48.0999L260.122 47.9599C260.271 46.2052 260.383 44.3665 260.458 42.4439C260.533 40.5212 260.561 38.5705 260.542 36.5919C259.982 36.6665 259.413 36.7132 258.834 36.7319C258.255 36.7505 257.723 36.7412 257.238 36.7039L257.098 33.4839C257.621 33.5585 258.181 33.6052 258.778 33.6239C259.375 33.6239 259.945 33.6052 260.486 33.5679C260.449 32.0932 260.383 30.6559 260.29 29.2559C260.215 27.8372 260.113 26.4652 259.982 25.1399L262.866 24.8599ZM250.07 40.4559C250.481 40.4559 250.938 40.4185 251.442 40.3439C251.946 40.2505 252.459 40.1292 252.982 39.9799C253.523 39.8305 254.046 39.6532 254.55 39.4479C255.073 39.2425 255.558 39.0092 256.006 38.7479L256.986 41.4639C255.791 42.0052 254.578 42.4065 253.346 42.6679C252.114 42.9292 251.022 43.0505 250.07 43.0319C249.249 43.0132 248.511 42.9292 247.858 42.7799C247.205 42.6305 246.654 42.3972 246.206 42.0799C245.777 41.7439 245.459 41.3239 245.254 40.8199C245.067 40.3159 245.021 39.7092 245.114 38.9999C245.151 38.6452 245.217 38.3185 245.31 38.0199C245.403 37.7025 245.506 37.3945 245.618 37.0959L244.47 37.0399V34.4639C245.814 34.5385 247.102 34.5665 248.334 34.5479C249.566 34.5105 250.751 34.4359 251.89 34.3239C252.189 33.8199 252.403 33.3439 252.534 32.8959C252.683 32.4292 252.627 32.0745 252.366 31.8319C252.105 31.5892 251.685 31.4212 251.106 31.3279C250.677 31.2719 250.21 31.2532 249.706 31.2719C249.221 31.2719 248.717 31.3185 248.194 31.4119C247.69 31.4865 247.177 31.5985 246.654 31.7479C246.131 31.8972 245.637 32.0745 245.17 32.2799L244.638 29.3399C245.963 28.9665 247.261 28.7332 248.53 28.6399C249.818 28.5465 251.05 28.6025 252.226 28.8079C253.589 29.0505 254.522 29.5265 255.026 30.2359C255.53 30.9452 255.623 31.8319 255.306 32.8959C255.269 33.0639 255.213 33.2319 255.138 33.3999C255.063 33.5679 254.979 33.7359 254.886 33.9039L255.586 33.7639L255.502 36.3399C254.531 36.5452 253.421 36.7132 252.17 36.8439C250.938 36.9745 249.659 37.0585 248.334 37.0959C248.222 37.3759 248.138 37.6559 248.082 37.9359C248.045 38.2159 248.017 38.4679 247.998 38.6919C247.961 39.3265 248.119 39.7839 248.474 40.0639C248.829 40.3252 249.361 40.4559 250.07 40.4559Z" fill="white"/>
<path d="M297.309 36.7319C296.805 36.8252 296.227 36.8999 295.573 36.9559C294.939 36.9932 294.295 37.0025 293.641 36.9839C293.641 38.9252 293.613 40.8385 293.557 42.7239C293.501 44.5905 293.399 46.3825 293.249 48.0999L290.309 47.9599C290.459 46.2239 290.561 44.3945 290.617 42.4719C290.692 40.5305 290.72 38.5705 290.701 36.5919C290.701 34.6132 290.655 32.6532 290.561 30.7119C290.468 28.7519 290.337 26.8945 290.169 25.1399L293.109 24.8599C293.24 26.2599 293.343 27.7252 293.417 29.2559C293.492 30.7865 293.548 32.3452 293.585 33.9319C294.183 33.8945 294.78 33.8385 295.377 33.7639C295.975 33.6705 296.572 33.5399 297.169 33.3719L297.309 36.7319ZM283.001 29.4519C283.953 29.6199 284.719 29.9465 285.297 30.4319C285.895 30.8985 286.305 31.4679 286.529 32.1399C286.772 32.7932 286.837 33.5119 286.725 34.2959C286.613 35.0799 286.343 35.8639 285.913 36.6479C285.521 37.3572 285.017 38.0572 284.401 38.7479C283.785 39.4199 283.095 40.0639 282.329 40.6799C281.564 41.2959 280.743 41.8745 279.865 42.4159C278.988 42.9572 278.092 43.4425 277.177 43.8719L275.777 41.1559C276.673 40.8012 277.513 40.3999 278.297 39.9519C279.081 39.5039 279.8 39.0279 280.453 38.5239C281.107 38.0199 281.676 37.5065 282.161 36.9839C282.665 36.4425 283.067 35.9105 283.365 35.3879C283.851 34.5479 283.944 33.8292 283.645 33.2319C283.347 32.6159 282.759 32.2612 281.881 32.1679C281.508 32.1305 281.144 32.1305 280.789 32.1679C280.435 32.1865 280.061 32.2519 279.669 32.3639C279.296 32.4572 278.895 32.5879 278.465 32.7559C278.055 32.9239 277.588 33.1292 277.065 33.3719L276.113 30.3479C277.42 29.8252 278.624 29.4985 279.725 29.3679C280.827 29.2372 281.919 29.2652 283.001 29.4519Z" fill="white"/>
<path d="M317.772 24.8599C317.94 26.6332 318.062 28.5092 318.136 30.4879C318.23 32.4665 318.276 34.4639 318.276 36.4799C318.295 38.4959 318.267 40.4932 318.192 42.4719C318.136 44.4319 318.043 46.3079 317.912 48.0999L314.972 47.9599C315.122 46.2239 315.224 44.3945 315.28 42.4719C315.355 40.5305 315.383 38.5705 315.364 36.5919C315.364 34.6132 315.318 32.6532 315.224 30.7119C315.131 28.7519 315 26.8945 314.832 25.1399L317.772 24.8599ZM299.572 41.0999C301.383 40.3532 302.97 39.4572 304.332 38.4119C305.695 37.3479 306.75 36.2745 307.496 35.1919C307.758 34.8185 307.907 34.4545 307.944 34.0999C307.982 33.7452 307.926 33.4372 307.776 33.1759C307.627 32.8959 307.394 32.6625 307.076 32.4759C306.778 32.2892 306.414 32.1772 305.984 32.1399C305.163 32.0465 304.332 32.1119 303.492 32.3359C302.671 32.5599 301.756 32.8959 300.748 33.3439L299.936 30.3479C300.459 30.1239 301.019 29.9372 301.616 29.7879C302.232 29.6199 302.848 29.4985 303.464 29.4239C304.099 29.3305 304.724 29.2839 305.34 29.2839C305.956 29.2839 306.544 29.3399 307.104 29.4519C308.056 29.6385 308.831 29.9745 309.428 30.4599C310.026 30.9265 310.446 31.4865 310.688 32.1399C310.931 32.7745 310.987 33.4745 310.856 34.2399C310.726 34.9865 310.427 35.7425 309.96 36.5079C309.512 37.2172 308.971 37.9079 308.336 38.5799C307.702 39.2519 306.992 39.9052 306.208 40.5399C305.424 41.1559 304.584 41.7345 303.688 42.2759C302.811 42.8172 301.906 43.3119 300.972 43.7599L299.572 41.0999Z" fill="white"/>
</svg>
