<svg width="1180" height="800" viewBox="0 0 1180 800" fill="none" xmlns="http://www.w3.org/2000/svg">
<path d="M1145.8 664.622L1162.09 655.729L1159.81 621.169L1153.12 621.178L1157.08 574.424L1145.8 560.622L1159.71 543.217L1167.94 445.922L1157.71 427.156L1171.12 408.489L1180 303.492L1170.78 303.421L1170.7 261.559L1164.41 256.961L1170.68 248.992L1170.58 187.191L1162.27 167.688L1170.52 154.018L1170.4 77.516L1154.14 53.5657L1170.33 37.9131L1170.28 12.5488L13.8872 0L13.916 20.8287L30.3142 38.6335L14.0118 75.3994L14.1747 172.161L30.5729 193.265L14.261 221.698L14.3472 272.507L15.344 274.285L25.7618 280.715L14.3856 294.518V294.643L0 294.536L6.40211 368.557L23.9887 388.496L10.2645 413.256L18.9284 513.495L40.847 532.082L26.5668 601.834L28.3111 622.014L14.9414 622.841L10.7916 669.879L25.9726 665.547L6.37335 720.1L0.824223 783.022L1171.62 800L1166.03 715.298L1145.8 664.622Z" fill="#9C5E19"/>
<g style="mix-blend-mode:multiply" opacity="0.32">
<path d="M14.347 272.507L15.2575 274.134L25.7615 261.381L15.3437 254.951L14.347 253.172L14.2895 221.645L14.2607 221.698L14.347 272.507Z" fill="#C1671B"/>
<path d="M1162.06 45.908L1170.33 37.9127L1170.29 18.6138L1154.14 34.2308L1162.06 45.908Z" fill="#763E0F"/>
<path d="M14.1737 172.161L24.1985 185.057L30.5719 173.94L14.1737 152.827L14.0395 75.3286L14.0107 75.3998L14.1737 172.161Z" fill="#C1671B"/>
<path d="M26.6536 602.795L28.3117 602.688L27.7462 596.098L26.5674 601.834L26.6536 602.795Z" fill="#C1671B"/>
<path d="M1160.86 637.079L1145.8 645.297L1152.14 661.172L1162.09 655.729L1160.86 637.079Z" fill="#763E0F"/>
<path d="M18.9276 494.16L11.7109 410.65L10.2637 413.256L18.9276 513.495L37.4726 529.227L40.8462 512.757L18.9276 494.16Z" fill="#C1671B"/>
<path d="M12.5459 650.055L10.792 669.879L18.2292 667.753L25.973 646.213L12.5459 650.055Z" fill="#C1671B"/>
<path d="M2.53017 763.714L0.824219 783.022L1171.62 800L1170.34 780.657L2.53017 763.714Z" fill="#763E0F"/>
<path d="M17.4045 381.035L23.9887 369.171L6.40211 349.222L1.66761 294.545L0 294.536L6.40211 368.557L17.4045 381.035Z" fill="#C1671B"/>
<path d="M24.5249 32.3547L30.3137 19.3079L13.9155 1.50301V0H13.8867L13.9155 20.8287L24.5249 32.3547Z" fill="#C1671B"/>
<path d="M1154.75 601.843L1157.08 574.424L1155.59 572.61L1153.12 601.843H1154.75Z" fill="#C1671B"/>
<path d="M1171.12 389.163L1157.71 407.83L1163.7 418.814L1171.12 408.488L1180 303.491L1178.37 303.482L1171.12 389.163Z" fill="#763E0F"/>
<path d="M1145.8 541.287L1153.61 550.857L1159.71 543.217L1167.94 445.922L1166.53 443.325L1159.71 523.892L1145.8 541.287Z" fill="#763E0F"/>
<path d="M1167.1 159.692L1170.52 154.018L1170.49 134.737L1162.27 148.353L1167.1 159.692Z" fill="#763E0F"/>
<path d="M1164.41 237.635L1170.68 242.206L1170.66 229.702L1164.41 237.635Z" fill="#763E0F"/>
</g>
<path d="M968.74 734.081H1116.03L1107.59 683.45L1088.76 675.179L1105.38 670.216L1100.35 640.031L1110.06 640.227L1110.25 637.523L1084.73 626.353L1111.68 617.931L1114.08 584.972L1018.38 566.749L1116.32 554.12L1121.24 486.698L1071.81 468.226L1122.59 468.146L1127.44 401.542L894.31 386.788L1128.9 381.505L1131.01 352.628L1085.23 345.664L1131.93 339.946L1132.72 329.06L974.097 316.698L1124.1 316.476L1124.05 290.258L1079.29 290.32L1124.04 285.402L1124.03 277.7L1118.2 273.449L1124.01 266.076L1123.96 238.809L917.437 230.876L1123.94 230.573L1123.91 208.953L1116.23 190.917L1123.86 178.288L1123.83 161.746L1099.54 159.176L1123.83 159.14L1123.77 128.369L1039.06 123.086L1123.76 122.97L1123.74 107.567L1108.71 85.4219L1116.18 78.2004L859.674 73.6202L1123.66 65.2158L1123.64 47.5088L54.6283 35.9116L54.657 55.1661L69.8189 71.6191L66.5507 79.0008L370.517 86.0889L60.1007 93.5239L54.7433 105.61L54.7529 109.15L169.818 108.99L54.772 118.79L54.8679 176.972L230.341 176.714L75.4255 186.888L112.468 194.074L54.8966 194.154V195.061L70.0585 214.565L54.9733 240.854L54.9829 246.537L302.585 254.381L55.0116 263.221L55.0308 273.725L119.426 273.636L55.05 284.05V287.821L55.97 289.466L65.6115 295.407L55.0883 308.169L55.1075 318.041L58.6823 318.032L47.2773 319.268L47.4403 321.447L123.422 334.503L48.8491 340.168L52.5102 389.065L248.244 388.78L67.9979 404.753L117.71 412.01L54.6954 418.333L57.5322 456.131L68.1129 471.784L61.1358 504.281L62.075 516.829L109.113 516.758L62.8609 527.333L66.3111 573.374L375.241 572.93L67.2312 585.772L69.7614 619.514L172.176 621.551L84.3099 627.367L75.6843 665.271L92.9067 676.095L72.3107 680.052L62.1134 724.876H199.04L60.6087 731.448L55.9125 752.081L1121.03 764.087L1117.83 744.922L968.74 734.081Z" fill="#C8843E"/>
</svg>
