<svg width="485" height="74" viewBox="0 0 485 74" fill="none" xmlns="http://www.w3.org/2000/svg">
<rect x="3" y="3" width="479" height="68" rx="27" fill="#965E2E" stroke="#4D3114" stroke-width="6"/>
<rect x="11" y="11" width="463" height="52" rx="21" fill="#6E3D12"/>
<path d="M163.81 31.7479C163.885 31.6172 163.941 31.4959 163.978 31.3839C164.015 31.2532 164.053 31.1319 164.09 31.0199C164.202 30.5719 164.146 30.2452 163.922 30.0399C163.698 29.8159 163.278 29.6852 162.662 29.6479C162.121 29.6292 161.533 29.6385 160.898 29.6759C160.282 29.7132 159.638 29.7879 158.966 29.8999C158.294 29.9932 157.613 30.1145 156.922 30.2639C156.231 30.4132 155.569 30.5812 154.934 30.7679L154.374 27.9399C155.905 27.5292 157.454 27.2585 159.022 27.1279C160.59 26.9972 161.99 26.9879 163.222 27.0999C164.622 27.2305 165.63 27.6225 166.246 28.2759C166.862 28.9292 167.039 29.7599 166.778 30.7679C166.741 30.8612 166.703 30.9639 166.666 31.0759C166.647 31.1692 166.619 31.2625 166.582 31.3559C166.731 31.3372 166.881 31.3185 167.03 31.2999C167.179 31.2812 167.329 31.2532 167.478 31.2159L167.338 33.6519C164.258 34.2119 161.113 34.4919 157.902 34.4919C157.715 34.8279 157.594 35.1639 157.538 35.4999C157.463 35.8919 157.529 36.1999 157.734 36.4239C157.958 36.6292 158.378 36.7505 158.994 36.7879C159.461 36.8065 160.021 36.7972 160.674 36.7599C161.327 36.7225 162.027 36.6479 162.774 36.5359C163.539 36.4239 164.323 36.2745 165.126 36.0879C165.947 35.9012 166.75 35.6772 167.534 35.4159L167.954 38.2719C166.143 38.6825 164.407 38.9719 162.746 39.1399C161.103 39.2892 159.638 39.3172 158.35 39.2239C157.099 39.1305 156.11 38.8132 155.382 38.2719C154.673 37.7305 154.421 36.9465 154.626 35.9199C154.738 35.3972 154.953 34.9119 155.27 34.4639L154.318 34.4079L154.178 31.9719C155.839 32.0652 157.463 32.0932 159.05 32.0559C160.655 32.0185 162.242 31.9159 163.81 31.7479ZM162.578 42.9479C164.221 42.9105 165.826 42.8265 167.394 42.6959C168.962 42.5465 170.455 42.3692 171.874 42.1639L171.734 44.9919C170.185 45.1785 168.505 45.3279 166.694 45.4399C164.883 45.5519 163.054 45.6265 161.206 45.6639C159.358 45.6825 157.529 45.6639 155.718 45.6079C153.926 45.5332 152.265 45.4212 150.734 45.2719L150.594 42.4439C152.013 42.6305 153.487 42.7705 155.018 42.8639C156.567 42.9385 158.135 42.9759 159.722 42.9759C159.759 42.1359 159.703 41.2212 159.554 40.2319H162.55C162.587 40.6799 162.606 41.1372 162.606 41.6039C162.625 42.0705 162.615 42.5185 162.578 42.9479Z" fill="white"/>
<path d="M187.522 37.8799C187.727 37.5439 187.914 37.1705 188.082 36.7599C188.268 36.3492 188.427 35.9292 188.558 35.4999C188.688 35.0519 188.791 34.6039 188.866 34.1559C188.959 33.7079 189.015 33.2785 189.034 32.8679C189.052 32.1212 188.856 31.5519 188.446 31.1599C188.054 30.7679 187.335 30.5532 186.29 30.5159C185.711 30.4972 185.104 30.5345 184.47 30.6279C183.835 30.7212 183.2 30.8519 182.566 31.0199C181.931 31.1879 181.306 31.4025 180.69 31.6639C180.092 31.9065 179.542 32.1772 179.038 32.4759L178.03 29.5919C179.336 28.9385 180.755 28.4439 182.286 28.1079C183.816 27.7532 185.338 27.6225 186.85 27.7159C188.642 27.8092 189.967 28.2945 190.826 29.1719C191.684 30.0492 192.086 31.2159 192.03 32.6719C191.992 33.7732 191.815 34.8745 191.498 35.9759C191.199 37.0772 190.844 38.0385 190.434 38.8599L187.522 37.8799ZM174.95 41.8559C176.592 42.0612 178.328 42.2105 180.158 42.3039C181.987 42.3972 183.826 42.4345 185.674 42.4159C187.522 42.3785 189.342 42.2945 191.134 42.1639C192.944 42.0145 194.643 41.8185 196.23 41.5759L196.09 44.4599C194.54 44.6652 192.86 44.8239 191.05 44.9359C189.239 45.0479 187.41 45.1132 185.562 45.1319C183.714 45.1505 181.884 45.1319 180.074 45.0759C178.282 45.0012 176.62 44.8892 175.09 44.7399L174.95 41.8559Z" fill="white"/>
<path d="M214.677 41.7439C214.92 40.5305 215.116 39.2052 215.265 37.7679C215.415 36.3119 215.508 34.8465 215.545 33.3719C215.601 31.8972 215.592 30.4505 215.517 29.0319C215.443 27.6132 215.312 26.3159 215.125 25.1399L218.065 24.8599C218.177 26.1292 218.252 27.5012 218.289 28.9759C218.327 30.4505 218.317 31.9532 218.261 33.4839C218.224 34.9959 218.14 36.4892 218.009 37.9639C217.879 39.4385 217.701 40.8105 217.477 42.0799L214.677 41.7439ZM211.205 32.6999C211.187 33.3719 211.047 34.0252 210.785 34.6599C210.543 35.2945 210.188 35.8639 209.721 36.3679C209.255 36.8719 208.695 37.2825 208.041 37.5999C207.407 37.8985 206.688 38.0572 205.885 38.0759C205.008 38.0945 204.224 37.9732 203.533 37.7119C202.843 37.4505 202.255 37.0865 201.769 36.6199C201.284 36.1532 200.901 35.6119 200.621 34.9959C200.341 34.3612 200.192 33.6892 200.173 32.9799C200.136 32.2332 200.248 31.5052 200.509 30.7959C200.771 30.0865 201.163 29.4519 201.685 28.8919C202.208 28.3132 202.861 27.8465 203.645 27.4919C204.448 27.1372 205.381 26.9505 206.445 26.9319V27.7439C207.192 27.7812 207.864 27.9399 208.461 28.2199C209.059 28.4999 209.563 28.8639 209.973 29.3119C210.384 29.7599 210.692 30.2732 210.897 30.8519C211.121 31.4305 211.224 32.0465 211.205 32.6999ZM208.433 32.6999C208.433 32.3639 208.377 32.0372 208.265 31.7199C208.153 31.4025 207.976 31.1225 207.733 30.8799C207.509 30.6372 207.201 30.4505 206.809 30.3199C206.436 30.1892 205.988 30.1519 205.465 30.2079L205.437 29.5639C204.672 29.7692 204.065 30.1705 203.617 30.7679C203.169 31.3652 202.945 32.0279 202.945 32.7559C202.945 33.1292 203.001 33.4932 203.113 33.8479C203.225 34.1839 203.393 34.4825 203.617 34.7439C203.841 34.9865 204.121 35.1825 204.457 35.3319C204.812 35.4812 205.213 35.5559 205.661 35.5559C206.128 35.5559 206.539 35.4719 206.893 35.3039C207.248 35.1359 207.537 34.9212 207.761 34.6599C207.985 34.3985 208.153 34.0999 208.265 33.7639C208.377 33.4092 208.433 33.0545 208.433 32.6999ZM218.457 48.1839C217.263 48.5572 216.031 48.8372 214.761 49.0239C213.511 49.2105 212.288 49.2852 211.093 49.2479C210.216 49.2292 209.469 49.1265 208.853 48.9399C208.256 48.7532 207.761 48.5105 207.369 48.2119C206.996 47.9319 206.707 47.5865 206.501 47.1759C206.296 46.7839 206.147 46.3639 206.053 45.9159C205.773 44.5345 205.848 42.7705 206.277 40.6239L209.133 40.9039C208.965 41.7625 208.844 42.5745 208.769 43.3399C208.695 44.1052 208.723 44.7585 208.853 45.2999C209.003 45.8785 209.283 46.2425 209.693 46.3919C210.104 46.5599 210.729 46.6625 211.569 46.6999C212.633 46.7372 213.669 46.6532 214.677 46.4479C215.704 46.2612 216.805 45.9812 217.981 45.6079L218.457 48.1839Z" fill="white"/>
<path d="M254.189 37.0119C253.685 37.1052 253.106 37.1799 252.453 37.2359C251.818 37.2732 251.174 37.2825 250.521 37.2639C250.521 39.1679 250.483 41.0345 250.409 42.8639C250.353 44.6745 250.259 46.4199 250.129 48.0999L247.189 47.9599C247.338 46.2239 247.441 44.3945 247.497 42.4719C247.571 40.5305 247.599 38.5705 247.581 36.5919C247.581 34.6132 247.534 32.6532 247.441 30.7119C247.347 28.7519 247.217 26.8945 247.049 25.1399L249.989 24.8599C250.119 26.3159 250.222 27.8279 250.297 29.3959C250.39 30.9639 250.455 32.5692 250.493 34.2119C251.071 34.1745 251.659 34.1185 252.257 34.0439C252.854 33.9505 253.451 33.8199 254.049 33.6519L254.189 37.0119ZM241.757 29.7039C240.637 29.8532 239.535 29.8999 238.453 29.8439C237.389 29.7692 236.297 29.5545 235.177 29.1999L235.681 26.5399C236.763 26.8759 237.809 27.1372 238.817 27.3239C239.843 27.4919 240.851 27.5105 241.841 27.3799L241.757 29.7039ZM232.013 31.3559C233.114 31.5052 234.225 31.6172 235.345 31.6919C236.465 31.7479 237.566 31.7665 238.649 31.7479C239.75 31.7105 240.814 31.6359 241.841 31.5239C242.867 31.4119 243.838 31.2625 244.753 31.0759V33.7639C244.361 33.8385 243.959 33.9039 243.549 33.9599C243.138 34.0159 242.718 34.0719 242.289 34.1279C242.662 34.6132 242.933 35.1545 243.101 35.7519C243.287 36.3305 243.381 36.9279 243.381 37.5439C243.381 38.2159 243.269 38.8785 243.045 39.5319C242.821 40.1665 242.494 40.7359 242.065 41.2399C241.635 41.7252 241.103 42.1172 240.469 42.4159C239.834 42.7145 239.106 42.8639 238.285 42.8639C237.445 42.8639 236.707 42.7145 236.073 42.4159C235.438 42.1172 234.906 41.7252 234.477 41.2399C234.047 40.7359 233.721 40.1665 233.497 39.5319C233.291 38.8785 233.189 38.2159 233.189 37.5439C233.189 36.9652 233.263 36.3959 233.413 35.8359C233.581 35.2759 233.842 34.7625 234.197 34.2959C233.431 34.2399 232.75 34.1559 232.153 34.0439L232.013 31.3559ZM238.285 40.3439C238.677 40.3439 239.022 40.2692 239.321 40.1199C239.619 39.9519 239.862 39.7465 240.049 39.5039C240.235 39.2425 240.375 38.9439 240.469 38.6079C240.562 38.2719 240.609 37.9172 240.609 37.5439C240.609 37.2265 240.581 36.8905 240.525 36.5359C240.469 36.1625 240.357 35.8265 240.189 35.5279C240.039 35.2292 239.815 34.9865 239.517 34.7999C239.218 34.5945 238.826 34.4919 238.341 34.4919C237.911 34.4919 237.547 34.5945 237.249 34.7999C236.95 34.9865 236.707 35.2292 236.521 35.5279C236.334 35.8265 236.194 36.1625 236.101 36.5359C236.007 36.8905 235.961 37.2265 235.961 37.5439C235.961 37.9172 235.998 38.2719 236.073 38.6079C236.166 38.9439 236.306 39.2425 236.493 39.5039C236.679 39.7465 236.913 39.9519 237.193 40.1199C237.491 40.2692 237.855 40.3439 238.285 40.3439Z" fill="white"/>
<path d="M275.464 24.8599C275.632 26.6332 275.753 28.5092 275.828 30.4879C275.921 32.4665 275.968 34.4639 275.968 36.4799C275.987 38.4959 275.959 40.4932 275.884 42.4719C275.828 44.4319 275.735 46.3079 275.604 48.0999L272.72 47.9599C272.869 46.2052 272.981 44.3665 273.056 42.4439C273.131 40.5212 273.159 38.5705 273.14 36.5919C272.58 36.6665 272.011 36.7132 271.432 36.7319C270.853 36.7505 270.321 36.7412 269.836 36.7039L269.696 33.4839C270.219 33.5585 270.779 33.6052 271.376 33.6239C271.973 33.6239 272.543 33.6052 273.084 33.5679C273.047 32.0932 272.981 30.6559 272.888 29.2559C272.813 27.8372 272.711 26.4652 272.58 25.1399L275.464 24.8599ZM262.668 40.4559C263.079 40.4559 263.536 40.4185 264.04 40.3439C264.544 40.2505 265.057 40.1292 265.58 39.9799C266.121 39.8305 266.644 39.6532 267.148 39.4479C267.671 39.2425 268.156 39.0092 268.604 38.7479L269.584 41.4639C268.389 42.0052 267.176 42.4065 265.944 42.6679C264.712 42.9292 263.62 43.0505 262.668 43.0319C261.847 43.0132 261.109 42.9292 260.456 42.7799C259.803 42.6305 259.252 42.3972 258.804 42.0799C258.375 41.7439 258.057 41.3239 257.852 40.8199C257.665 40.3159 257.619 39.7092 257.712 38.9999C257.749 38.6452 257.815 38.3185 257.908 38.0199C258.001 37.7025 258.104 37.3945 258.216 37.0959L257.068 37.0399V34.4639C258.412 34.5385 259.7 34.5665 260.932 34.5479C262.164 34.5105 263.349 34.4359 264.488 34.3239C264.787 33.8199 265.001 33.3439 265.132 32.8959C265.281 32.4292 265.225 32.0745 264.964 31.8319C264.703 31.5892 264.283 31.4212 263.704 31.3279C263.275 31.2719 262.808 31.2532 262.304 31.2719C261.819 31.2719 261.315 31.3185 260.792 31.4119C260.288 31.4865 259.775 31.5985 259.252 31.7479C258.729 31.8972 258.235 32.0745 257.768 32.2799L257.236 29.3399C258.561 28.9665 259.859 28.7332 261.128 28.6399C262.416 28.5465 263.648 28.6025 264.824 28.8079C266.187 29.0505 267.12 29.5265 267.624 30.2359C268.128 30.9452 268.221 31.8319 267.904 32.8959C267.867 33.0639 267.811 33.2319 267.736 33.3999C267.661 33.5679 267.577 33.7359 267.484 33.9039L268.184 33.7639L268.1 36.3399C267.129 36.5452 266.019 36.7132 264.768 36.8439C263.536 36.9745 262.257 37.0585 260.932 37.0959C260.82 37.3759 260.736 37.6559 260.68 37.9359C260.643 38.2159 260.615 38.4679 260.596 38.6919C260.559 39.3265 260.717 39.7839 261.072 40.0639C261.427 40.3252 261.959 40.4559 262.668 40.4559Z" fill="white"/>
<path d="M311.587 36.7319C311.083 36.8252 310.505 36.8999 309.851 36.9559C309.217 36.9932 308.573 37.0025 307.919 36.9839C307.919 38.9252 307.891 40.8385 307.835 42.7239C307.779 44.5905 307.677 46.3825 307.527 48.0999L304.587 47.9599C304.737 46.2239 304.839 44.3945 304.895 42.4719C304.97 40.5305 304.998 38.5705 304.979 36.5919C304.979 34.6132 304.933 32.6532 304.839 30.7119C304.746 28.7519 304.615 26.8945 304.447 25.1399L307.387 24.8599C307.518 26.2599 307.621 27.7252 307.695 29.2559C307.77 30.7865 307.826 32.3452 307.863 33.9319C308.461 33.8945 309.058 33.8385 309.655 33.7639C310.253 33.6705 310.85 33.5399 311.447 33.3719L311.587 36.7319ZM297.279 29.4519C298.231 29.6199 298.997 29.9465 299.575 30.4319C300.173 30.8985 300.583 31.4679 300.807 32.1399C301.05 32.7932 301.115 33.5119 301.003 34.2959C300.891 35.0799 300.621 35.8639 300.191 36.6479C299.799 37.3572 299.295 38.0572 298.679 38.7479C298.063 39.4199 297.373 40.0639 296.607 40.6799C295.842 41.2959 295.021 41.8745 294.143 42.4159C293.266 42.9572 292.37 43.4425 291.455 43.8719L290.055 41.1559C290.951 40.8012 291.791 40.3999 292.575 39.9519C293.359 39.5039 294.078 39.0279 294.731 38.5239C295.385 38.0199 295.954 37.5065 296.439 36.9839C296.943 36.4425 297.345 35.9105 297.643 35.3879C298.129 34.5479 298.222 33.8292 297.923 33.2319C297.625 32.6159 297.037 32.2612 296.159 32.1679C295.786 32.1305 295.422 32.1305 295.067 32.1679C294.713 32.1865 294.339 32.2519 293.947 32.3639C293.574 32.4572 293.173 32.5879 292.743 32.7559C292.333 32.9239 291.866 33.1292 291.343 33.3719L290.391 30.3479C291.698 29.8252 292.902 29.4985 294.003 29.3679C295.105 29.2372 296.197 29.2652 297.279 29.4519Z" fill="white"/>
<path d="M332.89 24.8599C333.058 26.6332 333.18 28.5092 333.254 30.4879C333.348 32.4665 333.394 34.4639 333.394 36.4799C333.413 38.4959 333.385 40.4932 333.31 42.4719C333.254 44.4319 333.161 46.3079 333.03 48.0999L330.09 47.9599C330.24 46.2239 330.342 44.3945 330.398 42.4719C330.473 40.5305 330.501 38.5705 330.482 36.5919C330.482 34.6132 330.436 32.6532 330.342 30.7119C330.249 28.7519 330.118 26.8945 329.95 25.1399L332.89 24.8599ZM314.69 41.0999C316.501 40.3532 318.088 39.4572 319.45 38.4119C320.813 37.3479 321.868 36.2745 322.614 35.1919C322.876 34.8185 323.025 34.4545 323.062 34.0999C323.1 33.7452 323.044 33.4372 322.894 33.1759C322.745 32.8959 322.512 32.6625 322.194 32.4759C321.896 32.2892 321.532 32.1772 321.102 32.1399C320.281 32.0465 319.45 32.1119 318.61 32.3359C317.789 32.5599 316.874 32.8959 315.866 33.3439L315.054 30.3479C315.577 30.1239 316.137 29.9372 316.734 29.7879C317.35 29.6199 317.966 29.4985 318.582 29.4239C319.217 29.3305 319.842 29.2839 320.458 29.2839C321.074 29.2839 321.662 29.3399 322.222 29.4519C323.174 29.6385 323.949 29.9745 324.546 30.4599C325.144 30.9265 325.564 31.4865 325.806 32.1399C326.049 32.7745 326.105 33.4745 325.974 34.2399C325.844 34.9865 325.545 35.7425 325.078 36.5079C324.63 37.2172 324.089 37.9079 323.454 38.5799C322.82 39.2519 322.11 39.9052 321.326 40.5399C320.542 41.1559 319.702 41.7345 318.806 42.2759C317.929 42.8172 317.024 43.3119 316.09 43.7599L314.69 41.0999Z" fill="white"/>
</svg>
