<svg width="284" height="88" viewBox="0 0 284 88" fill="none" xmlns="http://www.w3.org/2000/svg">
<path d="M267.84 14.5611L181.974 11.3267L32.4735 12.4358L19.5119 12.4954L10.415 12.5326L2.98424 17.2111L0 24.2792V47.0691V47.9326L10.41 52.7451L0 53.8468L4.45646 65.7088L2.96932 76.3463L7.42578 84.6576L20.3177 85.495L58.9785 87.9999L187.166 85.8858L221.644 86.4032L267.92 86.9391L275.062 87.021L282.503 82.3499L283.985 70.5326L278.042 69.3043L283.985 66.9892L284 17.3116L278.046 14.8961L267.84 14.5611Z" fill="#643B11"/>
<path d="M284 5.99593L283.985 54.739V55.7644L278.042 58.0837L283.985 59.3142L282.503 71.1532L282.463 71.1756L279.384 73.1108L275.062 75.8329L267.92 75.7508L221.644 75.2139L187.166 74.6956L58.9785 76.8136L20.3177 74.3041L7.42578 73.4651L2.96932 65.1386L4.45646 54.4817L0 42.598L10.41 41.4942L0 36.6729V35.8078V12.9763L2.98424 5.89525L10.415 1.20814L19.5119 1.17085L32.4735 1.11119L181.974 0L267.84 3.24034L278.046 3.57593L284 5.99593Z" fill="#A56F2E"/>
<path d="M283.985 55.7645L278.042 58.0838L283.985 59.3143L282.503 71.1533L275.062 75.8329L267.92 75.7509L187.166 74.6956L58.9785 76.8136L20.3177 74.3041L7.42578 73.4651L2.96932 65.1387L4.45646 54.4817L0 42.598L10.41 41.4943L0 36.6729V12.9763L2.98424 5.8953L10.415 1.20819L19.5119 1.1709L11.9817 6.63361L8.19173 11.6712L21.3373 13.655L8.47524 14.4082L9.33072 22.6153L7.11741 26.1838L12.0464 32.0865L13.5435 38.1943L44.4751 43.8099L9.04224 44.6489L9.75349 51.4875L13.6827 56.0739L11.5838 62.1892L57.7699 65.1909L185.958 63.0692L269.71 64.1617L271.72 62.659L229.632 56.1821L266.721 56.0739L267.796 49.817L272.158 41.9939L262.439 31.5533L268.373 22.2611L268.517 15.3702L237.292 13.7594L269.019 11.9024L270.452 9.0648L267.84 3.24039L278.046 3.57598L284 5.99598L283.985 55.7645Z" fill="#6E3D12"/>
<path d="M123.892 33.93H106.762V36.72H124.222V41.07H115.342V44.76H125.242V49.05H100.162V44.76H110.092V41.07H101.512V29.64H118.642V26.91H101.512V22.59H123.892V33.93ZM147.441 33.3V27.03H130.131V22.59H152.691V32.55C152.691 35.79 152.451 39.45 151.911 42H146.661C147.201 39.51 147.441 36.12 147.441 33.3ZM154.041 49.05H128.961V44.7H154.041V49.05ZM168.379 30.36C168.379 28.71 168.049 27.54 167.449 26.85C166.999 26.4 166.429 26.13 165.709 26.13C164.989 26.13 164.389 26.4 163.969 26.85C163.369 27.54 163.009 28.71 163.009 30.36C163.009 32.04 163.369 33.24 163.969 33.87C164.389 34.38 164.989 34.56 165.709 34.56C166.429 34.56 166.999 34.38 167.449 33.87C168.049 33.24 168.379 32.04 168.379 30.36ZM157.999 30.36C157.999 27.3 158.959 25.08 160.549 23.64C161.869 22.5 163.579 21.96 165.709 21.96C167.809 21.96 169.519 22.5 170.839 23.64C172.459 25.08 173.389 27.3 173.389 30.36C173.389 33.42 172.459 35.7 170.839 37.08C169.519 38.19 167.809 38.79 165.709 38.79C163.579 38.79 161.869 38.19 160.549 37.08C158.959 35.7 157.999 33.42 157.999 30.36ZM181.459 22.11V41.82H176.209V22.11H181.459ZM181.819 46.11V50.37H160.009V40.26H165.259V46.11H181.819Z" fill="#FCE7B3"/>
<path d="M123.892 33.93V34.93C124.444 34.93 124.892 34.4823 124.892 33.93H123.892ZM106.762 33.93V32.93C106.209 32.93 105.762 33.3777 105.762 33.93H106.762ZM106.762 36.72H105.762C105.762 37.2723 106.209 37.72 106.762 37.72V36.72ZM124.222 36.72H125.222C125.222 36.1677 124.774 35.72 124.222 35.72V36.72ZM124.222 41.07V42.07C124.774 42.07 125.222 41.6223 125.222 41.07H124.222ZM115.342 41.07V40.07C114.789 40.07 114.342 40.5177 114.342 41.07H115.342ZM115.342 44.76H114.342C114.342 45.3123 114.789 45.76 115.342 45.76V44.76ZM125.242 44.76H126.242C126.242 44.2077 125.794 43.76 125.242 43.76V44.76ZM125.242 49.05V50.05C125.794 50.05 126.242 49.6023 126.242 49.05H125.242ZM100.162 49.05H99.1618C99.1618 49.6023 99.6095 50.05 100.162 50.05V49.05ZM100.162 44.76V43.76C99.6095 43.76 99.1618 44.2077 99.1618 44.76H100.162ZM110.092 44.76V45.76C110.644 45.76 111.092 45.3123 111.092 44.76H110.092ZM110.092 41.07H111.092C111.092 40.5177 110.644 40.07 110.092 40.07V41.07ZM101.512 41.07H100.512C100.512 41.6223 100.959 42.07 101.512 42.07V41.07ZM101.512 29.64V28.64C100.959 28.64 100.512 29.0877 100.512 29.64H101.512ZM118.642 29.64V30.64C119.194 30.64 119.642 30.1923 119.642 29.64H118.642ZM118.642 26.91H119.642C119.642 26.3577 119.194 25.91 118.642 25.91V26.91ZM101.512 26.91H100.512C100.512 27.4623 100.959 27.91 101.512 27.91V26.91ZM101.512 22.59V21.59C100.959 21.59 100.512 22.0377 100.512 22.59H101.512ZM123.892 22.59H124.892C124.892 22.0377 124.444 21.59 123.892 21.59V22.59ZM123.892 32.93H106.762V34.93H123.892V32.93ZM105.762 33.93V36.72H107.762V33.93H105.762ZM106.762 37.72H124.222V35.72H106.762V37.72ZM123.222 36.72V41.07H125.222V36.72H123.222ZM124.222 40.07H115.342V42.07H124.222V40.07ZM114.342 41.07V44.76H116.342V41.07H114.342ZM115.342 45.76H125.242V43.76H115.342V45.76ZM124.242 44.76V49.05H126.242V44.76H124.242ZM125.242 48.05H100.162V50.05H125.242V48.05ZM101.162 49.05V44.76H99.1618V49.05H101.162ZM100.162 45.76H110.092V43.76H100.162V45.76ZM111.092 44.76V41.07H109.092V44.76H111.092ZM110.092 40.07H101.512V42.07H110.092V40.07ZM102.512 41.07V29.64H100.512V41.07H102.512ZM101.512 30.64H118.642V28.64H101.512V30.64ZM119.642 29.64V26.91H117.642V29.64H119.642ZM118.642 25.91H101.512V27.91H118.642V25.91ZM102.512 26.91V22.59H100.512V26.91H102.512ZM101.512 23.59H123.892V21.59H101.512V23.59ZM122.892 22.59V33.93H124.892V22.59H122.892ZM147.441 27.03H148.441C148.441 26.4777 147.993 26.03 147.441 26.03V27.03ZM130.131 27.03H129.131C129.131 27.5823 129.578 28.03 130.131 28.03V27.03ZM130.131 22.59V21.59C129.578 21.59 129.131 22.0377 129.131 22.59H130.131ZM152.691 22.59H153.691C153.691 22.0377 153.243 21.59 152.691 21.59V22.59ZM151.911 42V43C152.383 43 152.791 42.6694 152.889 42.2072L151.911 42ZM146.661 42L145.683 41.7881C145.619 42.0836 145.692 42.3923 145.882 42.6277C146.072 42.8631 146.358 43 146.661 43V42ZM154.041 49.05V50.05C154.593 50.05 155.041 49.6023 155.041 49.05H154.041ZM128.961 49.05H127.961C127.961 49.6023 128.408 50.05 128.961 50.05V49.05ZM128.961 44.7V43.7C128.408 43.7 127.961 44.1477 127.961 44.7H128.961ZM154.041 44.7H155.041C155.041 44.1477 154.593 43.7 154.041 43.7V44.7ZM148.441 33.3V27.03H146.441V33.3H148.441ZM147.441 26.03H130.131V28.03H147.441V26.03ZM131.131 27.03V22.59H129.131V27.03H131.131ZM130.131 23.59H152.691V21.59H130.131V23.59ZM151.691 22.59V32.55H153.691V22.59H151.691ZM151.691 32.55C151.691 35.7607 151.451 39.3415 150.932 41.7928L152.889 42.2072C153.45 39.5585 153.691 35.8193 153.691 32.55H151.691ZM151.911 41H146.661V43H151.911V41ZM147.638 42.2119C148.199 39.6258 148.441 36.1577 148.441 33.3H146.441C146.441 36.0823 146.202 39.3942 145.683 41.7881L147.638 42.2119ZM154.041 48.05H128.961V50.05H154.041V48.05ZM129.961 49.05V44.7H127.961V49.05H129.961ZM128.961 45.7H154.041V43.7H128.961V45.7ZM153.041 44.7V49.05H155.041V44.7H153.041ZM167.449 26.85L168.204 26.1938C168.189 26.1763 168.173 26.1593 168.157 26.1429L167.449 26.85ZM163.969 26.85L163.238 26.1677C163.23 26.1763 163.223 26.185 163.215 26.1938L163.969 26.85ZM163.969 33.87L164.741 33.2343C164.726 33.2157 164.71 33.1977 164.694 33.1803L163.969 33.87ZM167.449 33.87L166.725 33.1803C166.717 33.1895 166.708 33.1989 166.7 33.2084L167.449 33.87ZM160.549 23.64L159.896 22.8832C159.89 22.8883 159.884 22.8935 159.878 22.8988L160.549 23.64ZM170.839 23.64L171.504 22.8926C171.5 22.8894 171.497 22.8863 171.493 22.8832L170.839 23.64ZM170.839 37.08L171.483 37.8454L171.488 37.8412L170.839 37.08ZM160.549 37.08L159.894 37.8352C159.898 37.8386 159.902 37.842 159.906 37.8454L160.549 37.08ZM181.459 22.11H182.459C182.459 21.5577 182.012 21.11 181.459 21.11V22.11ZM181.459 41.82V42.82C182.012 42.82 182.459 42.3723 182.459 41.82H181.459ZM176.209 41.82H175.209C175.209 42.3723 175.657 42.82 176.209 42.82V41.82ZM176.209 22.11V21.11C175.657 21.11 175.209 21.5577 175.209 22.11H176.209ZM181.819 46.11H182.819C182.819 45.5577 182.372 45.11 181.819 45.11V46.11ZM181.819 50.37V51.37C182.372 51.37 182.819 50.9223 182.819 50.37H181.819ZM160.009 50.37H159.009C159.009 50.9223 159.457 51.37 160.009 51.37V50.37ZM160.009 40.26V39.26C159.457 39.26 159.009 39.7077 159.009 40.26H160.009ZM165.259 40.26H166.259C166.259 39.7077 165.812 39.26 165.259 39.26V40.26ZM165.259 46.11H164.259C164.259 46.6623 164.707 47.11 165.259 47.11V46.11ZM169.379 30.36C169.379 28.6208 169.04 27.1546 168.204 26.1938L166.695 27.5062C167.059 27.9254 167.379 28.7992 167.379 30.36H169.379ZM168.157 26.1429C167.532 25.518 166.712 25.13 165.709 25.13V27.13C166.147 27.13 166.467 27.282 166.742 27.5571L168.157 26.1429ZM165.709 25.13C164.726 25.13 163.857 25.5049 163.238 26.1677L164.7 27.5323C164.922 27.2951 165.252 27.13 165.709 27.13V25.13ZM163.215 26.1938C162.388 27.1449 162.009 28.5999 162.009 30.36H164.009C164.009 28.8201 164.351 27.9351 164.724 27.5062L163.215 26.1938ZM162.009 30.36C162.009 32.1224 162.376 33.6473 163.245 34.5597L164.694 33.1803C164.362 32.8327 164.009 31.9576 164.009 30.36H162.009ZM163.197 34.5057C163.88 35.3343 164.827 35.56 165.709 35.56V33.56C165.152 33.56 164.899 33.4257 164.741 33.2343L163.197 34.5057ZM165.709 35.56C166.617 35.56 167.502 35.3217 168.199 34.5316L166.7 33.2084C166.497 33.4383 166.242 33.56 165.709 33.56V35.56ZM168.174 34.5597C169.051 33.6386 169.379 32.1007 169.379 30.36H167.379C167.379 31.9793 167.048 32.8414 166.725 33.1803L168.174 34.5597ZM158.999 30.36C158.999 27.5162 159.885 25.5913 161.221 24.3812L159.878 22.8988C158.034 24.5687 156.999 27.0838 156.999 30.36H158.999ZM161.203 24.3968C162.297 23.4519 163.754 22.96 165.709 22.96V20.96C163.405 20.96 161.442 21.5481 159.896 22.8832L161.203 24.3968ZM165.709 22.96C167.633 22.96 169.09 23.4508 170.186 24.3968L171.493 22.8832C169.948 21.5492 167.986 20.96 165.709 20.96V22.96ZM170.175 24.3874C171.529 25.5911 172.389 27.5071 172.389 30.36H174.389C174.389 27.0929 173.39 24.5689 171.504 22.8926L170.175 24.3874ZM172.389 30.36C172.389 33.2269 171.522 35.1852 170.191 36.3188L171.488 37.8412C173.397 36.2148 174.389 33.6131 174.389 30.36H172.389ZM170.196 36.3146C169.081 37.252 167.609 37.79 165.709 37.79V39.79C168.01 39.79 169.958 39.128 171.483 37.8454L170.196 36.3146ZM165.709 37.79C163.778 37.79 162.306 37.2508 161.193 36.3146L159.906 37.8454C161.432 39.1292 163.381 39.79 165.709 39.79V37.79ZM161.205 36.3248C159.892 35.1853 158.999 33.2175 158.999 30.36H156.999C156.999 33.6225 158.027 36.2147 159.894 37.8352L161.205 36.3248ZM180.459 22.11V41.82H182.459V22.11H180.459ZM181.459 40.82H176.209V42.82H181.459V40.82ZM177.209 41.82V22.11H175.209V41.82H177.209ZM176.209 23.11H181.459V21.11H176.209V23.11ZM180.819 46.11V50.37H182.819V46.11H180.819ZM181.819 49.37H160.009V51.37H181.819V49.37ZM161.009 50.37V40.26H159.009V50.37H161.009ZM160.009 41.26H165.259V39.26H160.009V41.26ZM164.259 40.26V46.11H166.259V40.26H164.259ZM165.259 47.11H181.819V45.11H165.259V47.11Z" fill="#321D07"/>
</svg>
