<svg width="185" height="72" viewBox="0 0 185 72" fill="none" xmlns="http://www.w3.org/2000/svg">
<g filter="url(#filter0_d_605_1267)">
<path d="M171.067 65.4141C128.929 67.7464 6.93068 71.8215 3.64661 59.7472C-0.877419 43.1152 5.60772 19.2247 3.29901 6.13719C2.87358 3.74224 5.37425 1.60889 8.65832 1.54257C38.3758 0.930932 150.714 -1.2061 178.009 0.923563C181.054 1.15937 183.269 3.14903 182.974 5.38923C181.625 15.5217 178.195 43.9185 180.105 57.4407C180.675 61.5011 176.613 65.1082 171.072 65.4177L171.067 65.4141Z" fill="#643B11"/>
<path d="M166.366 63.3653C126.75 65.484 12.0514 69.1869 8.96443 58.2144C4.71019 43.1004 10.8062 21.3984 8.6324 9.50474C8.23291 7.32718 10.5831 5.39279 13.67 5.33016C41.608 4.77379 147.228 2.83204 172.888 4.76642C175.752 4.98381 177.837 6.78924 177.557 8.8231C176.291 18.0308 173.064 43.8299 174.859 56.1179C175.399 59.8061 171.575 63.0853 166.366 63.3653Z" fill="#6E3D12"/>
<path d="M157.666 60.0051C122.714 61.8769 21.5249 65.1414 18.8012 55.4621C15.0502 42.1314 20.4251 22.9829 18.5107 12.4893C18.1579 10.5696 20.2331 8.86001 22.9569 8.80474C47.6056 8.3147 140.784 6.60138 163.42 8.30733C165.946 8.49892 167.783 10.0906 167.539 11.885C166.424 20.0057 163.575 42.7688 165.158 53.6087C165.635 56.8622 162.258 59.7546 157.666 60.0014V60.0051Z" fill="#643B11"/>
<path d="M154.532 60.1819C121.261 61.8916 24.9387 64.8723 22.3446 56.0331C18.7752 43.8557 23.8907 26.3652 22.0645 16.7854C21.7324 15.0316 23.7039 13.473 26.298 13.4214C49.7638 12.9719 138.46 11.4097 160.011 12.9682C162.413 13.1414 164.167 14.5968 163.928 16.2364C162.865 23.6534 160.156 44.4453 161.661 54.3456C162.112 57.319 158.901 59.9609 154.527 60.1856L154.532 60.1819Z" fill="url(#paint0_linear_605_1267)"/>
<path d="M20.7208 51.3613C20.1138 51.9766 53.9766 56.0775 67.2166 54.7622C57.8521 58.1483 19.9062 53.8042 19.9062 53.8042L20.7208 51.3613Z" fill="#965E2E"/>
<path d="M20.9801 20.2304C20.9801 20.2304 27.0658 19.8177 41.027 19.2798C28.9231 17.6954 19.9114 17.7433 19.9114 17.7433L20.9801 20.2304Z" fill="#965E2E"/>
<path d="M164.997 16.2145C164.997 16.2145 158.937 16.1555 145.012 16.1592C157.178 15.496 166.18 15.3965 166.18 15.3965L165.002 16.2145H164.997Z" fill="#965E2E"/>
<path d="M177.972 6.35801C177.972 6.35801 171.913 6.29905 157.988 6.30274C170.154 5.63952 179.155 5.54004 179.155 5.54004L177.978 6.35801H177.972Z" fill="#965E2E"/>
<path d="M164.545 28.5391C164.545 28.5391 160.976 28.4359 152.774 28.3254C159.928 27.7911 165.23 27.769 165.23 27.769L164.551 28.5391H164.545Z" fill="#965E2E"/>
<path d="M162.548 51.8549C162.548 51.8549 156.26 51.5123 141.827 51.0665C154.392 49.8027 163.715 49.8469 163.715 49.8469L162.548 51.8549Z" fill="#965E2E"/>
<path d="M74.7653 16.093C74.7653 16.093 101.11 14.6339 122.065 16.093C112.083 14.166 78.9469 14.8808 74.7653 16.093Z" fill="#965E2E"/>
<path d="M99.056 55.635C99.056 55.635 119.155 57.1457 134.999 54.9092C127.513 57.5952 102.293 57.1641 99.056 55.635Z" fill="#965E2E"/>
<path d="M52.5342 61.1729C52.5342 61.1729 105.52 62.293 147.617 60.5649C127.575 62.6209 60.9493 62.3298 52.5342 61.1729Z" fill="#965E2E"/>
<path d="M29.9971 46.0259C29.9971 46.0259 43.7248 49.7694 55.5174 49.3309C49.4836 51.1437 31.844 47.8976 29.9971 46.0259Z" fill="#965E2E"/>
</g>
<g filter="url(#filter1_d_605_1267)">
<path d="M171.067 65.4141C128.929 67.7464 6.93068 71.8215 3.64661 59.7472C-0.877419 43.1152 5.60772 19.2247 3.29901 6.13719C2.87358 3.74224 5.37425 1.60889 8.65832 1.54257C38.3758 0.930932 150.714 -1.2061 178.009 0.923563C181.054 1.15937 183.269 3.14903 182.974 5.38923C181.625 15.5217 178.195 43.9185 180.105 57.4407C180.675 61.5011 176.613 65.1082 171.072 65.4177L171.067 65.4141Z" fill="#643B11"/>
<path d="M166.366 63.3653C126.75 65.484 12.0514 69.1869 8.96443 58.2144C4.71019 43.1004 10.8062 21.3984 8.6324 9.50474C8.23291 7.32718 10.5831 5.39279 13.67 5.33016C41.608 4.77379 147.228 2.83204 172.888 4.76642C175.752 4.98381 177.837 6.78924 177.557 8.8231C176.291 18.0308 173.064 43.8299 174.859 56.1179C175.399 59.8061 171.575 63.0853 166.366 63.3653Z" fill="#6E3D12"/>
<path d="M157.666 60.0051C122.714 61.8769 21.5249 65.1414 18.8012 55.4621C15.0502 42.1314 20.4251 22.9829 18.5107 12.4893C18.1579 10.5696 20.2331 8.86001 22.9569 8.80474C47.6056 8.3147 140.784 6.60138 163.42 8.30733C165.946 8.49892 167.783 10.0906 167.539 11.885C166.424 20.0057 163.575 42.7688 165.158 53.6087C165.635 56.8622 162.258 59.7546 157.666 60.0014V60.0051Z" fill="#643B11"/>
<path d="M154.532 60.1819C121.261 61.8916 24.9387 64.8723 22.3446 56.0331C18.7752 43.8557 23.8907 26.3652 22.0645 16.7854C21.7324 15.0316 23.7039 13.473 26.298 13.4214C49.7638 12.9719 138.46 11.4097 160.011 12.9682C162.413 13.1414 164.167 14.5968 163.928 16.2364C162.865 23.6534 160.156 44.4453 161.661 54.3456C162.112 57.319 158.901 59.9609 154.527 60.1856L154.532 60.1819Z" fill="url(#paint1_linear_605_1267)"/>
<path d="M20.7208 51.3613C20.1138 51.9766 53.9766 56.0775 67.2166 54.7622C57.8521 58.1483 19.9062 53.8042 19.9062 53.8042L20.7208 51.3613Z" fill="#965E2E"/>
<path d="M20.9801 20.2304C20.9801 20.2304 27.0658 19.8177 41.027 19.2798C28.9231 17.6954 19.9114 17.7433 19.9114 17.7433L20.9801 20.2304Z" fill="#965E2E"/>
<path d="M164.997 16.2145C164.997 16.2145 158.937 16.1555 145.012 16.1592C157.178 15.496 166.18 15.3965 166.18 15.3965L165.002 16.2145H164.997Z" fill="#965E2E"/>
<path d="M177.972 6.35801C177.972 6.35801 171.913 6.29905 157.988 6.30274C170.154 5.63952 179.155 5.54004 179.155 5.54004L177.978 6.35801H177.972Z" fill="#965E2E"/>
<path d="M164.545 28.5391C164.545 28.5391 160.976 28.4359 152.774 28.3254C159.928 27.7911 165.23 27.769 165.23 27.769L164.551 28.5391H164.545Z" fill="#965E2E"/>
<path d="M162.548 51.8549C162.548 51.8549 156.26 51.5123 141.827 51.0665C154.392 49.8027 163.715 49.8469 163.715 49.8469L162.548 51.8549Z" fill="#965E2E"/>
<path d="M74.7653 16.093C74.7653 16.093 101.11 14.6339 122.065 16.093C112.083 14.166 78.9469 14.8808 74.7653 16.093Z" fill="#965E2E"/>
<path d="M99.056 55.635C99.056 55.635 119.155 57.1457 134.999 54.9092C127.513 57.5952 102.293 57.1641 99.056 55.635Z" fill="#965E2E"/>
<path d="M52.5342 61.1729C52.5342 61.1729 105.52 62.293 147.617 60.5649C127.575 62.6209 60.9493 62.3298 52.5342 61.1729Z" fill="#965E2E"/>
<path d="M29.9971 46.0259C29.9971 46.0259 43.7248 49.7694 55.5174 49.3309C49.4836 51.1437 31.844 47.8976 29.9971 46.0259Z" fill="#965E2E"/>
</g>
<path d="M79.1473 33.682H66.5853V35.728H79.3893V38.918H72.8773V41.624H80.1373V44.77H61.7453V41.624H69.0273V38.918H62.7353V30.536H75.2973V28.534H62.7353V25.366H79.1473V33.682ZM96.8564 33.22V28.622H84.1624V25.366H100.706V32.67C100.706 35.046 100.53 37.73 100.134 39.6H96.2844C96.6804 37.774 96.8564 35.288 96.8564 33.22ZM101.696 44.77H83.3044V41.58H101.696V44.77ZM112.652 31.064C112.652 29.854 112.41 28.996 111.97 28.49C111.64 28.16 111.222 27.962 110.694 27.962C110.166 27.962 109.726 28.16 109.418 28.49C108.978 28.996 108.714 29.854 108.714 31.064C108.714 32.296 108.978 33.176 109.418 33.638C109.726 34.012 110.166 34.144 110.694 34.144C111.222 34.144 111.64 34.012 111.97 33.638C112.41 33.176 112.652 32.296 112.652 31.064ZM105.04 31.064C105.04 28.82 105.744 27.192 106.91 26.136C107.878 25.3 109.132 24.904 110.694 24.904C112.234 24.904 113.488 25.3 114.456 26.136C115.644 27.192 116.326 28.82 116.326 31.064C116.326 33.308 115.644 34.98 114.456 35.992C113.488 36.806 112.234 37.246 110.694 37.246C109.132 37.246 107.878 36.806 106.91 35.992C105.744 34.98 105.04 33.308 105.04 31.064ZM122.244 25.014V39.468H118.394V25.014H122.244ZM122.508 42.614V45.738H106.514V38.324H110.364V42.614H122.508Z" fill="url(#paint2_linear_605_1267)"/>
<path d="M79.1473 33.682V34.682C79.6996 34.682 80.1473 34.2343 80.1473 33.682H79.1473ZM66.5853 33.682V32.682C66.033 32.682 65.5853 33.1297 65.5853 33.682H66.5853ZM66.5853 35.728H65.5853C65.5853 36.2803 66.033 36.728 66.5853 36.728V35.728ZM79.3893 35.728H80.3893C80.3893 35.1757 79.9416 34.728 79.3893 34.728V35.728ZM79.3893 38.918V39.918C79.9416 39.918 80.3893 39.4703 80.3893 38.918H79.3893ZM72.8773 38.918V37.918C72.325 37.918 71.8773 38.3657 71.8773 38.918H72.8773ZM72.8773 41.624H71.8773C71.8773 42.1763 72.325 42.624 72.8773 42.624V41.624ZM80.1373 41.624H81.1373C81.1373 41.0717 80.6896 40.624 80.1373 40.624V41.624ZM80.1373 44.77V45.77C80.6896 45.77 81.1373 45.3223 81.1373 44.77H80.1373ZM61.7453 44.77H60.7453C60.7453 45.3223 61.193 45.77 61.7453 45.77V44.77ZM61.7453 41.624V40.624C61.193 40.624 60.7453 41.0717 60.7453 41.624H61.7453ZM69.0273 41.624V42.624C69.5796 42.624 70.0273 42.1763 70.0273 41.624H69.0273ZM69.0273 38.918H70.0273C70.0273 38.3657 69.5796 37.918 69.0273 37.918V38.918ZM62.7353 38.918H61.7353C61.7353 39.4703 62.183 39.918 62.7353 39.918V38.918ZM62.7353 30.536V29.536C62.183 29.536 61.7353 29.9837 61.7353 30.536H62.7353ZM75.2973 30.536V31.536C75.8496 31.536 76.2973 31.0883 76.2973 30.536H75.2973ZM75.2973 28.534H76.2973C76.2973 27.9817 75.8496 27.534 75.2973 27.534V28.534ZM62.7353 28.534H61.7353C61.7353 29.0863 62.183 29.534 62.7353 29.534V28.534ZM62.7353 25.366V24.366C62.183 24.366 61.7353 24.8137 61.7353 25.366H62.7353ZM79.1473 25.366H80.1473C80.1473 24.8137 79.6996 24.366 79.1473 24.366V25.366ZM79.1473 32.682H66.5853V34.682H79.1473V32.682ZM65.5853 33.682V35.728H67.5853V33.682H65.5853ZM66.5853 36.728H79.3893V34.728H66.5853V36.728ZM78.3893 35.728V38.918H80.3893V35.728H78.3893ZM79.3893 37.918H72.8773V39.918H79.3893V37.918ZM71.8773 38.918V41.624H73.8773V38.918H71.8773ZM72.8773 42.624H80.1373V40.624H72.8773V42.624ZM79.1373 41.624V44.77H81.1373V41.624H79.1373ZM80.1373 43.77H61.7453V45.77H80.1373V43.77ZM62.7453 44.77V41.624H60.7453V44.77H62.7453ZM61.7453 42.624H69.0273V40.624H61.7453V42.624ZM70.0273 41.624V38.918H68.0273V41.624H70.0273ZM69.0273 37.918H62.7353V39.918H69.0273V37.918ZM63.7353 38.918V30.536H61.7353V38.918H63.7353ZM62.7353 31.536H75.2973V29.536H62.7353V31.536ZM76.2973 30.536V28.534H74.2973V30.536H76.2973ZM75.2973 27.534H62.7353V29.534H75.2973V27.534ZM63.7353 28.534V25.366H61.7353V28.534H63.7353ZM62.7353 26.366H79.1473V24.366H62.7353V26.366ZM78.1473 25.366V33.682H80.1473V25.366H78.1473ZM96.8564 28.622H97.8564C97.8564 28.0697 97.4087 27.622 96.8564 27.622V28.622ZM84.1624 28.622H83.1624C83.1624 29.1743 83.6101 29.622 84.1624 29.622V28.622ZM84.1624 25.366V24.366C83.6101 24.366 83.1624 24.8137 83.1624 25.366H84.1624ZM100.706 25.366H101.706C101.706 24.8137 101.259 24.366 100.706 24.366V25.366ZM100.134 39.6V40.6C100.607 40.6 101.015 40.2694 101.113 39.8072L100.134 39.6ZM96.2844 39.6L95.3071 39.3881C95.243 39.6836 95.3162 39.9923 95.506 40.2277C95.6958 40.4631 95.982 40.6 96.2844 40.6V39.6ZM101.696 44.77V45.77C102.249 45.77 102.696 45.3223 102.696 44.77H101.696ZM83.3044 44.77H82.3044C82.3044 45.3223 82.7521 45.77 83.3044 45.77V44.77ZM83.3044 41.58V40.58C82.7521 40.58 82.3044 41.0277 82.3044 41.58H83.3044ZM101.696 41.58H102.696C102.696 41.0277 102.249 40.58 101.696 40.58V41.58ZM97.8564 33.22V28.622H95.8564V33.22H97.8564ZM96.8564 27.622H84.1624V29.622H96.8564V27.622ZM85.1624 28.622V25.366H83.1624V28.622H85.1624ZM84.1624 26.366H100.706V24.366H84.1624V26.366ZM99.7064 25.366V32.67H101.706V25.366H99.7064ZM99.7064 32.67C99.7064 35.0167 99.5312 37.6215 99.1561 39.3928L101.113 39.8072C101.53 37.8385 101.706 35.0753 101.706 32.67H99.7064ZM100.134 38.6H96.2844V40.6H100.134V38.6ZM97.2617 39.8119C97.6786 37.8898 97.8564 35.3257 97.8564 33.22H95.8564C95.8564 35.2503 95.6823 37.6582 95.3071 39.3881L97.2617 39.8119ZM101.696 43.77H83.3044V45.77H101.696V43.77ZM84.3044 44.77V41.58H82.3044V44.77H84.3044ZM83.3044 42.58H101.696V40.58H83.3044V42.58ZM100.696 41.58V44.77H102.696V41.58H100.696ZM111.97 28.49L112.724 27.8338C112.709 27.8163 112.693 27.7993 112.677 27.7829L111.97 28.49ZM109.418 28.49L108.687 27.8077C108.679 27.8163 108.671 27.825 108.663 27.8338L109.418 28.49ZM109.418 33.638L110.19 33.0023C110.174 32.9837 110.158 32.9657 110.142 32.9483L109.418 33.638ZM111.97 33.638L111.245 32.9483C111.237 32.9575 111.228 32.9669 111.22 32.9764L111.97 33.638ZM106.91 26.136L106.256 25.3792C106.25 25.3843 106.244 25.3895 106.238 25.3948L106.91 26.136ZM114.456 26.136L115.12 25.3886C115.116 25.3854 115.113 25.3823 115.109 25.3792L114.456 26.136ZM114.456 35.992L115.099 36.7574L115.104 36.7532L114.456 35.992ZM106.91 35.992L106.254 36.7472C106.258 36.7506 106.262 36.754 106.266 36.7574L106.91 35.992ZM122.244 25.014H123.244C123.244 24.4617 122.796 24.014 122.244 24.014V25.014ZM122.244 39.468V40.468C122.796 40.468 123.244 40.0203 123.244 39.468H122.244ZM118.394 39.468H117.394C117.394 40.0203 117.841 40.468 118.394 40.468V39.468ZM118.394 25.014V24.014C117.841 24.014 117.394 24.4617 117.394 25.014H118.394ZM122.508 42.614H123.508C123.508 42.0617 123.06 41.614 122.508 41.614V42.614ZM122.508 45.738V46.738C123.06 46.738 123.508 46.2903 123.508 45.738H122.508ZM106.514 45.738H105.514C105.514 46.2903 105.961 46.738 106.514 46.738V45.738ZM106.514 38.324V37.324C105.961 37.324 105.514 37.7717 105.514 38.324H106.514ZM110.364 38.324H111.364C111.364 37.7717 110.916 37.324 110.364 37.324V38.324ZM110.364 42.614H109.364C109.364 43.1663 109.811 43.614 110.364 43.614V42.614ZM113.652 31.064C113.652 29.7648 113.4 28.6106 112.724 27.8338L111.215 29.1462C111.419 29.3814 111.652 29.9432 111.652 31.064H113.652ZM112.677 27.7829C112.172 27.278 111.504 26.962 110.694 26.962V28.962C110.939 28.962 111.107 29.042 111.262 29.1971L112.677 27.7829ZM110.694 26.962C109.903 26.962 109.193 27.2649 108.687 27.8077L110.149 29.1723C110.258 29.0551 110.429 28.962 110.694 28.962V26.962ZM108.663 27.8338C107.996 28.6009 107.714 29.7439 107.714 31.064H109.714C109.714 29.9641 109.959 29.3911 110.172 29.1462L108.663 27.8338ZM107.714 31.064C107.714 32.3784 107.985 33.5833 108.693 34.3277L110.142 32.9483C109.971 32.7687 109.714 32.2136 109.714 31.064H107.714ZM108.646 34.2737C109.216 34.9663 110.003 35.144 110.694 35.144V33.144C110.508 33.144 110.392 33.1202 110.322 33.0939C110.262 33.0716 110.224 33.0446 110.19 33.0023L108.646 34.2737ZM110.694 35.144C111.409 35.144 112.142 34.9537 112.719 34.2996L111.22 32.9764C111.137 33.0703 111.034 33.144 110.694 33.144V35.144ZM112.694 34.3277C113.411 33.5746 113.652 32.3567 113.652 31.064H111.652C111.652 32.2353 111.408 32.7774 111.245 32.9483L112.694 34.3277ZM106.04 31.064C106.04 29.0362 106.669 27.7033 107.581 26.8772L106.238 25.3948C104.818 26.6807 104.04 28.6038 104.04 31.064H106.04ZM107.563 26.8928C108.305 26.2519 109.306 25.904 110.694 25.904V23.904C108.957 23.904 107.45 24.3481 106.256 25.3792L107.563 26.8928ZM110.694 25.904C112.057 25.904 113.059 26.2508 113.802 26.8928L115.109 25.3792C113.917 24.3492 112.41 23.904 110.694 23.904V25.904ZM113.791 26.8834C114.713 27.7031 115.326 29.0271 115.326 31.064H117.326C117.326 28.6129 116.574 26.6809 115.12 25.3886L113.791 26.8834ZM115.326 31.064C115.326 33.1149 114.706 34.4652 113.807 35.2308L115.104 36.7532C116.581 35.4948 117.326 33.5011 117.326 31.064H115.326ZM113.812 35.2266C113.049 35.868 112.033 36.246 110.694 36.246V38.246C112.434 38.246 113.926 37.744 115.099 36.7574L113.812 35.2266ZM110.694 36.246C109.33 36.246 108.315 35.8668 107.553 35.2266L106.266 36.7574C107.441 37.7452 108.933 38.246 110.694 38.246V36.246ZM107.565 35.2368C106.676 34.4653 106.04 33.1055 106.04 31.064H104.04C104.04 33.5105 104.811 35.4947 106.254 36.7472L107.565 35.2368ZM121.244 25.014V39.468H123.244V25.014H121.244ZM122.244 38.468H118.394V40.468H122.244V38.468ZM119.394 39.468V25.014H117.394V39.468H119.394ZM118.394 26.014H122.244V24.014H118.394V26.014ZM121.508 42.614V45.738H123.508V42.614H121.508ZM122.508 44.738H106.514V46.738H122.508V44.738ZM107.514 45.738V38.324H105.514V45.738H107.514ZM106.514 39.324H110.364V37.324H106.514V39.324ZM109.364 38.324V42.614H111.364V38.324H109.364ZM110.364 43.614H122.508V41.614H110.364V43.614Z" fill="#A8891A"/>
<defs>
<filter id="filter0_d_605_1267" x="0" y="0" width="185" height="72" filterUnits="userSpaceOnUse" color-interpolation-filters="sRGB">
<feFlood flood-opacity="0" result="BackgroundImageFix"/>
<feColorMatrix in="SourceAlpha" type="matrix" values="0 0 0 0 0 0 0 0 0 0 0 0 0 0 0 0 0 0 127 0" result="hardAlpha"/>
<feOffset dy="2"/>
<feGaussianBlur stdDeviation="1"/>
<feComposite in2="hardAlpha" operator="out"/>
<feColorMatrix type="matrix" values="0 0 0 0 0 0 0 0 0 0 0 0 0 0 0 0 0 0 0.25 0"/>
<feBlend mode="normal" in2="BackgroundImageFix" result="effect1_dropShadow_605_1267"/>
<feBlend mode="normal" in="SourceGraphic" in2="effect1_dropShadow_605_1267" result="shape"/>
</filter>
<filter id="filter1_d_605_1267" x="0" y="0" width="185" height="72" filterUnits="userSpaceOnUse" color-interpolation-filters="sRGB">
<feFlood flood-opacity="0" result="BackgroundImageFix"/>
<feColorMatrix in="SourceAlpha" type="matrix" values="0 0 0 0 0 0 0 0 0 0 0 0 0 0 0 0 0 0 127 0" result="hardAlpha"/>
<feOffset dy="2"/>
<feGaussianBlur stdDeviation="1"/>
<feComposite in2="hardAlpha" operator="out"/>
<feColorMatrix type="matrix" values="0 0 0 0 0 0 0 0 0 0 0 0 0 0 0 0 0 0 0.25 0"/>
<feBlend mode="normal" in2="BackgroundImageFix" result="effect1_dropShadow_605_1267"/>
<feBlend mode="normal" in="SourceGraphic" in2="effect1_dropShadow_605_1267" result="shape"/>
</filter>
<linearGradient id="paint0_linear_605_1267" x1="92.4983" y1="-87.4281" x2="92.4983" y2="87.348" gradientUnits="userSpaceOnUse">
<stop stop-color="#EFE4BC"/>
<stop offset="1" stop-color="#A5600F"/>
</linearGradient>
<linearGradient id="paint1_linear_605_1267" x1="92.4983" y1="-87.4281" x2="92.4983" y2="87.348" gradientUnits="userSpaceOnUse">
<stop stop-color="#EFE4BC"/>
<stop offset="1" stop-color="#A5600F"/>
</linearGradient>
<linearGradient id="paint2_linear_605_1267" x1="93.2605" y1="5.5" x2="93.2605" y2="54" gradientUnits="userSpaceOnUse">
<stop stop-color="#FCFB64"/>
<stop offset="1" stop-color="#FFBF00"/>
</linearGradient>
</defs>
</svg>
