<svg width="185" height="72" viewBox="0 0 185 72" fill="none" xmlns="http://www.w3.org/2000/svg">
<g filter="url(#filter0_d_605_470)">
<path d="M171.067 65.4141C128.929 67.7464 6.93068 71.8215 3.64661 59.7472C-0.877419 43.1152 5.60772 19.2247 3.29901 6.13719C2.87358 3.74224 5.37425 1.60889 8.65832 1.54257C38.3758 0.930932 150.714 -1.2061 178.009 0.923563C181.054 1.15937 183.269 3.14903 182.974 5.38923C181.625 15.5217 178.195 43.9185 180.105 57.4407C180.675 61.5011 176.613 65.1082 171.072 65.4177L171.067 65.4141Z" fill="#643B11"/>
<path d="M166.367 63.3653C126.751 65.484 12.0518 69.1869 8.96492 58.2144C4.71068 43.1004 10.8067 21.3984 8.63288 9.50474C8.2334 7.32718 10.5836 5.39279 13.6705 5.33016C41.6085 4.77379 147.228 2.83204 172.888 4.76642C175.752 4.98381 177.838 6.78924 177.558 8.8231C176.292 18.0308 173.065 43.8299 174.86 56.1179C175.399 59.8061 171.576 63.0853 166.367 63.3653Z" fill="#6E3D12"/>
<path d="M157.666 60.0051C122.714 61.8769 21.5249 65.1414 18.8012 55.4621C15.0502 42.1314 20.4251 22.9829 18.5107 12.4893C18.1579 10.5696 20.2331 8.86001 22.9569 8.80474C47.6056 8.3147 140.784 6.60138 163.42 8.30733C165.946 8.49892 167.783 10.0906 167.539 11.885C166.424 20.0057 163.575 42.7688 165.158 53.6087C165.635 56.8622 162.258 59.7546 157.666 60.0014V60.0051Z" fill="#643B11"/>
<path d="M154.532 60.1819C121.261 61.8916 24.9385 64.8723 22.3444 56.0331C18.775 43.8557 23.8905 26.3652 22.0642 16.7854C21.7322 15.0316 23.7037 13.473 26.2977 13.4214C49.7636 12.9719 138.459 11.4097 160.011 12.9682C162.413 13.1414 164.167 14.5968 163.928 16.2364C162.864 23.6534 160.156 44.4453 161.661 54.3456C162.112 57.319 158.901 59.9609 154.527 60.1856L154.532 60.1819Z" fill="url(#paint0_linear_605_470)"/>
<path d="M20.7208 51.3613C20.1138 51.9766 53.9766 56.0775 67.2166 54.7622C57.8521 58.1483 19.9062 53.8042 19.9062 53.8042L20.7208 51.3613Z" fill="#965E2E"/>
<path d="M20.9799 20.2304C20.9799 20.2304 27.0655 19.8177 41.0267 19.2798C28.9229 17.6954 19.9111 17.7433 19.9111 17.7433L20.9799 20.2304Z" fill="#965E2E"/>
<path d="M164.997 16.2145C164.997 16.2145 158.938 16.1555 145.013 16.1592C157.179 15.496 166.18 15.3965 166.18 15.3965L165.002 16.2145H164.997Z" fill="#965E2E"/>
<path d="M177.972 6.35801C177.972 6.35801 171.912 6.29905 157.987 6.30274C170.153 5.63952 179.155 5.54004 179.155 5.54004L177.977 6.35801H177.972Z" fill="#965E2E"/>
<path d="M164.545 28.5391C164.545 28.5391 160.976 28.4359 152.773 28.3254C159.928 27.7911 165.23 27.769 165.23 27.769L164.55 28.5391H164.545Z" fill="#965E2E"/>
<path d="M162.548 51.8549C162.548 51.8549 156.26 51.5123 141.827 51.0665C154.393 49.8027 163.716 49.8469 163.716 49.8469L162.548 51.8549Z" fill="#965E2E"/>
<path d="M74.7656 16.093C74.7656 16.093 101.111 14.6339 122.066 16.093C112.084 14.166 78.9472 14.8808 74.7656 16.093Z" fill="#965E2E"/>
<path d="M99.0557 55.635C99.0557 55.635 119.154 57.1457 134.999 54.9092C127.512 57.5952 102.293 57.1641 99.0557 55.635Z" fill="#965E2E"/>
<path d="M52.5342 61.1729C52.5342 61.1729 105.52 62.293 147.617 60.5649C127.575 62.6209 60.9493 62.3298 52.5342 61.1729Z" fill="#965E2E"/>
<path d="M29.9971 46.0259C29.9971 46.0259 43.7248 49.7694 55.5174 49.3309C49.4836 51.1437 31.844 47.8976 29.9971 46.0259Z" fill="#965E2E"/>
</g>
<g filter="url(#filter1_d_605_470)">
<path d="M171.067 65.4141C128.929 67.7464 6.93068 71.8215 3.64661 59.7472C-0.877419 43.1152 5.60772 19.2247 3.29901 6.13719C2.87358 3.74224 5.37425 1.60889 8.65832 1.54257C38.3758 0.930932 150.714 -1.2061 178.009 0.923563C181.054 1.15937 183.269 3.14903 182.974 5.38923C181.625 15.5217 178.195 43.9185 180.105 57.4407C180.675 61.5011 176.613 65.1082 171.072 65.4177L171.067 65.4141Z" fill="#643B11"/>
<path d="M166.367 63.3653C126.751 65.484 12.0518 69.1869 8.96492 58.2144C4.71068 43.1004 10.8067 21.3984 8.63288 9.50474C8.2334 7.32718 10.5836 5.39279 13.6705 5.33016C41.6085 4.77379 147.228 2.83204 172.888 4.76642C175.752 4.98381 177.838 6.78924 177.558 8.8231C176.292 18.0308 173.065 43.8299 174.86 56.1179C175.399 59.8061 171.576 63.0853 166.367 63.3653Z" fill="#6E3D12"/>
<path d="M157.666 60.0051C122.714 61.8769 21.5249 65.1414 18.8012 55.4621C15.0502 42.1314 20.4251 22.9829 18.5107 12.4893C18.1579 10.5696 20.2331 8.86001 22.9569 8.80474C47.6056 8.3147 140.784 6.60138 163.42 8.30733C165.946 8.49892 167.783 10.0906 167.539 11.885C166.424 20.0057 163.575 42.7688 165.158 53.6087C165.635 56.8622 162.258 59.7546 157.666 60.0014V60.0051Z" fill="#643B11"/>
<path d="M154.532 60.1819C121.261 61.8916 24.9385 64.8723 22.3444 56.0331C18.775 43.8557 23.8905 26.3652 22.0642 16.7854C21.7322 15.0316 23.7037 13.473 26.2977 13.4214C49.7636 12.9719 138.459 11.4097 160.011 12.9682C162.413 13.1414 164.167 14.5968 163.928 16.2364C162.864 23.6534 160.156 44.4453 161.661 54.3456C162.112 57.319 158.901 59.9609 154.527 60.1856L154.532 60.1819Z" fill="url(#paint1_linear_605_470)"/>
<path d="M20.7208 51.3613C20.1138 51.9766 53.9766 56.0775 67.2166 54.7622C57.8521 58.1483 19.9062 53.8042 19.9062 53.8042L20.7208 51.3613Z" fill="#965E2E"/>
<path d="M20.9799 20.2304C20.9799 20.2304 27.0655 19.8177 41.0267 19.2798C28.9229 17.6954 19.9111 17.7433 19.9111 17.7433L20.9799 20.2304Z" fill="#965E2E"/>
<path d="M164.997 16.2145C164.997 16.2145 158.938 16.1555 145.013 16.1592C157.179 15.496 166.18 15.3965 166.18 15.3965L165.002 16.2145H164.997Z" fill="#965E2E"/>
<path d="M177.972 6.35801C177.972 6.35801 171.912 6.29905 157.987 6.30274C170.153 5.63952 179.155 5.54004 179.155 5.54004L177.977 6.35801H177.972Z" fill="#965E2E"/>
<path d="M164.545 28.5391C164.545 28.5391 160.976 28.4359 152.773 28.3254C159.928 27.7911 165.23 27.769 165.23 27.769L164.55 28.5391H164.545Z" fill="#965E2E"/>
<path d="M162.548 51.8549C162.548 51.8549 156.26 51.5123 141.827 51.0665C154.393 49.8027 163.716 49.8469 163.716 49.8469L162.548 51.8549Z" fill="#965E2E"/>
<path d="M74.7656 16.093C74.7656 16.093 101.111 14.6339 122.066 16.093C112.084 14.166 78.9472 14.8808 74.7656 16.093Z" fill="#965E2E"/>
<path d="M99.0557 55.635C99.0557 55.635 119.154 57.1457 134.999 54.9092C127.512 57.5952 102.293 57.1641 99.0557 55.635Z" fill="#965E2E"/>
<path d="M52.5342 61.1729C52.5342 61.1729 105.52 62.293 147.617 60.5649C127.575 62.6209 60.9493 62.3298 52.5342 61.1729Z" fill="#965E2E"/>
<path d="M29.9971 46.0259C29.9971 46.0259 43.7248 49.7694 55.5174 49.3309C49.4836 51.1437 31.844 47.8976 29.9971 46.0259Z" fill="#965E2E"/>
</g>
<path d="M79.1471 33.6818H66.5851V35.7278H79.3891V38.9178H72.8771V41.6238H80.1371V44.7698H61.7451V41.6238H69.0271V38.9178H62.7351V30.5358H75.2971V28.5338H62.7351V25.3658H79.1471V33.6818Z" fill="url(#paint2_linear_605_470)"/>
<path d="M96.8563 33.2198V28.6218H84.1623V25.3658H100.706V32.6698C100.706 35.0458 100.53 37.7298 100.134 39.5998H96.2843C96.6803 37.7738 96.8563 35.2878 96.8563 33.2198ZM101.696 44.7698H83.3043V41.5798H101.696V44.7698Z" fill="url(#paint3_linear_605_470)"/>
<path d="M112.651 31.0638C112.651 29.8538 112.409 28.9958 111.969 28.4898C111.639 28.1598 111.221 27.9618 110.693 27.9618C110.165 27.9618 109.725 28.1598 109.417 28.4898C108.977 28.9958 108.713 29.8538 108.713 31.0638C108.713 32.2958 108.977 33.1758 109.417 33.6378C109.725 34.0118 110.165 34.1438 110.693 34.1438C111.221 34.1438 111.639 34.0118 111.969 33.6378C112.409 33.1758 112.651 32.2958 112.651 31.0638ZM105.039 31.0638C105.039 28.8198 105.743 27.1918 106.909 26.1358C107.877 25.2998 109.131 24.9038 110.693 24.9038C112.233 24.9038 113.487 25.2998 114.455 26.1358C115.643 27.1918 116.325 28.8198 116.325 31.0638C116.325 33.3078 115.643 34.9798 114.455 35.9918C113.487 36.8058 112.233 37.2458 110.693 37.2458C109.131 37.2458 107.877 36.8058 106.909 35.9918C105.743 34.9798 105.039 33.3078 105.039 31.0638ZM122.243 25.0138V39.4678H118.393V25.0138H122.243ZM122.507 42.6138V45.7378H106.513V38.3238H110.363V42.6138H122.507Z" fill="url(#paint4_linear_605_470)"/>
<path fill-rule="evenodd" clip-rule="evenodd" d="M80.1471 33.6818C80.1471 34.2341 79.6994 34.6818 79.1471 34.6818H67.5851V34.7278H79.3891C79.9414 34.7278 80.3891 35.1755 80.3891 35.7278V38.9178C80.3891 39.4701 79.9414 39.9178 79.3891 39.9178H73.8771V40.6238H80.1371C80.6894 40.6238 81.1371 41.0715 81.1371 41.6238V44.7698C81.1371 45.3221 80.6894 45.7698 80.1371 45.7698H61.7451C61.1928 45.7698 60.7451 45.3221 60.7451 44.7698V41.6238C60.7451 41.0715 61.1928 40.6238 61.7451 40.6238H68.0271V39.9178H62.7351C62.1828 39.9178 61.7351 39.4701 61.7351 38.9178V30.5358C61.7351 29.9835 62.1828 29.5358 62.7351 29.5358H74.2971V29.5338H62.7351C62.1828 29.5338 61.7351 29.0861 61.7351 28.5338V25.3658C61.7351 24.8135 62.1828 24.3658 62.7351 24.3658H79.1471C79.6994 24.3658 80.1471 24.8135 80.1471 25.3658V33.6818ZM75.2971 28.5338V30.5358H62.7351V38.9178H69.0271V41.6238H61.7451V44.7698H80.1371V41.6238H72.8771V38.9178H79.3891V35.7278H66.5851V33.6818H79.1471V25.3658H62.7351V28.5338H75.2971ZM96.47 38.5998C96.7358 36.9273 96.8563 34.9305 96.8563 33.2198V28.6218H84.1623V25.3658H100.706V32.6698C100.706 35.0458 100.53 37.7298 100.134 39.5998H96.2843C96.3527 39.2843 96.4145 38.9491 96.47 38.5998ZM95.8563 29.6218H84.1623C83.61 29.6218 83.1623 29.1741 83.1623 28.6218V25.3658C83.1623 24.8135 83.61 24.3658 84.1623 24.3658H100.706C101.259 24.3658 101.706 24.8135 101.706 25.3658V32.6698C101.706 35.0751 101.529 37.8383 101.113 39.807C101.029 40.2026 100.718 40.5018 100.334 40.5798H101.696C102.249 40.5798 102.696 41.0275 102.696 41.5798V44.7698C102.696 45.3221 102.249 45.7698 101.696 45.7698H83.3043C82.752 45.7698 82.3043 45.3221 82.3043 44.7698V41.5798C82.3043 41.0275 82.752 40.5798 83.3043 40.5798H96.0852C95.859 40.5339 95.6533 40.4104 95.5058 40.2275C95.316 39.9921 95.2429 39.6834 95.307 39.3879C95.6821 37.658 95.8563 35.2501 95.8563 33.2198V29.6218ZM110.142 32.9482C110.158 32.9656 110.174 32.9836 110.189 33.0021C110.224 33.0444 110.261 33.0714 110.321 33.0937C110.392 33.12 110.508 33.1438 110.693 33.1438C111.034 33.1438 111.137 33.0701 111.22 32.9762C111.228 32.9667 111.237 32.9573 111.245 32.9482C111.408 32.7772 111.651 32.2351 111.651 31.0638C111.651 29.9817 111.435 29.4207 111.236 29.1716C111.088 29.0331 110.925 28.9618 110.693 28.9618C110.438 28.9618 110.27 29.0486 110.16 29.16C109.95 29.4123 109.713 29.9843 109.713 31.0638C109.713 32.2134 109.97 32.7685 110.142 32.9482ZM109.417 28.4898C109.725 28.1598 110.165 27.9618 110.693 27.9618C111.221 27.9618 111.639 28.1598 111.969 28.4898C112.409 28.9958 112.651 29.8538 112.651 31.0638C112.651 32.2958 112.409 33.1758 111.969 33.6378C111.639 34.0118 111.221 34.1438 110.693 34.1438C110.165 34.1438 109.725 34.0118 109.417 33.6378C108.977 33.1758 108.713 32.2958 108.713 31.0638C108.713 29.8538 108.977 28.9958 109.417 28.4898ZM106.238 25.3946L106.256 25.379C107.45 24.3479 108.957 23.9038 110.693 23.9038C112.41 23.9038 113.916 24.349 115.109 25.379L115.12 25.3884C116.574 26.6807 117.325 28.6127 117.325 31.0638C117.325 33.5009 116.581 35.4947 115.104 36.7531L115.099 36.7572C114.078 37.6158 112.816 38.1074 111.358 38.2205C111.362 38.2545 111.363 38.2889 111.363 38.3238V41.6138H122.507C123.06 41.6138 123.507 42.0615 123.507 42.6138V45.7378C123.507 46.2901 123.06 46.7378 122.507 46.7378H106.513C105.961 46.7378 105.513 46.2901 105.513 45.7378V38.3238C105.513 37.7715 105.961 37.3238 106.513 37.3238H107.062C106.783 37.1573 106.517 36.9684 106.266 36.7572L106.254 36.747C104.811 35.4945 104.039 33.5103 104.039 31.0638C104.039 28.6036 104.818 26.6805 106.238 25.3946ZM110.363 42.6138V38.3238H106.513V45.7378H122.507V42.6138H110.363ZM122.243 24.0138C122.796 24.0138 123.243 24.4615 123.243 25.0138V39.4678C123.243 40.0201 122.796 40.4678 122.243 40.4678H118.393C117.841 40.4678 117.393 40.0201 117.393 39.4678V25.0138C117.393 24.4615 117.841 24.0138 118.393 24.0138H122.243ZM101.696 44.7698V41.5798H83.3043V44.7698H101.696ZM106.909 26.1358C105.743 27.1918 105.039 28.8198 105.039 31.0638C105.039 33.3078 105.743 34.9798 106.909 35.9918C107.877 36.8058 109.131 37.2458 110.693 37.2458C112.233 37.2458 113.487 36.8058 114.455 35.9918C115.643 34.9798 116.325 33.3078 116.325 31.0638C116.325 28.8198 115.643 27.1918 114.455 26.1358C113.487 25.2998 112.233 24.9038 110.693 24.9038C109.131 24.9038 107.877 25.2998 106.909 26.1358ZM122.243 25.0138H118.393V39.4678H122.243V25.0138Z" fill="#A8891A"/>
<defs>
<filter id="filter0_d_605_470" x="0" y="0" width="185" height="72" filterUnits="userSpaceOnUse" color-interpolation-filters="sRGB">
<feFlood flood-opacity="0" result="BackgroundImageFix"/>
<feColorMatrix in="SourceAlpha" type="matrix" values="0 0 0 0 0 0 0 0 0 0 0 0 0 0 0 0 0 0 127 0" result="hardAlpha"/>
<feOffset dy="2"/>
<feGaussianBlur stdDeviation="1"/>
<feComposite in2="hardAlpha" operator="out"/>
<feColorMatrix type="matrix" values="0 0 0 0 0 0 0 0 0 0 0 0 0 0 0 0 0 0 0.25 0"/>
<feBlend mode="normal" in2="BackgroundImageFix" result="effect1_dropShadow_605_470"/>
<feBlend mode="normal" in="SourceGraphic" in2="effect1_dropShadow_605_470" result="shape"/>
</filter>
<filter id="filter1_d_605_470" x="0" y="0" width="185" height="72" filterUnits="userSpaceOnUse" color-interpolation-filters="sRGB">
<feFlood flood-opacity="0" result="BackgroundImageFix"/>
<feColorMatrix in="SourceAlpha" type="matrix" values="0 0 0 0 0 0 0 0 0 0 0 0 0 0 0 0 0 0 127 0" result="hardAlpha"/>
<feOffset dy="2"/>
<feGaussianBlur stdDeviation="1"/>
<feComposite in2="hardAlpha" operator="out"/>
<feColorMatrix type="matrix" values="0 0 0 0 0 0 0 0 0 0 0 0 0 0 0 0 0 0 0.25 0"/>
<feBlend mode="normal" in2="BackgroundImageFix" result="effect1_dropShadow_605_470"/>
<feBlend mode="normal" in="SourceGraphic" in2="effect1_dropShadow_605_470" result="shape"/>
</filter>
<linearGradient id="paint0_linear_605_470" x1="92.498" y1="-87.4281" x2="92.498" y2="87.348" gradientUnits="userSpaceOnUse">
<stop stop-color="#EFE4BC"/>
<stop offset="1" stop-color="#A5600F"/>
</linearGradient>
<linearGradient id="paint1_linear_605_470" x1="92.498" y1="-87.4281" x2="92.498" y2="87.348" gradientUnits="userSpaceOnUse">
<stop stop-color="#EFE4BC"/>
<stop offset="1" stop-color="#A5600F"/>
</linearGradient>
<linearGradient id="paint2_linear_605_470" x1="93.2604" y1="5.5" x2="93.2604" y2="54" gradientUnits="userSpaceOnUse">
<stop stop-color="#FCFB64"/>
<stop offset="1" stop-color="#FFBF00"/>
</linearGradient>
<linearGradient id="paint3_linear_605_470" x1="93.2604" y1="5.5" x2="93.2604" y2="54" gradientUnits="userSpaceOnUse">
<stop stop-color="#FCFB64"/>
<stop offset="1" stop-color="#FFBF00"/>
</linearGradient>
<linearGradient id="paint4_linear_605_470" x1="93.2604" y1="5.5" x2="93.2604" y2="54" gradientUnits="userSpaceOnUse">
<stop stop-color="#FCFB64"/>
<stop offset="1" stop-color="#FFBF00"/>
</linearGradient>
</defs>
</svg>
