<svg width="284" height="78" viewBox="0 0 284 88" fill="none" xmlns="http://www.w3.org/2000/svg">
<path d="M267.84 14.5611L181.974 11.3267L32.4735 12.4358L19.5119 12.4954L10.415 12.5326L2.98424 17.2111L0 24.2792V47.0691V47.9326L10.41 52.7451L0 53.8468L4.45646 65.7088L2.96932 76.3463L7.42578 84.6576L20.3177 85.495L58.9785 87.9999L187.166 85.8858L221.644 86.4032L267.92 86.9391L275.062 87.021L282.503 82.3499L283.985 70.5326L278.042 69.3043L283.985 66.9892L284 17.3116L278.046 14.8961L267.84 14.5611Z" fill="#643B11"/>
<path d="M284 5.99593L283.985 54.739V55.7644L278.042 58.0837L283.985 59.3142L282.503 71.1532L282.463 71.1756L279.384 73.1108L275.062 75.8329L267.92 75.7508L221.644 75.2139L187.166 74.6956L58.9785 76.8136L20.3177 74.3041L7.42578 73.4651L2.96932 65.1386L4.45646 54.4817L0 42.598L10.41 41.4942L0 36.6729V35.8078V12.9763L2.98424 5.89525L10.415 1.20814L19.5119 1.17085L32.4735 1.11119L181.974 0L267.84 3.24034L278.046 3.57593L284 5.99593Z" fill="#A56F2E"/>
<path d="M283.985 55.7645L278.041 58.0838L283.985 59.3143L282.503 71.1533L275.062 75.8329L267.92 75.7509L187.166 74.6956L58.9785 76.8136L20.3177 74.3041L7.42578 73.4651L2.96932 65.1387L4.45646 54.4817L0 42.598L10.41 41.4943L0 36.6729V12.9763L2.98424 5.8953L10.415 1.20819L19.5119 1.1709L11.9817 6.63361L8.19173 11.6712L21.3373 13.655L8.47524 14.4082L9.33072 22.6153L7.11741 26.1838L12.0464 32.0865L13.5435 38.1943L44.4751 43.8099L9.04224 44.6489L9.75349 51.4875L13.6827 56.0739L11.5838 62.1892L57.7699 65.1909L185.958 63.0692L269.71 64.1617L271.72 62.659L229.632 56.1821L266.721 56.0739L267.796 49.817L272.158 41.9939L262.439 31.5533L268.373 22.2611L268.517 15.3702L237.292 13.7594L269.019 11.9024L270.452 9.0648L267.84 3.24039L278.046 3.57598L284 5.99598L283.985 55.7645Z" fill="#6E3D12"/>
<path d="M123.892 33.93H106.762V36.72H124.222V41.07H115.342V44.76H125.242V49.05H100.162V44.76H110.092V41.07H101.512V29.64H118.642V26.91H101.512V22.59H123.892V33.93Z" fill="#FCE7B3"/>
<path d="M147.441 33.3V27.03H130.131V22.59H152.691V32.55C152.691 35.79 152.451 39.45 151.911 42H146.661C147.201 39.51 147.441 36.12 147.441 33.3ZM154.041 49.05H128.961V44.7H154.041V49.05Z" fill="#FCE7B3"/>
<path d="M168.38 30.36C168.38 28.71 168.05 27.54 167.45 26.85C167 26.4 166.43 26.13 165.71 26.13C164.99 26.13 164.39 26.4 163.97 26.85C163.37 27.54 163.01 28.71 163.01 30.36C163.01 32.04 163.37 33.24 163.97 33.87C164.39 34.38 164.99 34.56 165.71 34.56C166.43 34.56 167 34.38 167.45 33.87C168.05 33.24 168.38 32.04 168.38 30.36ZM158 30.36C158 27.3 158.96 25.08 160.55 23.64C161.87 22.5 163.58 21.96 165.71 21.96C167.81 21.96 169.52 22.5 170.84 23.64C172.46 25.08 173.39 27.3 173.39 30.36C173.39 33.42 172.46 35.7 170.84 37.08C169.52 38.19 167.81 38.79 165.71 38.79C163.58 38.79 161.87 38.19 160.55 37.08C158.96 35.7 158 33.42 158 30.36ZM181.46 22.11V41.82H176.21V22.11H181.46ZM181.82 46.11V50.37H160.01V40.26H165.26V46.11H181.82Z" fill="#FCE7B3"/>
<path fill-rule="evenodd" clip-rule="evenodd" d="M124.892 33.93C124.892 34.4822 124.444 34.93 123.892 34.93H107.762V35.72H124.222C124.774 35.72 125.222 36.1677 125.222 36.72V41.07C125.222 41.6222 124.774 42.07 124.222 42.07H116.342V43.76H125.242C125.794 43.76 126.242 44.2077 126.242 44.76V49.05C126.242 49.6022 125.794 50.05 125.242 50.05H100.162C99.6098 50.05 99.1621 49.6022 99.1621 49.05V44.76C99.1621 44.2077 99.6098 43.76 100.162 43.76H109.092V42.07H101.512C100.96 42.07 100.512 41.6222 100.512 41.07V29.64C100.512 29.0877 100.96 28.64 101.512 28.64H117.642V27.91H101.512C100.96 27.91 100.512 27.4622 100.512 26.91V22.59C100.512 22.0377 100.96 21.59 101.512 21.59H123.892C124.444 21.59 124.892 22.0377 124.892 22.59V33.93ZM118.642 26.91V29.64H101.512V41.07H110.092V44.76H100.162V49.05H125.242V44.76H115.342V41.07H124.222V36.72H106.762V33.93H123.892V22.59H101.512V26.91H118.642ZM146.854 41C147.259 38.6493 147.441 35.7581 147.441 33.3V27.03H130.131V22.59H152.691V32.55C152.691 35.79 152.451 39.45 151.911 42H146.661C146.73 41.6804 146.795 41.346 146.854 41ZM146.441 28.03H130.131C129.579 28.03 129.131 27.5822 129.131 27.03V22.59C129.131 22.0377 129.579 21.59 130.131 21.59H152.691C153.243 21.59 153.691 22.0377 153.691 22.59V32.55C153.691 35.8192 153.45 39.5585 152.889 42.2071C152.791 42.6693 152.383 43 151.911 43H146.661C146.359 43 146.072 42.8631 145.882 42.6277C145.693 42.3923 145.62 42.0836 145.684 41.788C146.203 39.3942 146.441 36.0822 146.441 33.3V28.03ZM155.041 49.05C155.041 49.6022 154.593 50.05 154.041 50.05H128.961C128.409 50.05 127.961 49.6022 127.961 49.05V44.7C127.961 44.1477 128.409 43.7 128.961 43.7H154.041C154.593 43.7 155.041 44.1477 155.041 44.7V49.05ZM164.694 33.1803C164.71 33.1977 164.726 33.2157 164.742 33.2343C164.899 33.4257 165.152 33.56 165.71 33.56C166.243 33.56 166.497 33.4383 166.7 33.2083C166.708 33.1988 166.717 33.1895 166.726 33.1803C167.048 32.8414 167.38 31.9793 167.38 30.36C167.38 28.8306 167.072 27.9608 166.717 27.532C166.448 27.2728 166.134 27.13 165.71 27.13C165.261 27.13 164.934 27.2893 164.713 27.5198C164.344 27.9536 164.01 28.8362 164.01 30.36C164.01 31.9576 164.363 32.8326 164.694 33.1803ZM163.97 26.85C164.39 26.4 164.99 26.13 165.71 26.13C166.43 26.13 167 26.4 167.45 26.85C168.05 27.54 168.38 28.71 168.38 30.36C168.38 32.04 168.05 33.24 167.45 33.87C167 34.38 166.43 34.56 165.71 34.56C164.99 34.56 164.39 34.38 163.97 33.87C163.37 33.24 163.01 32.04 163.01 30.36C163.01 28.71 163.37 27.54 163.97 26.85ZM159.878 22.8988L159.896 22.8831C161.442 21.5481 163.405 20.96 165.71 20.96C167.986 20.96 169.949 21.5492 171.493 22.8831L171.504 22.8926C173.39 24.5689 174.39 27.0928 174.39 30.36C174.39 33.6131 173.397 36.2148 171.488 37.8412L171.483 37.8453C170.054 39.0475 168.253 39.7045 166.138 39.7822C166.216 39.9241 166.26 40.0869 166.26 40.26V45.11H181.82C182.372 45.11 182.82 45.5577 182.82 46.11V50.37C182.82 50.9222 182.372 51.37 181.82 51.37H160.01C159.457 51.37 159.01 50.9222 159.01 50.37V40.26C159.01 39.7077 159.457 39.26 160.01 39.26H162.394C161.47 38.935 160.64 38.462 159.906 37.8453L159.894 37.8352C158.027 36.2147 157 33.6224 157 30.36C157 27.0838 158.035 24.5686 159.878 22.8988ZM165.26 46.11V40.26H160.01V50.37H181.82V46.11H165.26ZM181.46 21.11C182.012 21.11 182.46 21.5577 182.46 22.11V41.82C182.46 42.3722 182.012 42.82 181.46 42.82H176.21C175.657 42.82 175.21 42.3722 175.21 41.82V22.11C175.21 21.5577 175.657 21.11 176.21 21.11H181.46ZM154.041 49.05V44.7H128.961V49.05H154.041ZM160.55 23.64C158.96 25.08 158 27.3 158 30.36C158 33.42 158.96 35.7 160.55 37.08C161.87 38.19 163.58 38.79 165.71 38.79C167.81 38.79 169.52 38.19 170.84 37.08C172.46 35.7 173.39 33.42 173.39 30.36C173.39 27.3 172.46 25.08 170.84 23.64C169.52 22.5 167.81 21.96 165.71 21.96C163.58 21.96 161.87 22.5 160.55 23.64ZM181.46 22.11H176.21V41.82H181.46V22.11Z" fill="#321D07"/>
</svg>
