<svg width="248" height="72" viewBox="0 0 248 72" fill="none" xmlns="http://www.w3.org/2000/svg">
<g filter="url(#filter0_d_1197_1436)">
<rect x="7" y="3" width="234" height="58" rx="27" fill="#965E2E" stroke="#503315" stroke-width="6"/>
<rect x="15" y="11.7334" width="218" height="40.5333" rx="20" fill="#6E3D12"/>
</g>
<path d="M87.9499 33.103H99.2929V35.364H93.5549V38.214H99.9769V40.475H84.4729V38.214H90.9709V35.364H85.3469V28.562H96.4999V26.358H85.3469V24.097H99.1029V30.823H87.9499V33.103Z" fill="white"/>
<path d="M117.779 26.377H106.531V24.097H120.382V29.854C120.382 31.982 120.211 34.3 119.869 36.01H117.285C117.627 34.338 117.779 32.02 117.779 30.196V26.377ZM105.752 38.214H121.256V40.475H105.752V38.214Z" fill="white"/>
<path d="M136.398 32.058C136.398 35.117 136.151 37.454 135.087 38.841C134.365 39.791 133.206 40.304 131.838 40.304C130.47 40.304 129.311 39.791 128.589 38.841C127.525 37.454 127.278 35.117 127.278 32.058C127.278 29.018 127.525 26.681 128.589 25.294C129.311 24.344 130.47 23.812 131.838 23.812C133.206 23.812 134.365 24.344 135.087 25.294C136.151 26.681 136.398 29.018 136.398 32.058ZM129.862 32.058C129.862 34.642 129.976 36.561 130.546 37.416C130.831 37.834 131.306 38.062 131.838 38.062C132.37 38.062 132.826 37.834 133.111 37.416C133.681 36.561 133.814 34.642 133.814 32.058C133.814 29.493 133.681 27.574 133.111 26.719C132.826 26.301 132.37 26.073 131.838 26.073C131.306 26.073 130.831 26.301 130.546 26.719C129.976 27.574 129.862 29.493 129.862 32.058ZM141.186 30.709H143.808V32.951H141.186V41.235H138.583V23.793H141.186V30.709Z" fill="white"/>
<path d="M149.014 27.327C149.014 26.32 149.432 25.541 150.211 24.99C151.408 24.135 153.46 23.793 156.082 23.793C158.704 23.793 160.756 24.135 161.953 24.99C162.732 25.541 163.15 26.32 163.15 27.327C163.15 28.353 162.732 29.113 161.953 29.664C160.756 30.519 158.704 30.861 156.082 30.861C153.46 30.861 151.408 30.519 150.211 29.664C149.432 29.113 149.014 28.353 149.014 27.327ZM151.617 27.327C151.617 27.65 151.807 27.916 152.168 28.125C152.909 28.543 154.353 28.695 156.082 28.695C157.811 28.695 159.255 28.543 160.015 28.125C160.357 27.916 160.547 27.65 160.547 27.327C160.547 27.004 160.357 26.738 160.015 26.529C159.255 26.111 157.811 25.959 156.082 25.959C154.353 25.959 152.909 26.111 152.168 26.529C151.807 26.738 151.617 27.004 151.617 27.327ZM157.336 33.806V35.44H154.771V33.806H148.216V31.602H163.91V33.806H157.336ZM156.044 39.316C154.429 40.741 151.522 41.368 148.691 41.425V39.221C151.902 39.107 154.733 38.176 154.733 36.01V35.725H157.336V36.01C157.336 38.157 160.167 39.031 163.397 39.221V41.425C160.376 41.406 157.64 40.703 156.044 39.316Z" fill="white"/>
<defs>
<filter id="filter0_d_1197_1436" x="0" y="0" width="248" height="72" filterUnits="userSpaceOnUse" color-interpolation-filters="sRGB">
<feFlood flood-opacity="0" result="BackgroundImageFix"/>
<feColorMatrix in="SourceAlpha" type="matrix" values="0 0 0 0 0 0 0 0 0 0 0 0 0 0 0 0 0 0 127 0" result="hardAlpha"/>
<feOffset dy="4"/>
<feGaussianBlur stdDeviation="2"/>
<feComposite in2="hardAlpha" operator="out"/>
<feColorMatrix type="matrix" values="0 0 0 0 0 0 0 0 0 0 0 0 0 0 0 0 0 0 0.25 0"/>
<feBlend mode="normal" in2="BackgroundImageFix" result="effect1_dropShadow_1197_1436"/>
<feBlend mode="normal" in="SourceGraphic" in2="effect1_dropShadow_1197_1436" result="shape"/>
</filter>
</defs>
</svg>
