<svg width="28" height="28" viewBox="0 0 28 28" fill="none" xmlns="http://www.w3.org/2000/svg">
<rect width="28" height="28" rx="8" fill="black"/>
<path d="M17.4732 13.9604C17.4732 14.1325 17.4579 14.3034 17.4314 14.4724C17.4408 14.4187 17.4505 14.3633 17.4582 14.3093C17.401 14.6399 17.2921 14.9613 17.132 15.2686C17.1568 15.2194 17.1836 15.1702 17.2084 15.121C17.0462 15.4285 16.8365 15.7159 16.5846 15.9804C16.6247 15.9388 16.6648 15.8975 16.705 15.8559C16.4569 16.1111 16.1725 16.3417 15.854 16.5416C15.9056 16.5092 15.9569 16.4769 16.0086 16.4446C15.6803 16.6476 15.3237 16.8165 14.942 16.9473C15.003 16.9273 15.0641 16.9056 15.1252 16.8857C14.7435 17.0147 14.3429 17.1024 13.9347 17.1486C14.0014 17.141 14.0701 17.1331 14.1371 17.1269C13.7153 17.1716 13.2879 17.1716 12.8643 17.1269C12.931 17.1345 12.9997 17.1424 13.0667 17.1486C12.6564 17.1024 12.2576 17.0147 11.8762 16.8857C11.9373 16.9056 11.9984 16.9273 12.0594 16.9473C11.6777 16.8165 11.3211 16.6476 10.9928 16.4446C11.0445 16.4769 11.0958 16.5092 11.1474 16.5416C10.8306 16.3417 10.5445 16.1125 10.2964 15.8559C10.3366 15.8975 10.3767 15.9388 10.4168 15.9804C10.1649 15.7159 9.95522 15.4285 9.79298 15.121C9.81775 15.1702 9.84462 15.2194 9.86939 15.2686C9.70925 14.961 9.60039 14.6382 9.54317 14.3093C9.55259 14.363 9.56236 14.4184 9.57004 14.4724C9.54143 14.3017 9.52817 14.1311 9.52817 13.9604C9.52643 13.6391 9.17718 13.3301 8.76479 13.3453C8.351 13.3607 7.99826 13.616 8.00001 13.9604C8.00384 14.8536 8.34332 15.7608 8.99227 16.4882C9.16602 16.6835 9.35477 16.8742 9.56271 17.0479C9.76891 17.22 9.99569 17.3693 10.2326 17.5152C10.6694 17.7842 11.1561 17.9855 11.6732 18.1379C12.7167 18.4486 13.9075 18.4716 14.9758 18.2301C16.0194 17.9934 16.9984 17.4966 17.6909 16.8219C17.8818 16.6358 18.0629 16.442 18.2174 16.2346C18.3737 16.0254 18.4979 15.8041 18.6145 15.5781C18.828 15.1614 18.9389 14.72 18.9846 14.2728C18.9962 14.1699 19 14.0653 19 13.9607C19.0017 13.6393 18.649 13.3304 18.2366 13.3455C17.8207 13.361 17.4732 13.616 17.4732 13.9607V13.9604Z" fill="white"/>
<path d="M13.4993 15.1041C13.3754 15.1041 13.2512 15.0947 13.1291 15.0795C13.1807 15.0871 13.2303 15.0927 13.2819 15.1003C13.0509 15.0681 12.8276 15.0074 12.612 14.9184C12.6577 14.9375 12.7034 14.9562 12.7495 14.9752C12.5911 14.909 12.4365 14.8273 12.2935 14.7327C12.2593 14.7098 12.2247 14.6853 12.1905 14.6607C12.1103 14.6038 12.223 14.6946 12.2362 14.6967C12.2247 14.695 12.1982 14.6662 12.1867 14.6568C12.118 14.6018 12.0531 14.5432 11.992 14.4805C11.9327 14.4216 11.8755 14.361 11.8221 14.2969C11.8088 14.2817 11.7952 14.2647 11.782 14.2477C11.7401 14.1964 11.8699 14.3651 11.8183 14.2931C11.7935 14.2591 11.7687 14.2248 11.7457 14.1909C11.6466 14.045 11.5625 13.8895 11.4938 13.7287C11.513 13.7741 11.5318 13.8195 11.551 13.8652C11.4613 13.6511 11.4003 13.4294 11.3678 13.2001C11.3755 13.2513 11.3811 13.3005 11.3888 13.3518C11.3507 13.0733 11.364 12.7871 11.364 12.5048V8.85944C11.364 8.53726 11.3469 8.20571 11.3888 7.88561C11.3811 7.93688 11.3755 7.98607 11.3678 8.03735C11.4003 7.808 11.4613 7.58628 11.551 7.37253C11.5318 7.41792 11.513 7.4633 11.4938 7.50903C11.5604 7.35175 11.6428 7.19827 11.738 7.05623C11.761 7.02228 11.7858 6.98799 11.8106 6.95404C11.8678 6.87435 11.7764 6.98625 11.7743 6.99942C11.776 6.98799 11.805 6.96166 11.8144 6.95022C11.8699 6.88198 11.9289 6.81754 11.992 6.75691C12.0513 6.69802 12.1124 6.6412 12.1769 6.5882C12.1923 6.57503 12.2094 6.56152 12.2265 6.54836C12.2781 6.50678 12.1082 6.63566 12.1808 6.58439C12.215 6.55979 12.2495 6.53519 12.2837 6.51233C12.4306 6.41394 12.5872 6.33045 12.7491 6.2622L12.6117 6.31901C12.8273 6.22998 13.0506 6.16935 13.2816 6.13713C13.2299 6.14476 13.1804 6.1503 13.1288 6.15792C13.3747 6.1257 13.6228 6.1257 13.8691 6.15792C13.8175 6.1503 13.768 6.14476 13.7163 6.13713C13.9473 6.16935 14.1706 6.22998 14.3862 6.31901L14.2487 6.2622C14.4071 6.32837 14.5617 6.41013 14.7048 6.50471C14.739 6.52757 14.7735 6.55217 14.8077 6.57676C14.8879 6.63358 14.7752 6.54281 14.762 6.54073C14.7735 6.54247 14.8 6.57122 14.8115 6.58057C14.8803 6.63566 14.9452 6.69421 15.0062 6.75691C15.0655 6.81581 15.1228 6.87643 15.1761 6.94052C15.1894 6.95577 15.203 6.97274 15.2163 6.98972C15.2581 7.04099 15.1283 6.87228 15.18 6.94433C15.2048 6.97829 15.2295 7.01258 15.2526 7.04653C15.3516 7.19238 15.4357 7.34793 15.5045 7.50868C15.4853 7.4633 15.4664 7.41792 15.4472 7.37219C15.5369 7.58628 15.598 7.808 15.6304 8.037C15.6227 7.98573 15.6172 7.93653 15.6095 7.88526C15.6475 8.1638 15.6343 8.44995 15.6343 8.73195V12.378C15.6343 12.7002 15.6514 13.0317 15.6095 13.3518C15.6172 13.3005 15.6227 13.2513 15.6304 13.2001C15.598 13.4294 15.5369 13.6511 15.4472 13.8652C15.4664 13.8199 15.4853 13.7745 15.5045 13.7287C15.4378 13.886 15.3555 14.0395 15.2602 14.1815C15.2372 14.2155 15.2124 14.2498 15.1877 14.2837C15.1304 14.3634 15.2218 14.2515 15.2239 14.2383C15.2222 14.2498 15.1932 14.2761 15.1838 14.2875C15.1283 14.3558 15.0694 14.4202 15.0062 14.4809C14.9469 14.5397 14.8858 14.5966 14.8213 14.6496C14.8059 14.6627 14.7889 14.6762 14.7718 14.6894C14.7201 14.731 14.89 14.6021 14.8175 14.6534C14.7833 14.678 14.7487 14.7026 14.7145 14.7254C14.5676 14.8238 14.411 14.9073 14.2491 14.9756C14.2948 14.9565 14.3405 14.9378 14.3866 14.9188C14.1709 15.0078 13.9476 15.0684 13.7167 15.1006C13.7683 15.093 13.8178 15.0875 13.8695 15.0798C13.7474 15.0951 13.6235 15.1041 13.4993 15.1041C13.1996 15.1058 12.9135 15.3639 12.9267 15.6729C12.94 15.9799 13.1786 16.2432 13.4993 16.2414C14.3063 16.2376 15.0715 15.9383 15.6782 15.4117C16.2354 14.9305 16.6265 14.2276 16.7333 13.5022C16.7734 13.2274 16.779 12.9603 16.779 12.6856V9.85892C16.779 9.32263 16.7808 8.78842 16.779 8.25214C16.7752 7.4678 16.487 6.73439 15.9853 6.13402C15.5177 5.57694 14.8196 5.17161 14.098 5.05036C13.3098 4.91767 12.4972 5.04482 11.8085 5.4595C11.1313 5.86865 10.6236 6.50921 10.3738 7.25544C10.1602 7.89392 10.2154 8.59858 10.2154 9.26166L10.2154 12.9409C10.2154 13.5264 10.3623 14.106 10.6599 14.6139C11.0569 15.2884 11.6864 15.7904 12.4229 16.0558C12.7624 16.1787 13.1347 16.2376 13.4972 16.2376C13.7969 16.2376 14.083 15.9761 14.0698 15.6691C14.0582 15.366 13.8199 15.1041 13.4993 15.1041Z" fill="white"/>
<path d="M12.7354 18.1112V21.2409C12.7354 21.6369 13.0864 22.0176 13.4988 21.9989C13.9129 21.9799 14.2622 21.6657 14.2622 21.2409V18.1112C14.2622 17.7152 13.9112 17.3345 13.4988 17.3532C13.0846 17.3702 12.7354 17.6847 12.7354 18.1112Z" fill="white"/>
</svg>
