<svg width="125" height="39" viewBox="0 0 125 39" fill="none" xmlns="http://www.w3.org/2000/svg">
<path d="M51.035 16.558H40.757V18.232H51.233V20.842H45.905V23.056H51.845V25.63H36.797V23.056H42.755V20.842H37.607V13.984H47.885V12.346H37.607V9.75398H51.035V16.558Z" fill="white"/>
<path d="M66.0643 16.18V12.418H55.6783V9.75398H69.2143V15.73C69.2143 17.674 69.0703 19.87 68.7463 21.4H65.5963C65.9203 19.906 66.0643 17.872 66.0643 16.18ZM70.0243 25.63H54.9763V23.02H70.0243V25.63Z" fill="white"/>
<path d="M79.5276 14.416C79.5276 13.426 79.3296 12.724 78.9696 12.31C78.6996 12.04 78.3576 11.878 77.9256 11.878C77.4936 11.878 77.1336 12.04 76.8816 12.31C76.5216 12.724 76.3056 13.426 76.3056 14.416C76.3056 15.424 76.5216 16.144 76.8816 16.522C77.1336 16.828 77.4936 16.936 77.9256 16.936C78.3576 16.936 78.6996 16.828 78.9696 16.522C79.3296 16.144 79.5276 15.424 79.5276 14.416ZM73.2996 14.416C73.2996 12.58 73.8756 11.248 74.8296 10.384C75.6216 9.69998 76.6476 9.37598 77.9256 9.37598C79.1856 9.37598 80.2116 9.69998 81.0036 10.384C81.9756 11.248 82.5336 12.58 82.5336 14.416C82.5336 16.252 81.9756 17.62 81.0036 18.448C80.2116 19.114 79.1856 19.474 77.9256 19.474C76.6476 19.474 75.6216 19.114 74.8296 18.448C73.8756 17.62 73.2996 16.252 73.2996 14.416ZM87.3756 9.46598V21.292H84.2256V9.46598H87.3756ZM87.5916 23.866V26.422H74.5056V20.356H77.6556V23.866H87.5916Z" fill="white"/>
<path d="M35.681 26.8H89.3196V27.7H35.681V26.8Z" fill="white"/>
</svg>
