<svg width="125" height="39" viewBox="0 0 125 39" fill="none" xmlns="http://www.w3.org/2000/svg">
<path d="M31.3254 10.87V8.99805H34.4754V10.87H37.7514V13.39H28.0674V10.87H31.3254ZM31.4514 17.71C31.4514 18.196 31.6314 18.574 31.9194 18.826C32.1714 19.06 32.5314 19.186 32.9454 19.186C33.3414 19.186 33.7014 19.06 33.9534 18.826C34.2414 18.574 34.4214 18.196 34.4214 17.71C34.4214 17.242 34.2414 16.846 33.9534 16.594C33.7014 16.36 33.3414 16.252 32.9454 16.252C32.5314 16.252 32.1714 16.36 31.9194 16.594C31.6314 16.846 31.4514 17.242 31.4514 17.71ZM28.4634 17.71C28.4634 16.396 29.0214 15.352 29.9754 14.668C30.7494 14.11 31.7574 13.804 32.9454 13.804C34.1154 13.804 35.1414 14.11 35.8974 14.668C36.8514 15.352 37.4094 16.396 37.4094 17.71C37.4094 19.024 36.8514 20.086 35.8974 20.752C35.5014 21.04 35.0154 21.274 34.4934 21.418V22.876H35.9874C37.3734 22.876 38.2014 22.678 38.7594 22.156V9.46605H41.9094V26.35H38.7594V24.64C38.1834 25.198 37.2114 25.45 35.6274 25.45H27.7614V22.876H31.3794V21.418C30.8574 21.274 30.3894 21.04 29.9754 20.752C29.0214 20.086 28.4634 19.024 28.4634 17.71Z" fill="white"/>
<path d="M53.0687 12.706C53.0687 12.436 52.9607 12.22 52.7807 12.058C52.4567 11.788 51.8627 11.662 51.1427 11.662C50.4047 11.662 49.8107 11.788 49.4867 12.058C49.2887 12.22 49.1807 12.436 49.1807 12.706C49.1807 12.994 49.2887 13.21 49.4867 13.354C49.8107 13.624 50.4047 13.768 51.1427 13.768C51.8627 13.768 52.4567 13.624 52.7807 13.354C52.9607 13.21 53.0687 12.994 53.0687 12.706ZM46.3187 12.706C46.3187 11.77 46.6967 11.014 47.3447 10.492C48.1907 9.77205 49.5407 9.43005 51.1427 9.43005C52.7087 9.43005 54.0587 9.77205 54.9047 10.492C55.5707 11.014 55.9487 11.77 55.9487 12.706C55.9487 13.642 55.5707 14.398 54.9047 14.938C54.0587 15.658 52.7087 15.982 51.1427 15.982C49.5407 15.982 48.1907 15.658 47.3447 14.938C46.6967 14.398 46.3187 13.642 46.3187 12.706ZM60.1067 9.46605V22.354H56.9567V21.454H53.6267V19.222H56.9567V9.46605H60.1067ZM48.8927 18.754H45.7427V16.342H53.6627C54.6887 16.342 55.6067 16.342 56.3987 16.144V18.448C55.6247 18.7 54.6707 18.754 53.5727 18.754H52.0067V21.166H48.8927V18.754ZM60.3227 24.01V26.494H47.2367V21.598H50.3867V24.01H60.3227Z" fill="white"/>
<path d="M69.952 13.786V12.364H64.48V9.75405H73.084V13.426C73.084 20.41 70.384 24.154 64.39 25.45V22.678C68.206 21.58 69.952 18.736 69.952 13.786ZM74.722 9.46605H77.872V15.964H80.194V18.592H77.872V26.332H74.722V9.46605Z" fill="white"/>
<path d="M88.6173 13.876C88.6173 13.174 88.4193 12.634 88.0773 12.292C87.8073 12.022 87.4473 11.86 87.0153 11.86C86.5833 11.86 86.2053 12.022 85.9533 12.292C85.6113 12.634 85.3953 13.174 85.3953 13.876C85.3953 14.596 85.6113 15.136 85.9533 15.478C86.2053 15.748 86.5833 15.892 87.0153 15.892C87.4473 15.892 87.8073 15.748 88.0773 15.478C88.4193 15.136 88.6173 14.596 88.6173 13.876ZM82.3893 13.876C82.3893 12.31 82.9653 11.104 83.9193 10.366C84.7113 9.70005 85.7553 9.37605 87.0153 9.37605C88.2753 9.37605 89.3193 9.70005 90.1113 10.366C91.0653 11.104 91.6233 12.31 91.6233 13.876C91.6233 15.46 91.0653 16.648 90.1113 17.404C89.3193 18.07 88.2753 18.394 87.0153 18.394C85.7553 18.394 84.7113 18.07 83.9193 17.404C82.9653 16.648 82.3893 15.46 82.3893 13.876ZM96.4653 9.46605V18.466H93.3153V9.46605H96.4653ZM86.7093 20.464H93.3513V19.006H96.4653V26.494H83.5953V19.006H86.7093V20.464ZM93.3513 24.046V22.948H86.7093V24.046H93.3513Z" fill="white"/>
<path d="M26.5914 26.8H98.4093V27.7H26.5914V26.8Z" fill="white"/>
</svg>
