<svg width="185" height="70" viewBox="0 0 185 70" fill="none" xmlns="http://www.w3.org/2000/svg">
<path d="M172.453 67.338C129.471 69.7389 5.02943 73.9339 1.67959 61.5045C-2.93504 44.3833 3.67997 19.7901 1.32502 6.31769C0.891078 3.8523 3.44183 1.65621 6.79167 1.58794C37.1043 0.958313 151.692 -1.24157 179.533 0.950727C182.64 1.19347 184.899 3.24164 184.598 5.54773C183.222 15.9782 179.724 45.2102 181.671 59.1301C182.253 63.3099 178.11 67.0232 172.458 67.3418L172.453 67.338Z" fill="#643B11"/>
<path d="M167.658 65.2292C127.248 67.4102 10.2527 71.222 7.10397 59.9268C2.76453 44.3682 8.98264 22.028 6.76529 9.78449C6.3578 7.54288 8.75508 5.55161 11.9038 5.48713C40.4013 4.9144 148.136 2.91554 174.31 4.90681C177.231 5.13059 179.359 6.98912 179.073 9.08281C177.782 18.5613 174.49 45.1192 176.321 57.7686C176.872 61.5653 172.971 64.941 167.658 65.2292Z" fill="#6E3D12"/>
<path d="M158.784 61.77C123.131 63.6968 19.9159 67.0574 17.1376 57.0934C13.3115 43.3706 18.794 23.6589 16.8413 12.8567C16.4814 10.8806 18.5982 9.12067 21.3765 9.06377C46.5189 8.55932 141.563 6.79561 164.652 8.55173C167.23 8.74896 169.103 10.3875 168.854 12.2346C167.716 20.5942 164.811 44.0268 166.425 55.1855C166.912 58.5347 163.467 61.5121 158.784 61.7662V61.77Z" fill="#643B11"/>
<path d="M155.587 61.9518C121.649 63.7117 23.398 66.7802 20.752 57.681C17.1111 45.1454 22.329 27.1405 20.4662 17.2789C20.1276 15.4735 22.1385 13.8691 24.7845 13.816C48.7203 13.3532 139.192 11.7451 161.175 13.3495C163.626 13.5277 165.414 15.0259 165.171 16.7138C164.086 24.3489 161.324 45.7523 162.858 55.9438C163.319 59.0047 160.043 61.7242 155.582 61.9556L155.587 61.9518Z" fill="url(#paint0_linear_745_766)"/>
<path d="M19.0956 52.8716C18.4765 53.505 53.0174 57.7265 66.5226 56.3724C56.9705 59.8581 18.2648 55.3863 18.2648 55.3863L19.0956 52.8716Z" fill="#965E2E"/>
<path d="M19.3603 20.8255C19.3603 20.8255 25.5678 20.4007 39.8086 19.8469C27.4624 18.216 18.2701 18.2653 18.2701 18.2653L19.3603 20.8255Z" fill="#965E2E"/>
<path d="M166.261 16.6911C166.261 16.6911 160.08 16.6305 145.876 16.6343C158.286 15.9515 167.468 15.8491 167.468 15.8491L166.266 16.6911H166.261Z" fill="#965E2E"/>
<path d="M179.497 6.54515C179.497 6.54515 173.315 6.48446 159.112 6.48826C171.521 5.80553 180.703 5.70312 180.703 5.70312L179.502 6.54515H179.497Z" fill="#965E2E"/>
<path d="M165.801 29.3787C165.801 29.3787 162.16 29.2725 153.793 29.1587C161.091 28.6087 166.499 28.5859 166.499 28.5859L165.806 29.3787H165.801Z" fill="#965E2E"/>
<path d="M163.763 53.3798C163.763 53.3798 157.349 53.0271 142.627 52.5682C155.444 51.2672 164.954 51.3127 164.954 51.3127L163.763 53.3798Z" fill="#965E2E"/>
<path d="M74.2225 16.566C74.2225 16.566 101.095 15.064 122.47 16.566C112.288 14.5823 78.4879 15.3182 74.2225 16.566Z" fill="#965E2E"/>
<path d="M98.9998 57.2716C98.9998 57.2716 119.501 58.8267 135.663 56.5244C128.026 59.2894 102.302 58.8457 98.9998 57.2716Z" fill="#965E2E"/>
<path d="M51.5463 62.9725C51.5463 62.9725 105.594 64.1256 148.533 62.3467C128.09 64.4631 60.1299 64.1635 51.5463 62.9725Z" fill="#965E2E"/>
<path d="M28.5577 47.3799C28.5577 47.3799 42.5604 51.2335 54.5891 50.7821C48.4345 52.6482 30.4417 49.3067 28.5577 47.3799Z" fill="#965E2E"/>
<path d="M50.4289 26.2562V28.9842H53.7949V26.2562H57.4469V37.3222H46.7549V26.2562H50.4289ZM50.4289 34.3302H53.7949V31.9762H50.4289V34.3302ZM59.5149 26.0142H63.3649V30.3042H66.0709V33.5162H63.3649V37.8722H59.5149V26.0142ZM47.5689 42.6462C47.5689 41.0842 48.2949 40.0062 49.5709 39.3022C51.0229 38.4662 53.2009 38.1362 55.7089 38.1362C58.1949 38.1362 60.3729 38.4662 61.8249 39.3022C63.0789 40.0062 63.8269 41.0842 63.8269 42.6462C63.8269 44.1422 63.0789 45.2422 61.8249 45.9462C60.3729 46.7822 58.1949 47.0902 55.7089 47.0902C53.2009 47.0902 51.0229 46.7822 49.5709 45.9462C48.2949 45.2422 47.5689 44.1422 47.5689 42.6462ZM51.3749 42.6462C51.3749 42.9762 51.5509 43.2622 51.8809 43.4602C52.5409 43.8562 53.8609 44.0322 55.7089 44.0322C57.5789 44.0322 58.8329 43.8562 59.4929 43.4602C59.8449 43.2622 60.0209 42.9762 60.0209 42.6462C60.0209 42.2722 59.8449 42.0082 59.4929 41.7662C58.8329 41.3702 57.5789 41.2382 55.7089 41.2382C53.8609 41.2382 52.5409 41.3702 51.8809 41.7662C51.5509 42.0082 51.3749 42.2722 51.3749 42.6462Z" fill="url(#paint1_linear_745_766)"/>
<path d="M85.9558 37.7842H75.2638V26.2562H85.9558V37.7842ZM82.3038 34.7482V29.3362H78.9378V34.7482H82.3038ZM88.0238 26.0142H91.8738V31.2062H94.5798V34.3962H91.8738V40.4682H88.0238V26.0142ZM76.3418 39.2362H80.1918V43.6142H92.1598V46.7382H76.3418V39.2362Z" fill="url(#paint2_linear_745_766)"/>
<path d="M113.829 26.2562V28.9842H101.487V30.1722H113.939V32.9002H97.6809V26.2562H113.829ZM115.083 36.4862H96.4269V33.6922H115.083V36.4862ZM113.829 43.4602H101.465V44.2302H114.247V46.8262H97.6809V40.8642H110.023V40.0722H97.6809V37.4542H113.829V43.4602Z" fill="url(#paint3_linear_745_766)"/>
<path d="M125.268 31.2942V29.5562H118.756V26.3662H129.096V30.8542C129.096 39.5002 125.862 43.9662 118.624 45.5502V42.1622C123.222 40.8202 125.268 37.3442 125.268 31.2942ZM131.626 26.0142H135.476V46.6282H131.626V26.0142Z" fill="url(#paint4_linear_745_766)"/>
<path fill-rule="evenodd" clip-rule="evenodd" d="M50.4289 25.2562C50.9812 25.2562 51.4289 25.7039 51.4289 26.2562V27.9842H52.7949V26.2562C52.7949 25.7039 53.2426 25.2562 53.7949 25.2562H57.4469C57.9992 25.2562 58.4469 25.7039 58.4469 26.2562V37.2885C58.4696 37.2912 58.4923 37.2941 58.5149 37.2969V26.0142C58.5149 25.4619 58.9626 25.0142 59.5149 25.0142H63.3649C63.9172 25.0142 64.3649 25.4619 64.3649 26.0142V29.3042H66.0709C66.6232 29.3042 67.0709 29.7519 67.0709 30.3042V33.5162C67.0709 34.0684 66.6232 34.5162 66.0709 34.5162H64.3649V37.8722C64.3649 38.4244 63.9172 38.8722 63.3649 38.8722H62.9902C64.129 39.739 64.8269 40.9889 64.8269 42.6462C64.8269 44.5456 63.8456 45.9569 62.3188 46.8157C60.6276 47.7873 58.2264 48.0902 55.7089 48.0902C53.1716 48.0902 50.7713 47.7878 49.0799 46.8174C47.5196 45.9535 46.5689 44.5361 46.5689 42.6462C46.5689 41.7041 46.7899 40.8575 47.2403 40.1274C47.687 39.4032 48.3254 38.8487 49.0798 38.431C49.1447 38.3938 49.2106 38.3575 49.2775 38.3222H46.7549C46.2026 38.3222 45.7549 37.8744 45.7549 37.3222V26.2562C45.7549 25.7039 46.2026 25.2562 46.7549 25.2562H50.4289ZM57.4469 37.3222V26.2562H53.7949V28.9842H50.4289V26.2562H46.7549V37.3222H57.4469ZM52.7646 38.3222C51.5062 38.5007 50.4157 38.8158 49.5709 39.3022C48.2949 40.0062 47.5689 41.0842 47.5689 42.6462C47.5689 44.1422 48.2949 45.2422 49.5709 45.9462C51.0229 46.7822 53.2009 47.0902 55.7089 47.0902C58.1949 47.0902 60.3729 46.7822 61.8249 45.9462C63.0789 45.2422 63.8269 44.1422 63.8269 42.6462C63.8269 41.0842 63.0789 40.0062 61.8249 39.3022C61.5437 39.1403 61.2353 38.9974 60.9028 38.8722C60.4776 38.7121 60.0128 38.5809 59.5149 38.476C59.2274 38.4154 58.9289 38.3636 58.6205 38.32C58.3745 38.2853 58.1222 38.2557 57.8642 38.2312C57.7267 38.2181 57.5875 38.2064 57.4469 38.1961C56.8893 38.1553 56.3081 38.1362 55.7089 38.1362C54.6601 38.1362 53.669 38.1939 52.7646 38.3222ZM63.3649 37.8722V33.5162H66.0709V30.3042H63.3649V26.0142H59.5149V37.8722H63.3649ZM58.9532 42.6092C58.9553 42.6108 58.9574 42.6123 58.9594 42.6137C58.7885 42.7105 58.4639 42.8229 57.9078 42.9055C57.3452 42.989 56.618 43.0322 55.7089 43.0322C54.8115 43.0322 54.0717 42.9891 53.4932 42.9051C52.9207 42.8219 52.5856 42.7091 52.4175 42.6154C52.4223 42.6114 52.4274 42.6071 52.433 42.6027C52.5962 42.5175 52.918 42.4172 53.4765 42.3455C54.0587 42.2709 54.8022 42.2382 55.7089 42.2382C56.6273 42.2382 57.3583 42.271 57.9247 42.3452C58.4784 42.4177 58.7914 42.5202 58.9532 42.6092ZM51.8809 41.7662C52.5409 41.3702 53.8609 41.2382 55.7089 41.2382C57.5789 41.2382 58.8329 41.3702 59.4929 41.7662C59.8449 42.0082 60.0209 42.2722 60.0209 42.6462C60.0209 42.9762 59.8449 43.2622 59.4929 43.4602C58.8329 43.8562 57.5789 44.0322 55.7089 44.0322C53.8609 44.0322 52.5409 43.8562 51.8809 43.4602C51.5509 43.2622 51.3749 42.9762 51.3749 42.6462C51.3749 42.2722 51.5509 42.0082 51.8809 41.7662ZM53.7949 34.3302H50.4289V31.9762H53.7949V34.3302ZM52.7949 32.9762H51.4289V33.3302H52.7949V32.9762ZM86.9558 37.7842C86.9558 38.3364 86.5081 38.7842 85.9558 38.7842H81.084C81.153 38.9199 81.1918 39.0735 81.1918 39.2362V42.6142H92.1598C92.7121 42.6142 93.1598 43.0619 93.1598 43.6142V46.7382C93.1598 47.2904 92.7121 47.7382 92.1598 47.7382H76.3418C75.7895 47.7382 75.3418 47.2904 75.3418 46.7382V39.2362C75.3418 39.0735 75.3806 38.9199 75.4495 38.7842H75.2638C74.7115 38.7842 74.2638 38.3364 74.2638 37.7842V26.2562C74.2638 25.7039 74.7115 25.2562 75.2638 25.2562H85.9558C86.5081 25.2562 86.9558 25.7039 86.9558 26.2562V37.7842ZM80.1918 43.6142V39.2362H76.3418V46.7382H92.1598V43.6142H80.1918ZM87.0238 26.0142C87.0238 25.4619 87.4715 25.0142 88.0238 25.0142H91.8738C92.4261 25.0142 92.8738 25.4619 92.8738 26.0142V30.2062H94.5798C95.1321 30.2062 95.5798 30.6539 95.5798 31.2062V33.1606C95.7567 32.8792 96.07 32.6922 96.4269 32.6922H96.6809V26.2562C96.6809 25.7039 97.1287 25.2562 97.6809 25.2562H113.829C114.381 25.2562 114.829 25.7039 114.829 26.2562V28.9842C114.829 29.1747 114.776 29.3527 114.683 29.5043C114.842 29.6813 114.939 29.9154 114.939 30.1722V32.6922H115.083C115.635 32.6922 116.083 33.1399 116.083 33.6922V36.4862C116.083 37.0384 115.635 37.4862 115.083 37.4862H114.829V43.4169C115.082 43.5983 115.247 43.895 115.247 44.2302V46.8262C115.247 47.3784 114.799 47.8262 114.247 47.8262H97.6809C97.1287 47.8262 96.6809 47.3784 96.6809 46.8262V40.8642C96.6809 40.7235 96.71 40.5896 96.7624 40.4682C96.71 40.3467 96.6809 40.2128 96.6809 40.0722V37.4862H96.4269C95.8747 37.4862 95.4269 37.0384 95.4269 36.4862V34.9278C95.25 35.2092 94.9367 35.3962 94.5798 35.3962H92.8738V40.4682C92.8738 41.0204 92.4261 41.4682 91.8738 41.4682H88.0238C87.4715 41.4682 87.0238 41.0204 87.0238 40.4682V26.0142ZM91.8738 34.3962H94.5798V31.2062H91.8738V26.0142H88.0238V40.4682H91.8738V34.3962ZM115.083 36.4862V33.6922H96.4269V36.4862H115.083ZM97.6809 40.0722H110.023V40.8642H97.6809V46.8262H114.247V44.2302H101.465V43.4602H113.829V37.4542H97.6809V40.0722ZM113.939 30.1722H101.487V28.9842H113.829V26.2562H97.6809V32.9002H113.939V30.1722ZM78.9378 29.3362V34.7482H82.3038V29.3362H78.9378ZM81.3038 30.3362H79.9378V33.7482H81.3038V30.3362ZM118.624 42.1622C123.222 40.8202 125.268 37.3442 125.268 31.2942V29.5562H118.756V26.3662H129.096V30.8542C129.096 39.0913 126.161 43.5345 119.624 45.306C119.3 45.3939 118.966 45.4753 118.624 45.5502V42.1622ZM124.268 30.5562H118.756C118.204 30.5562 117.756 30.1084 117.756 29.5562V26.3662C117.756 25.8139 118.204 25.3662 118.756 25.3662H129.096C129.648 25.3662 130.096 25.8139 130.096 26.3662V30.8542C130.096 35.2862 129.27 38.8011 127.388 41.4322C125.491 44.0844 122.622 45.6988 118.838 46.527C118.542 46.5918 118.233 46.519 117.997 46.3292C117.761 46.1394 117.624 45.8529 117.624 45.5502V42.1622C117.624 41.7178 117.917 41.3267 118.344 41.2022C120.441 40.5902 121.878 39.5229 122.815 37.9755C123.771 36.3981 124.268 34.2211 124.268 31.2942V30.5562ZM130.626 26.0142C130.626 25.4619 131.074 25.0142 131.626 25.0142H135.476C136.028 25.0142 136.476 25.4619 136.476 26.0142V46.6282C136.476 47.1804 136.028 47.6282 135.476 47.6282H131.626C131.074 47.6282 130.626 47.1804 130.626 46.6282V26.0142ZM85.9558 37.7842V26.2562H75.2638V37.7842H85.9558ZM131.626 26.0142V46.6282H135.476V26.0142H131.626Z" fill="#A8891A"/>
<defs>
<linearGradient id="paint0_linear_745_766" x1="92.3106" y1="-89.9997" x2="92.3106" y2="89.9169" gradientUnits="userSpaceOnUse">
<stop stop-color="#EFE4BC"/>
<stop offset="1" stop-color="#A5600F"/>
</linearGradient>
<linearGradient id="paint1_linear_745_766" x1="92.2615" y1="6.5" x2="92.2615" y2="55" gradientUnits="userSpaceOnUse">
<stop stop-color="#FCFB64"/>
<stop offset="1" stop-color="#FFBF00"/>
</linearGradient>
<linearGradient id="paint2_linear_745_766" x1="92.2615" y1="6.5" x2="92.2615" y2="55" gradientUnits="userSpaceOnUse">
<stop stop-color="#FCFB64"/>
<stop offset="1" stop-color="#FFBF00"/>
</linearGradient>
<linearGradient id="paint3_linear_745_766" x1="92.2615" y1="6.5" x2="92.2615" y2="55" gradientUnits="userSpaceOnUse">
<stop stop-color="#FCFB64"/>
<stop offset="1" stop-color="#FFBF00"/>
</linearGradient>
<linearGradient id="paint4_linear_745_766" x1="92.2615" y1="6.5" x2="92.2615" y2="55" gradientUnits="userSpaceOnUse">
<stop stop-color="#FCFB64"/>
<stop offset="1" stop-color="#FFBF00"/>
</linearGradient>
</defs>
</svg>
