<svg width="615" height="453" viewBox="0 0 615 453" fill="none" xmlns="http://www.w3.org/2000/svg">
<path d="M591.906 452.942C494.093 446.111 111.245 451.191 17.681 451.938C7.53308 452.019 -0.570833 443.501 0.0315392 433.369C4.30838 361.374 -0.952329 142.893 1.79449 59.1717C2.49725 37.7473 17.7654 19.5878 38.744 15.1945C150.082 -8.11727 461.027 -1.81646 575.197 15.3752C598.552 18.8931 617.053 39.3938 614.816 62.9064C606.608 149.206 608.632 352.326 613.977 432.313C614.772 444.268 603.853 453.778 591.906 452.942Z" fill="#643B11"/>
<path d="M580.036 446.497C486.302 439.907 119.434 444.807 29.7727 445.53C20.0464 445.606 12.2838 437.389 12.8581 427.611C16.9582 358.141 11.9143 147.331 14.5487 66.5451C15.2234 45.8757 29.853 28.3507 49.9561 24.1141C156.648 1.62149 454.618 7.69741 564.02 24.2867C586.401 27.6801 604.13 47.462 601.986 70.1514C594.119 153.419 596.059 349.411 601.179 426.595C601.95 438.128 591.489 447.305 580.036 446.497Z" fill="#6E3D12"/>
<path d="M563.961 433.611C475.758 427.41 130.526 432.02 46.154 432.699C37.0019 432.771 29.6971 425.037 30.2393 415.841C34.0985 350.467 29.3518 152.09 31.8296 76.0707C32.4641 56.6181 46.2302 40.1292 65.1487 36.1415C165.548 14.9741 445.94 20.6967 548.894 36.3061C569.957 39.4987 586.638 58.116 584.618 79.4641C577.213 157.821 579.04 342.255 583.859 414.885C584.582 425.736 574.74 434.37 563.961 433.611Z" fill="#643B11"/>
<path d="M574.599 212.677C573.948 288.78 575.736 372.109 578.599 415.242C579.302 425.888 569.648 434.358 559.078 433.615C472.553 427.531 133.904 432.053 51.1377 432.719C44.2868 432.775 38.4919 428.37 36.3676 422.27C35.709 420.375 35.4038 418.319 35.5283 416.182C36.6848 396.553 37.0502 364.695 37.0703 327.798C37.1024 280.335 36.5603 224.535 36.3916 175.687C36.2672 138.456 36.3555 105.27 37.0864 82.8897C37.7089 63.8065 51.214 47.6308 69.7711 43.7194C127.896 31.4672 247.523 28.3991 356.568 31.0897C432.291 32.9611 502.909 37.6033 544.296 43.88C564.957 47.0124 581.321 65.2723 579.342 86.2148C576.675 114.438 575.23 156.688 574.703 202.384C574.663 205.798 574.627 209.227 574.599 212.677Z" fill="url(#paint0_linear_745_617)"/>
<path opacity="0.15" d="M559.078 433.614C472.553 427.53 133.904 432.052 51.1377 432.719C44.2868 432.775 38.4919 428.37 36.3676 422.27C35.709 420.374 35.4038 418.318 35.5283 416.182C36.6848 396.552 37.0502 364.695 37.0703 327.798C101.709 338.179 199.12 348.584 302.985 337.235C422.918 324.127 515.061 258.73 574.703 202.384C574.663 205.797 574.627 209.227 574.599 212.676C573.948 288.78 575.735 372.108 578.599 415.242C579.302 425.888 569.647 434.357 559.078 433.614Z" fill="#6E3D12"/>
<path opacity="0.15" d="M559.077 433.614C472.552 427.53 133.902 432.052 51.1364 432.719C44.2854 432.775 38.4906 428.37 36.3662 422.27C184.425 415.113 377.498 398.849 447.28 362.016C503.04 332.584 545.355 270.46 574.598 212.676C573.947 288.78 575.734 372.108 578.597 415.242C579.3 425.888 569.646 434.357 559.077 433.614Z" fill="#6E3D12"/>
<path d="M35.6749 72.2159C35.6749 72.2159 94.2816 57.9597 135.01 59.9516C64.7333 69.71 35.4941 76.5369 35.4941 76.5369L35.6749 72.2159Z" fill="#965E2E"/>
<path d="M579.502 372.486L533.332 381.77L579.502 379.867V372.486Z" fill="#965E2E"/>
<path d="M51.136 432.719L255.942 429.748L38.1328 427.824L46.1524 432.699" fill="#965E2E"/>
<path d="M129.931 390.019C129.931 390.019 288.704 376.16 399.287 390.019C289.941 369.398 168.233 386.011 129.931 390.019Z" fill="#965E2E"/>
<path d="M579.502 97.5464L464.758 101.976H579.502V97.5464Z" fill="#965E2E"/>
<path d="M536.48 409.363L421.736 413.792H556.419L536.48 409.363Z" fill="#965E2E"/>
<path d="M236.009 111.374L121.266 115.807H255.944L236.009 111.374Z" fill="#965E2E"/>
<path d="M207.36 15.7373L128.678 18.7733H221.029L207.36 15.7373Z" fill="#965E2E"/>
<path d="M35.4941 314.031L96.6068 317.48L35.5664 318.46L35.4941 314.031Z" fill="#965E2E"/>
<path d="M34.9248 327.995L74.7135 330.059L35.7802 334.894L34.9248 327.995Z" fill="#965E2E"/>
<path d="M587.078 31.6431L538.069 27.9365L594.287 39.2651L587.078 31.6431Z" fill="#965E2E"/>
<path d="M5.85059 437.586L41.4789 435.622L12.8301 443.533L5.85059 437.586Z" fill="#965E2E"/>
<path d="M33.5439 160.234L17.4404 164.101L35.4955 167.474L33.5439 160.234Z" fill="#965E2E"/>
<path d="M600.99 269.906L581.706 272.532L600.99 275.733V269.906Z" fill="#965E2E"/>
<defs>
<linearGradient id="paint0_linear_745_617" x1="307.501" y1="-101.839" x2="307.501" y2="489.576" gradientUnits="userSpaceOnUse">
<stop offset="1.4e-07" stop-color="#C29555"/>
<stop offset="1" stop-color="#B2772E"/>
</linearGradient>
</defs>
</svg>
