<svg width="185" height="70" viewBox="0 0 185 70" fill="none" xmlns="http://www.w3.org/2000/svg">
<path d="M172.453 67.338C129.471 69.7389 5.02943 73.9339 1.67959 61.5045C-2.93504 44.3833 3.67997 19.7901 1.32502 6.31769C0.891078 3.8523 3.44183 1.65621 6.79167 1.58794C37.1043 0.958313 151.692 -1.24157 179.533 0.950727C182.64 1.19347 184.899 3.24164 184.598 5.54773C183.222 15.9782 179.724 45.2102 181.671 59.1301C182.253 63.3099 178.11 67.0232 172.458 67.3418L172.453 67.338Z" fill="#643B11"/>
<path d="M167.658 65.2287C127.248 67.4097 10.2521 71.2215 7.10336 59.9263C2.76392 44.3677 8.98203 22.0275 6.76468 9.784C6.35719 7.5424 8.75447 5.55112 11.9032 5.48664C40.4007 4.91391 148.135 2.91505 174.31 4.90632C177.231 5.13011 179.358 6.98863 179.072 9.08232C177.781 18.5608 174.49 45.1187 176.321 57.7681C176.871 61.5648 172.971 64.9405 167.658 65.2287Z" fill="#6E3D12"/>
<path d="M158.783 61.7696C123.131 63.6963 19.9154 67.0569 17.1371 57.0929C13.311 43.3701 18.7935 23.6584 16.8408 12.8562C16.4809 10.8801 18.5977 9.12018 21.376 9.06329C46.5184 8.55883 141.563 6.79513 164.652 8.55124C167.229 8.74847 169.102 10.387 168.854 12.2342C167.716 20.5937 164.811 44.0263 166.425 55.1851C166.912 58.5342 163.466 61.5116 158.783 61.7658V61.7696Z" fill="#643B11"/>
<path d="M155.586 61.9518C121.649 63.7117 23.3973 66.7802 20.7513 57.681C17.1104 45.1454 22.3283 27.1405 20.4655 17.2789C20.1268 15.4735 22.1378 13.8691 24.7838 13.816C48.7196 13.3532 139.192 11.7451 161.175 13.3495C163.625 13.5277 165.414 15.0259 165.17 16.7138C164.085 24.3489 161.323 45.7523 162.858 55.9438C163.318 59.0047 160.042 61.7242 155.581 61.9556L155.586 61.9518Z" fill="url(#paint0_linear_821_2526)"/>
<path d="M19.0965 52.8721C18.4773 53.5055 53.0182 57.727 66.5234 56.3729C56.9714 59.8586 18.2656 55.3868 18.2656 55.3868L19.0965 52.8721Z" fill="#965E2E"/>
<path d="M19.3597 20.826C19.3597 20.826 25.5672 20.4012 39.808 19.8474C27.4618 18.2165 18.2695 18.2658 18.2695 18.2658L19.3597 20.826Z" fill="#965E2E"/>
<path d="M166.262 16.6916C166.262 16.6916 160.081 16.6309 145.877 16.6347C158.287 15.952 167.468 15.8496 167.468 15.8496L166.267 16.6916H166.262Z" fill="#965E2E"/>
<path d="M179.496 6.54515C179.496 6.54515 173.315 6.48446 159.111 6.48826C171.521 5.80553 180.703 5.70312 180.703 5.70312L179.501 6.54515H179.496Z" fill="#965E2E"/>
<path d="M165.801 29.3787C165.801 29.3787 162.16 29.2725 153.793 29.1587C161.091 28.6087 166.499 28.5859 166.499 28.5859L165.806 29.3787H165.801Z" fill="#965E2E"/>
<path d="M163.763 53.3798C163.763 53.3798 157.349 53.0271 142.627 52.5682C155.444 51.2672 164.954 51.3127 164.954 51.3127L163.763 53.3798Z" fill="#965E2E"/>
<path d="M74.2227 16.566C74.2227 16.566 101.095 15.064 122.47 16.566C112.288 14.5823 78.488 15.3182 74.2227 16.566Z" fill="#965E2E"/>
<path d="M99 57.2716C99 57.2716 119.501 58.8267 135.663 56.5244C128.027 59.2894 102.302 58.8457 99 57.2716Z" fill="#965E2E"/>
<path d="M51.5469 62.9725C51.5469 62.9725 105.594 64.1256 148.534 62.3467C128.09 64.4631 60.1305 64.1635 51.5469 62.9725Z" fill="#965E2E"/>
<path d="M28.5586 47.3799C28.5586 47.3799 42.5612 51.2335 54.59 50.7821C48.4354 52.6482 30.4425 49.3067 28.5586 47.3799Z" fill="#965E2E"/>
<path d="M69.3923 26.533V24.377H74.2923V26.533H79.4723V29.893H64.1563V26.533H69.3923ZM69.2243 34.401C69.2243 34.597 69.3363 34.765 69.5603 34.877C69.9803 35.129 70.7363 35.241 71.8003 35.241C72.8363 35.241 73.6203 35.129 74.0403 34.877C74.2643 34.765 74.3763 34.597 74.3763 34.401C74.3763 34.205 74.2643 34.037 74.0403 33.925C73.6203 33.673 72.8363 33.561 71.8003 33.561C70.7363 33.561 69.9803 33.673 69.5603 33.925C69.3363 34.037 69.2243 34.205 69.2243 34.401ZM64.6603 34.401C64.6603 33.197 65.1923 32.301 66.1443 31.657C67.4323 30.733 69.4483 30.369 71.8003 30.369C74.1243 30.369 76.1683 30.733 77.4563 31.657C78.3803 32.301 78.9123 33.197 78.9123 34.401C78.9123 35.605 78.3803 36.501 77.4563 37.145C76.6443 37.733 75.5523 38.069 74.2923 38.265V39.273H76.3083C78.4643 39.273 79.6963 39.077 80.5923 38.405V25.105H85.4923V32.441H88.9643V36.501H85.4923V43.277H80.5923V41.849C79.6403 42.605 78.2123 42.857 75.6363 42.857H63.8203V39.273H69.4203V38.293C68.1043 38.097 66.9843 37.733 66.1443 37.145C65.1923 36.501 64.6603 35.605 64.6603 34.401ZM65.4163 47.617V44.061H85.4923V51.761H80.5923V47.617H65.4163Z" fill="url(#paint1_linear_821_2526)"/>
<path d="M102.487 32.805C102.487 31.265 102.179 30.173 101.619 29.529C101.199 29.109 100.667 28.857 99.9952 28.857C99.3232 28.857 98.7632 29.109 98.3712 29.529C97.8112 30.173 97.4752 31.265 97.4752 32.805C97.4752 34.373 97.8112 35.493 98.3712 36.081C98.7632 36.557 99.3232 36.725 99.9952 36.725C100.667 36.725 101.199 36.557 101.619 36.081C102.179 35.493 102.487 34.373 102.487 32.805ZM92.7992 32.805C92.7992 29.949 93.6952 27.877 95.1792 26.533C96.4112 25.469 98.0072 24.965 99.9952 24.965C101.955 24.965 103.551 25.469 104.783 26.533C106.295 27.877 107.163 29.949 107.163 32.805C107.163 35.661 106.295 37.789 104.783 39.077C103.551 40.113 101.955 40.673 99.9952 40.673C98.0072 40.673 96.4112 40.113 95.1792 39.077C93.6952 37.789 92.7992 35.661 92.7992 32.805ZM114.695 25.105V43.501H109.795V25.105H114.695ZM115.031 47.505V51.481H94.6752V42.045H99.5752V47.505H115.031Z" fill="url(#paint2_linear_821_2526)"/>
<path fill-rule="evenodd" clip-rule="evenodd" d="M68.3923 24.377C68.3923 23.8247 68.84 23.377 69.3923 23.377H74.2923C74.8446 23.377 75.2923 23.8247 75.2923 24.377V25.533H79.4723C79.5129 25.533 79.553 25.5354 79.5923 25.5401V25.105C79.5923 24.5527 80.04 24.105 80.5923 24.105H85.4923C86.0446 24.105 86.4923 24.5527 86.4923 25.105V31.441H88.9643C89.5166 31.441 89.9643 31.8887 89.9643 32.441V36.501C89.9643 37.0532 89.5166 37.501 88.9643 37.501H86.4923V43.277C86.4923 43.4161 86.4639 43.5486 86.4126 43.669C86.4639 43.7893 86.4923 43.9218 86.4923 44.061V51.761C86.4923 52.3132 86.0446 52.761 85.4923 52.761H80.5923C80.04 52.761 79.5923 52.3132 79.5923 51.761V48.617H65.4163C64.864 48.617 64.4163 48.1692 64.4163 47.617V44.061C64.4163 43.991 64.4235 43.9228 64.4371 43.857H63.8203C63.268 43.857 62.8203 43.4092 62.8203 42.857V39.273C62.8203 38.7207 63.268 38.273 63.8203 38.273H66.0626C65.8949 38.1786 65.733 38.0773 65.5774 37.9688C64.377 37.1542 63.6603 35.9604 63.6603 34.401C63.6603 32.8792 64.3427 31.7058 65.4911 30.893H64.1563C63.604 30.893 63.1563 30.4452 63.1563 29.893V26.533C63.1563 25.9807 63.604 25.533 64.1563 25.533H68.3923V24.377ZM69.3923 26.533H64.1563V29.893H79.4723V26.533H74.2923V24.377H69.3923V26.533ZM75.8742 30.893C74.7257 30.5252 73.3231 30.369 71.8003 30.369C70.2592 30.369 68.8623 30.5252 67.7199 30.893C67.1189 31.0864 66.5883 31.3384 66.1443 31.657C65.1923 32.301 64.6603 33.197 64.6603 34.401C64.6603 35.605 65.1923 36.501 66.1443 37.145C66.9565 37.7135 68.0305 38.0726 69.2904 38.273C69.3335 38.2798 69.3768 38.2865 69.4203 38.293V39.273H63.8203V42.857H75.6363C77.4418 42.857 78.6833 42.7332 79.5923 42.3988C79.9802 42.2561 80.3076 42.0751 80.5923 41.849V43.277H85.4923V36.501H88.9643V32.441H85.4923V25.105H80.5923V38.405C79.6963 39.077 78.4643 39.273 76.3083 39.273H74.2923V38.265C75.5523 38.069 76.6443 37.733 77.4563 37.145C78.3803 36.501 78.9123 35.605 78.9123 34.401C78.9123 33.197 78.3803 32.301 77.4563 31.657C77.0123 31.3384 76.4784 31.0864 75.8742 30.893ZM78.1075 30.893C78.7748 31.3765 79.2869 31.9872 79.5923 32.7234V30.8858C79.553 30.8905 79.5129 30.893 79.4723 30.893H78.1075ZM79.5923 36.0785C79.276 36.841 78.7379 37.4689 78.0354 37.9602C77.8975 38.0597 77.7544 38.1525 77.6067 38.239C78.5498 38.1819 79.1531 38.0521 79.5923 37.8448V36.0785ZM65.4163 44.061V47.617H80.5923V51.761H85.4923V44.061H65.4163ZM99.0954 35.3913C99.1119 35.4087 99.1279 35.4267 99.1432 35.4452C99.2728 35.6027 99.4856 35.725 99.9952 35.725C100.48 35.725 100.696 35.6153 100.869 35.4193C100.878 35.4098 100.886 35.4005 100.895 35.3913C101.178 35.0944 101.487 34.3123 101.487 32.805C101.487 31.3867 101.202 30.5944 100.886 30.2109C100.647 29.9818 100.371 29.857 99.9952 29.857C99.5944 29.857 99.3074 29.9982 99.1141 30.1988C98.7855 30.5871 98.4752 31.3919 98.4752 32.805C98.4752 34.2905 98.8042 35.0856 99.0954 35.3913ZM98.3712 29.529C98.7632 29.109 99.3232 28.857 99.9952 28.857C100.667 28.857 101.199 29.109 101.619 29.529C102.179 30.173 102.487 31.265 102.487 32.805C102.487 34.373 102.179 35.493 101.619 36.081C101.199 36.557 100.667 36.725 99.9952 36.725C99.3232 36.725 98.7632 36.557 98.3712 36.081C97.8112 35.493 97.4752 34.373 97.4752 32.805C97.4752 31.265 97.8112 30.173 98.3712 29.529ZM94.5079 25.7917L94.5256 25.7761C95.9834 24.5171 97.8329 23.965 99.9952 23.965C102.132 23.965 103.98 24.5181 105.437 25.7761L105.448 25.7855C107.225 27.3659 108.163 29.7418 108.163 32.805C108.163 35.8541 107.233 38.3038 105.432 39.8382L105.427 39.8423C104.103 40.9559 102.442 41.5715 100.499 41.6614C100.548 41.7795 100.575 41.9091 100.575 42.045V46.505H115.031C115.584 46.505 116.031 46.9527 116.031 47.505V51.481C116.031 52.0332 115.584 52.481 115.031 52.481H94.6752C94.1229 52.481 93.6752 52.0332 93.6752 51.481V42.045C93.6752 41.4927 94.1229 41.045 94.6752 41.045H96.5356C95.8024 40.7477 95.1347 40.3461 94.5356 39.8423L94.5237 39.8322C92.7626 38.3037 91.7992 35.8634 91.7992 32.805C91.7992 29.7328 92.7701 27.3656 94.5079 25.7917ZM99.5752 47.505V42.045H94.6752V51.481H115.031V47.505H99.5752ZM114.695 24.105C115.248 24.105 115.695 24.5527 115.695 25.105V43.501C115.695 44.0532 115.248 44.501 114.695 44.501H109.795C109.243 44.501 108.795 44.0532 108.795 43.501V25.105C108.795 24.5527 109.243 24.105 109.795 24.105H114.695ZM69.5603 34.877C69.3363 34.765 69.2243 34.597 69.2243 34.401C69.2243 34.205 69.3363 34.037 69.5603 33.925C69.9803 33.673 70.7363 33.561 71.8003 33.561C72.8363 33.561 73.6203 33.673 74.0403 33.925C74.2643 34.037 74.3763 34.205 74.3763 34.401C74.3763 34.597 74.2643 34.765 74.0403 34.877C73.6203 35.129 72.8363 35.241 71.8003 35.241C70.7363 35.241 69.9803 35.129 69.5603 34.877ZM95.1792 26.533C93.6952 27.877 92.7992 29.949 92.7992 32.805C92.7992 35.661 93.6952 37.789 95.1792 39.077C96.4112 40.113 98.0072 40.673 99.9952 40.673C101.955 40.673 103.551 40.113 104.783 39.077C106.295 37.789 107.163 35.661 107.163 32.805C107.163 29.949 106.295 27.877 104.783 26.533C103.551 25.469 101.955 24.965 99.9952 24.965C98.0072 24.965 96.4112 25.469 95.1792 26.533ZM114.695 25.105H109.795V43.501H114.695V25.105Z" fill="#A8891A"/>
<defs>
<linearGradient id="paint0_linear_821_2526" x1="92.3098" y1="-89.9997" x2="92.3098" y2="89.9169" gradientUnits="userSpaceOnUse">
<stop stop-color="#EFE4BC"/>
<stop offset="1" stop-color="#A5600F"/>
</linearGradient>
<linearGradient id="paint1_linear_821_2526" x1="90.2679" y1="8.76855" x2="90.2679" y2="57.2686" gradientUnits="userSpaceOnUse">
<stop stop-color="#FCFB64"/>
<stop offset="1" stop-color="#FFBF00"/>
</linearGradient>
<linearGradient id="paint2_linear_821_2526" x1="90.2679" y1="8.76855" x2="90.2679" y2="57.2686" gradientUnits="userSpaceOnUse">
<stop stop-color="#FCFB64"/>
<stop offset="1" stop-color="#FFBF00"/>
</linearGradient>
</defs>
</svg>
