<svg width="942" height="694" viewBox="0 0 942 694" fill="none" xmlns="http://www.w3.org/2000/svg">
<path d="M906.627 693.775C756.806 683.312 170.396 691.093 27.0822 692.237C11.5385 692.36 -0.874349 679.314 0.0483088 663.795C6.59918 553.519 -1.45869 218.871 2.74863 90.6337C3.82506 57.8179 27.2113 30.0028 59.3444 23.2736C229.882 -12.4333 706.158 -2.78228 881.033 23.5504C916.807 28.9387 945.145 60.3398 941.719 96.3542C929.146 228.54 932.246 539.66 940.433 662.177C941.651 680.489 924.927 695.054 906.627 693.775Z" fill="#643B11"/>
<path d="M888.445 683.903C744.873 673.81 182.938 681.314 45.6035 682.421C30.7056 682.538 18.8157 669.953 19.6953 654.975C25.9755 548.568 18.2497 225.668 22.2848 101.928C23.3182 70.2683 45.7265 43.4251 76.5187 36.9358C239.94 2.48375 696.341 11.7903 863.915 37.2003C898.194 42.3979 925.351 72.698 922.067 107.451C910.017 234.993 912.988 535.196 920.83 653.419C922.011 671.085 905.988 685.14 888.445 683.903Z" fill="#6E3D12"/>
<path d="M863.823 664.165C728.722 654.668 199.928 661.729 70.6944 662.768C56.6762 662.879 45.4874 651.032 46.3178 636.946C52.229 536.813 44.9585 232.958 48.7537 116.518C49.7255 86.7226 70.8113 61.4664 99.7889 55.3584C253.571 22.9362 683.05 31.7015 840.745 55.6106C873.007 60.5007 898.558 89.017 895.464 121.716C884.122 241.735 886.92 524.235 894.302 635.482C895.409 652.103 880.333 665.327 863.823 664.165Z" fill="#643B11"/>
<path d="M880.117 325.758C879.121 442.327 881.858 569.961 886.244 636.03C887.32 652.336 872.533 665.309 856.344 664.171C723.813 654.852 205.101 661.778 78.3279 662.799C67.8342 662.885 58.9582 656.137 55.7043 646.794C54.6955 643.891 54.2281 640.741 54.4188 637.469C56.1903 607.403 56.75 558.606 56.7807 502.091C56.8299 429.391 55.9995 343.922 55.7412 269.101C55.5505 212.075 55.6859 161.242 56.8054 126.963C57.7588 97.7328 78.4447 72.9564 106.869 66.9653C195.899 48.1984 379.133 43.499 546.158 47.6202C662.143 50.4866 770.309 57.5972 833.701 67.2113C865.349 72.0091 890.414 99.978 887.382 132.056C883.297 175.285 881.083 240 880.277 309.993C880.216 315.222 880.16 320.475 880.117 325.758Z" fill="url(#paint0_linear_605_597)"/>
<path opacity="0.15" d="M856.344 664.17C723.813 654.851 205.101 661.777 78.3279 662.798C67.8342 662.885 58.9582 656.137 55.7043 646.793C54.6955 643.89 54.2281 640.741 54.4188 637.468C56.1903 607.402 56.75 558.606 56.7807 502.09C155.788 517.99 304.994 533.928 464.085 516.545C647.786 496.468 788.922 396.298 880.277 309.993C880.216 315.221 880.16 320.474 880.117 325.758C879.121 442.326 881.858 569.961 886.244 636.029C887.32 652.336 872.533 665.308 856.344 664.17Z" fill="#6E3D12"/>
<path opacity="0.15" d="M856.341 664.17C723.811 654.851 205.099 661.777 78.3257 662.798C67.832 662.885 58.9561 656.137 55.7021 646.793C282.485 635.832 578.215 610.921 685.102 554.503C770.51 509.422 835.323 414.265 880.115 325.758C879.119 442.326 881.856 569.961 886.242 636.029C887.318 652.336 872.531 665.308 856.341 664.17Z" fill="#6E3D12"/>
<path d="M54.643 110.613C54.643 110.613 144.411 88.777 206.795 91.828C99.152 106.775 54.3662 117.232 54.3662 117.232L54.643 110.613Z" fill="#965E2E"/>
<path d="M887.627 570.539L816.908 584.76L887.627 581.845V570.539Z" fill="#965E2E"/>
<path d="M78.3243 662.799L392.028 658.248L58.4072 655.301L70.6909 662.769" fill="#965E2E"/>
<path d="M199.015 597.395C199.015 597.395 442.209 576.168 611.59 597.395C444.103 565.809 257.683 591.256 199.015 597.395Z" fill="#965E2E"/>
<path d="M887.627 149.413L711.873 156.197H887.627V149.413Z" fill="#965E2E"/>
<path d="M821.731 627.024L645.977 633.809H852.271L821.731 627.024Z" fill="#965E2E"/>
<path d="M361.497 170.592L185.743 177.383H392.031L361.497 170.592Z" fill="#965E2E"/>
<path d="M317.614 24.105L197.097 28.7552H338.552L317.614 24.105Z" fill="#965E2E"/>
<path d="M54.3662 481.003L147.973 486.287L54.4769 487.788L54.3662 481.003Z" fill="#965E2E"/>
<path d="M53.4941 502.392L114.439 505.554L54.8043 512.96L53.4941 502.392Z" fill="#965E2E"/>
<path d="M899.231 48.468L824.164 42.7905L910.273 60.1427L899.231 48.468Z" fill="#965E2E"/>
<path d="M8.96094 670.253L63.5331 667.245L19.6515 679.363L8.96094 670.253Z" fill="#965E2E"/>
<path d="M51.3796 245.432L26.7139 251.355L54.369 256.522L51.3796 245.432Z" fill="#965E2E"/>
<path d="M920.541 413.417L891.004 417.439L920.541 422.342V413.417Z" fill="#965E2E"/>
<defs>
<linearGradient id="paint0_linear_605_597" x1="471.001" y1="-155.988" x2="471.001" y2="749.887" gradientUnits="userSpaceOnUse">
<stop offset="1.4e-07" stop-color="#C29555"/>
<stop offset="1" stop-color="#B2772E"/>
</linearGradient>
</defs>
</svg>
