<svg width="136" height="45" viewBox="0 0 136 45" fill="none" xmlns="http://www.w3.org/2000/svg">
<rect x="3" y="3" width="130" height="39" rx="7" fill="#6E3D12" stroke="#965E2E" stroke-width="6"/>
<path d="M46.4453 16.08H37.0053V18.208H46.5253V19.664H35.2773V14.608H46.4453V16.08ZM34.3173 22.576V21.104H47.3893V22.576H34.3173ZM35.0053 26.608C35.0053 25.712 35.4213 25.104 36.1733 24.656C37.1813 24.08 38.8133 23.84 40.8773 23.84C42.9573 23.84 44.5573 24.08 45.5653 24.656C46.3173 25.104 46.7333 25.712 46.7333 26.608C46.7333 27.504 46.3173 28.112 45.5653 28.56C44.5573 29.136 42.9573 29.36 40.8773 29.36C38.8133 29.36 37.1813 29.136 36.1733 28.56C35.4213 28.112 35.0053 27.504 35.0053 26.608ZM36.7493 26.608C36.7493 26.928 36.9253 27.2 37.2453 27.392C37.9013 27.76 39.1173 27.904 40.8773 27.904C42.6373 27.904 43.8533 27.76 44.4933 27.392C44.8293 27.2 45.0053 26.928 45.0053 26.608C45.0053 26.288 44.8293 26.032 44.4933 25.824C43.8533 25.456 42.6373 25.312 40.8773 25.312C39.1173 25.312 37.9013 25.456 37.2453 25.824C36.9253 26.032 36.7493 26.288 36.7493 26.608ZM54.7646 18.576V19.76H64.2846V21.168H59.4526V22.464H65.1486V23.92H52.0766V22.464H57.7246V21.168H53.0366V17.2H62.4606V16.032H53.0366V14.608H64.2046V18.576H54.7646ZM62.4606 29.184V26.576H52.9406V25.12H64.2046V29.184H62.4606ZM72.972 16.096V14.016H74.716V16.096H77.996V17.6H69.724V16.096H72.972ZM72.044 23.488C72.044 24.864 72.268 25.84 72.812 26.352C73.1 26.608 73.468 26.752 73.916 26.752C74.348 26.752 74.684 26.608 74.956 26.368C75.532 25.856 75.788 24.864 75.788 23.488C75.788 22 75.484 21.008 74.892 20.528C74.636 20.32 74.316 20.224 73.916 20.224C73.468 20.224 73.116 20.336 72.844 20.592C72.284 21.104 72.044 22.064 72.044 23.488ZM70.316 23.488C70.316 21.552 70.812 20.128 71.82 19.344C72.38 18.944 73.068 18.72 73.916 18.72C74.652 18.72 75.292 18.88 75.804 19.232C76.924 19.968 77.516 21.456 77.516 23.488C77.516 25.52 76.94 26.976 75.852 27.712C75.324 28.064 74.684 28.24 73.916 28.24C73.1 28.24 72.412 28.032 71.868 27.632C70.828 26.88 70.316 25.456 70.316 23.488ZM81.66 14.432V20.352H83.932V21.872H81.66V28.944H79.916V14.432H81.66ZM93.4354 17.824V16.224H88.1874V14.688H95.1474V17.616C95.1474 23.136 93.0994 26.816 88.0914 28.096V26.448C91.7714 25.376 93.4354 22.352 93.4354 17.824ZM99.7714 14.432V28.944H98.0274V14.432H99.7714Z" fill="#F5ECD9"/>
</svg>
