<svg width="163" height="46" viewBox="0 0 163 46" fill="none" xmlns="http://www.w3.org/2000/svg">
<rect x="3.47656" y="3" width="156" height="40" rx="7" fill="#6E3D12" stroke="#965E2E" stroke-width="6"/>
<path d="M46.7626 17.04V16.08H37.2426V14.608H48.5066V16.976C48.5066 17.776 48.4106 18.528 48.2666 19.152H46.5706C46.6986 18.512 46.7626 17.792 46.7626 17.04ZM36.3786 21.328V19.888H49.4506V21.328H36.3786ZM39.0666 26.528V27.68H48.8266V29.088H37.3386V25.136H46.7626V24H37.3386V22.608H48.5066V26.528H39.0666ZM61.4823 16.112V14.608H68.9863V16.112H66.1063V16.832C66.1063 19.296 67.4343 20.464 69.2423 20.864V22.4C67.5143 22.096 66.0263 21.184 65.2743 19.952C64.5063 21.2 63.0023 22.288 61.2263 22.592V21.024C63.0823 20.64 64.3623 19.328 64.3623 16.832V16.112H61.4823ZM73.0183 14.432V17.84H75.1303V19.36H73.0183V22.816H71.2743V14.432H73.0183ZM62.1223 23.76H73.0183V29.184H71.2743V25.28H62.1223V23.76ZM83.8656 14.528V16.32C83.8656 18.832 85.2576 20.128 87.1136 20.688V22.224C85.2896 21.84 83.7696 20.816 83.0176 19.6C82.3296 20.864 80.7936 21.952 78.9056 22.4V20.864C80.8096 20.256 82.1376 18.768 82.1376 16.32V14.528H83.8656ZM91.1616 22.704H89.4176V18.56H86.2496V17.072H89.4176V14.432H91.1616V22.704ZM85.8016 29.28C84.1376 29.28 82.4896 29.056 81.3856 28.368C80.6176 27.888 80.1216 27.168 80.1216 26.192C80.1216 25.216 80.6176 24.496 81.3856 24.016C82.4896 23.344 84.1376 23.104 85.8016 23.104C87.4656 23.104 89.1296 23.344 90.2176 24.016C90.9856 24.496 91.4976 25.216 91.4976 26.192C91.4976 27.168 90.9856 27.888 90.2176 28.368C89.1296 29.056 87.4656 29.28 85.8016 29.28ZM85.8016 24.592C84.4896 24.592 83.2096 24.752 82.4736 25.2C82.0896 25.456 81.8496 25.776 81.8496 26.192C81.8496 26.608 82.0896 26.928 82.4736 27.168C83.2096 27.616 84.4896 27.792 85.8016 27.792C87.1296 27.792 88.4096 27.616 89.1296 27.168C89.5136 26.928 89.7536 26.608 89.7536 26.192C89.7536 25.776 89.5136 25.456 89.1296 25.2C88.4096 24.752 87.1296 24.592 85.8016 24.592ZM99.849 16.096V14.016H101.593V16.096H104.873V17.6H96.601V16.096H99.849ZM98.921 23.488C98.921 24.864 99.145 25.84 99.689 26.352C99.977 26.608 100.345 26.752 100.793 26.752C101.225 26.752 101.561 26.608 101.833 26.368C102.409 25.856 102.665 24.864 102.665 23.488C102.665 22 102.361 21.008 101.769 20.528C101.513 20.32 101.193 20.224 100.793 20.224C100.345 20.224 99.993 20.336 99.721 20.592C99.161 21.104 98.921 22.064 98.921 23.488ZM97.193 23.488C97.193 21.552 97.689 20.128 98.697 19.344C99.257 18.944 99.945 18.72 100.793 18.72C101.529 18.72 102.169 18.88 102.681 19.232C103.801 19.968 104.393 21.456 104.393 23.488C104.393 25.52 103.817 26.976 102.729 27.712C102.201 28.064 101.561 28.24 100.793 28.24C99.977 28.24 99.289 28.032 98.745 27.632C97.705 26.88 97.193 25.456 97.193 23.488ZM108.537 14.432V20.352H110.809V21.872H108.537V28.944H106.793V14.432H108.537ZM120.312 17.824V16.224H115.064V14.688H122.024V17.616C122.024 23.136 119.976 26.816 114.968 28.096V26.448C118.648 25.376 120.312 22.352 120.312 17.824ZM126.648 14.432V28.944H124.904V14.432H126.648Z" fill="#F5ECD9"/>
</svg>
