<svg width="19" height="19" viewBox="0 0 19 19" fill="none" xmlns="http://www.w3.org/2000/svg">
<path d="M18.141 14.3691C18.141 16.5783 16.3501 18.3691 14.141 18.3691H4.14099C1.93185 18.3691 0.140991 16.5783 0.140991 14.3691V4.36914C0.140991 2.16 1.93185 0.369141 4.14099 0.369141H14.141C16.3501 0.369141 18.141 2.16 18.141 4.36914V14.3691Z" fill="#F6D5A1"/>
<path d="M7.36242 9.36928L10.7539 12.7607C11.066 13.0728 11.066 13.5788 10.7539 13.8909C10.4418 14.203 9.93575 14.203 9.62365 13.8909L5.56442 9.83172C5.30902 9.57632 5.30902 9.16225 5.56442 8.90685L9.62365 4.84762C9.93575 4.53552 10.4418 4.53552 10.7539 4.84762C11.066 5.15972 11.066 5.66574 10.7539 5.97784L7.36242 9.36928Z" fill="#814711"/>
</svg>
