<svg width="24" height="25" viewBox="0 0 24 25" fill="none" xmlns="http://www.w3.org/2000/svg">
<mask id="path-1-inside-1_1536_3198" fill="white">
<path d="M18.6035 17.8896L22.7062 22.1633C23.1377 22.6129 23.1378 23.3228 22.7063 23.7725C22.2489 24.2489 21.4869 24.2489 21.0297 23.7724L16.994 19.5665C15.1805 21.0813 12.9248 21.9051 10.6005 21.9017C4.9458 21.9017 0.356445 17.1199 0.356445 11.2282C0.356445 5.33641 4.9458 0.554688 10.6005 0.554688C16.2553 0.554688 20.8446 5.33641 20.8446 11.2282C20.8479 13.6499 20.0572 16.0001 18.6035 17.8896ZM16.3202 17.0097C17.7647 15.4619 18.5714 13.3871 18.5682 11.2282C18.5682 6.64095 15.0021 2.92657 10.6005 2.92657C6.19785 2.92657 2.63291 6.64095 2.63291 11.2282C2.63291 15.8142 6.19785 19.5298 10.6005 19.5298C12.6726 19.5332 14.6639 18.6926 16.1494 17.1875L16.3202 17.0097Z"/>
</mask>
<path d="M18.6035 17.8896L22.7062 22.1633C23.1377 22.6129 23.1378 23.3228 22.7063 23.7725C22.2489 24.2489 21.4869 24.2489 21.0297 23.7724L16.994 19.5665C15.1805 21.0813 12.9248 21.9051 10.6005 21.9017C4.9458 21.9017 0.356445 17.1199 0.356445 11.2282C0.356445 5.33641 4.9458 0.554688 10.6005 0.554688C16.2553 0.554688 20.8446 5.33641 20.8446 11.2282C20.8479 13.6499 20.0572 16.0001 18.6035 17.8896ZM16.3202 17.0097C17.7647 15.4619 18.5714 13.3871 18.5682 11.2282C18.5682 6.64095 15.0021 2.92657 10.6005 2.92657C6.19785 2.92657 2.63291 6.64095 2.63291 11.2282C2.63291 15.8142 6.19785 19.5298 10.6005 19.5298C12.6726 19.5332 14.6639 18.6926 16.1494 17.1875L16.3202 17.0097Z" fill="#020202"/>
<path d="M18.6035 17.8896L13.8481 14.2309L10.7008 18.3215L14.2751 22.0448L18.6035 17.8896ZM16.994 19.5665L21.3233 15.4124L17.4459 11.3715L13.1477 14.9615L16.994 19.5665ZM10.6005 21.9017L10.6094 15.9017H10.6005V21.9017ZM20.8446 11.2282H14.8446L14.8446 11.2364L20.8446 11.2282ZM16.3202 17.0097L20.649 21.1643L20.678 21.1341L20.7066 21.1035L16.3202 17.0097ZM18.5682 11.2282H12.5682L12.5682 11.2372L18.5682 11.2282ZM10.6005 19.5298L10.6104 13.5298H10.6005V19.5298ZM16.1494 17.1875L20.4197 21.4023L20.4492 21.3725L20.4782 21.3422L16.1494 17.1875ZM22.7062 22.1633L18.3778 26.3185L22.7062 22.1633ZM14.2751 22.0448L18.3778 26.3185L27.0345 18.0081L22.9318 13.7344L14.2751 22.0448ZM25.359 19.6182L21.3233 15.4124L12.6647 23.7207L16.7004 27.9265L25.359 19.6182ZM13.1477 14.9615C12.396 15.5894 11.4993 15.903 10.6094 15.9017L10.5916 27.9017C14.3503 27.9072 17.965 26.5731 20.8403 24.1716L13.1477 14.9615ZM10.6005 15.9017C8.48932 15.9017 6.35645 14.0408 6.35645 11.2282H-5.64355C-5.64355 20.1991 1.40227 27.9017 10.6005 27.9017V15.9017ZM6.35645 11.2282C6.35645 8.41554 8.48932 6.55469 10.6005 6.55469V-5.44531C1.40227 -5.44531 -5.64355 2.25729 -5.64355 11.2282H6.35645ZM10.6005 6.55469C12.7118 6.55469 14.8446 8.41554 14.8446 11.2282H26.8446C26.8446 2.25729 19.7988 -5.44531 10.6005 -5.44531V6.55469ZM14.8446 11.2364C14.8462 12.3545 14.4794 13.4103 13.8481 14.2309L23.3588 21.5484C25.6351 18.5899 26.8497 14.9453 26.8446 11.22L14.8446 11.2364ZM20.7066 21.1035C23.2127 18.4182 24.5737 14.8675 24.5682 11.2191L12.5682 11.2372C12.5692 11.9067 12.3167 12.5055 11.9337 12.9158L20.7066 21.1035ZM24.5682 11.2282C24.5682 3.56125 18.5451 -3.07343 10.6005 -3.07343V8.92657C11.4591 8.92657 12.5682 9.72064 12.5682 11.2282H24.5682ZM10.6005 -3.07343C2.65433 -3.07343 -3.36709 3.56182 -3.36709 11.2282H8.63291C8.63291 9.72007 9.74138 8.92657 10.6005 8.92657V-3.07343ZM-3.36709 11.2282C-3.36709 18.8928 2.65378 25.5298 10.6005 25.5298V13.5298C9.74193 13.5298 8.63291 12.7357 8.63291 11.2282H-3.36709ZM10.5907 25.5298C14.3079 25.5359 17.8306 24.0256 20.4197 21.4023L11.8791 12.9728C11.4972 13.3597 11.0373 13.5305 10.6104 13.5298L10.5907 25.5298ZM20.4782 21.3422L20.649 21.1643L11.9913 12.855L11.8206 13.0329L20.4782 21.3422ZM18.3774 19.6178C20.2818 17.6336 23.4549 17.6338 25.359 19.6182L16.7004 27.9265C19.519 30.864 24.2161 30.8643 27.0351 27.9271L18.3774 19.6178ZM18.3778 26.3185C16.5807 24.4465 16.5805 21.49 18.3774 19.6178L27.0351 27.9271C29.695 25.1557 29.6948 20.7793 27.0345 18.0081L18.3778 26.3185Z" fill="#020202" mask="url(#path-1-inside-1_1536_3198)"/>
</svg>
