<svg width="16" height="17" viewBox="0 0 16 17" fill="none" xmlns="http://www.w3.org/2000/svg">
<rect y="0.369141" width="16" height="16" rx="6" fill="#4A4A4A"/>
<path d="M4.41364 12.1563C4.211 12.1563 4.03759 12.0781 3.8934 11.9215C3.74897 11.7647 3.67676 11.5763 3.67676 11.3563V6.35635C3.67676 6.02498 3.94539 5.75635 4.27676 5.75635H4.41364V10.5563C4.41364 10.9982 4.77182 11.3563 5.21364 11.3563H6.99275H11.2367V11.5563C11.2367 11.8877 10.9681 12.1563 10.6367 12.1563H4.41364Z" fill="white"/>
<path d="M11.845 4.58398H5.29627C5.03362 4.58398 4.82031 4.81541 4.82031 5.10279V10.4134C4.82031 10.6993 5.03362 10.9322 5.29627 10.9322H11.845C12.1077 10.9322 12.321 10.7008 12.321 10.4134V5.10279C12.321 4.81692 12.1077 4.58398 11.845 4.58398ZM11.845 5.10279V8.87058L10.9058 7.94187C10.7642 7.80271 10.5477 7.80725 10.4124 7.95397L9.46205 8.98705L7.59008 6.55485C7.4484 6.37032 7.18894 6.36881 7.04567 6.55031L5.29627 8.76168V5.10279H11.845ZM9.82021 6.46258C9.82021 6.06932 10.1131 5.75017 10.4745 5.75017C10.8358 5.75017 11.1287 6.06932 11.1287 6.46258C11.1287 6.85585 10.8358 7.175 10.4745 7.175C10.1131 7.175 9.82021 6.85585 9.82021 6.46258Z" fill="white"/>
</svg>
