<svg width="191" height="46" viewBox="0 0 191 46" fill="none" xmlns="http://www.w3.org/2000/svg">
<mask id="path-1-inside-1_1630_1224" fill="white">
<rect x="0.0712891" width="190.405" height="46" rx="4"/>
</mask>
<rect x="0.0712891" width="190.405" height="46" rx="4" fill="#F5C86F" stroke="#E7AA47" stroke-width="12" mask="url(#path-1-inside-1_1630_1224)"/>
<path d="M22.4833 27.972H19.1933V16.282H20.7053V26.642H22.7633C23.8133 26.642 24.6113 26.446 25.0873 26.026V16.212H26.5573V21.182H28.1253V16.128H29.6093V28.826H28.1253V22.512H26.5573V28.672H25.0873V27.272C24.5973 27.734 23.6873 27.972 22.4833 27.972ZM37.9668 19.096V17.696H33.3188V16.352H39.4788V18.914C39.4788 23.758 37.6308 26.964 33.2488 28.084V26.642C36.5108 25.704 37.9668 23.072 37.9668 19.096ZM43.2448 16.128V21.308H45.2328V22.638H43.2448V28.826H41.7188V16.128H43.2448ZM57.5245 21.49C56.6425 21.154 55.6765 20.482 55.1445 19.712C54.5005 20.566 53.3105 21.224 52.1485 21.49V20.16C53.4085 19.684 54.3745 18.928 54.3745 17.332V16.282H55.8865V17.332C55.8865 18.606 56.6285 19.516 57.5385 19.992C58.4485 19.502 59.1765 18.662 59.1765 17.332V16.282H60.7025V17.332C60.7025 18.942 61.6825 19.698 62.9145 20.16V21.49C61.6825 21.224 60.5625 20.58 59.9185 19.712C59.4145 20.496 58.4765 21.14 57.5245 21.49ZM51.8125 23.968V22.652H63.2505V23.968H51.8125ZM54.1645 25.186V27.566H62.6485V28.882H52.6525V25.186H54.1645ZM74.3241 20.314V17.696H71.1601V16.352H75.8221V20.23C75.8221 20.552 75.8081 20.86 75.7941 21.154H77.3621V16.212H78.8461V28.672H77.3621V22.484H75.6541C75.1921 25.34 73.7641 27.3 71.0201 28.084V26.614C73.0921 25.886 74.3241 23.786 74.3241 20.314ZM81.5761 28.826H80.0921V16.128H81.5761V28.826ZM88.4916 24.808C87.9316 26.264 86.4476 27.44 84.8236 27.972V26.572C86.3496 25.872 87.7356 24.584 87.7356 21.042V16.282H89.2476V21.042C89.2476 24.584 90.6336 25.858 92.1456 26.572V27.972C90.5496 27.426 89.0656 26.25 88.4916 24.808ZM95.5196 16.128V28.826H93.9936V16.128H95.5196ZM108.091 18.41V17.57H99.761V16.282H109.617V18.354C109.617 19.054 109.533 19.712 109.407 20.258H107.923C108.035 19.698 108.091 19.068 108.091 18.41ZM99.005 22.162V20.902H110.443V22.162H99.005ZM101.357 26.712V27.72H109.897V28.952H99.845V25.494H108.091V24.5H99.845V23.282H109.617V26.712H101.357ZM120.957 15.764H122.497V16.898H125.353V18.046H118.087V16.898H120.957V15.764ZM119.823 20.496C119.823 20.664 119.907 20.818 120.061 20.944C120.369 21.168 120.943 21.28 121.713 21.28C122.427 21.28 122.973 21.182 123.281 20.986C123.477 20.86 123.589 20.706 123.589 20.496C123.589 20.3 123.477 20.132 123.281 20.006C122.973 19.796 122.427 19.698 121.713 19.698C120.985 19.698 120.411 19.796 120.089 20.02C119.921 20.146 119.823 20.314 119.823 20.496ZM118.381 20.496C118.381 19.908 118.675 19.474 119.137 19.166C119.739 18.788 120.649 18.606 121.713 18.606C122.763 18.606 123.687 18.774 124.289 19.166C124.737 19.474 125.017 19.908 125.017 20.496C125.017 21.14 124.695 21.588 124.135 21.896C123.701 22.134 123.141 22.302 122.483 22.358V23.296H124.331C125.451 23.296 126.291 23.072 126.739 22.764V16.128H128.265V19.978H130.127V21.308H128.265V24.962H126.739V23.912C126.221 24.318 125.339 24.514 123.925 24.514H117.905V23.296H120.957V22.372C120.229 22.302 119.585 22.12 119.137 21.812C118.675 21.49 118.381 21.056 118.381 20.496ZM118.731 25.676H128.265V29.036H126.739V26.908H118.731V25.676ZM132.31 19.712C132.31 18.424 132.702 17.43 133.374 16.814C133.948 16.31 134.718 16.044 135.642 16.044C136.58 16.044 137.35 16.31 137.91 16.814C138.596 17.43 138.974 18.424 138.974 19.712C138.974 21.014 138.596 22.008 137.91 22.624C137.35 23.128 136.58 23.394 135.642 23.394C134.718 23.394 133.948 23.128 133.374 22.624C132.702 22.008 132.31 21.014 132.31 19.712ZM133.794 19.712C133.794 20.566 134.004 21.196 134.396 21.602C134.704 21.91 135.124 22.078 135.642 22.078C136.16 22.078 136.58 21.91 136.902 21.602C137.28 21.196 137.49 20.566 137.49 19.712C137.49 18.872 137.28 18.228 136.902 17.836C136.58 17.528 136.16 17.36 135.642 17.36C135.124 17.36 134.704 17.528 134.396 17.836C134.004 18.228 133.794 18.872 133.794 19.712ZM142.74 25.018H141.214V16.128H142.74V25.018ZM142.964 28.882H133.248V24.57H134.774V27.566H142.964V28.882ZM148.942 17.584V15.764H150.468V17.584H153.338V18.9H146.1V17.584H148.942ZM148.13 24.052C148.13 25.256 148.326 26.11 148.802 26.558C149.054 26.782 149.376 26.908 149.768 26.908C150.146 26.908 150.44 26.782 150.678 26.572C151.182 26.124 151.406 25.256 151.406 24.052C151.406 22.75 151.14 21.882 150.622 21.462C150.398 21.28 150.118 21.196 149.768 21.196C149.376 21.196 149.068 21.294 148.83 21.518C148.34 21.966 148.13 22.806 148.13 24.052ZM146.618 24.052C146.618 22.358 147.052 21.112 147.934 20.426C148.424 20.076 149.026 19.88 149.768 19.88C150.412 19.88 150.972 20.02 151.42 20.328C152.4 20.972 152.918 22.274 152.918 24.052C152.918 25.83 152.414 27.104 151.462 27.748C151 28.056 150.44 28.21 149.768 28.21C149.054 28.21 148.452 28.028 147.976 27.678C147.066 27.02 146.618 25.774 146.618 24.052ZM156.544 16.128V21.308H158.532V22.638H156.544V28.826H155.018V16.128H156.544ZM165.447 19.096V17.696H160.855V16.352H166.945V18.914C166.945 23.744 165.153 26.964 160.771 28.084V26.642C163.991 25.704 165.447 23.058 165.447 19.096ZM170.991 16.128V28.826H169.465V16.128H170.991Z" fill="#020202"/>
</svg>
