<svg width="78" height="23" viewBox="0 0 78 23" fill="none" xmlns="http://www.w3.org/2000/svg">
<path d="M18.3 2.60976C18.4174 4.00309 18.5054 5.46243 18.564 6.98776C18.6227 8.49843 18.6447 10.0384 18.63 11.6078C18.63 13.1624 18.6007 14.7244 18.542 16.2938C18.4834 17.8484 18.4027 19.3738 18.3 20.8698L16.078 20.7598C16.1807 19.3958 16.254 17.9731 16.298 16.4918C16.3567 14.9958 16.386 13.4704 16.386 11.9158C16.0927 11.9451 15.792 11.9744 15.484 12.0038C15.176 12.0184 14.8754 12.0258 14.582 12.0258C14.5674 13.2724 14.538 14.5338 14.494 15.8098C14.45 17.0858 14.3914 18.4424 14.318 19.8798L12.14 19.7698C12.2134 18.4058 12.2647 17.0858 12.294 15.8098C12.338 14.5191 12.36 13.2431 12.36 11.9818C12.3747 10.7058 12.36 9.42243 12.316 8.13176C12.2867 6.84109 12.228 5.51376 12.14 4.14976L14.318 3.92976C14.3914 5.00042 14.4427 6.01976 14.472 6.98776C14.5014 7.95576 14.5307 8.90176 14.56 9.82576C14.8534 9.82576 15.154 9.81843 15.462 9.80376C15.77 9.77443 16.0707 9.74509 16.364 9.71576C16.3494 8.52776 16.3127 7.36176 16.254 6.21776C16.21 5.05909 16.1514 3.92976 16.078 2.82976L18.3 2.60976ZM7.87204 9.78176C8.2827 10.1338 8.66403 10.5444 9.01603 11.0138C9.3827 11.4684 9.7127 11.9524 10.006 12.4658C10.314 12.9644 10.578 13.4778 10.798 14.0058C11.0327 14.5191 11.2307 15.0178 11.392 15.5018L9.39003 16.6458C9.15537 15.8538 8.84003 15.0324 8.44403 14.1818C8.04803 13.3311 7.61537 12.5978 7.14603 11.9818C6.79403 12.8911 6.3907 13.7711 5.93603 14.6218C5.48137 15.4578 4.99737 16.2058 4.48403 16.8658L2.74603 15.4138C3.27403 14.7684 3.7507 14.0351 4.17603 13.2138C4.60137 12.3778 4.96803 11.5198 5.27603 10.6398C5.5987 9.74509 5.85537 8.85776 6.04603 7.97776C6.25137 7.09776 6.3907 6.26909 6.46403 5.49176L8.57603 5.88776C8.5027 7.07576 8.26803 8.37376 7.87204 9.78176Z" fill="white"/>
<path d="M31.6506 7.80176C31.7093 7.69909 31.7533 7.60376 31.7826 7.51576C31.8119 7.41309 31.8413 7.31776 31.8706 7.22976C31.9586 6.87776 31.9146 6.62109 31.7386 6.45976C31.5626 6.28376 31.2326 6.18109 30.7486 6.15176C30.3233 6.13709 29.8613 6.14443 29.3626 6.17376C28.8786 6.20309 28.3726 6.26176 27.8446 6.34976C27.3166 6.42309 26.7813 6.51842 26.2386 6.63576C25.6959 6.75309 25.1753 6.88509 24.6766 7.03176L24.2366 4.80976C25.4393 4.48709 26.6566 4.27442 27.8886 4.17176C29.1206 4.06909 30.2206 4.06176 31.1886 4.14976C32.2886 4.25243 33.0806 4.56042 33.5646 5.07376C34.0486 5.58709 34.1879 6.23976 33.9826 7.03176C33.9533 7.10509 33.9239 7.18576 33.8946 7.27376C33.8799 7.34709 33.8579 7.42043 33.8286 7.49376C33.9459 7.47909 34.0633 7.46443 34.1806 7.44976C34.2979 7.43509 34.4153 7.41309 34.5326 7.38376L34.4226 9.29776C32.0026 9.73776 29.5313 9.95776 27.0086 9.95776C26.8619 10.2218 26.7666 10.4858 26.7226 10.7498C26.6639 11.0578 26.7153 11.2998 26.8766 11.4758C27.0526 11.6371 27.3826 11.7324 27.8666 11.7618C28.2333 11.7764 28.6733 11.7691 29.1866 11.7398C29.6999 11.7104 30.2499 11.6518 30.8366 11.5638C31.4379 11.4758 32.0539 11.3584 32.6846 11.2118C33.3299 11.0651 33.9606 10.8891 34.5766 10.6838L34.9066 12.9278C33.4839 13.2504 32.1199 13.4778 30.8146 13.6098C29.5239 13.7271 28.3726 13.7491 27.3606 13.6758C26.3779 13.6024 25.6006 13.3531 25.0286 12.9278C24.4713 12.5024 24.2733 11.8864 24.4346 11.0798C24.5226 10.6691 24.6913 10.2878 24.9406 9.93576L24.1926 9.89176L24.0826 7.97776C25.3879 8.05109 26.6639 8.07309 27.9106 8.04376C29.1719 8.01443 30.4186 7.93376 31.6506 7.80176ZM30.6826 16.6018C31.9733 16.5724 33.2346 16.5064 34.4666 16.4038C35.6986 16.2864 36.8719 16.1471 37.9866 15.9858L37.8766 18.2078C36.6593 18.3544 35.3393 18.4718 33.9166 18.5598C32.4939 18.6478 31.0566 18.7064 29.6046 18.7358C28.1526 18.7504 26.7153 18.7358 25.2926 18.6918C23.8846 18.6331 22.5793 18.5451 21.3766 18.4278L21.2666 16.2058C22.3813 16.3524 23.5399 16.4624 24.7426 16.5358C25.9599 16.5944 27.1919 16.6238 28.4386 16.6238C28.4679 15.9638 28.4239 15.2451 28.3066 14.4678H30.6606C30.6899 14.8198 30.7046 15.1791 30.7046 15.5458C30.7193 15.9124 30.7119 16.2644 30.6826 16.6018Z" fill="white"/>
<path d="M48.6532 6.83376C48.1985 6.81909 47.7218 6.84843 47.2232 6.92176C46.7245 6.99509 46.2258 7.09776 45.7272 7.22976C45.2285 7.36176 44.7372 7.53043 44.2532 7.73576C43.7838 7.92643 43.3512 8.13909 42.9552 8.37376L42.1632 6.10776C43.1898 5.59442 44.3045 5.20576 45.5072 4.94176C46.7098 4.66309 47.9052 4.56042 49.0932 4.63376C50.4865 4.70709 51.4985 5.09576 52.1292 5.79976C52.7598 6.48909 53.1045 7.39843 53.1632 8.52776C53.1778 8.90909 53.1632 9.31243 53.1192 9.73776C53.0898 10.1484 53.0312 10.5664 52.9432 10.9918C52.8552 11.4171 52.7525 11.8351 52.6352 12.2458C52.5178 12.6564 52.3858 13.0378 52.2392 13.3898L49.9512 12.6198C50.2445 12.0478 50.4645 11.4024 50.6112 10.6838C50.7725 9.96509 50.8385 9.29776 50.8092 8.68176C50.7798 8.10976 50.6112 7.66976 50.3032 7.36176C49.9952 7.03909 49.4452 6.86309 48.6532 6.83376ZM47.7292 16.3818C49.2692 16.3671 50.7798 16.3084 52.2612 16.2058C53.7425 16.1031 55.1432 15.9491 56.4632 15.7438L56.3532 17.9658C55.1358 18.1271 53.8158 18.2518 52.3932 18.3398C50.9705 18.4278 49.5332 18.4791 48.0812 18.4938C46.6292 18.5084 45.1918 18.4938 43.7692 18.4498C42.3612 18.3911 41.0558 18.3031 39.8532 18.1858L39.7432 15.9638C40.6525 16.0811 41.5985 16.1764 42.5812 16.2498C43.5638 16.3084 44.5612 16.3524 45.5732 16.3818C45.6172 15.6191 45.6172 14.8491 45.5732 14.0718C45.5438 13.2798 45.4778 12.5024 45.3752 11.7398H47.7512C47.8098 12.4438 47.8318 13.1991 47.8172 14.0058C47.8172 14.8124 47.7878 15.6044 47.7292 16.3818Z" fill="white"/>
<path d="M65.7657 4.67776C64.9737 4.75109 64.1744 4.75109 63.3677 4.67776C62.5611 4.60443 61.7544 4.45776 60.9477 4.23776L61.3657 2.30176C62.1577 2.56576 62.9057 2.76376 63.6097 2.89576C64.3284 3.01309 65.0837 3.03509 65.8757 2.96176L65.7657 4.67776ZM70.5397 13.3678C70.6864 12.5758 70.7964 11.7104 70.8697 10.7718C70.9577 9.83309 71.0017 8.88709 71.0017 7.93376C71.0164 6.98043 70.9944 6.04909 70.9357 5.13976C70.8771 4.21576 70.7817 3.37243 70.6497 2.60976L72.9597 2.38976C73.165 4.22309 73.2457 6.10776 73.2017 8.04376C73.1577 9.97976 73.0037 11.7911 72.7397 13.4778L70.5397 13.3678ZM67.0637 13.7418C66.6824 13.2724 66.2717 12.8691 65.8317 12.5318C65.4064 12.1944 64.8931 11.8571 64.2917 11.5198C63.6024 12.0918 62.8471 12.6418 62.0257 13.1698C61.2191 13.6978 60.4197 14.1524 59.6277 14.5338L58.4177 12.6638C58.9751 12.4144 59.5544 12.1211 60.1557 11.7838C60.7571 11.4464 61.3291 11.1018 61.8717 10.7498C62.4144 10.3978 62.8911 10.0604 63.3017 9.73776C63.7271 9.40042 64.0351 9.10709 64.2257 8.85776C64.5631 8.43243 64.7097 8.12443 64.6657 7.93376C64.6364 7.74309 64.4164 7.62576 64.0057 7.58176C63.4337 7.52309 62.7811 7.57443 62.0477 7.73576C61.3144 7.88243 60.6324 8.09509 60.0017 8.37376L59.5617 6.19576C59.9577 6.09309 60.3757 5.99776 60.8157 5.90976C61.2704 5.82176 61.7251 5.75576 62.1797 5.71176C62.6344 5.65309 63.0817 5.62376 63.5217 5.62376C63.9764 5.62376 64.3944 5.65309 64.7757 5.71176C65.3331 5.79976 65.7951 5.96109 66.1617 6.19576C66.5431 6.43043 66.7924 6.73109 66.9097 7.09776C67.0417 7.44976 67.0344 7.86043 66.8877 8.32976C66.7411 8.79909 66.4404 9.31243 65.9857 9.86976L65.5677 10.3318C66.1251 10.5371 66.6457 10.7718 67.1297 11.0358C67.6284 11.2998 68.1344 11.6444 68.6477 12.0698L67.0637 13.7418ZM72.9597 17.5258C72.901 17.8631 72.8131 18.1784 72.6957 18.4718C72.5784 18.7651 72.417 19.0584 72.2117 19.3518L73.0697 19.2198V21.1998C71.7057 21.3758 70.4151 21.4784 69.1977 21.5078C67.9951 21.5518 66.7704 21.5444 65.5237 21.4858C65.5237 21.6324 65.5164 21.7424 65.5017 21.8158H63.5877C63.6171 21.3464 63.6244 20.8331 63.6097 20.2758C63.5951 19.7331 63.5511 19.1758 63.4777 18.6038C63.4191 18.0318 63.3311 17.4598 63.2137 16.8878C63.1111 16.3011 62.9937 15.7511 62.8617 15.2378L65.1057 14.8858L65.2597 15.5458C65.8757 15.2964 66.5724 15.0691 67.3497 14.8638C68.1417 14.6438 68.9117 14.5411 69.6597 14.5558C70.8477 14.5704 71.7277 14.8564 72.2997 15.4138C72.8717 15.9564 73.0917 16.6604 72.9597 17.5258ZM65.6337 19.7038C66.3377 19.7184 67.0417 19.7184 67.7457 19.7038C68.4644 19.6891 69.1831 19.6524 69.9017 19.5938C70.107 19.2711 70.2831 18.9558 70.4297 18.6478C70.5764 18.3398 70.6717 18.0024 70.7157 17.6358C70.7597 17.2544 70.6424 16.9758 70.3637 16.7998C70.0851 16.6238 69.7037 16.5358 69.2197 16.5358C68.6771 16.5358 68.0757 16.6164 67.4157 16.7778C66.7704 16.9244 66.1397 17.1224 65.5237 17.3718C65.5677 17.7531 65.5971 18.1418 65.6117 18.5378C65.6264 18.9191 65.6337 19.3078 65.6337 19.7038Z" fill="white"/>
<path d="M1.91003 21.1998H75.8197V22.2998H1.91003V21.1998Z" fill="white"/>
</svg>
