<svg width="1340" height="692" viewBox="0 0 1340 692" fill="none" xmlns="http://www.w3.org/2000/svg">
<g filter="url(#filter0_d_759_509)">
<path d="M1225.8 511.974L1242.09 506.06L1239.81 483.077L1233.12 483.083L1237.08 451.992L1225.8 442.813L1239.71 431.239L1247.94 366.538L1237.71 354.059L1251.12 341.645L1260 271.822L1250.78 271.775L1250.7 243.937L1244.41 240.879L1250.68 235.58L1250.58 194.482L1242.27 181.512L1250.52 172.422L1250.4 121.548L1234.14 105.621L1250.33 95.2122L1250.28 78.3449L93.8872 70L93.916 83.8511L110.314 95.6913L94.0118 120.141L94.1747 184.487L110.573 198.521L94.261 217.429L94.3472 251.217L95.344 252.4L105.762 256.676L94.3856 265.855V265.937L80 265.866L86.4021 315.09L103.989 328.35L90.2645 344.815L98.9284 411.474L120.847 423.835L106.567 470.22L108.311 483.639L94.9414 484.189L90.7916 515.469L105.973 512.589L86.3734 548.867L80.8242 590.71L1251.62 602L1246.03 545.673L1225.8 511.974Z" fill="#6D3903"/>
<path fill-rule="evenodd" clip-rule="evenodd" d="M129.435 556.241L123.793 556.413L118.934 570.134L1220.9 578.118L1217.59 565.373L1194.98 564.316L1195.88 558.164H1215.73L1207 524.494L1201.07 522.82L1202.04 516.206L1204.71 515.694L1199.6 495.998L1199.55 495.622L1209.55 495.751L1209.75 493.953L1198.87 490.891L1197.82 483.618L1211.23 480.924L1213.71 459.006L1194.02 456.595V440.315L1216.03 438.49L1221.12 393.654L1194.02 387.144V381.346L1222.52 381.317L1227.54 337.026L1221.83 336.794L1207.33 324.016L1229.04 323.701L1231.22 304.498L1203.5 301.787L1202.97 298.363L1232.18 296.064L1233 288.825L1201.23 287.234L1200.21 280.763L1200.58 280.479L1224.08 280.457L1224.03 263.022L1223.33 263.022L1223.98 262.529V259.795L1224.02 259.792L1224.01 254.671L1223.98 254.657V246.949L1223.99 246.941L1223.94 228.808L1224.08 223.532L1223.92 223.331L1223.89 208.954L1215.94 196.96L1223.83 188.562L1223.8 177.561L1211.63 176.734L1211.85 175.84L1223.8 175.828L1223.74 155.365L1216.9 155.091L1217.71 151.781L1223.73 151.775L1223.71 141.532L1208.7 127.319L1211.34 124.829L1215.89 122.003L1214.35 121.986L1223.48 113.372L1223.63 113.369L1223.63 113.231L1223.98 112.904L1223.63 112.816L1223.6 101.593L117.605 93.8813L117.635 106.686L133.321 117.627L129.94 122.536L142.097 122.718L133.671 132.033L123.267 132.194L117.724 140.231L117.734 142.585L124.133 142.579L118.359 148.963L117.754 148.996L117.853 187.686L118.116 187.686L124.195 199.107L117.883 199.113V199.716L128.506 208.499L117.989 229.815V230.138L117.962 230.168L117.972 233.947L117.989 233.953V261.456L123 271.099L118.081 274.933L118.101 281.497L121.8 281.492L110 282.314L110.169 283.763L130.762 286.037L135.445 295.049L111.626 296.212L115.414 328.728L124.328 334.532L118.066 348.167L117.675 348.192L120.61 373.327L120.861 373.566L124.443 405.032L124.338 405.347L125.31 413.692L133.277 413.684L139.169 418.053L139.732 418.676L126.123 420.676L129.692 451.294L169.184 451.258L170.68 452.912L163.293 458.664L130.644 459.539L133.262 481.977L148.467 482.171V487.193L148.314 487.199L139.39 512.406L157.208 519.603L135.9 522.235L125.349 552.043H133.713L129.435 556.241Z" fill="url(#paint0_linear_759_509)"/>
</g>
<defs>
<filter id="filter0_d_759_509" x="0" y="0" width="1340" height="692" filterUnits="userSpaceOnUse" color-interpolation-filters="sRGB">
<feFlood flood-opacity="0" result="BackgroundImageFix"/>
<feColorMatrix in="SourceAlpha" type="matrix" values="0 0 0 0 0 0 0 0 0 0 0 0 0 0 0 0 0 0 127 0" result="hardAlpha"/>
<feOffset dy="10"/>
<feGaussianBlur stdDeviation="40"/>
<feComposite in2="hardAlpha" operator="out"/>
<feColorMatrix type="matrix" values="0 0 0 0 0 0 0 0 0 0 0 0 0 0 0 0 0 0 0.45 0"/>
<feBlend mode="normal" in2="BackgroundImageFix" result="effect1_dropShadow_759_509"/>
<feBlend mode="normal" in="SourceGraphic" in2="effect1_dropShadow_759_509" result="shape"/>
</filter>
<linearGradient id="paint0_linear_759_509" x1="693.743" y1="27.5" x2="686.493" y2="864.004" gradientUnits="userSpaceOnUse">
<stop stop-color="#965E2E"/>
<stop offset="0.322639" stop-color="#BA7A43" stop-opacity="0.677361"/>
<stop offset="0.53795" stop-color="#AE611E" stop-opacity="0.46205"/>
<stop offset="1" stop-color="#FA9239" stop-opacity="0"/>
</linearGradient>
</defs>
</svg>
