<svg width="485" height="74" viewBox="0 0 485 74" fill="none" xmlns="http://www.w3.org/2000/svg">
<rect x="3" y="3" width="479" height="68" rx="27" fill="#965E2E" stroke="#4D3114" stroke-width="6"/>
<rect x="11" y="11" width="463" height="52" rx="21" fill="#6E3D12"/>
<path d="M173.708 26.1401C173.857 27.9134 173.969 29.7707 174.044 31.7121C174.118 33.6347 174.146 35.5947 174.128 37.5921C174.128 39.5707 174.09 41.5587 174.016 43.5561C173.941 45.5347 173.838 47.4761 173.708 49.3801L170.908 49.2401C171.038 47.5041 171.132 45.6841 171.188 43.7801C171.262 41.8574 171.3 39.9161 171.3 37.9561C171.3 35.9774 171.262 34.0081 171.188 32.0481C171.132 30.0881 171.038 28.2121 170.908 26.4201L173.708 26.1401ZM168.892 27.8201C169.004 29.7054 169.088 31.4787 169.144 33.1401C169.2 34.8014 169.228 36.4347 169.228 38.0401C169.228 39.6454 169.2 41.2694 169.144 42.9121C169.088 44.5361 169.004 46.2721 168.892 48.1201L166.148 47.9801C166.241 46.2067 166.306 44.4894 166.344 42.8281C166.4 41.1667 166.437 39.5054 166.456 37.8441C165.896 37.9187 165.326 37.9654 164.748 37.9841C164.169 37.9841 163.637 37.9654 163.152 37.9281C162.368 39.3094 161.369 40.6067 160.156 41.8201C158.961 43.0147 157.654 44.0601 156.236 44.9561L154.528 42.5761C155.218 42.1841 155.881 41.7547 156.516 41.2881C157.15 40.8214 157.729 40.3361 158.252 39.8321C158.793 39.3094 159.269 38.7961 159.68 38.2921C160.109 37.7694 160.473 37.2654 160.772 36.7801C160.996 36.4067 161.164 36.0334 161.276 35.6601C161.388 35.2867 161.416 34.9507 161.36 34.6521C161.304 34.3534 161.154 34.1107 160.912 33.9241C160.669 33.7187 160.314 33.5974 159.848 33.5601C159.138 33.5227 158.42 33.6067 157.692 33.8121C156.982 33.9987 156.376 34.2601 155.872 34.5961L155.032 31.9921C155.816 31.5627 156.674 31.2547 157.608 31.0681C158.56 30.8814 159.474 30.8347 160.352 30.9281C161.024 30.9841 161.602 31.1427 162.088 31.4041C162.573 31.6654 162.956 31.9921 163.236 32.3841C163.534 32.7761 163.74 33.2147 163.852 33.7001C163.982 34.1854 164.038 34.6894 164.02 35.2121C164.412 35.2307 164.804 35.2401 165.196 35.2401C165.606 35.2214 166.017 35.1934 166.428 35.1561C166.39 33.9987 166.353 32.8414 166.316 31.6841C166.278 30.5267 166.222 29.3321 166.148 28.1001L168.892 27.8201Z" fill="white"/>
<path d="M193.163 39.3281C193.35 38.3201 193.49 37.2467 193.583 36.1081C193.695 34.9694 193.751 33.8214 193.751 32.6641C193.77 31.5067 193.742 30.3774 193.667 29.2761C193.593 28.1561 193.471 27.1107 193.303 26.1401L196.243 25.8601C196.505 28.1934 196.607 30.5081 196.551 32.8041C196.495 35.1001 196.299 37.3214 195.963 39.4681L193.163 39.3281ZM184.063 38.7961C183.186 38.8147 182.402 38.6934 181.711 38.4321C181.021 38.1707 180.433 37.8067 179.947 37.3401C179.462 36.8734 179.079 36.3321 178.799 35.7161C178.519 35.0814 178.37 34.4094 178.351 33.7001C178.314 32.9534 178.426 32.2254 178.687 31.5161C178.949 30.8067 179.341 30.1721 179.863 29.6121C180.386 29.0334 181.039 28.5667 181.823 28.2121C182.626 27.8574 183.559 27.6707 184.623 27.6521V28.4641C185.37 28.5014 186.042 28.6601 186.639 28.9401C187.237 29.2201 187.741 29.5841 188.151 30.0321C188.562 30.4801 188.87 30.9934 189.075 31.5721C189.299 32.1507 189.402 32.7667 189.383 33.4201C189.365 34.0921 189.225 34.7454 188.963 35.3801C188.721 36.0147 188.366 36.5841 187.899 37.0881C187.433 37.5921 186.873 38.0027 186.219 38.3201C185.585 38.6187 184.866 38.7774 184.063 38.7961ZM181.123 33.4761C181.123 33.8494 181.179 34.2134 181.291 34.5681C181.403 34.9041 181.571 35.2027 181.795 35.4641C182.019 35.7067 182.299 35.9027 182.635 36.0521C182.99 36.2014 183.391 36.2761 183.839 36.2761C184.306 36.2761 184.717 36.1921 185.071 36.0241C185.426 35.8561 185.715 35.6414 185.939 35.3801C186.163 35.1187 186.331 34.8201 186.443 34.4841C186.555 34.1294 186.611 33.7747 186.611 33.4201C186.611 33.0841 186.555 32.7574 186.443 32.4401C186.331 32.1227 186.154 31.8427 185.911 31.6001C185.687 31.3574 185.379 31.1707 184.987 31.0401C184.614 30.9094 184.166 30.8721 183.643 30.9281L183.615 30.2841C182.85 30.4894 182.243 30.8907 181.795 31.4881C181.347 32.0854 181.123 32.7481 181.123 33.4761ZM196.243 44.6201C196.169 45.0867 196.047 45.5627 195.879 46.0481C195.73 46.5147 195.515 46.9814 195.235 47.4481L196.383 47.2801V49.8001C194.647 50.0241 193.005 50.1547 191.455 50.1921C189.925 50.2481 188.366 50.2387 186.779 50.1641C186.779 50.3507 186.77 50.4907 186.751 50.5841H184.315C184.353 49.9867 184.362 49.3147 184.343 48.5681C184.325 47.8214 184.269 47.0467 184.175 46.2441C184.101 45.4414 183.989 44.6481 183.839 43.8641C183.709 43.0801 183.559 42.3614 183.391 41.7081L186.247 41.2601L186.443 42.1001C187.227 41.7827 188.114 41.4934 189.103 41.2321C190.111 40.9521 191.091 40.8214 192.043 40.8401C193.555 40.8587 194.675 41.2227 195.403 41.9321C196.131 42.6227 196.411 43.5187 196.243 44.6201ZM186.919 47.8961C187.815 47.9147 188.711 47.9147 189.607 47.8961C190.503 47.8774 191.409 47.8307 192.323 47.7561C192.585 47.2707 192.809 46.7761 192.995 46.2721C193.201 45.7494 193.331 45.2454 193.387 44.7601C193.443 44.2747 193.294 43.9201 192.939 43.6961C192.585 43.4721 192.099 43.3601 191.483 43.3601C190.793 43.3601 190.027 43.4627 189.187 43.6681C188.366 43.8547 187.563 44.1067 186.779 44.4241C186.835 45.0027 186.873 45.5814 186.891 46.1601C186.929 46.7201 186.938 47.2987 186.919 47.8961Z" fill="white"/>
<path d="M222.426 30.1161C222.445 30.0974 222.454 30.0787 222.454 30.0601C222.604 29.6121 222.613 29.3041 222.482 29.1361C222.352 28.9681 222.044 28.8654 221.559 28.8281C221.055 28.7907 220.495 28.7814 219.879 28.8001C219.281 28.8001 218.656 28.8374 218.003 28.9121C217.349 28.9681 216.686 29.0521 216.014 29.1641C215.361 29.2761 214.727 29.4067 214.111 29.5561L213.635 27.0641C215.053 26.7841 216.5 26.5974 217.975 26.5041C219.468 26.4107 220.83 26.4201 222.062 26.5321C222.79 26.6067 223.351 26.7654 223.743 27.0081C224.153 27.2321 224.443 27.5027 224.611 27.8201C224.797 28.1187 224.891 28.4454 224.891 28.8001C224.891 29.1547 224.844 29.4907 224.751 29.8081C224.919 29.7894 225.087 29.7707 225.255 29.7521C225.441 29.7334 225.618 29.7054 225.786 29.6681L225.646 31.6281C224.078 31.8707 222.529 32.0574 220.999 32.1881C219.468 32.3001 217.872 32.3467 216.21 32.3281C216.173 32.4027 216.136 32.4774 216.098 32.5521C216.08 32.6267 216.061 32.7107 216.042 32.8041C215.986 33.0281 216.052 33.2334 216.238 33.4201C216.425 33.5881 216.827 33.7001 217.443 33.7561C218.451 33.8494 219.589 33.8307 220.859 33.7001C222.128 33.5694 223.593 33.3174 225.255 32.9441L225.674 35.2961C224.013 35.6134 222.464 35.8094 221.027 35.8841C219.608 35.9587 218.227 35.9494 216.883 35.8561C216.173 35.8001 215.594 35.6787 215.146 35.4921C214.698 35.2867 214.363 35.0441 214.139 34.7641C213.915 34.4841 213.775 34.1947 213.719 33.8961C213.681 33.5787 213.709 33.2801 213.803 33.0001L214.111 32.2441L213.187 32.1881L213.047 30.2281C214.745 30.3774 216.351 30.4334 217.863 30.3961C219.393 30.3587 220.914 30.2654 222.426 30.1161ZM229.986 38.5721C228.698 38.6654 227.28 38.7401 225.73 38.7961C224.2 38.8521 222.613 38.8987 220.971 38.9361C220.989 39.4027 220.989 39.8507 220.971 40.2801C221.736 40.2801 222.389 40.3081 222.93 40.3641C224.293 40.5134 225.208 40.8307 225.674 41.3161C226.16 41.8014 226.281 42.4734 226.038 43.3321L225.954 43.5841L226.71 43.4441L226.598 45.5441C225.049 45.8427 223.463 46.0574 221.839 46.1881C220.233 46.3187 218.581 46.3841 216.883 46.3841C216.789 46.5894 216.733 46.7854 216.715 46.9721C216.696 47.1214 216.696 47.2614 216.715 47.3921C216.733 47.5227 216.789 47.6347 216.883 47.7281C216.995 47.8401 217.153 47.9241 217.359 47.9801C217.564 48.0361 217.844 48.0734 218.199 48.0921C218.684 48.1107 219.253 48.1014 219.907 48.0641C220.56 48.0454 221.26 47.9894 222.007 47.8961C222.753 47.8214 223.509 47.7094 224.275 47.5601C225.059 47.4294 225.814 47.2707 226.542 47.0841L226.907 49.6041C226.141 49.7721 225.348 49.9027 224.527 49.9961C223.724 50.1081 222.93 50.1921 222.146 50.2481C221.362 50.3041 220.616 50.3414 219.907 50.3601C219.197 50.3787 218.562 50.3787 218.003 50.3601C217.144 50.3227 216.434 50.2014 215.874 49.9961C215.333 49.8094 214.913 49.5667 214.615 49.2681C214.316 48.9694 214.12 48.6334 214.027 48.2601C213.952 47.9054 213.961 47.5321 214.055 47.1401C214.148 46.8227 214.241 46.5521 214.335 46.3281C214.204 46.3281 214.073 46.3281 213.943 46.3281C213.831 46.3094 213.709 46.3001 213.579 46.3001L213.411 44.2001C216.92 44.4054 220.289 44.3121 223.519 43.9201L223.603 43.4721C223.659 43.0987 223.584 42.8747 223.379 42.8001C223.192 42.7067 222.818 42.6321 222.258 42.5761C221.773 42.5201 221.204 42.5014 220.551 42.5201C219.897 42.5201 219.216 42.5574 218.507 42.6321C217.797 42.6881 217.079 42.7721 216.351 42.8841C215.623 42.9774 214.951 43.0987 214.335 43.2481L213.915 40.6721C214.549 40.5787 215.249 40.5041 216.014 40.4481C216.798 40.3921 217.592 40.3454 218.395 40.3081C218.432 39.8787 218.432 39.4401 218.395 38.9921C216.696 39.0107 215.035 39.0107 213.411 38.9921C211.805 38.9734 210.33 38.9267 208.986 38.8521L208.846 36.5841C210.284 36.7334 211.927 36.8267 213.775 36.8641C215.641 36.9014 217.545 36.9107 219.486 36.8921C221.428 36.8547 223.323 36.7894 225.171 36.6961C227.037 36.5841 228.689 36.4534 230.126 36.3041L229.986 38.5721Z" fill="white"/>
<path d="M250.29 28.5481C249.282 28.6414 248.208 28.6414 247.07 28.5481C245.95 28.4547 244.867 28.2494 243.822 27.9321L244.298 25.5801C245.455 25.9534 246.5 26.2054 247.434 26.3361C248.386 26.4481 249.356 26.4761 250.346 26.4201L250.29 28.5481ZM262.05 35.9401C261.564 36.0521 260.986 36.1361 260.314 36.1921C259.66 36.2294 259.007 36.2387 258.354 36.2201C258.316 37.1161 258.27 37.9747 258.214 38.7961C258.176 39.6174 258.111 40.3734 258.018 41.0641L255.218 40.9241C255.255 40.6627 255.283 40.4014 255.302 40.1401C255.339 39.8601 255.376 39.5801 255.414 39.3001C254.406 39.6361 253.323 39.9627 252.166 40.2801C251.027 40.5974 249.823 40.8867 248.554 41.1481C247.303 41.3907 245.996 41.6054 244.634 41.7921C243.29 41.9601 241.908 42.0721 240.49 42.1281L240.21 39.3561C241.218 39.3747 242.226 39.3654 243.234 39.3281C244.242 39.2721 245.259 39.1787 246.286 39.0481C246.304 38.7867 246.304 38.5347 246.286 38.2921C246.286 38.0307 246.276 37.7694 246.258 37.5081C245.082 37.3587 244.167 36.9574 243.514 36.3041C242.86 35.6321 242.534 34.7921 242.534 33.7841C242.534 33.1681 242.739 32.5707 243.15 31.9921C242.683 31.9547 242.235 31.9267 241.806 31.9081C241.395 31.8707 241.003 31.8241 240.63 31.7681L240.49 29.3321C242.692 29.5934 244.904 29.6961 247.126 29.6401C249.366 29.5654 251.475 29.3694 253.454 29.0521V31.4881C253.099 31.5441 252.726 31.6001 252.334 31.6561C251.96 31.6934 251.578 31.7307 251.186 31.7681C251.746 32.4214 252.026 33.0934 252.026 33.7841C252.026 34.6801 251.746 35.4361 251.186 36.0521C250.644 36.6681 249.935 37.1067 249.058 37.3681C249.076 37.5734 249.076 37.7881 249.058 38.0121C249.058 38.2361 249.058 38.4507 249.058 38.6561C251.372 38.2641 253.547 37.7134 255.582 37.0041C255.619 36.0707 255.638 35.1187 255.638 34.1481C255.638 33.1587 255.619 32.1881 255.582 31.2361C255.563 30.2841 255.516 29.3787 255.442 28.5201C255.367 27.6427 255.283 26.8494 255.19 26.1401L258.13 25.8601C258.223 26.9987 258.298 28.2307 258.354 29.5561C258.41 30.8627 258.428 32.1881 258.41 33.5321C259.007 33.5134 259.604 33.4667 260.202 33.3921C260.818 33.3174 261.387 33.2054 261.91 33.0561L262.05 35.9401ZM245.194 33.7841C245.194 34.3814 245.399 34.8201 245.81 35.1001C246.22 35.3801 246.724 35.5201 247.322 35.5201C247.919 35.5201 248.414 35.3707 248.806 35.0721C249.198 34.7547 249.394 34.3254 249.394 33.7841C249.394 33.2987 249.198 32.8881 248.806 32.5521C248.414 32.2161 247.919 32.0481 247.322 32.0481C246.724 32.0481 246.22 32.2161 245.81 32.5521C245.399 32.8881 245.194 33.2987 245.194 33.7841ZM253.538 42.3241C254.378 42.3614 255.087 42.4827 255.666 42.6881C256.263 42.8934 256.748 43.1641 257.122 43.5001C257.495 43.8361 257.766 44.2374 257.934 44.7041C258.12 45.1707 258.223 45.6934 258.242 46.2721C258.26 46.7947 258.223 47.4201 258.13 48.1481C258.055 48.8761 257.896 49.5947 257.654 50.3041L254.882 49.7441C255.087 49.2587 255.246 48.7454 255.358 48.2041C255.488 47.6627 255.544 47.1027 255.526 46.5241C255.507 45.8707 255.246 45.4414 254.742 45.2361C254.256 45.0121 253.659 44.8907 252.95 44.8721C252.427 44.8721 251.858 44.9001 251.242 44.9561C250.626 44.9934 249.991 45.0681 249.338 45.1801C248.703 45.2921 248.059 45.4321 247.406 45.6001C246.752 45.7681 246.136 45.9641 245.558 46.1881L244.858 43.5841C245.474 43.3787 246.164 43.1921 246.93 43.0241C247.695 42.8561 248.46 42.7161 249.226 42.6041C250.01 42.4921 250.775 42.4174 251.522 42.3801C252.268 42.3241 252.94 42.3054 253.538 42.3241Z" fill="white"/>
<path d="M279.097 42.7441C279.34 41.5307 279.536 40.2054 279.685 38.7681C279.835 37.3121 279.928 35.8467 279.965 34.3721C280.021 32.8974 280.012 31.4507 279.937 30.0321C279.863 28.6134 279.732 27.3161 279.545 26.1401L282.485 25.8601C282.597 27.1294 282.672 28.5014 282.709 29.9761C282.747 31.4507 282.737 32.9534 282.681 34.4841C282.644 35.9961 282.56 37.4894 282.429 38.9641C282.299 40.4387 282.121 41.8107 281.897 43.0801L279.097 42.7441ZM275.625 33.7001C275.607 34.3721 275.467 35.0254 275.205 35.6601C274.963 36.2947 274.608 36.8641 274.141 37.3681C273.675 37.8721 273.115 38.2827 272.461 38.6001C271.827 38.8987 271.108 39.0574 270.305 39.0761C269.428 39.0947 268.644 38.9734 267.953 38.7121C267.263 38.4507 266.675 38.0867 266.189 37.6201C265.704 37.1534 265.321 36.6121 265.041 35.9961C264.761 35.3614 264.612 34.6894 264.593 33.9801C264.556 33.2334 264.668 32.5054 264.929 31.7961C265.191 31.0867 265.583 30.4521 266.105 29.8921C266.628 29.3134 267.281 28.8467 268.065 28.4921C268.868 28.1374 269.801 27.9507 270.865 27.9321V28.7441C271.612 28.7814 272.284 28.9401 272.881 29.2201C273.479 29.5001 273.983 29.8641 274.393 30.3121C274.804 30.7601 275.112 31.2734 275.317 31.8521C275.541 32.4307 275.644 33.0467 275.625 33.7001ZM272.853 33.7001C272.853 33.3641 272.797 33.0374 272.685 32.7201C272.573 32.4027 272.396 32.1227 272.153 31.8801C271.929 31.6374 271.621 31.4507 271.229 31.3201C270.856 31.1894 270.408 31.1521 269.885 31.2081L269.857 30.5641C269.092 30.7694 268.485 31.1707 268.037 31.7681C267.589 32.3654 267.365 33.0281 267.365 33.7561C267.365 34.1294 267.421 34.4934 267.533 34.8481C267.645 35.1841 267.813 35.4827 268.037 35.7441C268.261 35.9867 268.541 36.1827 268.877 36.3321C269.232 36.4814 269.633 36.5561 270.081 36.5561C270.548 36.5561 270.959 36.4721 271.313 36.3041C271.668 36.1361 271.957 35.9214 272.181 35.6601C272.405 35.3987 272.573 35.1001 272.685 34.7641C272.797 34.4094 272.853 34.0547 272.853 33.7001ZM282.877 49.1841C281.683 49.5574 280.451 49.8374 279.181 50.0241C277.931 50.2107 276.708 50.2854 275.513 50.2481C274.636 50.2294 273.889 50.1267 273.273 49.9401C272.676 49.7534 272.181 49.5107 271.789 49.2121C271.416 48.9321 271.127 48.5867 270.921 48.1761C270.716 47.7841 270.567 47.3641 270.473 46.9161C270.193 45.5347 270.268 43.7707 270.697 41.6241L273.553 41.9041C273.385 42.7627 273.264 43.5747 273.189 44.3401C273.115 45.1054 273.143 45.7587 273.273 46.3001C273.423 46.8787 273.703 47.2427 274.113 47.3921C274.524 47.5601 275.149 47.6627 275.989 47.7001C277.053 47.7374 278.089 47.6534 279.097 47.4481C280.124 47.2614 281.225 46.9814 282.401 46.6081L282.877 49.1841Z" fill="white"/>
<path d="M309.081 38.0121C308.577 38.1054 307.998 38.1801 307.345 38.2361C306.71 38.2734 306.066 38.2827 305.413 38.2641C305.413 40.1681 305.376 42.0347 305.301 43.8641C305.245 45.6747 305.152 47.4201 305.021 49.1001L302.081 48.9601C302.23 47.2241 302.333 45.3947 302.389 43.4721C302.464 41.5307 302.492 39.5707 302.473 37.5921C302.473 35.6134 302.426 33.6534 302.333 31.7121C302.24 29.7521 302.109 27.8947 301.941 26.1401L304.881 25.8601C305.012 27.3161 305.114 28.8281 305.189 30.3961C305.282 31.9641 305.348 33.5694 305.385 35.2121C305.964 35.1747 306.552 35.1187 307.149 35.0441C307.746 34.9507 308.344 34.8201 308.941 34.6521L309.081 38.0121ZM296.649 30.7041C295.529 30.8534 294.428 30.9001 293.345 30.8441C292.281 30.7694 291.189 30.5547 290.069 30.2001L290.573 27.5401C291.656 27.8761 292.701 28.1374 293.709 28.3241C294.736 28.4921 295.744 28.5107 296.733 28.3801L296.649 30.7041ZM286.905 32.3561C288.006 32.5054 289.117 32.6174 290.237 32.6921C291.357 32.7481 292.458 32.7667 293.541 32.7481C294.642 32.7107 295.706 32.6361 296.733 32.5241C297.76 32.4121 298.73 32.2627 299.645 32.0761V34.7641C299.253 34.8387 298.852 34.9041 298.441 34.9601C298.03 35.0161 297.61 35.0721 297.181 35.1281C297.554 35.6134 297.825 36.1547 297.993 36.7521C298.18 37.3307 298.273 37.9281 298.273 38.5441C298.273 39.2161 298.161 39.8787 297.937 40.5321C297.713 41.1667 297.386 41.7361 296.957 42.2401C296.528 42.7254 295.996 43.1174 295.361 43.4161C294.726 43.7147 293.998 43.8641 293.177 43.8641C292.337 43.8641 291.6 43.7147 290.965 43.4161C290.33 43.1174 289.798 42.7254 289.369 42.2401C288.94 41.7361 288.613 41.1667 288.389 40.5321C288.184 39.8787 288.081 39.2161 288.081 38.5441C288.081 37.9654 288.156 37.3961 288.305 36.8361C288.473 36.2761 288.734 35.7627 289.089 35.2961C288.324 35.2401 287.642 35.1561 287.045 35.0441L286.905 32.3561ZM293.177 41.3441C293.569 41.3441 293.914 41.2694 294.213 41.1201C294.512 40.9521 294.754 40.7467 294.941 40.5041C295.128 40.2427 295.268 39.9441 295.361 39.6081C295.454 39.2721 295.501 38.9174 295.501 38.5441C295.501 38.2267 295.473 37.8907 295.417 37.5361C295.361 37.1627 295.249 36.8267 295.081 36.5281C294.932 36.2294 294.708 35.9867 294.409 35.8001C294.11 35.5947 293.718 35.4921 293.233 35.4921C292.804 35.4921 292.44 35.5947 292.141 35.8001C291.842 35.9867 291.6 36.2294 291.413 36.5281C291.226 36.8267 291.086 37.1627 290.993 37.5361C290.9 37.8907 290.853 38.2267 290.853 38.5441C290.853 38.9174 290.89 39.2721 290.965 39.6081C291.058 39.9441 291.198 40.2427 291.385 40.5041C291.572 40.7467 291.805 40.9521 292.085 41.1201C292.384 41.2694 292.748 41.3441 293.177 41.3441Z" fill="white"/>
<path d="M329.517 25.8601C329.685 27.6334 329.806 29.5094 329.881 31.4881C329.974 33.4667 330.021 35.4641 330.021 37.4801C330.039 39.4961 330.011 41.4934 329.937 43.4721C329.881 45.4321 329.787 47.3081 329.657 49.1001L326.717 48.9601C326.866 47.2241 326.969 45.3947 327.025 43.4721C327.099 41.5307 327.127 39.5707 327.109 37.5921C327.109 35.6134 327.062 33.6534 326.969 31.7121C326.875 29.7521 326.745 27.8947 326.577 26.1401L329.517 25.8601ZM311.317 42.1001C313.127 41.3534 314.714 40.4574 316.077 39.4121C317.439 38.3481 318.494 37.2747 319.241 36.1921C319.502 35.8187 319.651 35.4547 319.689 35.1001C319.726 34.7454 319.67 34.4374 319.521 34.1761C319.371 33.8961 319.138 33.6627 318.821 33.4761C318.522 33.2894 318.158 33.1774 317.729 33.1401C316.907 33.0467 316.077 33.1121 315.237 33.3361C314.415 33.5601 313.501 33.8961 312.493 34.3441L311.681 31.3481C312.203 31.1241 312.763 30.9374 313.361 30.7881C313.977 30.6201 314.593 30.4987 315.209 30.4241C315.843 30.3307 316.469 30.2841 317.085 30.2841C317.701 30.2841 318.289 30.3401 318.849 30.4521C319.801 30.6387 320.575 30.9747 321.173 31.4601C321.77 31.9267 322.19 32.4867 322.433 33.1401C322.675 33.7747 322.731 34.4747 322.601 35.2401C322.47 35.9867 322.171 36.7427 321.705 37.5081C321.257 38.2174 320.715 38.9081 320.081 39.5801C319.446 40.2521 318.737 40.9054 317.953 41.5401C317.169 42.1561 316.329 42.7347 315.433 43.2761C314.555 43.8174 313.65 44.3121 312.717 44.7601L311.317 42.1001Z" fill="white"/>
</svg>
