<svg width="207" height="53" viewBox="0 0 207 63" fill="none" xmlns="http://www.w3.org/2000/svg">
<path d="M66.8053 8.934V4.332H61.2673V1.238H70.2893V8.778C70.2893 9.194 70.2893 9.584 70.2633 9.974H72.4993V0.951999H75.9573V24.404H72.4993V13.094H69.9513C69.0673 18.242 66.3893 21.882 60.9813 23.39V19.932C64.6213 18.658 66.8053 15.07 66.8053 8.934ZM77.4913 24.69V0.821999H80.9493V24.69H77.4913ZM88.0203 7.114C88.0203 4.826 88.7483 3.084 90.1003 1.992C91.1663 1.134 92.6223 0.691999 94.3383 0.691999C96.0543 0.691999 97.5103 1.134 98.5763 1.992C99.9283 3.084 100.656 4.826 100.656 7.114C100.656 9.376 99.9283 11.144 98.5763 12.236C97.5103 13.094 96.0543 13.536 94.3383 13.536C92.6223 13.536 91.1663 13.094 90.1003 12.236C88.7483 11.144 88.0203 9.376 88.0203 7.114ZM91.5043 7.114C91.5043 8.31 91.8423 9.246 92.4403 9.818C92.9083 10.26 93.5583 10.468 94.3383 10.468C95.1183 10.468 95.7683 10.26 96.2363 9.818C96.8343 9.246 97.1723 8.31 97.1723 7.114C97.1723 5.918 96.8343 4.956 96.2363 4.41C95.7683 3.968 95.1183 3.734 94.3383 3.734C93.5583 3.734 92.9083 3.968 92.4403 4.41C91.8423 4.956 91.5043 5.918 91.5043 7.114ZM104.114 14.186V0.821999H107.676V14.186H104.114ZM89.6843 15.278H107.676V24.95H89.6843V15.278ZM93.2463 18.346V21.908H104.114V18.346H93.2463ZM129.384 8.024H144.438V10.65H125.822V4.566H140.72V3.734H125.822V1.108H144.282V7.166H129.384V8.024ZM133.284 15.382V14.316H124.314V11.56H145.79V14.316H136.794V15.382H144.282V21.388H129.384V22.376H144.828V24.95H125.822V18.892H140.72V17.904H125.822V15.382H133.284ZM0.867708 42.462V39.16H10.6697V42.462H7.65371V49.534C7.65371 55.098 8.79771 56.788 10.9037 57.828V61.234C8.61571 60.688 6.82171 59.362 5.75571 57.75C4.68971 59.362 2.89571 60.688 0.633708 61.234V57.828C2.84371 56.736 3.90971 55.098 3.90971 49.534V42.462H0.867708ZM12.1517 51.094H9.13571V47.714H12.1517V38.874H15.7917V62.534H12.1517V51.094ZM20.7837 38.744V62.742H17.0657V38.744H20.7837ZM40.6987 40.434V43.554H26.8407V40.434H31.8587V38.042H35.8367V40.434H40.6987ZM31.2867 49.534C31.2867 50.08 31.5207 50.548 31.8847 50.886C32.3267 51.302 33.0027 51.536 33.7827 51.536C34.5627 51.536 35.2647 51.302 35.7067 50.886C36.0707 50.548 36.3047 50.08 36.3047 49.534C36.3047 48.962 36.0707 48.494 35.7067 48.156C35.2647 47.74 34.5627 47.532 33.7827 47.532C33.0027 47.532 32.3267 47.74 31.8847 48.156C31.5207 48.494 31.2867 48.962 31.2867 49.534ZM27.5167 49.534C27.5167 48 28.1147 46.752 29.2067 45.894C30.3247 44.984 31.9367 44.49 33.7827 44.49C35.6547 44.49 37.2667 44.984 38.3847 45.894C39.4767 46.752 40.0747 48 40.0747 49.534C40.0747 51.068 39.4767 52.316 38.3847 53.174C37.2667 54.058 35.6547 54.578 33.7827 54.578C31.9367 54.578 30.3247 54.058 29.2067 53.174C28.1147 52.316 27.5167 51.068 27.5167 49.534ZM42.9087 38.744H46.8607V45.218H50.1627V48.624H46.8607V56.32H42.9087V38.744ZM28.8687 55.436H32.8467V59.57H47.2507V62.872H28.8687V55.436ZM70.8042 56.424C69.5822 58.686 66.7742 60.558 63.8622 61.234V57.75C66.6442 56.502 68.8282 54.422 68.8282 47.688V39.004H72.7802V47.688C72.7802 54.422 74.9382 56.476 77.7722 57.75V61.234C74.8342 60.558 72.0782 58.66 70.8042 56.424ZM80.2682 38.744H84.2202V62.742H80.2682V38.744ZM99.3772 42.332H91.4212V39.004H103.329V41.24C103.329 48.858 99.3252 52.784 90.8492 53.59V50.262C96.5952 49.56 99.3512 46.804 99.3772 42.332ZM106.709 38.744H110.661V44.906H113.963V48.312H110.661V55.592H106.709V38.744ZM92.6692 54.292H96.6472V59.57H111.051V62.872H92.6692V54.292ZM132.291 46.362H128.027V50.6H132.291V46.362ZM132.291 56.814H128.027V61.052H132.291V56.814ZM160.745 46.336C160.745 42.93 158.431 40.122 154.167 40.122C149.903 40.122 147.563 42.93 147.563 46.336V47.09H151.723V46.336C151.723 44.542 152.607 43.502 154.167 43.502C155.727 43.502 156.585 44.568 156.585 46.336C156.585 47.48 156.221 48.312 155.259 49.43L147.849 57.984V61.052H161.057V57.698H153.205L158.691 51.38C160.251 49.586 160.745 48.442 160.745 46.336ZM179.723 50.756C179.723 46.336 179.021 43.762 177.565 42.072C176.447 40.772 174.783 40.122 172.625 40.122C170.467 40.122 168.803 40.772 167.685 42.072C166.203 43.762 165.527 46.336 165.527 50.756C165.527 55.202 166.203 57.776 167.685 59.466C168.803 60.766 170.467 61.416 172.625 61.416C174.783 61.416 176.447 60.766 177.565 59.466C179.021 57.776 179.723 55.202 179.723 50.756ZM169.687 50.756C169.687 47.298 169.895 45.504 170.571 44.516C171.065 43.814 171.715 43.502 172.625 43.502C173.509 43.502 174.159 43.814 174.679 44.516C175.355 45.504 175.563 47.298 175.563 50.756C175.563 54.24 175.355 56.034 174.679 57.022C174.159 57.724 173.509 58.036 172.625 58.036C171.715 58.036 171.065 57.724 170.571 57.022C169.895 56.034 169.687 54.24 169.687 50.756ZM204.863 44.334H197.375C197.895 48.104 200.989 49.95 205.123 50.782V54.188C201.067 53.564 197.297 51.848 195.321 49.404C193.319 51.848 189.549 53.564 185.519 54.188V50.782C189.627 49.95 192.721 48.104 193.267 44.334H185.805V40.954H193.345V37.912H197.297V40.954H204.863V44.334ZM193.345 58.4V52.524H197.271V58.4H206.059V61.754H184.635V58.4H193.345Z" fill="white"/>
</svg>
