<svg width="485" height="74" viewBox="0 0 485 74" fill="none" xmlns="http://www.w3.org/2000/svg">
<rect x="3" y="3" width="479" height="68" rx="27" fill="#965E2E" stroke="#4D3114" stroke-width="6"/>
<rect x="11" y="11" width="463" height="52" rx="21" fill="#6E3D12"/>
<path d="M173.707 25.1401C173.857 26.9134 173.969 28.7707 174.043 30.7121C174.118 32.6347 174.146 34.5947 174.127 36.5921C174.127 38.5707 174.09 40.5587 174.015 42.5561C173.941 44.5347 173.838 46.4761 173.707 48.3801L170.907 48.2401C171.038 46.5041 171.131 44.6841 171.187 42.7801C171.262 40.8574 171.299 38.9161 171.299 36.9561C171.299 34.9774 171.262 33.0081 171.187 31.0481C171.131 29.0881 171.038 27.2121 170.907 25.4201L173.707 25.1401ZM168.891 26.8201C169.003 28.7054 169.087 30.4787 169.143 32.1401C169.199 33.8014 169.227 35.4347 169.227 37.0401C169.227 38.6454 169.199 40.2694 169.143 41.9121C169.087 43.5361 169.003 45.2721 168.891 47.1201L166.147 46.9801C166.241 45.2067 166.306 43.4894 166.343 41.8281C166.399 40.1667 166.437 38.5054 166.455 36.8441C165.895 36.9187 165.326 36.9654 164.747 36.9841C164.169 36.9841 163.637 36.9654 163.151 36.9281C162.367 38.3094 161.369 39.6067 160.155 40.8201C158.961 42.0147 157.654 43.0601 156.235 43.9561L154.527 41.5761C155.218 41.1841 155.881 40.7547 156.515 40.2881C157.15 39.8214 157.729 39.3361 158.251 38.8321C158.793 38.3094 159.269 37.7961 159.679 37.2921C160.109 36.7694 160.473 36.2654 160.771 35.7801C160.995 35.4067 161.163 35.0334 161.275 34.6601C161.387 34.2867 161.415 33.9507 161.359 33.6521C161.303 33.3534 161.154 33.1107 160.911 32.9241C160.669 32.7187 160.314 32.5974 159.847 32.5601C159.138 32.5227 158.419 32.6067 157.691 32.8121C156.982 32.9987 156.375 33.2601 155.871 33.5961L155.031 30.9921C155.815 30.5627 156.674 30.2547 157.607 30.0681C158.559 29.8814 159.474 29.8347 160.351 29.9281C161.023 29.9841 161.602 30.1427 162.087 30.4041C162.573 30.6654 162.955 30.9921 163.235 31.3841C163.534 31.7761 163.739 32.2147 163.851 32.7001C163.982 33.1854 164.038 33.6894 164.019 34.2121C164.411 34.2307 164.803 34.2401 165.195 34.2401C165.606 34.2214 166.017 34.1934 166.427 34.1561C166.39 32.9987 166.353 31.8414 166.315 30.6841C166.278 29.5267 166.222 28.3321 166.147 27.1001L168.891 26.8201Z" fill="white"/>
<path d="M193.163 38.3281C193.35 37.3201 193.49 36.2467 193.583 35.1081C193.695 33.9694 193.751 32.8214 193.751 31.6641C193.77 30.5067 193.742 29.3774 193.667 28.2761C193.592 27.1561 193.471 26.1107 193.303 25.1401L196.243 24.8601C196.504 27.1934 196.607 29.5081 196.551 31.8041C196.495 34.1001 196.299 36.3214 195.963 38.4681L193.163 38.3281ZM184.063 37.7961C183.186 37.8147 182.402 37.6934 181.711 37.4321C181.02 37.1707 180.432 36.8067 179.947 36.3401C179.462 35.8734 179.079 35.3321 178.799 34.7161C178.519 34.0814 178.37 33.4094 178.351 32.7001C178.314 31.9534 178.426 31.2254 178.687 30.5161C178.948 29.8067 179.34 29.1721 179.863 28.6121C180.386 28.0334 181.039 27.5667 181.823 27.2121C182.626 26.8574 183.559 26.6707 184.623 26.6521V27.4641C185.37 27.5014 186.042 27.6601 186.639 27.9401C187.236 28.2201 187.74 28.5841 188.151 29.0321C188.562 29.4801 188.87 29.9934 189.075 30.5721C189.299 31.1507 189.402 31.7667 189.383 32.4201C189.364 33.0921 189.224 33.7454 188.963 34.3801C188.72 35.0147 188.366 35.5841 187.899 36.0881C187.432 36.5921 186.872 37.0027 186.219 37.3201C185.584 37.6187 184.866 37.7774 184.063 37.7961ZM181.123 32.4761C181.123 32.8494 181.179 33.2134 181.291 33.5681C181.403 33.9041 181.571 34.2027 181.795 34.4641C182.019 34.7067 182.299 34.9027 182.635 35.0521C182.99 35.2014 183.391 35.2761 183.839 35.2761C184.306 35.2761 184.716 35.1921 185.071 35.0241C185.426 34.8561 185.715 34.6414 185.939 34.3801C186.163 34.1187 186.331 33.8201 186.443 33.4841C186.555 33.1294 186.611 32.7747 186.611 32.4201C186.611 32.0841 186.555 31.7574 186.443 31.4401C186.331 31.1227 186.154 30.8427 185.911 30.6001C185.687 30.3574 185.379 30.1707 184.987 30.0401C184.614 29.9094 184.166 29.8721 183.643 29.9281L183.615 29.2841C182.85 29.4894 182.243 29.8907 181.795 30.4881C181.347 31.0854 181.123 31.7481 181.123 32.4761ZM196.243 43.6201C196.168 44.0867 196.047 44.5627 195.879 45.0481C195.73 45.5147 195.515 45.9814 195.235 46.4481L196.383 46.2801V48.8001C194.647 49.0241 193.004 49.1547 191.455 49.1921C189.924 49.2481 188.366 49.2387 186.779 49.1641C186.779 49.3507 186.77 49.4907 186.751 49.5841H184.315C184.352 48.9867 184.362 48.3147 184.343 47.5681C184.324 46.8214 184.268 46.0467 184.175 45.2441C184.1 44.4414 183.988 43.6481 183.839 42.8641C183.708 42.0801 183.559 41.3614 183.391 40.7081L186.247 40.2601L186.443 41.1001C187.227 40.7827 188.114 40.4934 189.103 40.2321C190.111 39.9521 191.091 39.8214 192.043 39.8401C193.555 39.8587 194.675 40.2227 195.403 40.9321C196.131 41.6227 196.411 42.5187 196.243 43.6201ZM186.919 46.8961C187.815 46.9147 188.711 46.9147 189.607 46.8961C190.503 46.8774 191.408 46.8307 192.323 46.7561C192.584 46.2707 192.808 45.7761 192.995 45.2721C193.2 44.7494 193.331 44.2454 193.387 43.7601C193.443 43.2747 193.294 42.9201 192.939 42.6961C192.584 42.4721 192.099 42.3601 191.483 42.3601C190.792 42.3601 190.027 42.4627 189.187 42.6681C188.366 42.8547 187.563 43.1067 186.779 43.4241C186.835 44.0027 186.872 44.5814 186.891 45.1601C186.928 45.7201 186.938 46.2987 186.919 46.8961Z" fill="white"/>
<path d="M221.082 36.0881C222.762 36.0507 224.377 35.9854 225.926 35.8921C227.494 35.7987 228.894 35.6867 230.126 35.5561L229.986 37.8241C228.512 37.9361 226.86 38.0294 225.03 38.1041C223.22 38.1601 221.372 38.2067 219.486 38.2441C217.601 38.2627 215.744 38.2627 213.914 38.2441C212.104 38.2254 210.461 38.1787 208.986 38.1041L208.846 35.8361C210.153 35.9667 211.637 36.0601 213.298 36.1161C214.96 36.1534 216.677 36.1627 218.45 36.1441C218.432 35.9387 218.422 35.7427 218.422 35.5561C218.422 35.3507 218.404 35.1454 218.366 34.9401L216.882 34.8561C216.173 34.8001 215.594 34.6787 215.146 34.4921C214.698 34.2867 214.362 34.0441 214.138 33.7641C213.914 33.4841 213.774 33.1947 213.718 32.8961C213.681 32.5787 213.709 32.2801 213.802 32.0001L214.11 31.2441L213.186 31.1881L213.046 29.2281C214.745 29.3774 216.35 29.4334 217.862 29.3961C219.393 29.3587 220.914 29.2654 222.426 29.1161C222.445 29.0974 222.454 29.0787 222.454 29.0601C222.604 28.6121 222.613 28.3041 222.482 28.1361C222.352 27.9681 222.044 27.8654 221.558 27.8281C221.054 27.7907 220.494 27.7814 219.878 27.8001C219.281 27.8001 218.656 27.8374 218.002 27.9121C217.349 27.9681 216.686 28.0521 216.014 28.1641C215.361 28.2761 214.726 28.4067 214.11 28.5561L213.634 26.0641C215.053 25.7841 216.5 25.5974 217.974 25.5041C219.468 25.4107 220.83 25.4201 222.062 25.5321C222.79 25.6067 223.35 25.7654 223.742 26.0081C224.153 26.2321 224.442 26.5027 224.61 26.8201C224.797 27.1187 224.89 27.4454 224.89 27.8001C224.89 28.1547 224.844 28.4907 224.75 28.8081C224.918 28.7894 225.086 28.7707 225.254 28.7521C225.441 28.7334 225.618 28.7054 225.786 28.6681L225.646 30.6281C224.078 30.8707 222.529 31.0574 220.998 31.1881C219.468 31.3001 217.872 31.3467 216.21 31.3281C216.173 31.4027 216.136 31.4774 216.098 31.5521C216.08 31.6267 216.061 31.7107 216.042 31.8041C215.986 32.0281 216.052 32.2334 216.238 32.4201C216.425 32.5881 216.826 32.7001 217.442 32.7561C218.45 32.8494 219.589 32.8307 220.858 32.7001C222.128 32.5694 223.593 32.3174 225.254 31.9441L225.674 34.2961C224.013 34.6134 222.482 34.8094 221.082 34.8841V36.0881ZM218.198 47.0921C218.684 47.1107 219.253 47.1014 219.906 47.0641C220.56 47.0454 221.26 46.9894 222.006 46.8961C222.753 46.8214 223.509 46.7094 224.274 46.5601C225.058 46.4294 225.814 46.2707 226.542 46.0841L226.906 48.6041C226.141 48.7721 225.348 48.9027 224.526 48.9961C223.724 49.1081 222.93 49.1921 222.146 49.2481C221.362 49.3041 220.616 49.3414 219.906 49.3601C219.197 49.3787 218.562 49.3787 218.002 49.3601C217.144 49.3227 216.434 49.2014 215.874 48.9961C215.314 48.8094 214.876 48.5667 214.558 48.2681C214.241 47.9881 214.036 47.6707 213.942 47.3161C213.849 46.9801 213.849 46.6347 213.942 46.2801C214.017 45.9254 214.185 45.6081 214.446 45.3281C214.297 45.3281 214.148 45.3281 213.998 45.3281C213.868 45.3094 213.728 45.3001 213.578 45.3001L213.41 43.2001C216.92 43.4054 220.289 43.3121 223.518 42.9201L223.602 42.4721C223.658 42.0987 223.584 41.8747 223.378 41.8001C223.192 41.7067 222.818 41.6321 222.258 41.5761C221.773 41.5201 221.204 41.5014 220.55 41.5201C219.897 41.5201 219.216 41.5574 218.506 41.6321C217.797 41.6881 217.078 41.7721 216.35 41.8841C215.622 41.9774 214.95 42.0987 214.334 42.2481L213.914 39.6721C214.568 39.5787 215.305 39.5041 216.126 39.4481C216.948 39.3734 217.769 39.3267 218.59 39.3081C219.43 39.2707 220.224 39.2614 220.97 39.2801C221.736 39.2801 222.389 39.3081 222.93 39.3641C224.293 39.5134 225.208 39.8307 225.674 40.3161C226.16 40.8014 226.281 41.4734 226.038 42.3321L225.954 42.5841L226.71 42.4441L226.598 44.5441C225.03 44.8427 223.434 45.0574 221.81 45.1881C220.186 45.3187 218.525 45.3841 216.826 45.3841C216.714 45.5707 216.64 45.7667 216.602 45.9721C216.565 46.2894 216.64 46.5414 216.826 46.7281C217.032 46.9334 217.489 47.0547 218.198 47.0921Z" fill="white"/>
<path d="M250.29 27.5481C249.282 27.6414 248.208 27.6414 247.07 27.5481C245.95 27.4547 244.867 27.2494 243.822 26.9321L244.298 24.5801C245.455 24.9534 246.5 25.2054 247.434 25.3361C248.386 25.4481 249.356 25.4761 250.346 25.4201L250.29 27.5481ZM262.05 34.9401C261.564 35.0521 260.986 35.1361 260.314 35.1921C259.66 35.2294 259.007 35.2387 258.354 35.2201C258.316 36.1161 258.27 36.9747 258.214 37.7961C258.176 38.6174 258.111 39.3734 258.018 40.0641L255.218 39.9241C255.255 39.6627 255.283 39.4014 255.302 39.1401C255.339 38.8601 255.376 38.5801 255.414 38.3001C254.406 38.6361 253.323 38.9627 252.166 39.2801C251.027 39.5974 249.823 39.8867 248.554 40.1481C247.303 40.3907 245.996 40.6054 244.634 40.7921C243.29 40.9601 241.908 41.0721 240.49 41.1281L240.21 38.3561C241.218 38.3747 242.226 38.3654 243.234 38.3281C244.242 38.2721 245.259 38.1787 246.286 38.0481C246.304 37.7867 246.304 37.5347 246.286 37.2921C246.286 37.0307 246.276 36.7694 246.258 36.5081C245.082 36.3587 244.167 35.9574 243.514 35.3041C242.86 34.6321 242.534 33.7921 242.534 32.7841C242.534 32.1681 242.739 31.5707 243.15 30.9921C242.683 30.9547 242.235 30.9267 241.806 30.9081C241.395 30.8707 241.003 30.8241 240.63 30.7681L240.49 28.3321C242.692 28.5934 244.904 28.6961 247.126 28.6401C249.366 28.5654 251.475 28.3694 253.454 28.0521V30.4881C253.099 30.5441 252.726 30.6001 252.334 30.6561C251.96 30.6934 251.578 30.7307 251.186 30.7681C251.746 31.4214 252.026 32.0934 252.026 32.7841C252.026 33.6801 251.746 34.4361 251.186 35.0521C250.644 35.6681 249.935 36.1067 249.058 36.3681C249.076 36.5734 249.076 36.7881 249.058 37.0121C249.058 37.2361 249.058 37.4507 249.058 37.6561C251.372 37.2641 253.547 36.7134 255.582 36.0041C255.619 35.0707 255.638 34.1187 255.638 33.1481C255.638 32.1587 255.619 31.1881 255.582 30.2361C255.563 29.2841 255.516 28.3787 255.442 27.5201C255.367 26.6427 255.283 25.8494 255.19 25.1401L258.13 24.8601C258.223 25.9987 258.298 27.2307 258.354 28.5561C258.41 29.8627 258.428 31.1881 258.41 32.5321C259.007 32.5134 259.604 32.4667 260.202 32.3921C260.818 32.3174 261.387 32.2054 261.91 32.0561L262.05 34.9401ZM245.194 32.7841C245.194 33.3814 245.399 33.8201 245.81 34.1001C246.22 34.3801 246.724 34.5201 247.322 34.5201C247.919 34.5201 248.414 34.3707 248.806 34.0721C249.198 33.7547 249.394 33.3254 249.394 32.7841C249.394 32.2987 249.198 31.8881 248.806 31.5521C248.414 31.2161 247.919 31.0481 247.322 31.0481C246.724 31.0481 246.22 31.2161 245.81 31.5521C245.399 31.8881 245.194 32.2987 245.194 32.7841ZM253.538 41.3241C254.378 41.3614 255.087 41.4827 255.666 41.6881C256.263 41.8934 256.748 42.1641 257.122 42.5001C257.495 42.8361 257.766 43.2374 257.934 43.7041C258.12 44.1707 258.223 44.6934 258.242 45.2721C258.26 45.7947 258.223 46.4201 258.13 47.1481C258.055 47.8761 257.896 48.5947 257.654 49.3041L254.882 48.7441C255.087 48.2587 255.246 47.7454 255.358 47.2041C255.488 46.6627 255.544 46.1027 255.526 45.5241C255.507 44.8707 255.246 44.4414 254.742 44.2361C254.256 44.0121 253.659 43.8907 252.95 43.8721C252.427 43.8721 251.858 43.9001 251.242 43.9561C250.626 43.9934 249.991 44.0681 249.338 44.1801C248.703 44.2921 248.059 44.4321 247.406 44.6001C246.752 44.7681 246.136 44.9641 245.558 45.1881L244.858 42.5841C245.474 42.3787 246.164 42.1921 246.93 42.0241C247.695 41.8561 248.46 41.7161 249.226 41.6041C250.01 41.4921 250.775 41.4174 251.522 41.3801C252.268 41.3241 252.94 41.3054 253.538 41.3241Z" fill="white"/>
<path d="M279.097 41.7441C279.34 40.5307 279.536 39.2054 279.685 37.7681C279.834 36.3121 279.928 34.8467 279.965 33.3721C280.021 31.8974 280.012 30.4507 279.937 29.0321C279.862 27.6134 279.732 26.3161 279.545 25.1401L282.485 24.8601C282.597 26.1294 282.672 27.5014 282.709 28.9761C282.747 30.4507 282.737 31.9534 282.681 33.4841C282.644 34.9961 282.56 36.4894 282.429 37.9641C282.298 39.4387 282.121 40.8107 281.897 42.0801L279.097 41.7441ZM275.625 32.7001C275.606 33.3721 275.466 34.0254 275.205 34.6601C274.962 35.2947 274.608 35.8641 274.141 36.3681C273.674 36.8721 273.114 37.2827 272.461 37.6001C271.826 37.8987 271.108 38.0574 270.305 38.0761C269.428 38.0947 268.644 37.9734 267.953 37.7121C267.262 37.4507 266.674 37.0867 266.189 36.6201C265.704 36.1534 265.321 35.6121 265.041 34.9961C264.761 34.3614 264.612 33.6894 264.593 32.9801C264.556 32.2334 264.668 31.5054 264.929 30.7961C265.19 30.0867 265.582 29.4521 266.105 28.8921C266.628 28.3134 267.281 27.8467 268.065 27.4921C268.868 27.1374 269.801 26.9507 270.865 26.9321V27.7441C271.612 27.7814 272.284 27.9401 272.881 28.2201C273.478 28.5001 273.982 28.8641 274.393 29.3121C274.804 29.7601 275.112 30.2734 275.317 30.8521C275.541 31.4307 275.644 32.0467 275.625 32.7001ZM272.853 32.7001C272.853 32.3641 272.797 32.0374 272.685 31.7201C272.573 31.4027 272.396 31.1227 272.153 30.8801C271.929 30.6374 271.621 30.4507 271.229 30.3201C270.856 30.1894 270.408 30.1521 269.885 30.2081L269.857 29.5641C269.092 29.7694 268.485 30.1707 268.037 30.7681C267.589 31.3654 267.365 32.0281 267.365 32.7561C267.365 33.1294 267.421 33.4934 267.533 33.8481C267.645 34.1841 267.813 34.4827 268.037 34.7441C268.261 34.9867 268.541 35.1827 268.877 35.3321C269.232 35.4814 269.633 35.5561 270.081 35.5561C270.548 35.5561 270.958 35.4721 271.313 35.3041C271.668 35.1361 271.957 34.9214 272.181 34.6601C272.405 34.3987 272.573 34.1001 272.685 33.7641C272.797 33.4094 272.853 33.0547 272.853 32.7001ZM282.877 48.1841C281.683 48.5574 280.45 48.8374 279.181 49.0241C277.93 49.2107 276.708 49.2854 275.513 49.2481C274.636 49.2294 273.889 49.1267 273.273 48.9401C272.676 48.7534 272.181 48.5107 271.789 48.2121C271.416 47.9321 271.126 47.5867 270.921 47.1761C270.716 46.7841 270.566 46.3641 270.473 45.9161C270.193 44.5347 270.268 42.7707 270.697 40.6241L273.553 40.9041C273.385 41.7627 273.264 42.5747 273.189 43.3401C273.114 44.1054 273.142 44.7587 273.273 45.3001C273.422 45.8787 273.702 46.2427 274.113 46.3921C274.524 46.5601 275.149 46.6627 275.989 46.7001C277.053 46.7374 278.089 46.6534 279.097 46.4481C280.124 46.2614 281.225 45.9814 282.401 45.6081L282.877 48.1841Z" fill="white"/>
<path d="M309.081 37.0121C308.577 37.1054 307.998 37.1801 307.345 37.2361C306.71 37.2734 306.066 37.2827 305.413 37.2641C305.413 39.1681 305.375 41.0347 305.301 42.8641C305.245 44.6747 305.151 46.4201 305.021 48.1001L302.081 47.9601C302.23 46.2241 302.333 44.3947 302.389 42.4721C302.463 40.5307 302.491 38.5707 302.473 36.5921C302.473 34.6134 302.426 32.6534 302.333 30.7121C302.239 28.7521 302.109 26.8947 301.941 25.1401L304.881 24.8601C305.011 26.3161 305.114 27.8281 305.189 29.3961C305.282 30.9641 305.347 32.5694 305.385 34.2121C305.963 34.1747 306.551 34.1187 307.149 34.0441C307.746 33.9507 308.343 33.8201 308.941 33.6521L309.081 37.0121ZM296.649 29.7041C295.529 29.8534 294.427 29.9001 293.345 29.8441C292.281 29.7694 291.189 29.5547 290.069 29.2001L290.573 26.5401C291.655 26.8761 292.701 27.1374 293.709 27.3241C294.735 27.4921 295.743 27.5107 296.733 27.3801L296.649 29.7041ZM286.905 31.3561C288.006 31.5054 289.117 31.6174 290.237 31.6921C291.357 31.7481 292.458 31.7667 293.541 31.7481C294.642 31.7107 295.706 31.6361 296.733 31.5241C297.759 31.4121 298.73 31.2627 299.645 31.0761V33.7641C299.253 33.8387 298.851 33.9041 298.441 33.9601C298.03 34.0161 297.61 34.0721 297.181 34.1281C297.554 34.6134 297.825 35.1547 297.993 35.7521C298.179 36.3307 298.273 36.9281 298.273 37.5441C298.273 38.2161 298.161 38.8787 297.937 39.5321C297.713 40.1667 297.386 40.7361 296.957 41.2401C296.527 41.7254 295.995 42.1174 295.361 42.4161C294.726 42.7147 293.998 42.8641 293.177 42.8641C292.337 42.8641 291.599 42.7147 290.965 42.4161C290.33 42.1174 289.798 41.7254 289.369 41.2401C288.939 40.7361 288.613 40.1667 288.389 39.5321C288.183 38.8787 288.081 38.2161 288.081 37.5441C288.081 36.9654 288.155 36.3961 288.305 35.8361C288.473 35.2761 288.734 34.7627 289.089 34.2961C288.323 34.2401 287.642 34.1561 287.045 34.0441L286.905 31.3561ZM293.177 40.3441C293.569 40.3441 293.914 40.2694 294.213 40.1201C294.511 39.9521 294.754 39.7467 294.941 39.5041C295.127 39.2427 295.267 38.9441 295.361 38.6081C295.454 38.2721 295.501 37.9174 295.501 37.5441C295.501 37.2267 295.473 36.8907 295.417 36.5361C295.361 36.1627 295.249 35.8267 295.081 35.5281C294.931 35.2294 294.707 34.9867 294.409 34.8001C294.11 34.5947 293.718 34.4921 293.233 34.4921C292.803 34.4921 292.439 34.5947 292.141 34.8001C291.842 34.9867 291.599 35.2294 291.413 35.5281C291.226 35.8267 291.086 36.1627 290.993 36.5361C290.899 36.8907 290.853 37.2267 290.853 37.5441C290.853 37.9174 290.89 38.2721 290.965 38.6081C291.058 38.9441 291.198 39.2427 291.385 39.5041C291.571 39.7467 291.805 39.9521 292.085 40.1201C292.383 40.2694 292.747 40.3441 293.177 40.3441Z" fill="white"/>
<path d="M329.516 24.8601C329.684 26.6334 329.806 28.5094 329.88 30.4881C329.974 32.4667 330.02 34.4641 330.02 36.4801C330.039 38.4961 330.011 40.4934 329.936 42.4721C329.88 44.4321 329.787 46.3081 329.656 48.1001L326.716 47.9601C326.866 46.2241 326.968 44.3947 327.024 42.4721C327.099 40.5307 327.127 38.5707 327.108 36.5921C327.108 34.6134 327.062 32.6534 326.968 30.7121C326.875 28.7521 326.744 26.8947 326.576 25.1401L329.516 24.8601ZM311.316 41.1001C313.127 40.3534 314.714 39.4574 316.076 38.4121C317.439 37.3481 318.494 36.2747 319.24 35.1921C319.502 34.8187 319.651 34.4547 319.688 34.1001C319.726 33.7454 319.67 33.4374 319.52 33.1761C319.371 32.8961 319.138 32.6627 318.82 32.4761C318.522 32.2894 318.158 32.1774 317.728 32.1401C316.907 32.0467 316.076 32.1121 315.236 32.3361C314.415 32.5601 313.5 32.8961 312.492 33.3441L311.68 30.3481C312.203 30.1241 312.763 29.9374 313.36 29.7881C313.976 29.6201 314.592 29.4987 315.208 29.4241C315.843 29.3307 316.468 29.2841 317.084 29.2841C317.7 29.2841 318.288 29.3401 318.848 29.4521C319.8 29.6387 320.575 29.9747 321.172 30.4601C321.77 30.9267 322.19 31.4867 322.432 32.1401C322.675 32.7747 322.731 33.4747 322.6 34.2401C322.47 34.9867 322.171 35.7427 321.704 36.5081C321.256 37.2174 320.715 37.9081 320.08 38.5801C319.446 39.2521 318.736 39.9054 317.952 40.5401C317.168 41.1561 316.328 41.7347 315.432 42.2761C314.555 42.8174 313.65 43.3121 312.716 43.7601L311.316 41.1001Z" fill="white"/>
</svg>
