<svg width="284" height="68" viewBox="0 0 284 88" fill="none" xmlns="http://www.w3.org/2000/svg">
<path d="M267.84 14.5611L181.974 11.3267L32.4735 12.4358L19.5119 12.4954L10.415 12.5326L2.98424 17.2111L0 24.2792V47.0691V47.9326L10.41 52.7451L0 53.8468L4.45646 65.7088L2.96932 76.3463L7.42578 84.6576L20.3177 85.495L58.9785 87.9999L187.166 85.8858L221.644 86.4032L267.92 86.9391L275.062 87.021L282.503 82.3499L283.985 70.5326L278.042 69.3043L283.985 66.9892L284 17.3116L278.046 14.8961L267.84 14.5611Z" fill="#643B11"/>
<path d="M284 5.99593L283.985 54.739V55.7644L278.042 58.0837L283.985 59.3142L282.503 71.1532L282.463 71.1756L279.384 73.1108L275.062 75.8329L267.92 75.7508L221.644 75.2139L187.166 74.6956L58.9785 76.8136L20.3177 74.3041L7.42578 73.4651L2.96932 65.1386L4.45646 54.4817L0 42.598L10.41 41.4942L0 36.6729V35.8078V12.9763L2.98424 5.89525L10.415 1.20814L19.5119 1.17085L32.4735 1.11119L181.974 0L267.84 3.24034L278.046 3.57593L284 5.99593Z" fill="#A56F2E"/>
<path d="M283.985 55.7645L278.042 58.0838L283.985 59.3143L282.503 71.1533L275.062 75.8329L267.92 75.7509L187.166 74.6956L58.9785 76.8136L20.3177 74.3041L7.42578 73.4651L2.96932 65.1387L4.45646 54.4817L0 42.598L10.41 41.4943L0 36.6729V12.9763L2.98424 5.8953L10.415 1.20819L19.5119 1.1709L11.9817 6.63361L8.19173 11.6712L21.3373 13.655L8.47524 14.4082L9.33072 22.6153L7.11741 26.1838L12.0464 32.0865L13.5435 38.1943L44.4751 43.8099L9.04224 44.6489L9.75349 51.4875L13.6827 56.0739L11.5838 62.1892L57.7699 65.1909L185.958 63.0692L269.71 64.1617L271.72 62.659L229.632 56.1821L266.721 56.0739L267.796 49.817L272.158 41.9939L262.439 31.5533L268.373 22.2611L268.517 15.3702L237.292 13.7594L269.019 11.9024L270.452 9.0648L267.84 3.24039L278.046 3.57598L284 5.99598L283.985 55.7645Z" fill="#6E3D12"/>
<g filter="url(#filter0_d_768_922)">
<mask id="path-4-outside-1_768_922" maskUnits="userSpaceOnUse" x="83" y="19" width="118" height="32" fill="black">
<rect fill="white" x="83" y="19" width="118" height="32"/>
<path d="M90.1628 23.2099V20H95.6097V23.2099H101.274V27.5309H84.5291V23.2099H90.1628ZM90.3807 34.9383C90.3807 35.7716 90.6919 36.4198 91.1899 36.8519C91.6257 37.2531 92.2482 37.4691 92.9641 37.4691C93.6488 37.4691 94.2713 37.2531 94.7071 36.8519C95.2051 36.4198 95.5163 35.7716 95.5163 34.9383C95.5163 34.1358 95.2051 33.4568 94.7071 33.0247C94.2713 32.6235 93.6488 32.4383 92.9641 32.4383C92.2482 32.4383 91.6257 32.6235 91.1899 33.0247C90.6919 33.4568 90.3807 34.1358 90.3807 34.9383ZM85.2139 34.9383C85.2139 32.6852 86.1788 30.8951 87.8284 29.7222C89.1668 28.7654 90.9098 28.2407 92.9641 28.2407C94.9872 28.2407 96.7613 28.7654 98.0686 29.7222C99.7182 30.8951 100.683 32.6852 100.683 34.9383C100.683 37.1914 99.7182 39.0123 98.0686 40.1543C97.3838 40.6481 96.5435 41.0494 95.6408 41.2963V43.7963H98.2242C100.621 43.7963 102.053 43.4568 103.018 42.5617V20.8025H108.464V49.7531H103.018V46.821C102.021 47.7778 100.341 48.2099 97.6017 48.2099H84V43.7963H90.2562V41.2963C89.3535 41.0494 88.5443 40.6481 87.8284 40.1543C86.1788 39.0123 85.2139 37.1914 85.2139 34.9383Z"/>
<path d="M126.827 26.358C126.827 25.8951 126.64 25.5247 126.329 25.2469C125.769 24.784 124.742 24.5679 123.497 24.5679C122.221 24.5679 121.193 24.784 120.633 25.2469C120.291 25.5247 120.104 25.8951 120.104 26.358C120.104 26.8519 120.291 27.2222 120.633 27.4691C121.193 27.9321 122.221 28.179 123.497 28.179C124.742 28.179 125.769 27.9321 126.329 27.4691C126.64 27.2222 126.827 26.8519 126.827 26.358ZM115.155 26.358C115.155 24.7531 115.809 23.4568 116.929 22.5617C118.392 21.3272 120.727 20.7407 123.497 20.7407C126.205 20.7407 128.539 21.3272 130.002 22.5617C131.153 23.4568 131.807 24.7531 131.807 26.358C131.807 27.963 131.153 29.2593 130.002 30.1852C128.539 31.4198 126.205 31.9753 123.497 31.9753C120.727 31.9753 118.392 31.4198 116.929 30.1852C115.809 29.2593 115.155 27.963 115.155 26.358ZM138.997 20.8025V42.9012H133.55V41.358H127.792V37.5309H133.55V20.8025H138.997ZM119.606 36.7284H114.159V32.5926H127.854C129.628 32.5926 131.216 32.5926 132.585 32.2531V36.2037C131.247 36.6358 129.597 36.7284 127.699 36.7284H124.991V40.8642H119.606V36.7284ZM139.371 45.7407V50H116.743V41.6049H122.189V45.7407H139.371Z"/>
<path d="M155.088 28.2099V25.7716H145.625V21.2963H160.503V27.5926C160.503 39.5679 155.835 45.9877 145.47 48.2099V43.4568C152.068 41.5741 155.088 36.6975 155.088 28.2099ZM163.336 20.8025H168.783V31.9444H172.798V36.4506H168.783V49.7222H163.336V20.8025Z"/>
<path d="M186.429 28.3642C186.429 27.1605 186.087 26.2346 185.496 25.6481C185.029 25.1852 184.406 24.9074 183.659 24.9074C182.912 24.9074 182.259 25.1852 181.823 25.6481C181.231 26.2346 180.858 27.1605 180.858 28.3642C180.858 29.5988 181.231 30.5247 181.823 31.1111C182.259 31.5741 182.912 31.821 183.659 31.821C184.406 31.821 185.029 31.5741 185.496 31.1111C186.087 30.5247 186.429 29.5988 186.429 28.3642ZM175.66 28.3642C175.66 25.679 176.656 23.6111 178.306 22.3457C179.675 21.2037 181.48 20.6481 183.659 20.6481C185.838 20.6481 187.643 21.2037 189.013 22.3457C190.662 23.6111 191.627 25.679 191.627 28.3642C191.627 31.0802 190.662 33.1173 189.013 34.4136C187.643 35.5556 185.838 36.1111 183.659 36.1111C181.48 36.1111 179.675 35.5556 178.306 34.4136C176.656 33.1173 175.66 31.0802 175.66 28.3642ZM200 20.8025V36.2346H194.553V20.8025H200ZM183.13 39.6605H194.615V37.1605H200V50H177.745V37.1605H183.13V39.6605ZM194.615 45.8025V43.9198H183.13V45.8025H194.615Z"/>
</mask>
<path d="M90.1628 23.2099V20H95.6097V23.2099H101.274V27.5309H84.5291V23.2099H90.1628ZM90.3807 34.9383C90.3807 35.7716 90.6919 36.4198 91.1899 36.8519C91.6257 37.2531 92.2482 37.4691 92.9641 37.4691C93.6488 37.4691 94.2713 37.2531 94.7071 36.8519C95.2051 36.4198 95.5163 35.7716 95.5163 34.9383C95.5163 34.1358 95.2051 33.4568 94.7071 33.0247C94.2713 32.6235 93.6488 32.4383 92.9641 32.4383C92.2482 32.4383 91.6257 32.6235 91.1899 33.0247C90.6919 33.4568 90.3807 34.1358 90.3807 34.9383ZM85.2139 34.9383C85.2139 32.6852 86.1788 30.8951 87.8284 29.7222C89.1668 28.7654 90.9098 28.2407 92.9641 28.2407C94.9872 28.2407 96.7613 28.7654 98.0686 29.7222C99.7182 30.8951 100.683 32.6852 100.683 34.9383C100.683 37.1914 99.7182 39.0123 98.0686 40.1543C97.3838 40.6481 96.5435 41.0494 95.6408 41.2963V43.7963H98.2242C100.621 43.7963 102.053 43.4568 103.018 42.5617V20.8025H108.464V49.7531H103.018V46.821C102.021 47.7778 100.341 48.2099 97.6017 48.2099H84V43.7963H90.2562V41.2963C89.3535 41.0494 88.5443 40.6481 87.8284 40.1543C86.1788 39.0123 85.2139 37.1914 85.2139 34.9383Z" fill="#FCE7B3"/>
<path d="M126.827 26.358C126.827 25.8951 126.64 25.5247 126.329 25.2469C125.769 24.784 124.742 24.5679 123.497 24.5679C122.221 24.5679 121.193 24.784 120.633 25.2469C120.291 25.5247 120.104 25.8951 120.104 26.358C120.104 26.8519 120.291 27.2222 120.633 27.4691C121.193 27.9321 122.221 28.179 123.497 28.179C124.742 28.179 125.769 27.9321 126.329 27.4691C126.64 27.2222 126.827 26.8519 126.827 26.358ZM115.155 26.358C115.155 24.7531 115.809 23.4568 116.929 22.5617C118.392 21.3272 120.727 20.7407 123.497 20.7407C126.205 20.7407 128.539 21.3272 130.002 22.5617C131.153 23.4568 131.807 24.7531 131.807 26.358C131.807 27.963 131.153 29.2593 130.002 30.1852C128.539 31.4198 126.205 31.9753 123.497 31.9753C120.727 31.9753 118.392 31.4198 116.929 30.1852C115.809 29.2593 115.155 27.963 115.155 26.358ZM138.997 20.8025V42.9012H133.55V41.358H127.792V37.5309H133.55V20.8025H138.997ZM119.606 36.7284H114.159V32.5926H127.854C129.628 32.5926 131.216 32.5926 132.585 32.2531V36.2037C131.247 36.6358 129.597 36.7284 127.699 36.7284H124.991V40.8642H119.606V36.7284ZM139.371 45.7407V50H116.743V41.6049H122.189V45.7407H139.371Z" fill="#FCE7B3"/>
<path d="M155.088 28.2099V25.7716H145.625V21.2963H160.503V27.5926C160.503 39.5679 155.835 45.9877 145.47 48.2099V43.4568C152.068 41.5741 155.088 36.6975 155.088 28.2099ZM163.336 20.8025H168.783V31.9444H172.798V36.4506H168.783V49.7222H163.336V20.8025Z" fill="#FCE7B3"/>
<path d="M186.429 28.3642C186.429 27.1605 186.087 26.2346 185.496 25.6481C185.029 25.1852 184.406 24.9074 183.659 24.9074C182.912 24.9074 182.259 25.1852 181.823 25.6481C181.231 26.2346 180.858 27.1605 180.858 28.3642C180.858 29.5988 181.231 30.5247 181.823 31.1111C182.259 31.5741 182.912 31.821 183.659 31.821C184.406 31.821 185.029 31.5741 185.496 31.1111C186.087 30.5247 186.429 29.5988 186.429 28.3642ZM175.66 28.3642C175.66 25.679 176.656 23.6111 178.306 22.3457C179.675 21.2037 181.48 20.6481 183.659 20.6481C185.838 20.6481 187.643 21.2037 189.013 22.3457C190.662 23.6111 191.627 25.679 191.627 28.3642C191.627 31.0802 190.662 33.1173 189.013 34.4136C187.643 35.5556 185.838 36.1111 183.659 36.1111C181.48 36.1111 179.675 35.5556 178.306 34.4136C176.656 33.1173 175.66 31.0802 175.66 28.3642ZM200 20.8025V36.2346H194.553V20.8025H200ZM183.13 39.6605H194.615V37.1605H200V50H177.745V37.1605H183.13V39.6605ZM194.615 45.8025V43.9198H183.13V45.8025H194.615Z" fill="#FCE7B3"/>
<path d="M90.1628 23.2099V20H95.6097V23.2099H101.274V27.5309H84.5291V23.2099H90.1628ZM90.3807 34.9383C90.3807 35.7716 90.6919 36.4198 91.1899 36.8519C91.6257 37.2531 92.2482 37.4691 92.9641 37.4691C93.6488 37.4691 94.2713 37.2531 94.7071 36.8519C95.2051 36.4198 95.5163 35.7716 95.5163 34.9383C95.5163 34.1358 95.2051 33.4568 94.7071 33.0247C94.2713 32.6235 93.6488 32.4383 92.9641 32.4383C92.2482 32.4383 91.6257 32.6235 91.1899 33.0247C90.6919 33.4568 90.3807 34.1358 90.3807 34.9383ZM85.2139 34.9383C85.2139 32.6852 86.1788 30.8951 87.8284 29.7222C89.1668 28.7654 90.9098 28.2407 92.9641 28.2407C94.9872 28.2407 96.7613 28.7654 98.0686 29.7222C99.7182 30.8951 100.683 32.6852 100.683 34.9383C100.683 37.1914 99.7182 39.0123 98.0686 40.1543C97.3838 40.6481 96.5435 41.0494 95.6408 41.2963V43.7963H98.2242C100.621 43.7963 102.053 43.4568 103.018 42.5617V20.8025H108.464V49.7531H103.018V46.821C102.021 47.7778 100.341 48.2099 97.6017 48.2099H84V43.7963H90.2562V41.2963C89.3535 41.0494 88.5443 40.6481 87.8284 40.1543C86.1788 39.0123 85.2139 37.1914 85.2139 34.9383Z" stroke="#321D07" stroke-width="2" mask="url(#path-4-outside-1_768_922)"/>
<path d="M126.827 26.358C126.827 25.8951 126.64 25.5247 126.329 25.2469C125.769 24.784 124.742 24.5679 123.497 24.5679C122.221 24.5679 121.193 24.784 120.633 25.2469C120.291 25.5247 120.104 25.8951 120.104 26.358C120.104 26.8519 120.291 27.2222 120.633 27.4691C121.193 27.9321 122.221 28.179 123.497 28.179C124.742 28.179 125.769 27.9321 126.329 27.4691C126.64 27.2222 126.827 26.8519 126.827 26.358ZM115.155 26.358C115.155 24.7531 115.809 23.4568 116.929 22.5617C118.392 21.3272 120.727 20.7407 123.497 20.7407C126.205 20.7407 128.539 21.3272 130.002 22.5617C131.153 23.4568 131.807 24.7531 131.807 26.358C131.807 27.963 131.153 29.2593 130.002 30.1852C128.539 31.4198 126.205 31.9753 123.497 31.9753C120.727 31.9753 118.392 31.4198 116.929 30.1852C115.809 29.2593 115.155 27.963 115.155 26.358ZM138.997 20.8025V42.9012H133.55V41.358H127.792V37.5309H133.55V20.8025H138.997ZM119.606 36.7284H114.159V32.5926H127.854C129.628 32.5926 131.216 32.5926 132.585 32.2531V36.2037C131.247 36.6358 129.597 36.7284 127.699 36.7284H124.991V40.8642H119.606V36.7284ZM139.371 45.7407V50H116.743V41.6049H122.189V45.7407H139.371Z" stroke="#321D07" stroke-width="2" mask="url(#path-4-outside-1_768_922)"/>
<path d="M155.088 28.2099V25.7716H145.625V21.2963H160.503V27.5926C160.503 39.5679 155.835 45.9877 145.47 48.2099V43.4568C152.068 41.5741 155.088 36.6975 155.088 28.2099ZM163.336 20.8025H168.783V31.9444H172.798V36.4506H168.783V49.7222H163.336V20.8025Z" stroke="#321D07" stroke-width="2" mask="url(#path-4-outside-1_768_922)"/>
<path d="M186.429 28.3642C186.429 27.1605 186.087 26.2346 185.496 25.6481C185.029 25.1852 184.406 24.9074 183.659 24.9074C182.912 24.9074 182.259 25.1852 181.823 25.6481C181.231 26.2346 180.858 27.1605 180.858 28.3642C180.858 29.5988 181.231 30.5247 181.823 31.1111C182.259 31.5741 182.912 31.821 183.659 31.821C184.406 31.821 185.029 31.5741 185.496 31.1111C186.087 30.5247 186.429 29.5988 186.429 28.3642ZM175.66 28.3642C175.66 25.679 176.656 23.6111 178.306 22.3457C179.675 21.2037 181.48 20.6481 183.659 20.6481C185.838 20.6481 187.643 21.2037 189.013 22.3457C190.662 23.6111 191.627 25.679 191.627 28.3642C191.627 31.0802 190.662 33.1173 189.013 34.4136C187.643 35.5556 185.838 36.1111 183.659 36.1111C181.48 36.1111 179.675 35.5556 178.306 34.4136C176.656 33.1173 175.66 31.0802 175.66 28.3642ZM200 20.8025V36.2346H194.553V20.8025H200ZM183.13 39.6605H194.615V37.1605H200V50H177.745V37.1605H183.13V39.6605ZM194.615 45.8025V43.9198H183.13V45.8025H194.615Z" stroke="#321D07" stroke-width="2" mask="url(#path-4-outside-1_768_922)"/>
</g>
<defs>
<filter id="filter0_d_768_922" x="82" y="19" width="120" height="34" filterUnits="userSpaceOnUse" color-interpolation-filters="sRGB">
<feFlood flood-opacity="0" result="BackgroundImageFix"/>
<feColorMatrix in="SourceAlpha" type="matrix" values="0 0 0 0 0 0 0 0 0 0 0 0 0 0 0 0 0 0 127 0" result="hardAlpha"/>
<feOffset dy="1"/>
<feGaussianBlur stdDeviation="0.5"/>
<feComposite in2="hardAlpha" operator="out"/>
<feColorMatrix type="matrix" values="0 0 0 0 0 0 0 0 0 0 0 0 0 0 0 0 0 0 0.25 0"/>
<feBlend mode="normal" in2="BackgroundImageFix" result="effect1_dropShadow_768_922"/>
<feBlend mode="normal" in="SourceGraphic" in2="effect1_dropShadow_768_922" result="shape"/>
</filter>
</defs>
</svg>
