<svg width="185" height="72" viewBox="0 0 185 72" fill="none" xmlns="http://www.w3.org/2000/svg">
<g filter="url(#filter0_d_605_1051)">
<path d="M171.067 65.4141C128.929 67.7464 6.93068 71.8215 3.64661 59.7472C-0.877419 43.1152 5.60772 19.2247 3.29901 6.13719C2.87358 3.74224 5.37425 1.60889 8.65832 1.54257C38.3758 0.930932 150.714 -1.2061 178.009 0.923563C181.054 1.15937 183.269 3.14903 182.974 5.38923C181.625 15.5217 178.195 43.9185 180.105 57.4407C180.675 61.5011 176.613 65.1082 171.072 65.4177L171.067 65.4141Z" fill="#643B11"/>
<path d="M166.367 63.3653C126.751 65.484 12.0518 69.1869 8.96492 58.2144C4.71068 43.1004 10.8067 21.3984 8.63288 9.50474C8.2334 7.32718 10.5836 5.39279 13.6705 5.33016C41.6085 4.77379 147.228 2.83204 172.888 4.76642C175.752 4.98381 177.838 6.78924 177.558 8.8231C176.292 18.0308 173.065 43.8299 174.86 56.1179C175.399 59.8061 171.576 63.0853 166.367 63.3653Z" fill="#6E3D12"/>
<path d="M157.666 60.0051C122.714 61.8769 21.5249 65.1414 18.8012 55.4621C15.0502 42.1314 20.4251 22.9829 18.5107 12.4893C18.1579 10.5696 20.2331 8.86001 22.9569 8.80474C47.6056 8.3147 140.784 6.60138 163.42 8.30733C165.946 8.49892 167.783 10.0906 167.539 11.885C166.424 20.0057 163.575 42.7688 165.158 53.6087C165.635 56.8622 162.258 59.7546 157.666 60.0014V60.0051Z" fill="#643B11"/>
<path d="M154.532 60.1819C121.261 61.8916 24.9385 64.8723 22.3444 56.0331C18.775 43.8557 23.8905 26.3652 22.0642 16.7854C21.7322 15.0316 23.7037 13.473 26.2977 13.4214C49.7636 12.9719 138.459 11.4097 160.011 12.9682C162.413 13.1414 164.167 14.5968 163.928 16.2364C162.864 23.6534 160.156 44.4453 161.661 54.3456C162.112 57.319 158.901 59.9609 154.527 60.1856L154.532 60.1819Z" fill="url(#paint0_linear_605_1051)"/>
<path d="M20.7208 51.3613C20.1138 51.9766 53.9766 56.0775 67.2166 54.7622C57.8521 58.1483 19.9062 53.8042 19.9062 53.8042L20.7208 51.3613Z" fill="#965E2E"/>
<path d="M20.9799 20.2304C20.9799 20.2304 27.0655 19.8177 41.0267 19.2798C28.9229 17.6954 19.9111 17.7433 19.9111 17.7433L20.9799 20.2304Z" fill="#965E2E"/>
<path d="M164.997 16.2145C164.997 16.2145 158.938 16.1555 145.013 16.1592C157.179 15.496 166.18 15.3965 166.18 15.3965L165.002 16.2145H164.997Z" fill="#965E2E"/>
<path d="M177.972 6.35801C177.972 6.35801 171.912 6.29905 157.987 6.30274C170.153 5.63952 179.155 5.54004 179.155 5.54004L177.977 6.35801H177.972Z" fill="#965E2E"/>
<path d="M164.545 28.5391C164.545 28.5391 160.976 28.4359 152.773 28.3254C159.928 27.7911 165.23 27.769 165.23 27.769L164.55 28.5391H164.545Z" fill="#965E2E"/>
<path d="M162.548 51.8549C162.548 51.8549 156.26 51.5123 141.827 51.0665C154.393 49.8027 163.716 49.8469 163.716 49.8469L162.548 51.8549Z" fill="#965E2E"/>
<path d="M74.7656 16.093C74.7656 16.093 101.111 14.6339 122.066 16.093C112.084 14.166 78.9472 14.8808 74.7656 16.093Z" fill="#965E2E"/>
<path d="M99.0557 55.635C99.0557 55.635 119.154 57.1457 134.999 54.9092C127.512 57.5952 102.293 57.1641 99.0557 55.635Z" fill="#965E2E"/>
<path d="M52.5342 61.1729C52.5342 61.1729 105.52 62.293 147.617 60.5649C127.575 62.6209 60.9493 62.3298 52.5342 61.1729Z" fill="#965E2E"/>
<path d="M29.9971 46.0259C29.9971 46.0259 43.7248 49.7694 55.5174 49.3309C49.4836 51.1437 31.844 47.8976 29.9971 46.0259Z" fill="#965E2E"/>
</g>
<g filter="url(#filter1_d_605_1051)">
<path d="M171.067 65.4141C128.929 67.7464 6.93068 71.8215 3.64661 59.7472C-0.877419 43.1152 5.60772 19.2247 3.29901 6.13719C2.87358 3.74224 5.37425 1.60889 8.65832 1.54257C38.3758 0.930932 150.714 -1.2061 178.009 0.923563C181.054 1.15937 183.269 3.14903 182.974 5.38923C181.625 15.5217 178.195 43.9185 180.105 57.4407C180.675 61.5011 176.613 65.1082 171.072 65.4177L171.067 65.4141Z" fill="#643B11"/>
<path d="M166.367 63.3653C126.751 65.484 12.0518 69.1869 8.96492 58.2144C4.71068 43.1004 10.8067 21.3984 8.63288 9.50474C8.2334 7.32718 10.5836 5.39279 13.6705 5.33016C41.6085 4.77379 147.228 2.83204 172.888 4.76642C175.752 4.98381 177.838 6.78924 177.558 8.8231C176.292 18.0308 173.065 43.8299 174.86 56.1179C175.399 59.8061 171.576 63.0853 166.367 63.3653Z" fill="#6E3D12"/>
<path d="M157.666 60.0051C122.714 61.8769 21.5249 65.1414 18.8012 55.4621C15.0502 42.1314 20.4251 22.9829 18.5107 12.4893C18.1579 10.5696 20.2331 8.86001 22.9569 8.80474C47.6056 8.3147 140.784 6.60138 163.42 8.30733C165.946 8.49892 167.783 10.0906 167.539 11.885C166.424 20.0057 163.575 42.7688 165.158 53.6087C165.635 56.8622 162.258 59.7546 157.666 60.0014V60.0051Z" fill="#643B11"/>
<path d="M154.532 60.1819C121.261 61.8916 24.9385 64.8723 22.3444 56.0331C18.775 43.8557 23.8905 26.3652 22.0642 16.7854C21.7322 15.0316 23.7037 13.473 26.2977 13.4214C49.7636 12.9719 138.459 11.4097 160.011 12.9682C162.413 13.1414 164.167 14.5968 163.928 16.2364C162.864 23.6534 160.156 44.4453 161.661 54.3456C162.112 57.319 158.901 59.9609 154.527 60.1856L154.532 60.1819Z" fill="url(#paint1_linear_605_1051)"/>
<path d="M20.7208 51.3613C20.1138 51.9766 53.9766 56.0775 67.2166 54.7622C57.8521 58.1483 19.9062 53.8042 19.9062 53.8042L20.7208 51.3613Z" fill="#965E2E"/>
<path d="M20.9799 20.2304C20.9799 20.2304 27.0655 19.8177 41.0267 19.2798C28.9229 17.6954 19.9111 17.7433 19.9111 17.7433L20.9799 20.2304Z" fill="#965E2E"/>
<path d="M164.997 16.2145C164.997 16.2145 158.938 16.1555 145.013 16.1592C157.179 15.496 166.18 15.3965 166.18 15.3965L165.002 16.2145H164.997Z" fill="#965E2E"/>
<path d="M177.972 6.35801C177.972 6.35801 171.912 6.29905 157.987 6.30274C170.153 5.63952 179.155 5.54004 179.155 5.54004L177.977 6.35801H177.972Z" fill="#965E2E"/>
<path d="M164.545 28.5391C164.545 28.5391 160.976 28.4359 152.773 28.3254C159.928 27.7911 165.23 27.769 165.23 27.769L164.55 28.5391H164.545Z" fill="#965E2E"/>
<path d="M162.548 51.8549C162.548 51.8549 156.26 51.5123 141.827 51.0665C154.393 49.8027 163.716 49.8469 163.716 49.8469L162.548 51.8549Z" fill="#965E2E"/>
<path d="M74.7656 16.093C74.7656 16.093 101.111 14.6339 122.066 16.093C112.084 14.166 78.9472 14.8808 74.7656 16.093Z" fill="#965E2E"/>
<path d="M99.0557 55.635C99.0557 55.635 119.154 57.1457 134.999 54.9092C127.512 57.5952 102.293 57.1641 99.0557 55.635Z" fill="#965E2E"/>
<path d="M52.5342 61.1729C52.5342 61.1729 105.52 62.293 147.617 60.5649C127.575 62.6209 60.9493 62.3298 52.5342 61.1729Z" fill="#965E2E"/>
<path d="M29.9971 46.0259C29.9971 46.0259 43.7248 49.7694 55.5174 49.3309C49.4836 51.1437 31.844 47.8976 29.9971 46.0259Z" fill="#965E2E"/>
</g>
<path d="M55.3877 26.73V24.442H59.2377V26.73H63.2417V29.81H51.4057V26.73H55.3877ZM55.5417 35.09C55.5417 35.684 55.7617 36.146 56.1137 36.454C56.4217 36.74 56.8617 36.894 57.3677 36.894C57.8517 36.894 58.2917 36.74 58.5997 36.454C58.9517 36.146 59.1717 35.684 59.1717 35.09C59.1717 34.518 58.9517 34.034 58.5997 33.726C58.2917 33.44 57.8517 33.308 57.3677 33.308C56.8617 33.308 56.4217 33.44 56.1137 33.726C55.7617 34.034 55.5417 34.518 55.5417 35.09ZM51.8897 35.09C51.8897 33.484 52.5717 32.208 53.7377 31.372C54.6837 30.69 55.9157 30.316 57.3677 30.316C58.7977 30.316 60.0517 30.69 60.9757 31.372C62.1417 32.208 62.8237 33.484 62.8237 35.09C62.8237 36.696 62.1417 37.994 60.9757 38.808C60.4917 39.16 59.8977 39.446 59.2597 39.622V41.404H61.0857C62.7797 41.404 63.7917 41.162 64.4737 40.524V25.014H68.3237V45.65H64.4737V43.56C63.7697 44.242 62.5817 44.55 60.6457 44.55H51.0317V41.404H55.4537V39.622C54.8157 39.446 54.2437 39.16 53.7377 38.808C52.5717 37.994 51.8897 36.696 51.8897 35.09ZM81.3029 28.974C81.3029 28.644 81.1709 28.38 80.9509 28.182C80.5549 27.852 79.8289 27.698 78.9489 27.698C78.0469 27.698 77.3209 27.852 76.9249 28.182C76.6829 28.38 76.5509 28.644 76.5509 28.974C76.5509 29.326 76.6829 29.59 76.9249 29.766C77.3209 30.096 78.0469 30.272 78.9489 30.272C79.8289 30.272 80.5549 30.096 80.9509 29.766C81.1709 29.59 81.3029 29.326 81.3029 28.974ZM73.0529 28.974C73.0529 27.83 73.5149 26.906 74.3069 26.268C75.3409 25.388 76.9909 24.97 78.9489 24.97C80.8629 24.97 82.5129 25.388 83.5469 26.268C84.3609 26.906 84.8229 27.83 84.8229 28.974C84.8229 30.118 84.3609 31.042 83.5469 31.702C82.5129 32.582 80.8629 32.978 78.9489 32.978C76.9909 32.978 75.3409 32.582 74.3069 31.702C73.5149 31.042 73.0529 30.118 73.0529 28.974ZM89.9049 25.014V40.766H86.0549V39.666H81.9849V36.938H86.0549V25.014H89.9049ZM76.1989 36.366H72.3489V33.418H82.0289C83.2829 33.418 84.4049 33.418 85.3729 33.176V35.992C84.4269 36.3 83.2609 36.366 81.9189 36.366H80.0049V39.314H76.1989V36.366ZM90.1689 42.79V45.826H74.1749V39.842H78.0249V42.79H90.1689ZM101.278 30.294V28.556H94.59V25.366H105.106V29.854C105.106 38.39 101.806 42.966 94.48 44.55V41.162C99.144 39.82 101.278 36.344 101.278 30.294ZM107.108 25.014H110.958V32.956H113.796V36.168H110.958V45.628H107.108V25.014ZM123.431 30.404C123.431 29.546 123.189 28.886 122.771 28.468C122.441 28.138 122.001 27.94 121.473 27.94C120.945 27.94 120.483 28.138 120.175 28.468C119.757 28.886 119.493 29.546 119.493 30.404C119.493 31.284 119.757 31.944 120.175 32.362C120.483 32.692 120.945 32.868 121.473 32.868C122.001 32.868 122.441 32.692 122.771 32.362C123.189 31.944 123.431 31.284 123.431 30.404ZM115.819 30.404C115.819 28.49 116.523 27.016 117.689 26.114C118.657 25.3 119.933 24.904 121.473 24.904C123.013 24.904 124.289 25.3 125.257 26.114C126.423 27.016 127.105 28.49 127.105 30.404C127.105 32.34 126.423 33.792 125.257 34.716C124.289 35.53 123.013 35.926 121.473 35.926C119.933 35.926 118.657 35.53 117.689 34.716C116.523 33.792 115.819 32.34 115.819 30.404ZM133.023 25.014V36.014H129.173V25.014H133.023ZM121.099 38.456H129.217V36.674H133.023V45.826H117.293V36.674H121.099V38.456ZM129.217 42.834V41.492H121.099V42.834H129.217Z" fill="url(#paint2_linear_605_1051)"/>
<path d="M55.3877 26.73V27.73C55.94 27.73 56.3877 27.2823 56.3877 26.73H55.3877ZM55.3877 24.442V23.442C54.8354 23.442 54.3877 23.8897 54.3877 24.442H55.3877ZM59.2377 24.442H60.2377C60.2377 23.8897 59.79 23.442 59.2377 23.442V24.442ZM59.2377 26.73H58.2377C58.2377 27.2823 58.6854 27.73 59.2377 27.73V26.73ZM63.2417 26.73H64.2417C64.2417 26.1777 63.794 25.73 63.2417 25.73V26.73ZM63.2417 29.81V30.81C63.794 30.81 64.2417 30.3623 64.2417 29.81H63.2417ZM51.4057 29.81H50.4057C50.4057 30.3623 50.8534 30.81 51.4057 30.81V29.81ZM51.4057 26.73V25.73C50.8534 25.73 50.4057 26.1777 50.4057 26.73H51.4057ZM56.1137 36.454L56.7942 35.7212C56.787 35.7145 56.7796 35.7079 56.7722 35.7014L56.1137 36.454ZM58.5997 36.454L57.9412 35.7014C57.9338 35.7079 57.9265 35.7145 57.9193 35.7212L58.5997 36.454ZM58.5997 33.726L57.9193 34.4588C57.9265 34.4655 57.9338 34.4721 57.9412 34.4786L58.5997 33.726ZM56.1137 33.726L56.7722 34.4786C56.7796 34.4721 56.787 34.4655 56.7942 34.4588L56.1137 33.726ZM53.7377 31.372L54.3204 32.1847L54.3225 32.1832L53.7377 31.372ZM60.9757 31.372L60.3818 32.1767L60.393 32.1847L60.9757 31.372ZM60.9757 38.808L60.4033 37.988C60.398 37.9917 60.3928 37.9955 60.3875 37.9993L60.9757 38.808ZM59.2597 39.622L58.9938 38.658C58.5601 38.7776 58.2597 39.1721 58.2597 39.622H59.2597ZM59.2597 41.404H58.2597C58.2597 41.9563 58.7074 42.404 59.2597 42.404V41.404ZM64.4737 40.524L65.1569 41.2543C65.359 41.0652 65.4737 40.8008 65.4737 40.524H64.4737ZM64.4737 25.014V24.014C63.9214 24.014 63.4737 24.4617 63.4737 25.014H64.4737ZM68.3237 25.014H69.3237C69.3237 24.4617 68.876 24.014 68.3237 24.014V25.014ZM68.3237 45.65V46.65C68.876 46.65 69.3237 46.2023 69.3237 45.65H68.3237ZM64.4737 45.65H63.4737C63.4737 46.2023 63.9214 46.65 64.4737 46.65V45.65ZM64.4737 43.56H65.4737C65.4737 43.1584 65.2335 42.7958 64.8637 42.6392C64.4939 42.4826 64.0664 42.5623 63.7779 42.8418L64.4737 43.56ZM51.0317 44.55H50.0317C50.0317 45.1023 50.4794 45.55 51.0317 45.55V44.55ZM51.0317 41.404V40.404C50.4794 40.404 50.0317 40.8517 50.0317 41.404H51.0317ZM55.4537 41.404V42.404C56.006 42.404 56.4537 41.9563 56.4537 41.404H55.4537ZM55.4537 39.622H56.4537C56.4537 39.1721 56.1533 38.7776 55.7196 38.658L55.4537 39.622ZM53.7377 38.808L53.1653 39.628L53.1667 39.6289L53.7377 38.808ZM56.3877 26.73V24.442H54.3877V26.73H56.3877ZM55.3877 25.442H59.2377V23.442H55.3877V25.442ZM58.2377 24.442V26.73H60.2377V24.442H58.2377ZM59.2377 27.73H63.2417V25.73H59.2377V27.73ZM62.2417 26.73V29.81H64.2417V26.73H62.2417ZM63.2417 28.81H51.4057V30.81H63.2417V28.81ZM52.4057 29.81V26.73H50.4057V29.81H52.4057ZM51.4057 27.73H55.3877V25.73H51.4057V27.73ZM54.5417 35.09C54.5417 35.9474 54.8681 36.6928 55.4552 37.2066L56.7722 35.7014C56.6553 35.5991 56.5417 35.4206 56.5417 35.09H54.5417ZM55.4333 37.1868C55.9632 37.6788 56.6647 37.894 57.3677 37.894V35.894C57.0587 35.894 56.8803 35.8012 56.7942 35.7212L55.4333 37.1868ZM57.3677 37.894C58.0551 37.894 58.7542 37.6752 59.2802 37.1868L57.9193 35.7212C57.8293 35.8048 57.6483 35.894 57.3677 35.894V37.894ZM59.2582 37.2066C59.8453 36.6929 60.1717 35.9474 60.1717 35.09H58.1717C58.1717 35.4206 58.0581 35.5991 57.9412 35.7014L59.2582 37.2066ZM60.1717 35.09C60.1717 34.2612 59.8499 33.4912 59.2582 32.9734L57.9412 34.4786C58.0535 34.5768 58.1717 34.7748 58.1717 35.09H60.1717ZM59.2802 32.9932C58.7323 32.4845 58.0176 32.308 57.3677 32.308V34.308C57.6858 34.308 57.8511 34.3955 57.9193 34.4588L59.2802 32.9932ZM57.3677 32.308C56.7022 32.308 55.9846 32.4813 55.4333 32.9932L56.7942 34.4588C56.8588 34.3987 57.0213 34.308 57.3677 34.308V32.308ZM55.4552 32.9734C54.8635 33.4912 54.5417 34.2612 54.5417 35.09H56.5417C56.5417 34.7748 56.6599 34.5768 56.7722 34.4786L55.4552 32.9734ZM52.8897 35.09C52.8897 33.7981 53.423 32.8281 54.3204 32.1847L53.155 30.5593C51.7205 31.5879 50.8897 33.1699 50.8897 35.09H52.8897ZM54.3225 32.1832C55.0696 31.6446 56.0873 31.316 57.3677 31.316V29.316C55.7441 29.316 54.2978 29.7354 53.1529 30.5608L54.3225 32.1832ZM57.3677 31.316C58.6309 31.316 59.6641 31.6468 60.3819 32.1766L61.5696 30.5674C60.4394 29.7332 58.9646 29.316 57.3677 29.316V31.316ZM60.393 32.1847C61.2905 32.8281 61.8237 33.7981 61.8237 35.09H63.8237C63.8237 33.1699 62.993 31.5879 61.5584 30.5593L60.393 32.1847ZM61.8237 35.09C61.8237 36.3898 61.2849 37.3726 60.4033 37.988L61.5481 39.628C62.9985 38.6154 63.8237 37.0022 63.8237 35.09H61.8237ZM60.3875 37.9993C60.0057 38.277 59.522 38.5123 58.9938 38.658L59.5256 40.586C60.2735 40.3797 60.9777 40.043 61.5639 39.6167L60.3875 37.9993ZM58.2597 39.622V41.404H60.2597V39.622H58.2597ZM59.2597 42.404H61.0857V40.404H59.2597V42.404ZM61.0857 42.404C62.8238 42.404 64.1788 42.1692 65.1569 41.2543L63.7906 39.7937C63.4046 40.1548 62.7356 40.404 61.0857 40.404V42.404ZM65.4737 40.524V25.014H63.4737V40.524H65.4737ZM64.4737 26.014H68.3237V24.014H64.4737V26.014ZM67.3237 25.014V45.65H69.3237V25.014H67.3237ZM68.3237 44.65H64.4737V46.65H68.3237V44.65ZM65.4737 45.65V43.56H63.4737V45.65H65.4737ZM63.7779 42.8418C63.3739 43.2331 62.5414 43.55 60.6457 43.55V45.55C62.6221 45.55 64.1655 45.2509 65.1695 44.2782L63.7779 42.8418ZM60.6457 43.55H51.0317V45.55H60.6457V43.55ZM52.0317 44.55V41.404H50.0317V44.55H52.0317ZM51.0317 42.404H55.4537V40.404H51.0317V42.404ZM56.4537 41.404V39.622H54.4537V41.404H56.4537ZM55.7196 38.658C55.203 38.5155 54.7329 38.2822 54.3088 37.9871L53.1667 39.6289C53.7545 40.0378 54.4285 40.3765 55.1878 40.586L55.7196 38.658ZM54.3101 37.988C53.4285 37.3726 52.8897 36.3898 52.8897 35.09H50.8897C50.8897 37.0022 51.7149 38.6154 53.1653 39.628L54.3101 37.988ZM80.9509 28.182L81.6198 27.4387C81.6104 27.4302 81.6008 27.4219 81.591 27.4138L80.9509 28.182ZM76.9249 28.182L77.5581 28.956L77.565 28.9502L76.9249 28.182ZM76.9249 29.766L77.565 28.9978C77.5482 28.9837 77.5308 28.9702 77.513 28.9573L76.9249 29.766ZM80.9509 29.766L80.3262 28.9851C80.321 28.9893 80.3158 28.9935 80.3107 28.9978L80.9509 29.766ZM74.3069 26.268L74.9342 27.0468C74.9412 27.0411 74.9481 27.0354 74.955 27.0295L74.3069 26.268ZM83.5469 26.268L82.8987 27.0295C82.909 27.0383 82.9194 27.0468 82.93 27.0551L83.5469 26.268ZM83.5469 31.702L82.9171 30.9252C82.9109 30.9302 82.9048 30.9353 82.8987 30.9405L83.5469 31.702ZM74.3069 31.702L74.955 30.9404L74.947 30.9338L74.3069 31.702ZM89.9049 25.014H90.9049C90.9049 24.4617 90.4571 24.014 89.9049 24.014V25.014ZM89.9049 40.766V41.766C90.4571 41.766 90.9049 41.3183 90.9049 40.766H89.9049ZM86.0549 40.766H85.0549C85.0549 41.3183 85.5026 41.766 86.0549 41.766V40.766ZM86.0549 39.666H87.0549C87.0549 39.1137 86.6071 38.666 86.0549 38.666V39.666ZM81.9849 39.666H80.9849C80.9849 40.2183 81.4326 40.666 81.9849 40.666V39.666ZM81.9849 36.938V35.938C81.4326 35.938 80.9849 36.3857 80.9849 36.938H81.9849ZM86.0549 36.938V37.938C86.6071 37.938 87.0549 37.4903 87.0549 36.938H86.0549ZM86.0549 25.014V24.014C85.5026 24.014 85.0549 24.4617 85.0549 25.014H86.0549ZM76.1989 36.366H77.1989C77.1989 35.8137 76.7511 35.366 76.1989 35.366V36.366ZM72.3489 36.366H71.3489C71.3489 36.9183 71.7966 37.366 72.3489 37.366V36.366ZM72.3489 33.418V32.418C71.7966 32.418 71.3489 32.8657 71.3489 33.418H72.3489ZM85.3729 33.176H86.3729C86.3729 32.8681 86.231 32.5773 85.9883 32.3878C85.7456 32.1983 85.4291 32.1312 85.1303 32.2059L85.3729 33.176ZM85.3729 35.992L85.6824 36.9429C86.0942 36.8088 86.3729 36.425 86.3729 35.992H85.3729ZM80.0049 36.366V35.366C79.4526 35.366 79.0049 35.8137 79.0049 36.366H80.0049ZM80.0049 39.314V40.314C80.5571 40.314 81.0049 39.8663 81.0049 39.314H80.0049ZM76.1989 39.314H75.1989C75.1989 39.8663 75.6466 40.314 76.1989 40.314V39.314ZM90.1689 42.79H91.1689C91.1689 42.2377 90.7211 41.79 90.1689 41.79V42.79ZM90.1689 45.826V46.826C90.7211 46.826 91.1689 46.3783 91.1689 45.826H90.1689ZM74.1749 45.826H73.1749C73.1749 46.3783 73.6226 46.826 74.1749 46.826V45.826ZM74.1749 39.842V38.842C73.6226 38.842 73.1749 39.2897 73.1749 39.842H74.1749ZM78.0249 39.842H79.0249C79.0249 39.2897 78.5771 38.842 78.0249 38.842V39.842ZM78.0249 42.79H77.0249C77.0249 43.3423 77.4726 43.79 78.0249 43.79V42.79ZM82.3029 28.974C82.3029 28.345 82.0387 27.8157 81.6198 27.4387L80.2819 28.9253C80.2916 28.9341 80.2966 28.9401 80.2987 28.9429C80.3006 28.9455 80.3007 28.9461 80.3003 28.9452C80.2998 28.9441 80.3001 28.9444 80.3007 28.9472C80.3013 28.9501 80.3029 28.9585 80.3029 28.974H82.3029ZM81.591 27.4138C80.9083 26.8448 79.8693 26.698 78.9489 26.698V28.698C79.7884 28.698 80.2014 28.8592 80.3107 28.9502L81.591 27.4138ZM78.9489 26.698C78.0097 26.698 76.9687 26.8437 76.2847 27.4138L77.565 28.9502C77.673 28.8603 78.084 28.698 78.9489 28.698V26.698ZM76.2916 27.408C75.8224 27.7919 75.5509 28.3377 75.5509 28.974H77.5509C77.5509 28.9584 77.5524 28.9516 77.5524 28.9515C77.5524 28.9513 77.5522 28.9523 77.5516 28.9541C77.551 28.956 77.5501 28.9582 77.5489 28.9606C77.5478 28.963 77.5466 28.9651 77.5455 28.9668C77.5445 28.9685 77.5438 28.9693 77.5438 28.9693C77.5439 28.9692 77.5448 28.9681 77.547 28.9659C77.5492 28.9637 77.5528 28.9603 77.5581 28.956L76.2916 27.408ZM75.5509 28.974C75.5509 29.6089 75.8074 30.1898 76.3367 30.5747L77.513 28.9573C77.5142 28.9581 77.5204 28.9629 77.5286 28.9726C77.537 28.9825 77.544 28.9935 77.5489 29.0039C77.5538 29.014 77.5546 29.0191 77.554 29.0161C77.5532 29.0128 77.5509 28.9995 77.5509 28.974H75.5509ZM76.2847 30.5342C76.9574 31.0949 77.9818 31.272 78.9489 31.272V29.272C78.1119 29.272 77.6843 29.0971 77.565 28.9978L76.2847 30.5342ZM78.9489 31.272C79.8973 31.272 80.9197 31.0936 81.591 30.5342L80.3107 28.9978C80.19 29.0984 79.7604 29.272 78.9489 29.272V31.272ZM81.5756 30.5469C82.0535 30.1645 82.3029 29.6023 82.3029 28.974H80.3029C80.3029 28.9994 80.3005 29.0143 80.2992 29.0203C80.298 29.0262 80.2976 29.0251 80.3003 29.0193C80.303 29.0135 80.3073 29.0061 80.313 28.9988C80.3187 28.9916 80.3237 28.9871 80.3262 28.9851L81.5756 30.5469ZM74.0529 28.974C74.0529 28.1255 74.3833 27.4905 74.9342 27.0468L73.6795 25.4892C72.6464 26.3215 72.0529 27.5345 72.0529 28.974H74.0529ZM74.955 27.0295C75.7258 26.3735 77.0915 25.97 78.9489 25.97V23.97C76.8902 23.97 74.9559 24.4025 73.6587 25.5065L74.955 27.0295ZM78.9489 25.97C80.7591 25.97 82.1264 26.3723 82.8987 27.0295L84.195 25.5065C82.8993 24.4037 80.9666 23.97 78.9489 23.97V25.97ZM82.93 27.0551C83.4946 27.4976 83.8229 28.1276 83.8229 28.974H85.8229C85.8229 27.5324 85.2271 26.3144 84.1637 25.4809L82.93 27.0551ZM83.8229 28.974C83.8229 29.8173 83.4962 30.4556 82.9171 30.9252L84.1767 32.4788C85.2255 31.6284 85.8229 30.4187 85.8229 28.974H83.8229ZM82.8987 30.9405C82.1318 31.5932 80.7706 31.978 78.9489 31.978V33.978C80.9551 33.978 82.8939 33.5708 84.195 32.4635L82.8987 30.9405ZM78.9489 31.978C77.0801 31.978 75.7205 31.592 74.955 30.9405L73.6587 32.4635C74.9612 33.572 76.9017 33.978 78.9489 33.978V31.978ZM74.947 30.9338C74.3816 30.4626 74.0529 29.8194 74.0529 28.974H72.0529C72.0529 30.4166 72.6481 31.6214 73.6667 32.4702L74.947 30.9338ZM88.9049 25.014V40.766H90.9049V25.014H88.9049ZM89.9049 39.766H86.0549V41.766H89.9049V39.766ZM87.0549 40.766V39.666H85.0549V40.766H87.0549ZM86.0549 38.666H81.9849V40.666H86.0549V38.666ZM82.9849 39.666V36.938H80.9849V39.666H82.9849ZM81.9849 37.938H86.0549V35.938H81.9849V37.938ZM87.0549 36.938V25.014H85.0549V36.938H87.0549ZM86.0549 26.014H89.9049V24.014H86.0549V26.014ZM76.1989 35.366H72.3489V37.366H76.1989V35.366ZM73.3489 36.366V33.418H71.3489V36.366H73.3489ZM72.3489 34.418H82.0289V32.418H72.3489V34.418ZM82.0289 34.418C83.2474 34.418 84.5038 34.424 85.6154 34.1461L85.1303 32.2059C84.3059 32.412 83.3183 32.418 82.0289 32.418V34.418ZM84.3729 33.176V35.992H86.3729V33.176H84.3729ZM85.0633 35.0411C84.2816 35.2956 83.2565 35.366 81.9189 35.366V37.366C83.2652 37.366 84.5721 37.3044 85.6824 36.9429L85.0633 35.0411ZM81.9189 35.366H80.0049V37.366H81.9189V35.366ZM79.0049 36.366V39.314H81.0049V36.366H79.0049ZM80.0049 38.314H76.1989V40.314H80.0049V38.314ZM77.1989 39.314V36.366H75.1989V39.314H77.1989ZM89.1689 42.79V45.826H91.1689V42.79H89.1689ZM90.1689 44.826H74.1749V46.826H90.1689V44.826ZM75.1749 45.826V39.842H73.1749V45.826H75.1749ZM74.1749 40.842H78.0249V38.842H74.1749V40.842ZM77.0249 39.842V42.79H79.0249V39.842H77.0249ZM78.0249 43.79H90.1689V41.79H78.0249V43.79ZM101.278 28.556H102.278C102.278 28.0037 101.83 27.556 101.278 27.556V28.556ZM94.59 28.556H93.59C93.59 29.1083 94.0377 29.556 94.59 29.556V28.556ZM94.59 25.366V24.366C94.0377 24.366 93.59 24.8137 93.59 25.366H94.59ZM105.106 25.366H106.106C106.106 24.8137 105.658 24.366 105.106 24.366V25.366ZM94.48 44.55H93.48C93.48 44.8523 93.6168 45.1384 93.852 45.3282C94.0873 45.5181 94.3958 45.5913 94.6913 45.5274L94.48 44.55ZM94.48 41.162L94.2035 40.201C93.7751 40.3243 93.48 40.7162 93.48 41.162H94.48ZM107.108 25.014V24.014C106.556 24.014 106.108 24.4617 106.108 25.014H107.108ZM110.958 25.014H111.958C111.958 24.4617 111.51 24.014 110.958 24.014V25.014ZM110.958 32.956H109.958C109.958 33.5083 110.406 33.956 110.958 33.956V32.956ZM113.796 32.956H114.796C114.796 32.4037 114.348 31.956 113.796 31.956V32.956ZM113.796 36.168V37.168C114.348 37.168 114.796 36.7203 114.796 36.168H113.796ZM110.958 36.168V35.168C110.406 35.168 109.958 35.6157 109.958 36.168H110.958ZM110.958 45.628V46.628C111.51 46.628 111.958 46.1803 111.958 45.628H110.958ZM107.108 45.628H106.108C106.108 46.1803 106.556 46.628 107.108 46.628V45.628ZM102.278 30.294V28.556H100.278V30.294H102.278ZM101.278 27.556H94.59V29.556H101.278V27.556ZM95.59 28.556V25.366H93.59V28.556H95.59ZM94.59 26.366H105.106V24.366H94.59V26.366ZM104.106 25.366V29.854H106.106V25.366H104.106ZM104.106 29.854C104.106 34.0069 103.301 37.0484 101.73 39.2233C100.172 41.3793 97.763 42.8171 94.2687 43.5726L94.6913 45.5274C98.523 44.6989 101.427 43.0567 103.351 40.3947C105.261 37.7516 106.106 34.2371 106.106 29.854H104.106ZM95.48 44.55V41.162H93.48V44.55H95.48ZM94.7565 42.123C97.2856 41.3953 99.2089 40.0583 100.477 38.0221C101.728 36.0126 102.278 33.4233 102.278 30.294H100.278C100.278 33.2147 99.7608 35.3884 98.7791 36.9649C97.8141 38.5147 96.3384 39.5867 94.2035 40.201L94.7565 42.123ZM107.108 26.014H110.958V24.014H107.108V26.014ZM109.958 25.014V32.956H111.958V25.014H109.958ZM110.958 33.956H113.796V31.956H110.958V33.956ZM112.796 32.956V36.168H114.796V32.956H112.796ZM113.796 35.168H110.958V37.168H113.796V35.168ZM109.958 36.168V45.628H111.958V36.168H109.958ZM110.958 44.628H107.108V46.628H110.958V44.628ZM108.108 45.628V25.014H106.108V45.628H108.108ZM122.771 28.468L122.064 29.1751L122.771 28.468ZM120.175 28.468L120.882 29.1751C120.89 29.167 120.898 29.1587 120.906 29.1503L120.175 28.468ZM120.175 32.362L120.906 31.6797C120.898 31.6713 120.89 31.663 120.882 31.6549L120.175 32.362ZM122.771 32.362L122.064 31.6549L122.064 31.6549L122.771 32.362ZM117.689 26.114L118.301 26.905C118.312 26.8966 118.322 26.8881 118.333 26.8794L117.689 26.114ZM125.257 26.114L124.614 26.8794C124.624 26.8881 124.635 26.8966 124.645 26.905L125.257 26.114ZM125.257 34.716L124.636 33.9323C124.628 33.9383 124.621 33.9444 124.614 33.9506L125.257 34.716ZM117.689 34.716L118.333 33.9506C118.325 33.9444 118.318 33.9383 118.31 33.9323L117.689 34.716ZM133.023 25.014H134.023C134.023 24.4617 133.575 24.014 133.023 24.014V25.014ZM133.023 36.014V37.014C133.575 37.014 134.023 36.5663 134.023 36.014H133.023ZM129.173 36.014H128.173C128.173 36.5663 128.621 37.014 129.173 37.014V36.014ZM129.173 25.014V24.014C128.621 24.014 128.173 24.4617 128.173 25.014H129.173ZM121.099 38.456H120.099C120.099 39.0083 120.547 39.456 121.099 39.456V38.456ZM129.217 38.456V39.456C129.769 39.456 130.217 39.0083 130.217 38.456H129.217ZM129.217 36.674V35.674C128.665 35.674 128.217 36.1217 128.217 36.674H129.217ZM133.023 36.674H134.023C134.023 36.1217 133.575 35.674 133.023 35.674V36.674ZM133.023 45.826V46.826C133.575 46.826 134.023 46.3783 134.023 45.826H133.023ZM117.293 45.826H116.293C116.293 46.3783 116.741 46.826 117.293 46.826V45.826ZM117.293 36.674V35.674C116.741 35.674 116.293 36.1217 116.293 36.674H117.293ZM121.099 36.674H122.099C122.099 36.1217 121.651 35.674 121.099 35.674V36.674ZM129.217 42.834V43.834C129.769 43.834 130.217 43.3863 130.217 42.834H129.217ZM129.217 41.492H130.217C130.217 40.9397 129.769 40.492 129.217 40.492V41.492ZM121.099 41.492V40.492C120.547 40.492 120.099 40.9397 120.099 41.492H121.099ZM121.099 42.834H120.099C120.099 43.3863 120.547 43.834 121.099 43.834V42.834ZM124.431 30.404C124.431 29.3708 124.139 28.4217 123.478 27.7609L122.064 29.1751C122.239 29.3503 122.431 29.7212 122.431 30.404H124.431ZM123.478 27.7609C122.964 27.2464 122.271 26.94 121.473 26.94V28.94C121.732 28.94 121.919 29.0296 122.064 29.1751L123.478 27.7609ZM121.473 26.94C120.696 26.94 119.959 27.2336 119.444 27.7857L120.906 29.1503C121.007 29.0424 121.195 28.94 121.473 28.94V26.94ZM119.468 27.7609C118.821 28.4082 118.493 29.3464 118.493 30.404H120.493C120.493 29.7456 120.694 29.3638 120.882 29.1751L119.468 27.7609ZM118.493 30.404C118.493 31.4792 118.818 32.4193 119.468 33.0691L120.882 31.6549C120.696 31.4687 120.493 31.0888 120.493 30.404H118.493ZM119.444 33.0443C119.979 33.6177 120.729 33.868 121.473 33.868V31.868C121.161 31.868 120.987 31.7663 120.906 31.6797L119.444 33.0443ZM121.473 33.868C122.239 33.868 122.942 33.6054 123.478 33.0691L122.064 31.6549C121.94 31.7786 121.764 31.868 121.473 31.868V33.868ZM123.478 33.0691C124.141 32.406 124.431 31.4549 124.431 30.404H122.431C122.431 31.1131 122.237 31.482 122.064 31.6549L123.478 33.0691ZM116.819 30.404C116.819 28.7438 117.421 27.5859 118.301 26.905L117.077 25.323C115.626 26.4461 114.819 28.2362 114.819 30.404H116.819ZM118.333 26.8794C119.077 26.2533 120.105 25.904 121.473 25.904V23.904C119.761 23.904 118.237 24.3467 117.046 25.3486L118.333 26.8794ZM121.473 25.904C122.841 25.904 123.869 26.2533 124.614 26.8794L125.901 25.3486C124.709 24.3467 123.185 23.904 121.473 23.904V25.904ZM124.645 26.905C125.519 27.5806 126.105 28.7336 126.105 30.404H128.105C128.105 28.2464 127.328 26.4514 125.869 25.323L124.645 26.905ZM126.105 30.404C126.105 32.091 125.522 33.2304 124.636 33.9323L125.878 35.4997C127.325 34.3536 128.105 32.589 128.105 30.404H126.105ZM124.614 33.9506C123.869 34.5767 122.841 34.926 121.473 34.926V36.926C123.185 36.926 124.709 36.4833 125.901 35.4814L124.614 33.9506ZM121.473 34.926C120.105 34.926 119.077 34.5767 118.333 33.9506L117.046 35.4814C118.237 36.4833 119.761 36.926 121.473 36.926V34.926ZM118.31 33.9323C117.418 33.225 116.819 32.0809 116.819 30.404H114.819C114.819 32.5991 115.629 34.359 117.068 35.4997L118.31 33.9323ZM132.023 25.014V36.014H134.023V25.014H132.023ZM133.023 35.014H129.173V37.014H133.023V35.014ZM130.173 36.014V25.014H128.173V36.014H130.173ZM129.173 26.014H133.023V24.014H129.173V26.014ZM121.099 39.456H129.217V37.456H121.099V39.456ZM130.217 38.456V36.674H128.217V38.456H130.217ZM129.217 37.674H133.023V35.674H129.217V37.674ZM132.023 36.674V45.826H134.023V36.674H132.023ZM133.023 44.826H117.293V46.826H133.023V44.826ZM118.293 45.826V36.674H116.293V45.826H118.293ZM117.293 37.674H121.099V35.674H117.293V37.674ZM120.099 36.674V38.456H122.099V36.674H120.099ZM130.217 42.834V41.492H128.217V42.834H130.217ZM129.217 40.492H121.099V42.492H129.217V40.492ZM120.099 41.492V42.834H122.099V41.492H120.099ZM121.099 43.834H129.217V41.834H121.099V43.834Z" fill="#A8891A"/>
<defs>
<filter id="filter0_d_605_1051" x="0" y="0" width="185" height="72" filterUnits="userSpaceOnUse" color-interpolation-filters="sRGB">
<feFlood flood-opacity="0" result="BackgroundImageFix"/>
<feColorMatrix in="SourceAlpha" type="matrix" values="0 0 0 0 0 0 0 0 0 0 0 0 0 0 0 0 0 0 127 0" result="hardAlpha"/>
<feOffset dy="2"/>
<feGaussianBlur stdDeviation="1"/>
<feComposite in2="hardAlpha" operator="out"/>
<feColorMatrix type="matrix" values="0 0 0 0 0 0 0 0 0 0 0 0 0 0 0 0 0 0 0.25 0"/>
<feBlend mode="normal" in2="BackgroundImageFix" result="effect1_dropShadow_605_1051"/>
<feBlend mode="normal" in="SourceGraphic" in2="effect1_dropShadow_605_1051" result="shape"/>
</filter>
<filter id="filter1_d_605_1051" x="0" y="0" width="185" height="72" filterUnits="userSpaceOnUse" color-interpolation-filters="sRGB">
<feFlood flood-opacity="0" result="BackgroundImageFix"/>
<feColorMatrix in="SourceAlpha" type="matrix" values="0 0 0 0 0 0 0 0 0 0 0 0 0 0 0 0 0 0 127 0" result="hardAlpha"/>
<feOffset dy="2"/>
<feGaussianBlur stdDeviation="1"/>
<feComposite in2="hardAlpha" operator="out"/>
<feColorMatrix type="matrix" values="0 0 0 0 0 0 0 0 0 0 0 0 0 0 0 0 0 0 0.25 0"/>
<feBlend mode="normal" in2="BackgroundImageFix" result="effect1_dropShadow_605_1051"/>
<feBlend mode="normal" in="SourceGraphic" in2="effect1_dropShadow_605_1051" result="shape"/>
</filter>
<linearGradient id="paint0_linear_605_1051" x1="92.498" y1="-87.4281" x2="92.498" y2="87.348" gradientUnits="userSpaceOnUse">
<stop stop-color="#EFE4BC"/>
<stop offset="1" stop-color="#A5600F"/>
</linearGradient>
<linearGradient id="paint1_linear_605_1051" x1="92.498" y1="-87.4281" x2="92.498" y2="87.348" gradientUnits="userSpaceOnUse">
<stop stop-color="#EFE4BC"/>
<stop offset="1" stop-color="#A5600F"/>
</linearGradient>
<linearGradient id="paint2_linear_605_1051" x1="93" y1="5.5" x2="93" y2="54" gradientUnits="userSpaceOnUse">
<stop stop-color="#FCFB64"/>
<stop offset="1" stop-color="#FFBF00"/>
</linearGradient>
</defs>
</svg>
