<svg width="185" height="70" viewBox="0 0 185 70" fill="none" xmlns="http://www.w3.org/2000/svg">
<path d="M172.453 67.338C129.471 69.7389 5.02943 73.9339 1.67959 61.5045C-2.93504 44.3833 3.67997 19.7901 1.32502 6.31769C0.891078 3.8523 3.44183 1.65621 6.79167 1.58794C37.1043 0.958313 151.692 -1.24157 179.533 0.950727C182.64 1.19347 184.899 3.24164 184.598 5.54773C183.222 15.9782 179.724 45.2102 181.671 59.1301C182.253 63.3099 178.11 67.0232 172.458 67.3418L172.453 67.338Z" fill="#643B11"/>
<path d="M167.658 65.2287C127.248 67.4097 10.2521 71.2215 7.10336 59.9263C2.76392 44.3677 8.98203 22.0275 6.76468 9.784C6.35719 7.5424 8.75447 5.55112 11.9032 5.48664C40.4007 4.91391 148.135 2.91505 174.31 4.90632C177.231 5.13011 179.358 6.98863 179.072 9.08232C177.781 18.5608 174.49 45.1187 176.321 57.7681C176.871 61.5648 172.971 64.9405 167.658 65.2287Z" fill="#6E3D12"/>
<path d="M158.783 61.7696C123.131 63.6963 19.9154 67.0569 17.1371 57.0929C13.311 43.3701 18.7935 23.6584 16.8408 12.8562C16.4809 10.8801 18.5977 9.12018 21.376 9.06329C46.5184 8.55883 141.563 6.79513 164.652 8.55124C167.229 8.74847 169.102 10.387 168.854 12.2342C167.716 20.5937 164.811 44.0263 166.425 55.1851C166.912 58.5342 163.466 61.5116 158.783 61.7658V61.7696Z" fill="#643B11"/>
<path d="M155.586 61.9518C121.649 63.7117 23.3973 66.7802 20.7513 57.681C17.1104 45.1454 22.3283 27.1405 20.4655 17.2789C20.1268 15.4735 22.1378 13.8691 24.7838 13.816C48.7196 13.3532 139.192 11.7451 161.175 13.3495C163.625 13.5277 165.414 15.0259 165.17 16.7138C164.085 24.3489 161.323 45.7523 162.858 55.9438C163.318 59.0047 160.042 61.7242 155.581 61.9556L155.586 61.9518Z" fill="url(#paint0_linear_821_2547)"/>
<path d="M19.0965 52.8721C18.4773 53.5055 53.0182 57.727 66.5234 56.3729C56.9714 59.8586 18.2656 55.3868 18.2656 55.3868L19.0965 52.8721Z" fill="#965E2E"/>
<path d="M19.3597 20.826C19.3597 20.826 25.5672 20.4012 39.808 19.8474C27.4618 18.2165 18.2695 18.2658 18.2695 18.2658L19.3597 20.826Z" fill="#965E2E"/>
<path d="M166.262 16.6916C166.262 16.6916 160.081 16.6309 145.877 16.6347C158.287 15.952 167.468 15.8496 167.468 15.8496L166.267 16.6916H166.262Z" fill="#965E2E"/>
<path d="M179.496 6.54515C179.496 6.54515 173.315 6.48446 159.111 6.48826C171.521 5.80553 180.703 5.70312 180.703 5.70312L179.501 6.54515H179.496Z" fill="#965E2E"/>
<path d="M165.801 29.3787C165.801 29.3787 162.16 29.2725 153.793 29.1587C161.091 28.6087 166.499 28.5859 166.499 28.5859L165.806 29.3787H165.801Z" fill="#965E2E"/>
<path d="M163.763 53.3798C163.763 53.3798 157.349 53.0271 142.627 52.5682C155.444 51.2672 164.954 51.3127 164.954 51.3127L163.763 53.3798Z" fill="#965E2E"/>
<path d="M74.2227 16.566C74.2227 16.566 101.095 15.064 122.47 16.566C112.288 14.5823 78.488 15.3182 74.2227 16.566Z" fill="#965E2E"/>
<path d="M99 57.2716C99 57.2716 119.501 58.8267 135.663 56.5244C128.027 59.2894 102.302 58.8457 99 57.2716Z" fill="#965E2E"/>
<path d="M51.5469 62.9725C51.5469 62.9725 105.594 64.1256 148.534 62.3467C128.09 64.4631 60.1305 64.1635 51.5469 62.9725Z" fill="#965E2E"/>
<path d="M28.5586 47.3799C28.5586 47.3799 42.5612 51.2335 54.59 50.7821C48.4354 52.6482 30.4425 49.3067 28.5586 47.3799Z" fill="#965E2E"/>
<path d="M58.1962 25.2725V34.5685H64.0762C65.7002 34.5685 67.1002 34.5685 68.3602 34.2605V38.0965C67.1842 38.5165 65.6442 38.5725 63.9642 38.5725H53.3242V25.2725H58.1962ZM69.9002 32.5245H63.1242V28.4925H69.9002V25.1045H74.8002V39.8605H69.9002V32.5245ZM74.8002 51.5925H54.7802V40.8965H74.8002V51.5925ZM69.9562 47.7565V44.8165H59.6242V47.7565H69.9562Z" fill="url(#paint1_linear_821_2547)"/>
<path d="M90.3391 31.8245V29.6125H82.0511V25.5525H95.2111V31.2645C95.2111 42.2685 91.0951 47.9525 81.8831 49.9685V45.6565C87.7351 43.9485 90.3391 39.5245 90.3391 31.8245ZM98.4311 25.1045H103.331V51.3405H98.4311V25.1045Z" fill="url(#paint2_linear_821_2547)"/>
<path d="M118.898 31.8245V29.6125H110.61V25.5525H123.77V31.2645C123.77 42.2685 119.654 47.9525 110.442 49.9685V45.6565C116.294 43.9485 118.898 39.5245 118.898 31.8245ZM126.99 25.1045H131.89V51.3405H126.99V25.1045Z" fill="url(#paint3_linear_821_2547)"/>
<path fill-rule="evenodd" clip-rule="evenodd" d="M58.1962 24.2725C58.7485 24.2725 59.1962 24.7202 59.1962 25.2725V33.5685H64.0762C64.9553 33.5685 65.7256 33.5669 66.4224 33.5245H63.1242C62.5719 33.5245 62.1242 33.0768 62.1242 32.5245V28.4925C62.1242 27.9402 62.5719 27.4925 63.1242 27.4925H68.9002V25.1045C68.9002 24.5522 69.3479 24.1045 69.9002 24.1045H74.8002C75.3525 24.1045 75.8002 24.5522 75.8002 25.1045V39.8605C75.8002 40.0501 75.7474 40.2274 75.6558 40.3785C75.7474 40.5296 75.8002 40.7069 75.8002 40.8965V51.5925C75.8002 52.1448 75.3525 52.5925 74.8002 52.5925H54.7802C54.2279 52.5925 53.7802 52.1448 53.7802 51.5925V40.8965C53.7802 40.3442 54.2279 39.8965 54.7802 39.8965H68.9009C68.9004 39.8845 68.9002 39.8725 68.9002 39.8605V38.9382C68.8373 38.9786 68.7691 39.0123 68.6966 39.0382C67.3329 39.5253 65.6215 39.5725 63.9642 39.5725H53.3242C52.7719 39.5725 52.3242 39.1248 52.3242 38.5725V25.2725C52.3242 24.7202 52.7719 24.2725 53.3242 24.2725H58.1962ZM69.9002 32.5245V39.8605H74.8002V25.1045H69.9002V28.4925H63.1242V32.5245H69.9002ZM58.1962 34.5685V25.2725H53.3242V38.5725H63.9642C65.6442 38.5725 67.1842 38.5165 68.3602 38.0965V34.2605C68.0366 34.3396 67.7037 34.3984 67.3602 34.4421C66.3663 34.5685 65.2831 34.5685 64.0762 34.5685H58.1962ZM59.6242 44.8165V47.7565H69.9562V44.8165H59.6242ZM68.9562 45.8165H60.6242V46.7565H68.9562V45.8165ZM81.8831 45.6565C87.7351 43.9485 90.3391 39.5245 90.3391 31.8245V29.6125H82.0511V25.5525H95.2111V31.2645C95.2111 41.862 91.3936 47.5253 82.8831 49.73C82.5567 49.8146 82.2234 49.894 81.8831 49.9685V45.6565ZM89.3391 30.6125H82.0511C81.4988 30.6125 81.0511 30.1648 81.0511 29.6125V25.5525C81.0511 25.0002 81.4988 24.5525 82.0511 24.5525H95.2111C95.7634 24.5525 96.2111 25.0002 96.2111 25.5525V31.2645C96.2111 36.8756 95.1642 41.2844 92.815 44.5688C90.4507 47.8742 86.8685 49.9011 82.0969 50.9454C81.8012 51.0101 81.492 50.9373 81.2561 50.7475C81.0203 50.5577 80.8831 50.2712 80.8831 49.9685V45.6565C80.8831 45.2121 81.1764 44.821 81.6029 44.6965C84.3267 43.9016 86.2166 42.5057 87.4503 40.4693C88.7023 38.4029 89.3391 35.5765 89.3391 31.8245V30.6125ZM97.4311 25.1045C97.4311 24.5522 97.8788 24.1045 98.4311 24.1045H103.331C103.883 24.1045 104.331 24.5522 104.331 25.1045V51.3405C104.331 51.8928 103.883 52.3405 103.331 52.3405H98.4311C97.8788 52.3405 97.4311 51.8928 97.4311 51.3405V25.1045ZM110.442 45.6565C116.294 43.9485 118.898 39.5245 118.898 31.8245V29.6125H110.61V25.5525H123.77V31.2645C123.77 41.862 119.952 47.5253 111.442 49.73C111.116 49.8146 110.782 49.894 110.442 49.9685V45.6565ZM117.898 30.6125H110.61C110.058 30.6125 109.61 30.1648 109.61 29.6125V25.5525C109.61 25.0002 110.058 24.5525 110.61 24.5525H123.77C124.322 24.5525 124.77 25.0002 124.77 25.5525V31.2645C124.77 36.8756 123.723 41.2844 121.374 44.5688C119.01 47.8742 115.427 49.9011 110.656 50.9454C110.36 51.0101 110.051 50.9373 109.815 50.7475C109.579 50.5577 109.442 50.2712 109.442 49.9685V45.6565C109.442 45.2121 109.735 44.821 110.162 44.6965C112.886 43.9016 114.776 42.5057 116.009 40.4693C117.261 38.4029 117.898 35.5765 117.898 31.8245V30.6125ZM125.99 25.1045C125.99 24.5522 126.438 24.1045 126.99 24.1045H131.89C132.442 24.1045 132.89 24.5522 132.89 25.1045V51.3405C132.89 51.8928 132.442 52.3405 131.89 52.3405H126.99C126.438 52.3405 125.99 51.8928 125.99 51.3405V25.1045ZM74.8002 51.5925V40.8965H54.7802V51.5925H74.8002ZM98.4311 25.1045V51.3405H103.331V25.1045H98.4311ZM126.99 25.1045V51.3405H131.89V25.1045H126.99Z" fill="#A8891A"/>
<defs>
<linearGradient id="paint0_linear_821_2547" x1="92.3098" y1="-89.9997" x2="92.3098" y2="89.9169" gradientUnits="userSpaceOnUse">
<stop stop-color="#EFE4BC"/>
<stop offset="1" stop-color="#A5600F"/>
</linearGradient>
<linearGradient id="paint1_linear_821_2547" x1="93.371" y1="8.76856" x2="93.3709" y2="57.2686" gradientUnits="userSpaceOnUse">
<stop stop-color="#FCFB64"/>
<stop offset="1" stop-color="#FFBF00"/>
</linearGradient>
<linearGradient id="paint2_linear_821_2547" x1="93.371" y1="8.76856" x2="93.3709" y2="57.2686" gradientUnits="userSpaceOnUse">
<stop stop-color="#FCFB64"/>
<stop offset="1" stop-color="#FFBF00"/>
</linearGradient>
<linearGradient id="paint3_linear_821_2547" x1="93.371" y1="8.76856" x2="93.3709" y2="57.2686" gradientUnits="userSpaceOnUse">
<stop stop-color="#FCFB64"/>
<stop offset="1" stop-color="#FFBF00"/>
</linearGradient>
</defs>
</svg>
