<svg width="24" height="24" viewBox="0 0 24 24" fill="none" xmlns="http://www.w3.org/2000/svg">
<path d="M23.1424 21.4268L23.143 21.4274C23.2561 21.5402 23.3459 21.6742 23.4072 21.8218C23.4685 21.9694 23.5 22.1276 23.5 22.2875C23.5 22.4473 23.4685 22.6055 23.4072 22.7531C23.3461 22.9004 23.2566 23.0341 23.1438 23.1467C22.9141 23.3731 22.6046 23.5 22.2821 23.5C21.9597 23.5 21.6503 23.3732 21.4205 23.1469C21.4202 23.1465 21.4199 23.1462 21.4195 23.1459L12.3536 14.0773L12 13.7235L11.6464 14.0773L2.58046 23.1459C2.5801 23.1462 2.57974 23.1466 2.57939 23.1469C2.34967 23.3732 2.04025 23.5 1.71789 23.5C1.39545 23.5 1.08595 23.3731 0.856217 23.1468C0.743441 23.0341 0.653935 22.9004 0.59281 22.7531C0.531541 22.6055 0.5 22.4473 0.5 22.2875C0.5 22.1276 0.531541 21.9694 0.59281 21.8218C0.65408 21.6742 0.74387 21.5402 0.857024 21.4274L0.857638 21.4268L9.92589 12.3558L10.2793 12.0023L9.92589 11.6488L0.857638 2.57788C0.629454 2.34963 0.501235 2.04003 0.501235 1.71717C0.501235 1.5573 0.532713 1.39901 0.593868 1.25133C0.655022 1.10364 0.744654 0.969465 0.857638 0.856447C0.970622 0.74343 1.10475 0.653788 1.25235 0.592631C1.39995 0.531475 1.55814 0.5 1.71789 0.5C2.04052 0.5 2.34997 0.628201 2.57815 0.856447L11.6464 9.92738L12 10.2811L12.3536 9.92738L21.4219 0.856447C21.65 0.628201 21.9595 0.5 22.2821 0.5C22.6047 0.5 22.9142 0.628201 23.1424 0.856447C23.3705 1.0847 23.4988 1.3943 23.4988 1.71717C23.4988 2.04003 23.3705 2.34963 23.1424 2.57788L14.0741 11.6488L13.7207 12.0023L14.0741 12.3558L23.1424 21.4268Z" fill="#4D3114" stroke="#4D3114"/>
</svg>
