<svg width="211" height="79" viewBox="0 0 211 79" fill="none" xmlns="http://www.w3.org/2000/svg">
<path d="M197.089 75.9958C147.967 78.7054 5.74792 83.4397 1.91953 69.4122C-3.35434 50.0898 4.20568 22.3345 1.51431 7.12997C1.01838 4.3476 3.93352 1.86915 7.76191 1.7921C42.4049 1.08152 173.363 -1.40121 205.181 1.07296C208.731 1.34692 211.314 3.65843 210.969 6.26101C209.397 18.0326 205.399 51.0229 207.625 66.7326C208.29 71.4498 203.554 75.6405 197.095 76L197.089 75.9958Z" fill="#643B11"/>
<path d="M191.61 73.616C145.427 76.0773 11.7177 80.3793 8.11911 67.6318C3.15974 50.0729 10.2662 24.8603 7.73204 11.0426C7.26634 8.51283 10.0061 6.26553 13.6047 6.19276C46.1732 5.5464 169.299 3.29054 199.212 5.53783C202.551 5.79039 204.982 7.88787 204.655 10.2507C203.18 20.9479 199.418 50.9204 201.51 65.1961C202.139 69.481 197.682 73.2907 191.61 73.616Z" fill="#6E3D12"/>
<path d="M181.467 69.7117C140.722 71.8863 22.7613 75.6788 19.5861 64.4338C15.2134 48.9467 21.4792 26.7006 19.2474 14.5095C18.8362 12.2793 21.2554 10.2932 24.4306 10.2289C53.1647 9.65963 161.787 7.66916 188.175 9.65106C191.12 9.87365 193.261 11.7229 192.977 13.8075C191.676 23.2419 188.356 49.6872 190.201 62.2807C190.757 66.0604 186.82 69.4207 181.467 69.7074V69.7117Z" fill="#643B11"/>
<path d="M177.814 69.9171C139.028 71.9033 26.741 75.3663 23.717 65.0972C19.556 50.9499 25.5193 30.6301 23.3904 19.5006C23.0033 17.463 25.3016 15.6523 28.3256 15.5924C55.6808 15.0702 159.078 13.2552 184.201 15.0659C187.001 15.2671 189.046 16.9579 188.767 18.8628C187.528 27.4796 184.37 51.6348 186.124 63.1367C186.651 66.5911 182.907 69.6603 177.808 69.9214L177.814 69.9171Z" fill="url(#paint0_linear_548_1743)"/>
<path d="M21.8236 59.6699C21.1159 60.3848 60.5913 65.1491 76.0259 63.6209C65.1092 67.5547 20.874 62.5079 20.874 62.5079L21.8236 59.6699V59.6699Z" fill="#965E2E"/>
<path d="M22.1258 23.5028C22.1258 23.5028 29.2201 23.0234 45.4953 22.3985C31.3853 20.5578 20.8799 20.6135 20.8799 20.6135L22.1258 23.5028Z" fill="#965E2E"/>
<path d="M190.013 18.837C190.013 18.837 182.949 18.7685 166.716 18.7728C180.898 18.0023 191.392 17.8867 191.392 17.8867L190.019 18.837H190.013Z" fill="#965E2E"/>
<path d="M205.139 7.38681C205.139 7.38681 198.075 7.31832 181.842 7.3226C196.024 6.5521 206.518 6.43652 206.518 6.43652L205.145 7.38681H205.139Z" fill="#965E2E"/>
<path d="M189.487 33.1554C189.487 33.1554 185.326 33.0355 175.764 32.9071C184.104 32.2864 190.285 32.2607 190.285 32.2607L189.493 33.1554H189.487Z" fill="#965E2E"/>
<path d="M187.158 60.2433C187.158 60.2433 179.828 59.8452 163.002 59.3272C177.65 57.859 188.519 57.9104 188.519 57.9104L187.158 60.2433Z" fill="#965E2E"/>
<path d="M84.8262 18.6965C84.8262 18.6965 115.538 17.0014 139.966 18.6965C128.33 16.4577 89.7009 17.2882 84.8262 18.6965Z" fill="#965E2E"/>
<path d="M113.143 64.6353C113.143 64.6353 136.573 66.3903 155.043 63.792C146.316 66.9125 116.917 66.4117 113.143 64.6353V64.6353Z" fill="#965E2E"/>
<path d="M58.9102 71.0686C58.9102 71.0686 120.679 72.3699 169.752 70.3623C146.389 72.7509 68.72 72.4127 58.9102 71.0686Z" fill="#965E2E"/>
<path d="M32.6377 53.4717C32.6377 53.4717 48.6407 57.8207 62.3879 57.3114C55.354 59.4174 34.7908 55.6462 32.6377 53.4717V53.4717Z" fill="#965E2E"/>
<g filter="url(#filter0_d_548_1743)">
<path d="M56.7699 37.0196V32.3424H50.6968V28.4539H61.4055V37.5635H63.2538V28.1819H67.7427V53.2537H63.2538V41.5608H61.0241C60.0265 47.3529 56.8579 50.6704 50.374 52.166V48.0327C54.7455 46.7002 56.7699 43.4643 56.7699 37.0196ZM73.5518 28.0188V53.4984H69.0042V28.0188H73.5518Z" fill="url(#paint1_linear_548_1743)"/>
<path d="M88.5722 34.8442C88.5722 33.6477 88.2201 32.7775 87.6333 32.2337C87.1932 31.8802 86.6065 31.6626 85.961 31.6626C85.3155 31.6626 84.7288 31.8802 84.2887 32.2337C83.7019 32.7775 83.3205 33.6477 83.3205 34.8442C83.3205 36.0407 83.7019 36.9108 84.2887 37.4275C84.7288 37.781 85.3155 37.9713 85.961 37.9713C86.6065 37.9713 87.1932 37.781 87.6333 37.4275C88.2201 36.9108 88.5722 36.0407 88.5722 34.8442ZM78.4209 34.8442C78.4209 32.3424 79.4184 30.3846 81.1201 29.2153C82.411 28.3451 84.054 27.8828 85.961 27.8828C87.8387 27.8828 89.511 28.3451 90.7726 29.2153C92.5036 30.3846 93.4718 32.3424 93.4718 34.8442C93.4718 37.3459 92.5036 39.2766 90.7726 40.4459C89.511 41.3161 87.8387 41.7783 85.961 41.7783C84.054 41.7783 82.411 41.3161 81.1201 40.4459C79.4184 39.2766 78.4209 37.3459 78.4209 34.8442ZM101.364 28.0188V42.2678H96.2296V28.0188H101.364ZM101.364 53.7432H80.3866V43.3555H101.364V53.7432ZM96.2883 50.0178V47.1625H85.4622V50.0178H96.2883Z" fill="url(#paint2_linear_548_1743)"/>
<path d="M114.096 47.2985C112.746 49.5555 109.548 51.4318 106.145 52.03V47.8967C109.343 46.7002 111.543 44.6608 111.543 37.5635V28.3179H116.678V37.5635C116.678 44.6608 118.819 46.6459 122.047 47.8967V52.03C118.673 51.459 115.592 49.5283 114.096 47.2985ZM124.365 28.0188H129.499V53.4984H124.365V28.0188Z" fill="url(#paint3_linear_548_1743)"/>
<path d="M134.867 32.1793V28.3179H149.654V32.1793H144.783V32.2065C144.783 36.4757 146.573 37.9442 150.123 38.5968V42.5126C146.984 42.1862 143.962 41.0169 142.319 39.195C140.588 41.0713 137.419 42.5125 134.397 42.7845V38.8687C137.889 38.2433 139.737 36.5573 139.737 32.2065V32.1793H134.867ZM151.883 28.0188H157.018V33.5661H160.626V37.5091H157.018V42.9204H151.883V28.0188ZM135.982 47.8423V43.9266H157.018V53.9063H151.883V47.8423H135.982Z" fill="url(#paint4_linear_548_1743)"/>
<path d="M61.4409 42.0608H62.7538V53.2537V53.7537H63.2538H67.7427H68.2427V53.2537V28.1819V27.6819H67.7427H63.2538H62.7538V28.1819V37.0635H61.9055V28.4539V27.9539H61.4055H50.6968H50.1968V28.4539V32.3424V32.8424H50.6968H56.2699V37.0196C56.2699 40.1985 55.769 42.5166 54.7808 44.1889C53.8032 45.8432 52.3176 46.9176 50.2282 47.5544L49.874 47.6624V48.0327V52.166V52.7945L50.4864 52.6532C53.7879 51.8917 56.2974 50.6544 58.1113 48.8268C59.8429 47.0821 60.9024 44.8381 61.4409 42.0608ZM74.0518 28.0188V27.5188H73.5518H69.0042H68.5042V28.0188V53.4984V53.9984H69.0042H73.5518H74.0518V53.4984V28.0188ZM80.8406 28.8007L80.8406 28.8006L80.8369 28.8032C78.9809 30.0786 77.9209 32.2018 77.9209 34.8442C77.9209 37.4888 78.9825 39.5837 80.8369 40.858L80.8369 40.858L80.8406 40.8605C82.2288 41.7962 83.9737 42.2783 85.961 42.2783C87.9157 42.2783 89.6923 41.7977 91.0544 40.8589C92.9431 39.5821 93.9718 37.4836 93.9718 34.8442C93.9718 32.207 92.9448 30.0802 91.0545 28.8023C89.6923 27.8635 87.9157 27.3828 85.961 27.3828C83.9737 27.3828 82.2288 27.8649 80.8406 28.8007ZM101.864 28.0188V27.5188H101.364H96.2296H95.7296V28.0188V42.2678V42.7678H96.2296H101.364H101.864V42.2678V28.0188ZM101.364 54.2432H101.864V53.7432V43.3555V42.8555H101.364H80.3866H79.8866V43.3555V53.7432V54.2432H80.3866H101.364ZM106.232 52.5225C109.427 51.9608 112.504 50.2965 114.114 48.1639C115.807 50.2637 118.769 51.9825 121.963 52.523L122.547 52.6218V52.03V47.8967V47.5543L122.227 47.4305C120.665 46.8249 119.437 46.0701 118.579 44.6622C117.709 43.2361 117.178 41.0731 117.178 37.5635V28.3179V27.8179H116.678H111.543H111.043V28.3179V37.5635C111.043 41.0711 110.498 43.2479 109.617 44.6812C108.748 46.0967 107.513 46.8511 105.97 47.4284L105.645 47.5499V47.8967V52.03V52.6256L106.232 52.5225ZM124.365 27.5188H123.865V28.0188V53.4984V53.9984H124.365H129.499H129.999V53.4984V28.0188V27.5188H129.499H124.365ZM134.367 32.1793V32.6793H134.867H139.229C139.166 34.5254 138.727 35.7606 137.997 36.6084C137.206 37.5281 136.001 38.0734 134.309 38.3765L133.897 38.4503V38.8687V42.7845V43.3315L134.442 43.2825C137.364 43.0195 140.435 41.7029 142.317 39.9091C144.128 41.6359 147.082 42.6992 150.071 43.0099L150.623 43.0672V42.5126V38.5968V38.1803L150.213 38.105C148.476 37.7856 147.273 37.2824 146.492 36.4219C145.779 35.6357 145.354 34.4781 145.291 32.6793H149.654H150.154V32.1793V28.3179V27.8179H149.654H134.867H134.367V28.3179V32.1793ZM151.883 27.5188H151.383V28.0188V42.9204V43.4204H151.883H157.018H157.518V42.9204V38.0091H160.626H161.126V37.5091V33.5661V33.0661H160.626H157.518V28.0188V27.5188H157.018H151.883ZM135.482 47.8423V48.3423H135.982H151.383V53.9063V54.4063H151.883H157.018H157.518V53.9063V43.9266V43.4266H157.018H135.982H135.482V43.9266V47.8423ZM85.961 32.1626C86.4874 32.1626 86.9578 32.3377 87.3063 32.6125C87.756 33.0371 88.0722 33.7535 88.0722 34.8442C88.0722 35.9424 87.7521 36.6513 87.3113 37.0447C86.9735 37.3124 86.5055 37.4713 85.961 37.4713C85.4165 37.4713 84.9484 37.3123 84.6106 37.0447C84.1626 36.6451 83.8205 35.9303 83.8205 34.8442C83.8205 33.7652 84.1587 33.0435 84.6156 32.6125C84.9642 32.3377 85.4346 32.1626 85.961 32.1626ZM85.9622 47.6625H95.7883V49.5178H85.9622V47.6625Z" stroke="#A8891A"/>
</g>
<defs>
<filter id="filter0_d_548_1743" x="41.374" y="22.8828" width="128.252" height="44.0234" filterUnits="userSpaceOnUse" color-interpolation-filters="sRGB">
<feFlood flood-opacity="0" result="BackgroundImageFix"/>
<feColorMatrix in="SourceAlpha" type="matrix" values="0 0 0 0 0 0 0 0 0 0 0 0 0 0 0 0 0 0 127 0" result="hardAlpha"/>
<feOffset dy="4"/>
<feGaussianBlur stdDeviation="4"/>
<feComposite in2="hardAlpha" operator="out"/>
<feColorMatrix type="matrix" values="0 0 0 0 0 0 0 0 0 0 0 0 0 0 0 0 0 0 0.25 0"/>
<feBlend mode="normal" in2="BackgroundImageFix" result="effect1_dropShadow_548_1743"/>
<feBlend mode="normal" in="SourceGraphic" in2="effect1_dropShadow_548_1743" result="shape"/>
</filter>
<linearGradient id="paint0_linear_548_1743" x1="105.498" y1="-101.571" x2="105.498" y2="101.478" gradientUnits="userSpaceOnUse">
<stop stop-color="#EFE4BC"/>
<stop offset="1" stop-color="#A5600F"/>
</linearGradient>
<linearGradient id="paint1_linear_548_1743" x1="115.488" y1="17.8947" x2="96.5667" y2="72.4787" gradientUnits="userSpaceOnUse">
<stop stop-color="#FCFF68"/>
<stop offset="1" stop-color="#FFA216"/>
</linearGradient>
<linearGradient id="paint2_linear_548_1743" x1="115.488" y1="17.8947" x2="96.5667" y2="72.4787" gradientUnits="userSpaceOnUse">
<stop stop-color="#FCFF68"/>
<stop offset="1" stop-color="#FFA216"/>
</linearGradient>
<linearGradient id="paint3_linear_548_1743" x1="115.488" y1="17.8947" x2="96.5667" y2="72.4787" gradientUnits="userSpaceOnUse">
<stop stop-color="#FCFF68"/>
<stop offset="1" stop-color="#FFA216"/>
</linearGradient>
<linearGradient id="paint4_linear_548_1743" x1="115.488" y1="17.8947" x2="96.5667" y2="72.4787" gradientUnits="userSpaceOnUse">
<stop stop-color="#FCFF68"/>
<stop offset="1" stop-color="#FFA216"/>
</linearGradient>
</defs>
</svg>
