<svg width="62" height="72" viewBox="0 0 62 72" fill="none" xmlns="http://www.w3.org/2000/svg">
<g clip-path="url(#clip0_597_733)">
<g style="mix-blend-mode:overlay" opacity="0.5">
<path d="M55.4156 40.5638L60.2838 26.6939C61.6268 22.8858 59.4258 19.6937 55.3783 19.619L40.699 19.3203L29.0227 10.3973C25.8145 7.95189 22.1027 9.07193 20.7784 12.8801L15.9661 26.7686L3.89811 35.1316C0.578018 37.4276 0.484757 41.3105 3.71159 43.7559L15.4065 52.6415L19.6033 66.7167C20.7597 70.5995 24.4156 71.8689 27.7357 69.5728L39.785 61.1725L54.4643 61.5085C58.5118 61.6019 60.8434 58.5031 59.6683 54.639L55.4156 40.5824V40.5638Z" stroke="white" stroke-width="1.42" stroke-miterlimit="10"/>
<path d="M55.4156 40.2093L60.2838 26.3394C61.6268 22.5313 59.4258 19.3392 55.3783 19.2645L40.699 18.9658L29.0227 10.0428C25.8145 7.5974 22.1027 8.71744 20.7784 12.5256L15.9661 26.4141L3.89811 34.7771C0.578018 37.0732 0.484757 40.956 3.71159 43.4014L15.4065 52.2871L19.6033 66.3622C20.7597 70.2451 24.4156 71.5144 27.7357 69.2184L39.785 60.818L54.4643 61.154C58.5118 61.2474 60.8434 58.1486 59.6683 54.2845L55.4156 40.2279V40.2093Z" stroke="white" stroke-width="1.42" stroke-miterlimit="10"/>
<path d="M55.4156 39.8548L60.2838 25.9849C61.6268 22.1768 59.4258 18.9847 55.3783 18.91L40.699 18.6113L29.0227 9.68833C25.8145 7.24291 22.1027 8.36295 20.7784 12.1711L15.9661 26.0596L3.89811 34.4226C0.578018 36.7187 0.484757 40.6015 3.71159 43.0469L15.4065 51.9326L19.6033 66.0077C20.7597 69.8906 24.4156 71.1599 27.7357 68.8639L39.785 60.4635L54.4643 60.7996C58.5118 60.8929 60.8434 57.7941 59.6683 53.93L55.4156 39.8734V39.8548Z" stroke="white" stroke-width="1.42" stroke-miterlimit="10"/>
<path d="M55.4156 39.5003L60.2838 25.6304C61.6268 21.8223 59.4258 18.6302 55.3783 18.5555L40.699 18.2568L29.0227 9.33384C25.8145 6.88842 22.1027 8.00846 20.7784 11.8166L15.9661 25.7051L3.89811 34.0681C0.578018 36.3642 0.484757 40.247 3.71159 42.6924L15.4065 51.5781L19.6033 65.6533C20.7597 69.5361 24.4156 70.8055 27.7357 68.5094L39.785 60.1091L54.4643 60.4451C58.5118 60.5384 60.8434 57.4396 59.6683 53.5755L55.4156 39.519V39.5003Z" stroke="white" stroke-width="1.42" stroke-miterlimit="10"/>
<path d="M55.4156 39.1448L60.2838 25.275C61.6268 21.4668 59.4258 18.2747 55.3783 18.2L40.699 17.9014L29.0227 8.97837C25.8145 6.53295 22.1027 7.65299 20.7784 11.4611L15.9661 25.3496L3.89811 33.7126C0.578018 36.0087 0.484757 39.8915 3.71159 42.3369L15.4065 51.2226L19.6033 65.2978C20.7597 69.1806 24.4156 70.45 27.7357 68.1539L39.785 59.7536L54.4643 60.0896C58.5118 60.1829 60.8434 57.0842 59.6683 53.22L55.4156 39.1635V39.1448Z" stroke="white" stroke-width="1.42" stroke-miterlimit="10"/>
<path d="M55.4156 38.7903L60.2838 24.9205C61.6268 21.1123 59.4258 17.9202 55.3783 17.8456L40.699 17.5469L29.0227 8.62388C25.8145 6.17846 22.1027 7.2985 20.7784 11.1066L15.9661 24.9952L3.89811 33.3581C0.578018 35.6542 0.484757 39.537 3.71159 41.9824L15.4065 50.8681L19.6033 64.9433C20.7597 68.8261 24.4156 70.0955 27.7357 67.7994L39.785 59.3991L54.4643 59.7351C58.5118 59.8284 60.8434 56.7297 59.6683 52.8655L55.4156 38.809V38.7903Z" stroke="white" stroke-width="1.42" stroke-miterlimit="10"/>
<path d="M55.4156 38.4358L60.2838 24.566C61.6268 20.7578 59.4258 17.5657 55.3783 17.4911L40.699 17.1924L29.0227 8.26939C25.8145 5.82396 22.1027 6.944 20.7784 10.7521L15.9661 24.6407L3.89811 33.0036C0.578018 35.2997 0.484757 39.1825 3.71159 41.628L15.4065 50.5136L19.6033 64.5888C20.7597 68.4716 24.4156 69.741 27.7357 67.4449L39.785 59.0446L54.4643 59.3806C58.5118 59.4739 60.8434 56.3752 59.6683 52.511L55.4156 38.4545V38.4358Z" stroke="white" stroke-width="1.42" stroke-miterlimit="10"/>
<path d="M55.4156 38.0813L60.2838 24.2115C61.6268 20.4034 59.4258 17.2112 55.3783 17.1366L40.699 16.8379L29.0227 7.91489C25.8145 5.46947 22.1027 6.58951 20.7784 10.3977L15.9661 24.2862L3.89811 32.6491C0.578018 34.9452 0.484757 38.828 3.71159 41.2735L15.4065 50.1591L19.6033 64.2343C20.7597 68.1171 24.4156 69.3865 27.7357 67.0904L39.785 58.6901L54.4643 59.0261C58.5118 59.1195 60.8434 56.0207 59.6683 52.1565L55.4156 38.1V38.0813Z" stroke="white" stroke-width="1.42" stroke-miterlimit="10"/>
<path d="M55.4156 37.7269L60.2838 23.857C61.6268 20.0489 59.4258 16.8567 55.3783 16.7821L40.699 16.4834L29.0227 7.5604C25.8145 5.11498 22.1027 6.23502 20.7784 10.0432L15.9661 23.9317L3.89811 32.2946C0.578018 34.5907 0.484757 38.4735 3.71159 40.919L15.4065 49.8046L19.6033 63.8798C20.7597 67.7626 24.4156 69.032 27.7357 66.7359L39.785 58.3356L54.4643 58.6716C58.5118 58.765 60.8434 55.6662 59.6683 51.802L55.4156 37.7455V37.7269Z" stroke="white" stroke-width="1.42" stroke-miterlimit="10"/>
<path d="M55.4157 37.3714L60.2839 23.5015C61.6268 19.6934 59.4259 16.5013 55.3784 16.4266L40.6991 16.1279L29.0041 7.20493C25.7959 4.75951 22.0841 5.87955 20.7598 9.68769L15.9475 23.5762L3.87956 31.9392C0.559463 34.2353 0.466202 38.1181 3.69304 40.5635L15.388 49.4492L19.5847 63.5243C20.7412 67.4072 24.397 68.6765 27.7171 66.3805L39.7664 57.9801L54.4457 58.3162C58.4933 58.4095 60.8248 55.3107 59.6497 51.4466L55.397 37.39L55.4157 37.3714Z" stroke="white" stroke-width="1.42" stroke-miterlimit="10"/>
<path d="M55.4157 37.0169L60.2839 23.147C61.6268 19.3389 59.4259 16.1468 55.3784 16.0721L40.6991 15.7734L29.0041 6.85044C25.7959 4.40502 22.0841 5.52506 20.7598 9.3332L15.9475 23.2217L3.87956 31.5847C0.559463 33.8808 0.466202 37.7636 3.69304 40.209L15.388 49.0947L19.5847 63.1699C20.7412 67.0527 24.397 68.322 27.7171 66.026L39.7664 57.6257L54.4457 57.9617C58.4933 58.055 60.8248 54.9562 59.6497 51.0921L55.397 37.0356L55.4157 37.0169Z" stroke="white" stroke-width="1.42" stroke-miterlimit="10"/>
<path d="M55.4157 36.6624L60.2839 22.7926C61.6268 18.9844 59.4259 15.7923 55.3784 15.7176L40.6991 15.4189L29.0041 6.49595C25.7959 4.05053 22.0841 5.17057 20.7598 8.97871L15.9475 22.8672L3.87956 31.2302C0.559463 33.5263 0.466202 37.4091 3.69304 39.8545L15.388 48.7402L19.5847 62.8154C20.7412 66.6982 24.397 67.9676 27.7171 65.6715L39.7664 57.2712L54.4457 57.6072C58.4933 57.7005 60.8248 54.6017 59.6497 50.7376L55.397 36.6811L55.4157 36.6624Z" stroke="white" stroke-width="1.42" stroke-miterlimit="10"/>
<path d="M55.4157 36.3265L60.2839 22.4566C61.6268 18.6485 59.4259 15.4564 55.3784 15.3817L40.6991 15.083L29.0041 6.16001C25.7959 3.71459 22.0841 4.83463 20.7598 8.64277L15.9475 22.5313L3.87956 30.8943C0.559463 33.1903 0.466202 37.0732 3.69304 39.5186L15.388 48.4042L19.5847 62.4794C20.7412 66.3622 24.397 67.6316 27.7171 65.3355L39.7664 56.9352L54.4457 57.2712C58.4933 57.3646 60.8248 54.2658 59.6497 50.4016L55.397 36.3451L55.4157 36.3265Z" stroke="white" stroke-width="1.42" stroke-miterlimit="10"/>
<path d="M55.4157 35.972L60.2839 22.1021C61.6268 18.294 59.4259 15.1019 55.3784 15.0272L40.6991 14.7285L29.0041 5.80552C25.7959 3.3601 22.0841 4.48014 20.7598 8.28828L15.9475 22.1768L3.87956 30.5398C0.559463 32.8359 0.466202 36.7187 3.69304 39.1641L15.388 48.0497L19.5847 62.1249C20.7412 66.0077 24.397 67.2771 27.7171 64.981L39.7664 56.5807L54.4457 56.9167C58.4933 57.0101 60.8248 53.9113 59.6497 50.0472L55.397 35.9906L55.4157 35.972Z" stroke="white" stroke-width="1.42" stroke-miterlimit="10"/>
<path d="M55.4157 35.6175L60.2839 21.7476C61.6268 17.9395 59.4259 14.7474 55.3784 14.6727L40.6991 14.374L29.0041 5.45103C25.7959 3.0056 22.0841 4.12565 20.7598 7.93379L15.9475 21.8223L3.87956 30.1853C0.559463 32.4814 0.466202 36.3642 3.69304 38.8096L15.388 47.6953L19.5847 61.7704C20.7412 65.6533 24.397 66.9226 27.7171 64.6265L39.7664 56.2262L54.4457 56.5622C58.4933 56.6556 60.8248 53.5568 59.6497 49.6927L55.397 35.6361L55.4157 35.6175Z" stroke="white" stroke-width="1.42" stroke-miterlimit="10"/>
<path d="M55.4157 35.262L60.2839 21.3922C61.6268 17.584 59.4259 14.3919 55.3784 14.3172L40.6991 14.0186L29.0041 5.09556C25.7959 2.65013 22.0841 3.77018 20.7598 7.57832L15.9475 21.4668L3.87956 29.8298C0.559463 32.1259 0.466202 36.0087 3.69304 38.4541L15.388 47.3398L19.5847 61.415C20.7412 65.2978 24.397 66.5672 27.7171 64.2711L39.7664 55.8708L54.4457 56.2068C58.4933 56.3001 60.8248 53.2013 59.6497 49.3372L55.397 35.2807L55.4157 35.262Z" stroke="white" stroke-width="1.42" stroke-miterlimit="10"/>
<path d="M55.4157 34.9075L60.2839 21.0377C61.6268 17.2295 59.4259 14.0374 55.3784 13.9627L40.6991 13.6641L29.0041 4.74107C25.7959 2.29564 22.0841 3.41568 20.7598 7.22382L15.9475 21.1123L3.87956 29.4753C0.559463 31.7714 0.466202 35.6542 3.69304 38.0996L15.388 46.9853L19.5847 61.0605C20.7412 64.9433 24.397 66.2127 27.7171 63.9166L39.7664 55.5163L54.4457 55.8523C58.4933 55.9456 60.8248 52.8468 59.6497 48.9827L55.397 34.9262L55.4157 34.9075Z" stroke="white" stroke-width="1.42" stroke-miterlimit="10"/>
<path d="M55.4157 34.553L60.2839 20.6832C61.6268 16.875 59.4259 13.6829 55.3784 13.6082L40.6991 13.3096L29.0041 4.38657C25.7959 1.94115 22.0841 3.06119 20.7598 6.86933L15.9475 20.7578L3.87956 29.1208C0.559463 31.4169 0.466202 35.2997 3.69304 37.7451L15.388 46.6308L19.5847 60.706C20.7412 64.5888 24.397 65.8582 27.7171 63.5621L39.7664 55.1618L54.4457 55.4978C58.4933 55.5911 60.8248 52.4924 59.6497 48.6282L55.397 34.5717L55.4157 34.553Z" stroke="white" stroke-width="1.42" stroke-miterlimit="10"/>
<path d="M55.4157 34.1985L60.2839 20.3287C61.6268 16.5205 59.4259 13.3284 55.3784 13.2538L40.6991 12.9551L29.0041 4.03208C25.7959 1.58666 22.0841 2.7067 20.7598 6.51484L15.9475 20.4034L3.87956 28.7663C0.559463 31.0624 0.466202 34.9452 3.69304 37.3907L15.388 46.2763L19.5847 60.3515C20.7412 64.2343 24.397 65.5037 27.7171 63.2076L39.7664 54.8073L54.4457 55.1433C58.4933 55.2366 60.8248 52.1379 59.6497 48.2737L55.397 34.2172L55.4157 34.1985Z" stroke="white" stroke-width="1.42" stroke-miterlimit="10"/>
<path d="M55.4157 33.844L60.2839 19.9742C61.6268 16.1661 59.4259 12.9739 55.3784 12.8993L40.6991 12.6006L29.0041 3.67759C25.7959 1.23217 22.0841 2.35221 20.7598 6.16035L15.9475 20.0489L3.87956 28.4118C0.559463 30.7079 0.466202 34.5907 3.69304 37.0362L15.388 45.9218L19.5847 59.997C20.7412 63.8798 24.397 65.1492 27.7171 62.8531L39.7664 54.4528L54.4457 54.7888C58.4933 54.8822 60.8248 51.7834 59.6497 47.9192L55.397 33.8627L55.4157 33.844Z" stroke="white" stroke-width="1.42" stroke-miterlimit="10"/>
<path d="M55.4157 33.4886L60.2839 19.6187C61.6268 15.8106 59.4259 12.6185 55.3784 12.5438L40.6991 12.2451L29.0041 3.32212C25.7959 0.876697 22.0841 1.99674 20.7598 5.80488L15.9475 19.6934L3.87956 28.0564C0.559463 30.3525 0.466202 34.2353 3.69304 36.6807L15.388 45.5663L19.5847 59.6415C20.7412 63.5243 24.397 64.7937 27.7171 62.4976L39.7664 54.0973L54.4457 54.4333C58.4933 54.5267 60.8248 51.4279 59.6497 47.5638L55.397 33.5072L55.4157 33.4886Z" stroke="white" stroke-width="1.42" stroke-miterlimit="10"/>
<path d="M55.4157 33.1341L60.2839 19.2642C61.6268 15.4561 59.4259 12.264 55.3784 12.1893L40.6991 11.8906L29.0041 2.96763C25.7959 0.522205 22.0841 1.64225 20.7598 5.45039L15.9475 19.3389L3.87956 27.7019C0.559463 29.998 0.466202 33.8808 3.69304 36.3262L15.388 45.2119L19.5847 59.287C20.7412 63.1699 24.397 64.4392 27.7171 62.1432L39.7664 53.7428L54.4457 54.0789C58.4933 54.1722 60.8248 51.0734 59.6497 47.2093L55.397 33.1527L55.4157 33.1341Z" stroke="white" stroke-width="1.42" stroke-miterlimit="10"/>
<path d="M55.4157 32.7796L60.2839 18.9097C61.6268 15.1016 59.4259 11.9095 55.3784 11.8348L40.6991 11.5361L29.0041 2.61314C25.7959 0.167713 22.0841 1.28775 20.7598 5.0959L15.9475 18.9844L3.87956 27.3474C0.559463 29.6435 0.466202 33.5263 3.69304 35.9717L15.388 44.8574L19.5847 58.9326C20.7412 62.8154 24.397 64.0847 27.7171 61.7887L39.7664 53.3883L54.4457 53.7244C58.4933 53.8177 60.8248 50.7189 59.6497 46.8548L55.397 32.7983L55.4157 32.7796Z" stroke="white" stroke-width="1.42" stroke-miterlimit="10"/>
</g>
<path d="M55.4156 39.8362L60.2838 25.9664C61.6268 22.1582 59.4258 18.9661 55.3783 18.8915L40.699 18.5928L29.0227 9.66978C25.8145 7.22435 22.1027 8.3444 20.7784 12.1525L15.9661 26.041L3.89811 34.404C0.578018 36.7001 0.484757 40.5829 3.71159 43.0283L15.4065 51.914L19.6033 65.9892C20.7597 69.872 24.4156 71.1414 27.7357 68.8453L39.785 60.445L54.4643 60.781C58.5118 60.8743 60.8434 57.7756 59.6683 53.9114L55.4156 39.8549V39.8362Z" stroke="url(#paint0_linear_597_733)" stroke-width="1.42" stroke-miterlimit="10"/>
<path d="M55.4156 39.5745L60.2838 25.7047C61.6268 21.8965 59.4258 18.7044 55.3783 18.6297L40.699 18.3311L29.0227 9.40806C25.8145 6.96263 22.1027 8.08268 20.7784 11.8908L15.9661 25.7793L3.89811 34.1423C0.578018 36.4384 0.484757 40.3212 3.71159 42.7666L15.4065 51.6523L19.6033 65.7275C20.7597 69.6103 24.4156 70.8797 27.7357 68.5836L39.785 60.1833L54.4643 60.5193C58.5118 60.6126 60.8434 57.5138 59.6683 53.6497L55.4156 39.5932V39.5745Z" stroke="url(#paint1_linear_597_733)" stroke-width="1.42" stroke-miterlimit="10"/>
<path d="M55.4156 39.3128L60.2838 25.4429C61.6268 21.6348 59.4258 18.4427 55.3783 18.368L40.699 18.0693L29.0227 9.14634C25.8145 6.70092 22.1027 7.82096 20.7784 11.6291L15.9661 25.5176L3.89811 33.8806C0.578018 36.1767 0.484757 40.0595 3.71159 42.5049L15.4065 51.3906L19.6033 65.4658C20.7597 69.3486 24.4156 70.6179 27.7357 68.3219L39.785 59.9216L54.4643 60.2576C58.5118 60.3509 60.8434 57.2521 59.6683 53.388L55.4156 39.3315V39.3128Z" stroke="url(#paint2_linear_597_733)" stroke-width="1.42" stroke-miterlimit="10"/>
<path d="M55.4156 39.052L60.2838 25.1822C61.6268 21.3741 59.4258 18.1819 55.3783 18.1073L40.699 17.8086L29.0227 8.8856C25.8145 6.44017 22.1027 7.56022 20.7784 11.3684L15.9661 25.2569L3.89811 33.6198C0.578018 35.9159 0.484757 39.7987 3.71159 42.2442L15.4065 51.1298L19.6033 65.205C20.7597 69.0878 24.4156 70.3572 27.7357 68.0611L39.785 59.6608L54.4643 59.9968C58.5118 60.0902 60.8434 56.9914 59.6683 53.1272L55.4156 39.0707V39.052Z" stroke="url(#paint3_linear_597_733)" stroke-width="1.42" stroke-miterlimit="10"/>
<path d="M55.4156 38.7903L60.2838 24.9205C61.6268 21.1123 59.4258 17.9202 55.3783 17.8456L40.699 17.5469L29.0227 8.62388C25.8145 6.17846 22.1027 7.2985 20.7784 11.1066L15.9661 24.9952L3.89811 33.3581C0.578018 35.6542 0.484757 39.537 3.71159 41.9824L15.4065 50.8681L19.6033 64.9433C20.7597 68.8261 24.4156 70.0955 27.7357 67.7994L39.785 59.3991L54.4643 59.7351C58.5118 59.8284 60.8434 56.7297 59.6683 52.8655L55.4156 38.809V38.7903Z" stroke="url(#paint4_linear_597_733)" stroke-width="1.42" stroke-miterlimit="10"/>
<path d="M55.4156 38.5296L60.2838 24.6597C61.6268 20.8516 59.4258 17.6595 55.3783 17.5848L40.699 17.2861L29.0227 8.36314C25.8145 5.91771 22.1027 7.03775 20.7784 10.8459L15.9661 24.7344L3.89811 33.0974C0.578018 35.3935 0.484757 39.2763 3.71159 41.7217L15.4065 50.6074L19.6033 64.6826C20.7597 68.5654 24.4156 69.8347 27.7357 67.5387L39.785 59.1383L54.4643 59.4744C58.5118 59.5677 60.8434 56.4689 59.6683 52.6048L55.4156 38.5483V38.5296Z" stroke="url(#paint5_linear_597_733)" stroke-width="1.42" stroke-miterlimit="10"/>
<path d="M55.4156 38.2679L60.2838 24.398C61.6268 20.5899 59.4258 17.3978 55.3783 17.3231L40.699 17.0244L29.0227 8.10142C25.8145 5.65599 22.1027 6.77604 20.7784 10.5842L15.9661 24.4727L3.89811 32.8357C0.578018 35.1318 0.484757 39.0146 3.71159 41.46L15.4065 50.3456L19.6033 64.4208C20.7597 68.3036 24.4156 69.573 27.7357 67.2769L39.785 58.8766L54.4643 59.2126C58.5118 59.306 60.8434 56.2072 59.6683 52.3431L55.4156 38.2865V38.2679Z" stroke="url(#paint6_linear_597_733)" stroke-width="1.42" stroke-miterlimit="10"/>
<path d="M55.4156 38.0062L60.2838 24.1363C61.6268 20.3282 59.4258 17.136 55.3783 17.0614L40.699 16.7627L29.0227 7.8397C25.8145 5.39428 22.1027 6.51432 20.7784 10.3225L15.9661 24.211L3.89811 32.5739C0.578018 34.87 0.484757 38.7528 3.71159 41.1983L15.4065 50.0839L19.6033 64.1591C20.7597 68.0419 24.4156 69.3113 27.7357 67.0152L39.785 58.6149L54.4643 58.9509C58.5118 59.0443 60.8434 55.9455 59.6683 52.0813L55.4156 38.0248V38.0062Z" stroke="url(#paint7_linear_597_733)" stroke-width="1.42" stroke-miterlimit="10"/>
<path d="M55.4156 37.7454L60.2838 23.8756C61.6268 20.0674 59.4258 16.8753 55.3783 16.8006L40.699 16.502L29.0227 7.57896C25.8145 5.13353 22.1027 6.25357 20.7784 10.0617L15.9661 23.9502L3.89811 32.3132C0.578018 34.6093 0.484757 38.4921 3.71159 40.9375L15.4065 49.8232L19.6033 63.8984C20.7597 67.7812 24.4156 69.0506 27.7357 66.7545L39.785 58.3542L54.4643 58.6902C58.5118 58.7835 60.8434 55.6847 59.6683 51.8206L55.4156 37.7641V37.7454Z" stroke="url(#paint8_linear_597_733)" stroke-width="1.42" stroke-miterlimit="10"/>
<path d="M55.4157 37.4837L60.2839 23.6138C61.6268 19.8057 59.4259 16.6136 55.3784 16.5389L40.6991 16.2402L29.0041 7.31724C25.7959 4.87181 22.0841 5.99186 20.7598 9.8L15.9475 23.6885L3.87956 32.0515C0.559463 34.3476 0.466202 38.2304 3.69304 40.6758L15.388 49.5615L19.5847 63.6367C20.7412 67.5195 24.397 68.7888 27.7171 66.4928L39.7664 58.0925L54.4457 58.4285C58.4933 58.5218 60.8248 55.423 59.6497 51.5589L55.397 37.5024L55.4157 37.4837Z" stroke="url(#paint9_linear_597_733)" stroke-width="1.42" stroke-miterlimit="10"/>
<path d="M55.4157 37.222L60.2839 23.3521C61.6268 19.544 59.4259 16.3519 55.3784 16.2772L40.6991 15.9785L29.0041 7.05552C25.7959 4.6101 22.0841 5.73014 20.7598 9.53828L15.9475 23.4268L3.87956 31.7898C0.559463 34.0859 0.466202 37.9687 3.69304 40.4141L15.388 49.2997L19.5847 63.3749C20.7412 67.2577 24.397 68.5271 27.7171 66.231L39.7664 57.8307L54.4457 58.1667C58.4933 58.2601 60.8248 55.1613 59.6497 51.2972L55.397 37.2406L55.4157 37.222Z" stroke="url(#paint10_linear_597_733)" stroke-width="1.42" stroke-miterlimit="10"/>
<path d="M55.4157 36.9612L60.2839 23.0914C61.6268 19.2832 59.4259 16.0911 55.3784 16.0165L40.6991 15.7178L29.0041 6.79478C25.7959 4.34935 22.0841 5.46939 20.7598 9.27754L15.9475 23.166L3.87956 31.529C0.559463 33.8251 0.466202 37.7079 3.69304 40.1533L15.388 49.039L19.5847 63.1142C20.7412 66.997 24.397 68.2664 27.7171 65.9703L39.7664 57.57L54.4457 57.906C58.4933 57.9993 60.8248 54.9006 59.6497 51.0364L55.397 36.9799L55.4157 36.9612Z" stroke="url(#paint11_linear_597_733)" stroke-width="1.42" stroke-miterlimit="10"/>
<path d="M55.4157 36.6995L60.2839 22.8297C61.6268 19.0215 59.4259 15.8294 55.3784 15.7547L40.6991 15.4561L29.0041 6.53306C25.7959 4.08763 22.0841 5.20768 20.7598 9.01582L15.9475 22.9043L3.87956 31.2673C0.559463 33.5634 0.466202 37.4462 3.69304 39.8916L15.388 48.7773L19.5847 62.8525C20.7412 66.7353 24.397 68.0047 27.7171 65.7086L39.7664 57.3083L54.4457 57.6443C58.4933 57.7376 60.8248 54.6388 59.6497 50.7747L55.397 36.7182L55.4157 36.6995Z" stroke="url(#paint12_linear_597_733)" stroke-width="1.42" stroke-miterlimit="10"/>
<path d="M55.4157 36.4388L60.2839 22.5689C61.6268 18.7608 59.4259 15.5687 55.3784 15.494L40.6991 15.1953L29.0041 6.27232C25.7959 3.82689 22.0841 4.94693 20.7598 8.75508L15.9475 22.6436L3.87956 31.0066C0.559463 33.3027 0.466202 37.1855 3.69304 39.6309L15.388 48.5165L19.5847 62.5917C20.7412 66.4745 24.397 67.7439 27.7171 65.4478L39.7664 57.0475L54.4457 57.3835C58.4933 57.4769 60.8248 54.3781 59.6497 50.5139L55.397 36.4574L55.4157 36.4388Z" stroke="url(#paint13_linear_597_733)" stroke-width="1.42" stroke-miterlimit="10"/>
<path d="M55.4157 36.177L60.2839 22.3072C61.6268 18.4991 59.4259 15.3069 55.3784 15.2323L40.6991 14.9336L29.0041 6.0106C25.7959 3.56517 22.0841 4.68522 20.7598 8.49336L15.9475 22.3819L3.87956 30.7448C0.559463 33.0409 0.466202 36.9237 3.69304 39.3692L15.388 48.2548L19.5847 62.33C20.7412 66.2128 24.397 67.4822 27.7171 65.1861L39.7664 56.7858L54.4457 57.1218C58.4933 57.2152 60.8248 54.1164 59.6497 50.2522L55.397 36.1957L55.4157 36.177Z" stroke="url(#paint14_linear_597_733)" stroke-width="1.42" stroke-miterlimit="10"/>
<path d="M55.4157 35.9153L60.2839 22.0455C61.6268 18.2373 59.4259 15.0452 55.3784 14.9706L40.6991 14.6719L29.0041 5.74888C25.7959 3.30346 22.0841 4.4235 20.7598 8.23164L15.9475 22.1202L3.87956 30.4831C0.559463 32.7792 0.466202 36.662 3.69304 39.1074L15.388 47.9931L19.5847 62.0683C20.7412 65.9511 24.397 67.2205 27.7171 64.9244L39.7664 56.5241L54.4457 56.8601C58.4933 56.9534 60.8248 53.8547 59.6497 49.9905L55.397 35.934L55.4157 35.9153Z" stroke="url(#paint15_linear_597_733)" stroke-width="1.42" stroke-miterlimit="10"/>
<path d="M55.4157 35.6546L60.2839 21.7847C61.6268 17.9766 59.4259 14.7845 55.3784 14.7098L40.6991 14.4111L29.0041 5.48814C25.7959 3.04271 22.0841 4.16275 20.7598 7.9709L15.9475 21.8594L3.87956 30.2224C0.559463 32.5185 0.466202 36.4013 3.69304 38.8467L15.388 47.7324L19.5847 61.8076C20.7412 65.6904 24.397 66.9597 27.7171 64.6637L39.7664 56.2633L54.4457 56.5994C58.4933 56.6927 60.8248 53.5939 59.6497 49.7298L55.397 35.6733L55.4157 35.6546Z" stroke="url(#paint16_linear_597_733)" stroke-width="1.42" stroke-miterlimit="10"/>
<path d="M55.4157 35.3929L60.2839 21.523C61.6268 17.7149 59.4259 14.5228 55.3784 14.4481L40.6991 14.1494L29.0041 5.22642C25.7959 2.78099 22.0841 3.90104 20.7598 7.70918L15.9475 21.5977L3.87956 29.9607C0.559463 32.2567 0.466202 36.1396 3.69304 38.585L15.388 47.4706L19.5847 61.5458C20.7412 65.4286 24.397 66.698 27.7171 64.4019L39.7664 56.0016L54.4457 56.3376C58.4933 56.431 60.8248 53.3322 59.6497 49.4681L55.397 35.4115L55.4157 35.3929Z" stroke="url(#paint17_linear_597_733)" stroke-width="1.42" stroke-miterlimit="10"/>
<path d="M55.4157 35.1321L60.2839 21.2623C61.6268 17.4541 59.4259 14.262 55.3784 14.1873L40.6991 13.8887L29.0041 4.96568C25.7959 2.52025 22.0841 3.64029 20.7598 7.44843L15.9475 21.3369L3.87956 29.6999C0.559463 31.996 0.466202 35.8788 3.69304 38.3242L15.388 47.2099L19.5847 61.2851C20.7412 65.1679 24.397 66.4373 27.7171 64.1412L39.7664 55.7409L54.4457 56.0769C58.4933 56.1702 60.8248 53.0715 59.6497 49.2073L55.397 35.1508L55.4157 35.1321Z" stroke="url(#paint18_linear_597_733)" stroke-width="1.42" stroke-miterlimit="10"/>
<path d="M55.4157 34.8704L60.2839 21.0006C61.6268 17.1924 59.4259 14.0003 55.3784 13.9256L40.6991 13.627L29.0041 4.70396C25.7959 2.25853 22.0841 3.37857 20.7598 7.18672L15.9475 21.0752L3.87956 29.4382C0.559463 31.7343 0.466202 35.6171 3.69304 38.0625L15.388 46.9482L19.5847 61.0234C20.7412 64.9062 24.397 66.1756 27.7171 63.8795L39.7664 55.4792L54.4457 55.8152C58.4933 55.9085 60.8248 52.8097 59.6497 48.9456L55.397 34.8891L55.4157 34.8704Z" stroke="url(#paint19_linear_597_733)" stroke-width="1.42" stroke-miterlimit="10"/>
<path d="M55.4157 34.6087L60.2839 20.7388C61.6268 16.9307 59.4259 13.7386 55.3784 13.6639L40.6991 13.3652L29.0041 4.44224C25.7959 1.99681 22.0841 3.11686 20.7598 6.925L15.9475 20.8135L3.87956 29.1765C0.559463 31.4726 0.466202 35.3554 3.69304 37.8008L15.388 46.6865L19.5847 60.7617C20.7412 64.6445 24.397 65.9138 27.7171 63.6178L39.7664 55.2175L54.4457 55.5535C58.4933 55.6468 60.8248 52.548 59.6497 48.6839L55.397 34.6274L55.4157 34.6087Z" stroke="url(#paint20_linear_597_733)" stroke-width="1.42" stroke-miterlimit="10"/>
<path d="M55.4157 34.3479L60.2839 20.4781C61.6268 16.67 59.4259 13.4778 55.3784 13.4032L40.6991 13.1045L29.0041 4.1815C25.7959 1.73607 22.0841 2.85611 20.7598 6.66425L15.9475 20.5528L3.87956 28.9157C0.559463 31.2118 0.466202 35.0946 3.69304 37.5401L15.388 46.4257L19.5847 60.5009C20.7412 64.3837 24.397 65.6531 27.7171 63.357L39.7664 54.9567L54.4457 55.2927C58.4933 55.3861 60.8248 52.2873 59.6497 48.4231L55.397 34.3666L55.4157 34.3479Z" stroke="url(#paint21_linear_597_733)" stroke-width="1.42" stroke-miterlimit="10"/>
<path d="M55.4157 34.0862L60.2839 20.2164C61.6268 16.4082 59.4259 13.2161 55.3784 13.1415L40.6991 12.8428L29.0041 3.91978C25.7959 1.47435 22.0841 2.5944 20.7598 6.40254L15.9475 20.291L3.87956 28.654C0.559463 30.9501 0.466202 34.8329 3.69304 37.2783L15.388 46.164L19.5847 60.2392C20.7412 64.122 24.397 65.3914 27.7171 63.0953L39.7664 54.695L54.4457 55.031C58.4933 55.1243 60.8248 52.0256 59.6497 48.1614L55.397 34.1049L55.4157 34.0862Z" stroke="url(#paint22_linear_597_733)" stroke-width="1.42" stroke-miterlimit="10"/>
<path d="M55.4157 33.8245L60.2839 19.9547C61.6268 16.1465 59.4259 12.9544 55.3784 12.8797L40.6991 12.5811L29.0041 3.65806C25.7959 1.21263 22.0841 2.33268 20.7598 6.14082L15.9475 20.0293L3.87956 28.3923C0.559463 30.6884 0.466202 34.5712 3.69304 37.0166L15.388 45.9023L19.5847 59.9775C20.7412 63.8603 24.397 65.1297 27.7171 62.8336L39.7664 54.4333L54.4457 54.7693C58.4933 54.8626 60.8248 51.7638 59.6497 47.8997L55.397 33.8432L55.4157 33.8245Z" stroke="url(#paint23_linear_597_733)" stroke-width="1.42" stroke-miterlimit="10"/>
<path d="M55.4157 33.5638L60.2839 19.6939C61.6268 15.8858 59.4259 12.6937 55.3784 12.619L40.6991 12.3203L29.0041 3.39732C25.7959 0.951893 22.0841 2.07193 20.7598 5.88007L15.9475 19.7686L3.87956 28.1316C0.559463 30.4276 0.466202 34.3105 3.69304 36.7559L15.388 45.6415L19.5847 59.7167C20.7412 63.5995 24.397 64.8689 27.7171 62.5728L39.7664 54.1725L54.4457 54.5085C58.4933 54.6019 60.8248 51.5031 59.6497 47.639L55.397 33.5824L55.4157 33.5638Z" stroke="url(#paint24_linear_597_733)" stroke-width="1.42" stroke-miterlimit="10"/>
<path d="M55.4157 33.302L60.2839 19.4322C61.6268 15.6241 59.4259 12.4319 55.3784 12.3573L40.6991 12.0586L29.0041 3.1356C25.7959 0.690174 22.0841 1.81022 20.7598 5.61836L15.9475 19.5069L3.87956 27.8698C0.559463 30.1659 0.466202 34.0487 3.69304 36.4942L15.388 45.3798L19.5847 59.455C20.7412 63.3378 24.397 64.6072 27.7171 62.3111L39.7664 53.9108L54.4457 54.2468C58.4933 54.3402 60.8248 51.2414 59.6497 47.3772L55.397 33.3207L55.4157 33.302Z" stroke="url(#paint25_linear_597_733)" stroke-width="1.42" stroke-miterlimit="10"/>
<path d="M55.4157 33.0413L60.2839 19.1715C61.6268 15.3633 59.4259 12.1712 55.3784 12.0965L40.6991 11.7979L29.0041 2.87486C25.7959 0.429432 22.0841 1.54947 20.7598 5.35761L15.9475 19.2461L3.87956 27.6091C0.559463 29.9052 0.466202 33.788 3.69304 36.2334L15.388 45.1191L19.5847 59.1943C20.7412 63.0771 24.397 64.3465 27.7171 62.0504L39.7664 53.6501L54.4457 53.9861C58.4933 54.0794 60.8248 50.9806 59.6497 47.1165L55.397 33.06L55.4157 33.0413Z" stroke="url(#paint26_linear_597_733)" stroke-width="1.42" stroke-miterlimit="10"/>
<path d="M55.4157 32.7796L60.2839 18.9097C61.6268 15.1016 59.4259 11.9095 55.3784 11.8348L40.6991 11.5361L29.0041 2.61314C25.7959 0.167713 22.0841 1.28775 20.7598 5.0959L15.9475 18.9844L3.87956 27.3474C0.559463 29.6435 0.466202 33.5263 3.69304 35.9717L15.388 44.8574L19.5847 58.9326C20.7412 62.8154 24.397 64.0847 27.7171 61.7887L39.7664 53.3883L54.4457 53.7244C58.4933 53.8177 60.8248 50.7189 59.6497 46.8548L55.397 32.7983L55.4157 32.7796Z" stroke="url(#paint27_linear_597_733)" stroke-width="1.42" stroke-miterlimit="10"/>
<path d="M55.4156 39.3128L60.2838 25.4429C61.6268 21.6348 59.4258 18.4427 55.3783 18.368L40.699 18.0693L29.0227 9.14634C25.8145 6.70092 22.1027 7.82096 20.7784 11.6291L15.9661 25.5176L3.89811 33.8806C0.578018 36.1767 0.484757 40.0595 3.71159 42.5049L15.4065 51.3906L19.6033 65.4658C20.7597 69.3486 24.4156 70.6179 27.7357 68.3219L39.785 59.9216L54.4643 60.2576C58.5118 60.3509 60.8434 57.2521 59.6683 53.388L55.4156 39.3315V39.3128Z" fill="#E26402"/>
<path d="M55.4156 39.052L60.2838 25.1822C61.6268 21.3741 59.4258 18.1819 55.3783 18.1073L40.699 17.8086L29.0227 8.8856C25.8145 6.44017 22.1027 7.56022 20.7784 11.3684L15.9661 25.2569L3.89811 33.6198C0.578018 35.9159 0.484757 39.7987 3.71159 42.2442L15.4065 51.1298L19.6033 65.205C20.7597 69.0878 24.4156 70.3572 27.7357 68.0611L39.785 59.6608L54.4643 59.9968C58.5118 60.0902 60.8434 56.9914 59.6683 53.1272L55.4156 39.0707V39.052Z" fill="#E26402"/>
<path d="M55.4156 38.7903L60.2838 24.9205C61.6268 21.1123 59.4258 17.9202 55.3783 17.8456L40.699 17.5469L29.0227 8.62388C25.8145 6.17846 22.1027 7.2985 20.7784 11.1066L15.9661 24.9952L3.89811 33.3581C0.578018 35.6542 0.484757 39.537 3.71159 41.9824L15.4065 50.8681L19.6033 64.9433C20.7597 68.8261 24.4156 70.0955 27.7357 67.7994L39.785 59.3991L54.4643 59.7351C58.5118 59.8284 60.8434 56.7297 59.6683 52.8655L55.4156 38.809V38.7903Z" fill="#E26402"/>
<path d="M55.4156 38.5296L60.2838 24.6597C61.6268 20.8516 59.4258 17.6595 55.3783 17.5848L40.699 17.2861L29.0227 8.36314C25.8145 5.91771 22.1027 7.03775 20.7784 10.8459L15.9661 24.7344L3.89811 33.0974C0.578018 35.3935 0.484757 39.2763 3.71159 41.7217L15.4065 50.6074L19.6033 64.6826C20.7597 68.5654 24.4156 69.8347 27.7357 67.5387L39.785 59.1383L54.4643 59.4744C58.5118 59.5677 60.8434 56.4689 59.6683 52.6048L55.4156 38.5483V38.5296Z" fill="#E26402"/>
<path d="M55.4156 38.2679L60.2838 24.398C61.6268 20.5899 59.4258 17.3978 55.3783 17.3231L40.699 17.0244L29.0227 8.10142C25.8145 5.65599 22.1027 6.77604 20.7784 10.5842L15.9661 24.4727L3.89811 32.8357C0.578018 35.1318 0.484757 39.0146 3.71159 41.46L15.4065 50.3456L19.6033 64.4208C20.7597 68.3036 24.4156 69.573 27.7357 67.2769L39.785 58.8766L54.4643 59.2126C58.5118 59.306 60.8434 56.2072 59.6683 52.3431L55.4156 38.2865V38.2679Z" fill="#E26402"/>
<path d="M55.4156 38.0062L60.2838 24.1363C61.6268 20.3282 59.4258 17.136 55.3783 17.0614L40.699 16.7627L29.0227 7.8397C25.8145 5.39428 22.1027 6.51432 20.7784 10.3225L15.9661 24.211L3.89811 32.5739C0.578018 34.87 0.484757 38.7528 3.71159 41.1983L15.4065 50.0839L19.6033 64.1591C20.7597 68.0419 24.4156 69.3113 27.7357 67.0152L39.785 58.6149L54.4643 58.9509C58.5118 59.0443 60.8434 55.9455 59.6683 52.0813L55.4156 38.0248V38.0062Z" fill="#E26402"/>
<path d="M55.4156 37.7454L60.2838 23.8756C61.6268 20.0674 59.4258 16.8753 55.3783 16.8006L40.699 16.502L29.0227 7.57896C25.8145 5.13353 22.1027 6.25357 20.7784 10.0617L15.9661 23.9502L3.89811 32.3132C0.578018 34.6093 0.484757 38.4921 3.71159 40.9375L15.4065 49.8232L19.6033 63.8984C20.7597 67.7812 24.4156 69.0506 27.7357 66.7545L39.785 58.3542L54.4643 58.6902C58.5118 58.7835 60.8434 55.6847 59.6683 51.8206L55.4156 37.7641V37.7454Z" fill="#E26402"/>
<path d="M55.4157 37.4837L60.2839 23.6138C61.6268 19.8057 59.4259 16.6136 55.3784 16.5389L40.6991 16.2402L29.0041 7.31724C25.7959 4.87181 22.0841 5.99186 20.7598 9.8L15.9475 23.6885L3.87956 32.0515C0.559463 34.3476 0.466202 38.2304 3.69304 40.6758L15.388 49.5615L19.5847 63.6367C20.7412 67.5195 24.397 68.7888 27.7171 66.4928L39.7664 58.0924L54.4457 58.4285C58.4933 58.5218 60.8248 55.423 59.6497 51.5589L55.397 37.5024L55.4157 37.4837Z" fill="#E26402"/>
<path d="M55.4157 37.222L60.2839 23.3521C61.6268 19.544 59.4259 16.3519 55.3784 16.2772L40.6991 15.9785L29.0041 7.05552C25.7959 4.6101 22.0841 5.73014 20.7598 9.53828L15.9475 23.4268L3.87956 31.7898C0.559463 34.0859 0.466202 37.9687 3.69304 40.4141L15.388 49.2997L19.5847 63.3749C20.7412 67.2577 24.397 68.5271 27.7171 66.231L39.7664 57.8307L54.4457 58.1667C58.4933 58.2601 60.8248 55.1613 59.6497 51.2972L55.397 37.2406L55.4157 37.222Z" fill="#E26402"/>
<path d="M55.4157 36.9612L60.2839 23.0914C61.6268 19.2832 59.4259 16.0911 55.3784 16.0165L40.6991 15.7178L29.0041 6.79478C25.7959 4.34935 22.0841 5.46939 20.7598 9.27754L15.9475 23.166L3.87956 31.529C0.559463 33.8251 0.466202 37.7079 3.69304 40.1533L15.388 49.039L19.5847 63.1142C20.7412 66.997 24.397 68.2664 27.7171 65.9703L39.7664 57.57L54.4457 57.906C58.4933 57.9993 60.8248 54.9006 59.6497 51.0364L55.397 36.9799L55.4157 36.9612Z" fill="#E26402"/>
<path d="M55.4157 36.6995L60.2839 22.8297C61.6268 19.0215 59.4259 15.8294 55.3784 15.7547L40.6991 15.4561L29.0041 6.53306C25.7959 4.08763 22.0841 5.20768 20.7598 9.01582L15.9475 22.9043L3.87956 31.2673C0.559463 33.5634 0.466202 37.4462 3.69304 39.8916L15.388 48.7773L19.5847 62.8525C20.7412 66.7353 24.397 68.0047 27.7171 65.7086L39.7664 57.3083L54.4457 57.6443C58.4933 57.7376 60.8248 54.6388 59.6497 50.7747L55.397 36.7182L55.4157 36.6995Z" fill="#E26402"/>
<path d="M55.4157 36.4388L60.2839 22.5689C61.6268 18.7608 59.4259 15.5687 55.3784 15.494L40.6991 15.1953L29.0041 6.27232C25.7959 3.82689 22.0841 4.94693 20.7598 8.75508L15.9475 22.6436L3.87956 31.0066C0.559463 33.3027 0.466202 37.1855 3.69304 39.6309L15.388 48.5165L19.5847 62.5917C20.7412 66.4745 24.397 67.7439 27.7171 65.4478L39.7664 57.0475L54.4457 57.3835C58.4933 57.4769 60.8248 54.3781 59.6497 50.514L55.397 36.4574L55.4157 36.4388Z" fill="#E26402"/>
<path d="M55.4157 36.177L60.2839 22.3072C61.6268 18.4991 59.4259 15.3069 55.3784 15.2323L40.6991 14.9336L29.0041 6.0106C25.7959 3.56517 22.0841 4.68522 20.7598 8.49336L15.9475 22.3819L3.87956 30.7448C0.559463 33.0409 0.466202 36.9237 3.69304 39.3692L15.388 48.2548L19.5847 62.33C20.7412 66.2128 24.397 67.4822 27.7171 65.1861L39.7664 56.7858L54.4457 57.1218C58.4933 57.2152 60.8248 54.1164 59.6497 50.2522L55.397 36.1957L55.4157 36.177Z" fill="#E26402"/>
<path d="M55.4157 35.9153L60.2839 22.0455C61.6268 18.2373 59.4259 15.0452 55.3784 14.9706L40.6991 14.6719L29.0041 5.74888C25.7959 3.30346 22.0841 4.4235 20.7598 8.23164L15.9475 22.1202L3.87956 30.4831C0.559463 32.7792 0.466202 36.662 3.69304 39.1074L15.388 47.9931L19.5847 62.0683C20.7412 65.9511 24.397 67.2205 27.7171 64.9244L39.7664 56.5241L54.4457 56.8601C58.4933 56.9534 60.8248 53.8547 59.6497 49.9905L55.397 35.934L55.4157 35.9153Z" fill="#E26402"/>
<path d="M55.4157 35.6546L60.2839 21.7847C61.6268 17.9766 59.4259 14.7845 55.3784 14.7098L40.6991 14.4111L29.0041 5.48814C25.7959 3.04271 22.0841 4.16275 20.7598 7.9709L15.9475 21.8594L3.87956 30.2224C0.559463 32.5185 0.466202 36.4013 3.69304 38.8467L15.388 47.7324L19.5847 61.8076C20.7412 65.6904 24.397 66.9597 27.7171 64.6637L39.7664 56.2633L54.4457 56.5994C58.4933 56.6927 60.8248 53.5939 59.6497 49.7298L55.397 35.6733L55.4157 35.6546Z" fill="#E26402"/>
<path d="M55.4157 35.3929L60.2839 21.523C61.6268 17.7149 59.4259 14.5228 55.3784 14.4481L40.6991 14.1494L29.0041 5.22642C25.7959 2.78099 22.0841 3.90104 20.7598 7.70918L15.9475 21.5977L3.87956 29.9607C0.559463 32.2567 0.466202 36.1396 3.69304 38.585L15.388 47.4706L19.5847 61.5458C20.7412 65.4286 24.397 66.698 27.7171 64.4019L39.7664 56.0016L54.4457 56.3376C58.4933 56.431 60.8248 53.3322 59.6497 49.4681L55.397 35.4115L55.4157 35.3929Z" fill="#E26402"/>
<path d="M55.4157 35.1321L60.2839 21.2623C61.6268 17.4541 59.4259 14.262 55.3784 14.1874L40.6991 13.8887L29.0041 4.96568C25.7959 2.52025 22.0841 3.64029 20.7598 7.44843L15.9475 21.3369L3.87956 29.6999C0.559463 31.996 0.466202 35.8788 3.69304 38.3242L15.388 47.2099L19.5847 61.2851C20.7412 65.1679 24.397 66.4373 27.7171 64.1412L39.7664 55.7409L54.4457 56.0769C58.4933 56.1702 60.8248 53.0715 59.6497 49.2073L55.397 35.1508L55.4157 35.1321Z" fill="#E26402"/>
<path d="M55.4157 34.8704L60.2839 21.0006C61.6268 17.1924 59.4259 14.0003 55.3784 13.9256L40.6991 13.627L29.0041 4.70396C25.7959 2.25853 22.0841 3.37857 20.7598 7.18672L15.9475 21.0752L3.87956 29.4382C0.559463 31.7343 0.466202 35.6171 3.69304 38.0625L15.388 46.9482L19.5847 61.0234C20.7412 64.9062 24.397 66.1756 27.7171 63.8795L39.7664 55.4792L54.4457 55.8152C58.4933 55.9085 60.8248 52.8097 59.6497 48.9456L55.397 34.8891L55.4157 34.8704Z" fill="#E26402"/>
<path d="M55.4157 34.6087L60.2839 20.7388C61.6268 16.9307 59.4259 13.7386 55.3784 13.6639L40.6991 13.3652L29.0041 4.44224C25.7959 1.99681 22.0841 3.11686 20.7598 6.925L15.9475 20.8135L3.87956 29.1765C0.559463 31.4726 0.466202 35.3554 3.69304 37.8008L15.388 46.6865L19.5847 60.7617C20.7412 64.6445 24.397 65.9138 27.7171 63.6178L39.7664 55.2174L54.4457 55.5535C58.4933 55.6468 60.8248 52.548 59.6497 48.6839L55.397 34.6274L55.4157 34.6087Z" fill="#E26402"/>
<path d="M55.4157 34.3479L60.2839 20.4781C61.6268 16.67 59.4259 13.4778 55.3784 13.4032L40.6991 13.1045L29.0041 4.1815C25.7959 1.73607 22.0841 2.85611 20.7598 6.66425L15.9475 20.5528L3.87956 28.9157C0.559463 31.2118 0.466202 35.0946 3.69304 37.5401L15.388 46.4257L19.5847 60.5009C20.7412 64.3837 24.397 65.6531 27.7171 63.357L39.7664 54.9567L54.4457 55.2927C58.4933 55.3861 60.8248 52.2873 59.6497 48.4231L55.397 34.3666L55.4157 34.3479Z" fill="#E26402"/>
<path d="M55.4157 34.0862L60.2839 20.2164C61.6268 16.4082 59.4259 13.2161 55.3784 13.1415L40.6991 12.8428L29.0041 3.91978C25.7959 1.47435 22.0841 2.5944 20.7598 6.40254L15.9475 20.291L3.87956 28.654C0.559463 30.9501 0.466202 34.8329 3.69304 37.2783L15.388 46.164L19.5847 60.2392C20.7412 64.122 24.397 65.3914 27.7171 63.0953L39.7664 54.695L54.4457 55.031C58.4933 55.1243 60.8248 52.0256 59.6497 48.1614L55.397 34.1049L55.4157 34.0862Z" fill="#E26402"/>
<path d="M55.4157 33.8245L60.2839 19.9547C61.6268 16.1465 59.4259 12.9544 55.3784 12.8797L40.6991 12.5811L29.0041 3.65806C25.7959 1.21263 22.0841 2.33268 20.7598 6.14082L15.9475 20.0293L3.87956 28.3923C0.559463 30.6884 0.466202 34.5712 3.69304 37.0166L15.388 45.9023L19.5847 59.9775C20.7412 63.8603 24.397 65.1297 27.7171 62.8336L39.7664 54.4333L54.4457 54.7693C58.4933 54.8626 60.8248 51.7638 59.6497 47.8997L55.397 33.8432L55.4157 33.8245Z" fill="#E26402"/>
<path d="M55.4157 33.5638L60.2839 19.6939C61.6268 15.8858 59.4259 12.6937 55.3784 12.619L40.6991 12.3203L29.0041 3.39732C25.7959 0.951893 22.0841 2.07193 20.7598 5.88007L15.9475 19.7686L3.87956 28.1316C0.559463 30.4276 0.466202 34.3105 3.69304 36.7559L15.388 45.6415L19.5847 59.7167C20.7412 63.5995 24.397 64.8689 27.7171 62.5728L39.7664 54.1725L54.4457 54.5085C58.4933 54.6019 60.8248 51.5031 59.6497 47.639L55.397 33.5824L55.4157 33.5638Z" fill="#E26402"/>
<path d="M55.4157 33.302L60.2839 19.4322C61.6268 15.6241 59.4259 12.4319 55.3784 12.3573L40.6991 12.0586L29.0041 3.1356C25.7959 0.690174 22.0841 1.81022 20.7598 5.61836L15.9475 19.5069L3.87956 27.8698C0.559463 30.1659 0.466202 34.0487 3.69304 36.4942L15.388 45.3798L19.5847 59.455C20.7412 63.3378 24.397 64.6072 27.7171 62.3111L39.7664 53.9108L54.4457 54.2468C58.4933 54.3402 60.8248 51.2414 59.6497 47.3772L55.397 33.3207L55.4157 33.302Z" fill="#E26402"/>
<path d="M55.4157 33.0413L60.2839 19.1715C61.6268 15.3633 59.4259 12.1712 55.3784 12.0965L40.6991 11.7979L29.0041 2.87486C25.7959 0.429432 22.0841 1.54947 20.7598 5.35761L15.9475 19.2461L3.87956 27.6091C0.559463 29.9052 0.466202 33.788 3.69304 36.2334L15.388 45.1191L19.5847 59.1943C20.7412 63.0771 24.397 64.3465 27.7171 62.0504L39.7664 53.6501L54.4457 53.9861C58.4933 54.0794 60.8248 50.9806 59.6497 47.1165L55.397 33.06L55.4157 33.0413Z" fill="#E26402"/>
<path d="M55.4157 32.7796L60.2839 18.9097C61.6268 15.1016 59.4259 11.9095 55.3784 11.8348L40.6991 11.5361L29.0041 2.61314C25.7959 0.167713 22.0841 1.28775 20.7598 5.0959L15.9475 18.9844L3.87956 27.3474C0.559463 29.6435 0.466202 33.5263 3.69304 35.9717L15.388 44.8574L19.5847 58.9326C20.7412 62.8154 24.397 64.0847 27.7171 61.7887L39.7664 53.3883L54.4457 53.7244C58.4933 53.8177 60.8248 50.7189 59.6497 46.8548L55.397 32.7983L55.4157 32.7796Z" fill="#E26402"/>
<path d="M55.4157 33.4886L60.2839 19.6187C61.6268 15.8106 59.4259 12.6185 55.3784 12.5438L40.6991 12.2451L29.0041 3.32212C25.7959 0.876697 22.0841 1.99674 20.7598 5.80488L15.9475 19.6934L3.87956 28.0564C0.559463 30.3525 0.466202 34.2353 3.69304 36.6807L15.388 45.5663L19.5847 59.6415C20.7412 63.5243 24.397 64.7937 27.7171 62.4976L39.7664 54.0973L54.4457 54.4333C58.4933 54.5267 60.8248 51.4279 59.6497 47.5638L55.397 33.5072L55.4157 33.4886Z" fill="#ECDC17"/>
<path d="M55.4157 32.7796L60.2839 18.9097C61.6268 15.1016 59.4259 11.9095 55.3784 11.8348L40.6991 11.5361L29.0041 2.61314C25.7959 0.167713 22.0841 1.28775 20.7598 5.0959L15.9475 18.9844L3.87956 27.3474C0.559463 29.6435 0.466202 33.5263 3.69304 35.9717L15.388 44.8574L19.5847 58.9326C20.7412 62.8154 24.397 64.0847 27.7171 61.7887L39.7664 53.3883L54.4457 53.7244C58.4933 53.8177 60.8248 50.7189 59.6497 46.8548L55.397 32.7983L55.4157 32.7796Z" fill="#ECDC17"/>
<path d="M55.4157 32.7796L60.2839 18.9097C61.6268 15.1016 59.4259 11.9095 55.3784 11.8348L40.6991 11.5361L29.0041 2.61314C25.7959 0.167713 22.0841 1.28775 20.7598 5.0959L15.9475 18.9844L3.87956 27.3474C0.559463 29.6435 0.466202 33.5263 3.69304 35.9717L15.388 44.8574L19.5847 58.9326C20.7412 62.8154 24.397 64.0847 27.7171 61.7887L39.7664 53.3883L54.4457 53.7244C58.4933 53.8177 60.8248 50.7189 59.6497 46.8548L55.397 32.7983L55.4157 32.7796Z" fill="url(#paint28_linear_597_733)"/>
<path style="mix-blend-mode:overlay" d="M55.4157 32.7796L60.2839 18.9097C61.6268 15.1016 59.4259 11.9095 55.3784 11.8348L40.6991 11.5361L29.0041 2.61314C25.7959 0.167713 22.0841 1.28775 20.7598 5.0959L15.9475 18.9844L3.87956 27.3474C0.559463 29.6435 0.466202 33.5263 3.69304 35.9717L15.388 44.8574L19.5847 58.9326C20.7412 62.8154 24.397 64.0847 27.7171 61.7887L39.7664 53.3883L54.4457 53.7244C58.4933 53.8177 60.8248 50.7189 59.6497 46.8548L55.397 32.7983L55.4157 32.7796Z" fill="url(#paint29_linear_597_733)"/>
</g>
<defs>
<linearGradient id="paint0_linear_597_733" x1="23.7933" y1="7.30986" x2="41.5857" y2="66.3799" gradientUnits="userSpaceOnUse">
<stop stop-color="#60290E"/>
<stop offset="1" stop-color="#451E0A"/>
</linearGradient>
<linearGradient id="paint1_linear_597_733" x1="23.7894" y1="7.03771" x2="41.5873" y2="66.1256" gradientUnits="userSpaceOnUse">
<stop stop-color="#60290E"/>
<stop offset="1" stop-color="#451E0A"/>
</linearGradient>
<linearGradient id="paint2_linear_597_733" x1="23.791" y1="6.78344" x2="41.5889" y2="65.8713" gradientUnits="userSpaceOnUse">
<stop stop-color="#60290E"/>
<stop offset="1" stop-color="#451E0A"/>
</linearGradient>
<linearGradient id="paint3_linear_597_733" x1="23.7926" y1="6.53014" x2="41.585" y2="65.6001" gradientUnits="userSpaceOnUse">
<stop stop-color="#60290E"/>
<stop offset="1" stop-color="#451E0A"/>
</linearGradient>
<linearGradient id="paint4_linear_597_733" x1="23.7887" y1="6.25799" x2="41.5866" y2="65.3459" gradientUnits="userSpaceOnUse">
<stop stop-color="#60290E"/>
<stop offset="1" stop-color="#451E0A"/>
</linearGradient>
<linearGradient id="paint5_linear_597_733" x1="23.7903" y1="6.00469" x2="41.5828" y2="65.0747" gradientUnits="userSpaceOnUse">
<stop stop-color="#60290E"/>
<stop offset="1" stop-color="#451E0A"/>
</linearGradient>
<linearGradient id="paint6_linear_597_733" x1="23.7919" y1="5.75041" x2="41.5843" y2="64.8204" gradientUnits="userSpaceOnUse">
<stop stop-color="#60290E"/>
<stop offset="1" stop-color="#451E0A"/>
</linearGradient>
<linearGradient id="paint7_linear_597_733" x1="23.7881" y1="5.47826" x2="41.5859" y2="64.5661" gradientUnits="userSpaceOnUse">
<stop stop-color="#60290E"/>
<stop offset="1" stop-color="#451E0A"/>
</linearGradient>
<linearGradient id="paint8_linear_597_733" x1="23.7896" y1="5.22497" x2="41.5821" y2="64.295" gradientUnits="userSpaceOnUse">
<stop stop-color="#60290E"/>
<stop offset="1" stop-color="#451E0A"/>
</linearGradient>
<linearGradient id="paint9_linear_597_733" x1="23.7859" y1="4.95282" x2="41.5838" y2="64.0407" gradientUnits="userSpaceOnUse">
<stop stop-color="#60290E"/>
<stop offset="1" stop-color="#451E0A"/>
</linearGradient>
<linearGradient id="paint10_linear_597_733" x1="23.7875" y1="4.69854" x2="41.5799" y2="63.7685" gradientUnits="userSpaceOnUse">
<stop stop-color="#60290E"/>
<stop offset="1" stop-color="#451E0A"/>
</linearGradient>
<linearGradient id="paint11_linear_597_733" x1="23.789" y1="4.44525" x2="41.5815" y2="63.5152" gradientUnits="userSpaceOnUse">
<stop stop-color="#60290E"/>
<stop offset="1" stop-color="#451E0A"/>
</linearGradient>
<linearGradient id="paint12_linear_597_733" x1="23.7852" y1="4.1731" x2="41.5831" y2="63.261" gradientUnits="userSpaceOnUse">
<stop stop-color="#60290E"/>
<stop offset="1" stop-color="#451E0A"/>
</linearGradient>
<linearGradient id="paint13_linear_597_733" x1="23.7868" y1="3.9198" x2="41.5792" y2="62.9898" gradientUnits="userSpaceOnUse">
<stop stop-color="#60290E"/>
<stop offset="1" stop-color="#451E0A"/>
</linearGradient>
<linearGradient id="paint14_linear_597_733" x1="23.7883" y1="3.66552" x2="41.5808" y2="62.7355" gradientUnits="userSpaceOnUse">
<stop stop-color="#60290E"/>
<stop offset="1" stop-color="#451E0A"/>
</linearGradient>
<linearGradient id="paint15_linear_597_733" x1="23.7845" y1="3.39337" x2="41.5824" y2="62.4812" gradientUnits="userSpaceOnUse">
<stop stop-color="#60290E"/>
<stop offset="1" stop-color="#451E0A"/>
</linearGradient>
<linearGradient id="paint16_linear_597_733" x1="23.7861" y1="3.14008" x2="41.5786" y2="62.2101" gradientUnits="userSpaceOnUse">
<stop stop-color="#60290E"/>
<stop offset="1" stop-color="#451E0A"/>
</linearGradient>
<linearGradient id="paint17_linear_597_733" x1="23.7823" y1="2.86793" x2="41.5801" y2="61.9558" gradientUnits="userSpaceOnUse">
<stop stop-color="#60290E"/>
<stop offset="1" stop-color="#451E0A"/>
</linearGradient>
<linearGradient id="paint18_linear_597_733" x1="23.7838" y1="2.61463" x2="41.5763" y2="61.6846" gradientUnits="userSpaceOnUse">
<stop stop-color="#60290E"/>
<stop offset="1" stop-color="#451E0A"/>
</linearGradient>
<linearGradient id="paint19_linear_597_733" x1="23.7854" y1="2.36035" x2="41.5779" y2="61.4303" gradientUnits="userSpaceOnUse">
<stop stop-color="#60290E"/>
<stop offset="1" stop-color="#451E0A"/>
</linearGradient>
<linearGradient id="paint20_linear_597_733" x1="23.7816" y1="2.0882" x2="41.5794" y2="61.1761" gradientUnits="userSpaceOnUse">
<stop stop-color="#60290E"/>
<stop offset="1" stop-color="#451E0A"/>
</linearGradient>
<linearGradient id="paint21_linear_597_733" x1="23.7831" y1="1.83491" x2="41.5756" y2="60.9049" gradientUnits="userSpaceOnUse">
<stop stop-color="#60290E"/>
<stop offset="1" stop-color="#451E0A"/>
</linearGradient>
<linearGradient id="paint22_linear_597_733" x1="23.7847" y1="1.58063" x2="41.5772" y2="60.6506" gradientUnits="userSpaceOnUse">
<stop stop-color="#60290E"/>
<stop offset="1" stop-color="#451E0A"/>
</linearGradient>
<linearGradient id="paint23_linear_597_733" x1="23.7809" y1="1.30848" x2="41.5787" y2="60.3963" gradientUnits="userSpaceOnUse">
<stop stop-color="#60290E"/>
<stop offset="1" stop-color="#451E0A"/>
</linearGradient>
<linearGradient id="paint24_linear_597_733" x1="23.7825" y1="1.05518" x2="41.5749" y2="60.1252" gradientUnits="userSpaceOnUse">
<stop stop-color="#60290E"/>
<stop offset="1" stop-color="#451E0A"/>
</linearGradient>
<linearGradient id="paint25_linear_597_733" x1="23.7786" y1="0.783034" x2="41.5765" y2="59.8709" gradientUnits="userSpaceOnUse">
<stop stop-color="#60290E"/>
<stop offset="1" stop-color="#451E0A"/>
</linearGradient>
<linearGradient id="paint26_linear_597_733" x1="23.7802" y1="0.529736" x2="41.5727" y2="59.5997" gradientUnits="userSpaceOnUse">
<stop stop-color="#60290E"/>
<stop offset="1" stop-color="#451E0A"/>
</linearGradient>
<linearGradient id="paint27_linear_597_733" x1="23.7996" y1="0.270082" x2="41.5921" y2="59.3401" gradientUnits="userSpaceOnUse">
<stop stop-color="#60290E"/>
<stop offset="1" stop-color="#451E0A"/>
</linearGradient>
<linearGradient id="paint28_linear_597_733" x1="20.1335" y1="-11.9209" x2="45.183" y2="71.2418" gradientUnits="userSpaceOnUse">
<stop stop-color="#ECE117"/>
<stop offset="1" stop-color="#ECB017"/>
</linearGradient>
<linearGradient id="paint29_linear_597_733" x1="12.6785" y1="73.7319" x2="55.135" y2="-5.21947" gradientUnits="userSpaceOnUse">
<stop offset="0.27" stop-color="white" stop-opacity="0.5"/>
<stop offset="0.52" stop-color="white" stop-opacity="0"/>
<stop offset="0.65" stop-color="white" stop-opacity="0.3"/>
<stop offset="0.86" stop-color="white" stop-opacity="0"/>
</linearGradient>
<clipPath id="clip0_597_733">
<rect width="62" height="72" fill="white"/>
</clipPath>
</defs>
</svg>
