<svg width="28" height="28" viewBox="0 0 28 28" fill="none" xmlns="http://www.w3.org/2000/svg">
<rect width="28" height="28" rx="8" fill="black"/>
<path d="M17.9732 14.4604C17.9732 14.6325 17.9579 14.8034 17.9314 14.9724C17.9408 14.9187 17.9505 14.8633 17.9582 14.8093C17.901 15.1399 17.7921 15.4613 17.632 15.7686C17.6568 15.7194 17.6836 15.6702 17.7084 15.621C17.5462 15.9285 17.3365 16.2159 17.0846 16.4804C17.1247 16.4388 17.1648 16.3975 17.205 16.3559C16.9569 16.6111 16.6725 16.8417 16.354 17.0416C16.4056 17.0092 16.4569 16.9769 16.5086 16.9446C16.1802 17.1476 15.8237 17.3165 15.442 17.4473C15.503 17.4273 15.5641 17.4056 15.6252 17.3857C15.2435 17.5147 14.8429 17.6024 14.4347 17.6486C14.5014 17.641 14.5701 17.6331 14.6371 17.6269C14.2153 17.6716 13.7879 17.6716 13.3643 17.6269C13.431 17.6345 13.4997 17.6424 13.5667 17.6486C13.1564 17.6024 12.7576 17.5147 12.3762 17.3857C12.4373 17.4056 12.4984 17.4273 12.5594 17.4473C12.1777 17.3165 11.8211 17.1476 11.4928 16.9446C11.5445 16.9769 11.5958 17.0092 11.6474 17.0416C11.3306 16.8417 11.0445 16.6125 10.7964 16.3559C10.8366 16.3975 10.8767 16.4388 10.9168 16.4804C10.6649 16.2159 10.4552 15.9285 10.293 15.621C10.3178 15.6702 10.3446 15.7194 10.3694 15.7686C10.2092 15.461 10.1004 15.1382 10.0432 14.8093C10.0526 14.863 10.0624 14.9184 10.07 14.9724C10.0414 14.8017 10.0282 14.6311 10.0282 14.4604C10.0264 14.1391 9.67718 13.8301 9.26479 13.8453C8.851 13.8607 8.49826 14.116 8.50001 14.4604C8.50384 15.3536 8.84332 16.2608 9.49227 16.9882C9.66602 17.1835 9.85477 17.3742 10.0627 17.5479C10.2689 17.72 10.4957 17.8693 10.7326 18.0152C11.1694 18.2842 11.6561 18.4855 12.1732 18.6379C13.2167 18.9486 14.4075 18.9716 15.4758 18.7301C16.5194 18.4934 17.4984 17.9966 18.1909 17.3219C18.3818 17.1358 18.5629 16.942 18.7174 16.7346C18.8737 16.5254 18.9979 16.3041 19.1145 16.0781C19.328 15.6614 19.4389 15.22 19.4846 14.7728C19.4962 14.6699 19.5 14.5653 19.5 14.4607C19.5017 14.1393 19.149 13.8304 18.7366 13.8455C18.3207 13.861 17.9732 14.116 17.9732 14.4607V14.4604Z" fill="white"/>
<path d="M13.9989 15.6041C13.8751 15.6041 13.7509 15.5947 13.6287 15.5795C13.6804 15.5871 13.7299 15.5927 13.7816 15.6003C13.5506 15.5681 13.3273 15.5074 13.1117 15.4184C13.1574 15.4375 13.2031 15.4562 13.2491 15.4752C13.0907 15.409 12.9362 15.3273 12.7931 15.2327C12.7589 15.2098 12.7244 15.1853 12.6902 15.1607C12.6099 15.1038 12.7226 15.1946 12.7359 15.1967C12.7244 15.195 12.6979 15.1662 12.6863 15.1568C12.6176 15.1018 12.5527 15.0432 12.4916 14.9805C12.4323 14.9216 12.3751 14.861 12.3217 14.7969C12.3085 14.7817 12.2949 14.7647 12.2816 14.7477C12.2397 14.6964 12.3695 14.8651 12.3179 14.7931C12.2931 14.7591 12.2683 14.7248 12.2453 14.6909C12.1462 14.545 12.0621 14.3895 11.9934 14.2287C12.0126 14.2741 12.0314 14.3195 12.0506 14.3652C11.961 14.1511 11.8999 13.9294 11.8675 13.7001C11.8751 13.7513 11.8807 13.8005 11.8884 13.8518C11.8504 13.5733 11.8636 13.2871 11.8636 13.0048V9.35944C11.8636 9.03726 11.8465 8.70571 11.8884 8.38561C11.8807 8.43688 11.8751 8.48607 11.8675 8.53735C11.8999 8.308 11.961 8.08628 12.0506 7.87253C12.0314 7.91792 12.0126 7.9633 11.9934 8.00903C12.06 7.85175 12.1424 7.69827 12.2376 7.55623C12.2607 7.52228 12.2854 7.48799 12.3102 7.45404C12.3674 7.37435 12.276 7.48625 12.2739 7.49942C12.2757 7.48799 12.3046 7.46166 12.3141 7.45022C12.3695 7.38198 12.4285 7.31754 12.4916 7.25691C12.551 7.19802 12.612 7.1412 12.6766 7.0882C12.6919 7.07503 12.709 7.06152 12.7261 7.04836C12.7777 7.00678 12.6078 7.13566 12.6804 7.08439C12.7146 7.05979 12.7491 7.03519 12.7833 7.01233C12.9302 6.91394 13.0869 6.83045 13.2488 6.7622L13.1113 6.81901C13.3269 6.72998 13.5502 6.66935 13.7812 6.63713C13.7296 6.64476 13.68 6.6503 13.6284 6.65792C13.8744 6.6257 14.1224 6.6257 14.3688 6.65792C14.3171 6.6503 14.2676 6.64476 14.2159 6.63713C14.4469 6.66935 14.6702 6.72998 14.8858 6.81901L14.7484 6.7622C14.9068 6.82837 15.0613 6.91013 15.2044 7.00471C15.2386 7.02757 15.2731 7.05217 15.3073 7.07676C15.3876 7.13358 15.2749 7.04281 15.2616 7.04073C15.2731 7.04247 15.2997 7.07122 15.3112 7.08058C15.3799 7.13566 15.4448 7.19421 15.5059 7.25691C15.5652 7.31581 15.6224 7.37643 15.6758 7.44052C15.689 7.45577 15.7026 7.47274 15.7159 7.48972C15.7578 7.54099 15.628 7.37228 15.6796 7.44433C15.7044 7.47829 15.7292 7.51258 15.7522 7.54653C15.8513 7.69238 15.9354 7.84793 16.0041 8.00868C15.9849 7.9633 15.9661 7.91792 15.9469 7.87219C16.0365 8.08628 16.0976 8.308 16.1301 8.537C16.1224 8.48573 16.1168 8.43653 16.1091 8.38526C16.1471 8.6638 16.1339 8.94995 16.1339 9.23195V12.878C16.1339 13.2002 16.151 13.5317 16.1091 13.8518C16.1168 13.8005 16.1224 13.7513 16.1301 13.7001C16.0976 13.9294 16.0365 14.1511 15.9469 14.3652C15.9661 14.3199 15.9849 14.2745 16.0041 14.2287C15.9375 14.386 15.8551 14.5395 15.7599 14.6815C15.7368 14.7155 15.7121 14.7498 15.6873 14.7837C15.6301 14.8634 15.7215 14.7515 15.7236 14.7383C15.7218 14.7498 15.6929 14.7761 15.6834 14.7875C15.628 14.8558 15.569 14.9202 15.5059 14.9809C15.4465 15.0397 15.3855 15.0966 15.3209 15.1496C15.3056 15.1627 15.2885 15.1762 15.2714 15.1894C15.2198 15.231 15.3897 15.1021 15.3171 15.1534C15.2829 15.178 15.2484 15.2026 15.2142 15.2254C15.0673 15.3238 14.9106 15.4073 14.7487 15.4756C14.7944 15.4565 14.8401 15.4378 14.8862 15.4188C14.6706 15.5078 14.4473 15.5684 14.2163 15.6006C14.2679 15.593 14.3175 15.5875 14.3691 15.5798C14.247 15.5951 14.1231 15.6041 13.9989 15.6041C13.6992 15.6058 13.4131 15.8639 13.4264 16.1729C13.4396 16.4799 13.6783 16.7432 13.9989 16.7414C14.8059 16.7376 15.5711 16.4383 16.1779 15.9117C16.7351 15.4305 17.1262 14.7276 17.2329 14.0022C17.2731 13.7274 17.2787 13.4603 17.2787 13.1856V10.3589C17.2787 9.82263 17.2804 9.28842 17.2787 8.75214C17.2748 7.9678 16.9866 7.23439 16.4849 6.63402C16.0174 6.07694 15.3192 5.67161 14.5977 5.55036C13.8095 5.41767 12.9969 5.54482 12.3081 5.9595C11.6309 6.36865 11.1232 7.00921 10.8734 7.75544C10.6599 8.39392 10.715 9.09858 10.715 9.76166L10.715 13.4409C10.715 14.0264 10.8619 14.606 11.1595 15.1139C11.5566 15.7884 12.186 16.2904 12.9225 16.5558C13.262 16.6787 13.6343 16.7376 13.9968 16.7376C14.2965 16.7376 14.5826 16.4761 14.5694 16.1691C14.5579 15.866 14.3196 15.6041 13.9989 15.6041Z" fill="white"/>
<path d="M13.2351 18.6117V21.7414C13.2351 22.1374 13.5861 22.5181 13.9985 22.4994C14.4127 22.4804 14.7619 22.1661 14.7619 21.7414V18.6117C14.7619 18.2157 14.4109 17.835 13.9985 17.8537C13.5844 17.8707 13.2351 18.1852 13.2351 18.6117Z" fill="white"/>
<path d="M20 6L7 21" stroke="white" stroke-width="1.2" stroke-linecap="round"/>
</svg>
